%TF.GenerationSoftware,KiCad,Pcbnew,9.0.1*%
%TF.CreationDate,2025-04-09T16:40:48+02:00*%
%TF.ProjectId,camera_base,63616d65-7261-45f6-9261-73652e6b6963,rev?*%
%TF.SameCoordinates,Original*%
%TF.FileFunction,Drillmap*%
%TF.FilePolarity,Positive*%
%FSLAX45Y45*%
G04 Gerber Fmt 4.5, Leading zero omitted, Abs format (unit mm)*
G04 Created by KiCad (PCBNEW 9.0.1) date 2025-04-09 16:40:48*
%MOMM*%
%LPD*%
G01*
G04 APERTURE LIST*
%ADD10C,0.050000*%
%ADD11C,0.200000*%
%ADD12C,0.270000*%
%ADD13C,0.275000*%
G04 APERTURE END LIST*
D10*
X13300000Y-9300000D02*
G75*
G02*
X13600000Y-9600000I0J-300000D01*
G01*
X13600000Y-9600000D02*
X13600000Y-17000000D01*
X13600000Y-17000000D02*
G75*
G02*
X13300000Y-17300000I-300000J0D01*
G01*
X13300000Y-9300000D02*
X5900000Y-9300000D01*
X5600000Y-17000000D02*
X5600000Y-9600000D01*
X5900000Y-17300000D02*
X13300000Y-17300000D01*
X5900000Y-17300000D02*
G75*
G02*
X5600000Y-17000000I0J300000D01*
G01*
X5600000Y-9600000D02*
G75*
G02*
X5900000Y-9300000I300000J0D01*
G01*
D11*
D12*
X5855000Y-9555000D02*
X6125000Y-9825000D01*
X6125000Y-9555000D02*
X5855000Y-9825000D01*
X13075000Y-9565000D02*
X13345000Y-9835000D01*
X13345000Y-9565000D02*
X13075000Y-9835000D01*
X13075000Y-14475000D02*
X13345000Y-14745000D01*
X13345000Y-14475000D02*
X13075000Y-14745000D01*
X13075000Y-16775000D02*
X13345000Y-17045000D01*
X13345000Y-16775000D02*
X13075000Y-17045000D01*
D13*
X6127500Y-14610000D02*
G75*
G02*
X5852500Y-14610000I-137500J0D01*
G01*
X5852500Y-14610000D02*
G75*
G02*
X6127500Y-14610000I137500J0D01*
G01*
X6127500Y-16910000D02*
G75*
G02*
X5852500Y-16910000I-137500J0D01*
G01*
X5852500Y-16910000D02*
G75*
G02*
X6127500Y-16910000I137500J0D01*
G01*
X11927500Y-14610000D02*
G75*
G02*
X11652500Y-14610000I-137500J0D01*
G01*
X11652500Y-14610000D02*
G75*
G02*
X11927500Y-14610000I137500J0D01*
G01*
X11927500Y-16910000D02*
G75*
G02*
X11652500Y-16910000I-137500J0D01*
G01*
X11652500Y-16910000D02*
G75*
G02*
X11927500Y-16910000I137500J0D01*
G01*
D11*
X5858277Y-17613984D02*
X5858277Y-17413984D01*
X5858277Y-17413984D02*
X5905896Y-17413984D01*
X5905896Y-17413984D02*
X5934467Y-17423508D01*
X5934467Y-17423508D02*
X5953515Y-17442555D01*
X5953515Y-17442555D02*
X5963039Y-17461603D01*
X5963039Y-17461603D02*
X5972562Y-17499698D01*
X5972562Y-17499698D02*
X5972562Y-17528270D01*
X5972562Y-17528270D02*
X5963039Y-17566365D01*
X5963039Y-17566365D02*
X5953515Y-17585412D01*
X5953515Y-17585412D02*
X5934467Y-17604460D01*
X5934467Y-17604460D02*
X5905896Y-17613984D01*
X5905896Y-17613984D02*
X5858277Y-17613984D01*
X6058277Y-17613984D02*
X6058277Y-17480650D01*
X6058277Y-17518746D02*
X6067801Y-17499698D01*
X6067801Y-17499698D02*
X6077324Y-17490174D01*
X6077324Y-17490174D02*
X6096372Y-17480650D01*
X6096372Y-17480650D02*
X6115420Y-17480650D01*
X6182086Y-17613984D02*
X6182086Y-17480650D01*
X6182086Y-17413984D02*
X6172562Y-17423508D01*
X6172562Y-17423508D02*
X6182086Y-17433031D01*
X6182086Y-17433031D02*
X6191610Y-17423508D01*
X6191610Y-17423508D02*
X6182086Y-17413984D01*
X6182086Y-17413984D02*
X6182086Y-17433031D01*
X6305896Y-17613984D02*
X6286848Y-17604460D01*
X6286848Y-17604460D02*
X6277324Y-17585412D01*
X6277324Y-17585412D02*
X6277324Y-17413984D01*
X6410658Y-17613984D02*
X6391610Y-17604460D01*
X6391610Y-17604460D02*
X6382086Y-17585412D01*
X6382086Y-17585412D02*
X6382086Y-17413984D01*
X6639229Y-17613984D02*
X6639229Y-17413984D01*
X6639229Y-17413984D02*
X6705896Y-17556841D01*
X6705896Y-17556841D02*
X6772562Y-17413984D01*
X6772562Y-17413984D02*
X6772562Y-17613984D01*
X6953515Y-17613984D02*
X6953515Y-17509222D01*
X6953515Y-17509222D02*
X6943991Y-17490174D01*
X6943991Y-17490174D02*
X6924943Y-17480650D01*
X6924943Y-17480650D02*
X6886848Y-17480650D01*
X6886848Y-17480650D02*
X6867801Y-17490174D01*
X6953515Y-17604460D02*
X6934467Y-17613984D01*
X6934467Y-17613984D02*
X6886848Y-17613984D01*
X6886848Y-17613984D02*
X6867801Y-17604460D01*
X6867801Y-17604460D02*
X6858277Y-17585412D01*
X6858277Y-17585412D02*
X6858277Y-17566365D01*
X6858277Y-17566365D02*
X6867801Y-17547317D01*
X6867801Y-17547317D02*
X6886848Y-17537793D01*
X6886848Y-17537793D02*
X6934467Y-17537793D01*
X6934467Y-17537793D02*
X6953515Y-17528270D01*
X7048753Y-17480650D02*
X7048753Y-17680650D01*
X7048753Y-17490174D02*
X7067801Y-17480650D01*
X7067801Y-17480650D02*
X7105896Y-17480650D01*
X7105896Y-17480650D02*
X7124943Y-17490174D01*
X7124943Y-17490174D02*
X7134467Y-17499698D01*
X7134467Y-17499698D02*
X7143991Y-17518746D01*
X7143991Y-17518746D02*
X7143991Y-17575889D01*
X7143991Y-17575889D02*
X7134467Y-17594936D01*
X7134467Y-17594936D02*
X7124943Y-17604460D01*
X7124943Y-17604460D02*
X7105896Y-17613984D01*
X7105896Y-17613984D02*
X7067801Y-17613984D01*
X7067801Y-17613984D02*
X7048753Y-17604460D01*
X7229705Y-17594936D02*
X7239229Y-17604460D01*
X7239229Y-17604460D02*
X7229705Y-17613984D01*
X7229705Y-17613984D02*
X7220182Y-17604460D01*
X7220182Y-17604460D02*
X7229705Y-17594936D01*
X7229705Y-17594936D02*
X7229705Y-17613984D01*
X7229705Y-17490174D02*
X7239229Y-17499698D01*
X7239229Y-17499698D02*
X7229705Y-17509222D01*
X7229705Y-17509222D02*
X7220182Y-17499698D01*
X7220182Y-17499698D02*
X7229705Y-17490174D01*
X7229705Y-17490174D02*
X7229705Y-17509222D01*
X5397500Y-17842500D02*
X5597500Y-18042500D01*
X5597500Y-17842500D02*
X5397500Y-18042500D01*
X5848753Y-17853031D02*
X5858277Y-17843508D01*
X5858277Y-17843508D02*
X5877324Y-17833984D01*
X5877324Y-17833984D02*
X5924943Y-17833984D01*
X5924943Y-17833984D02*
X5943991Y-17843508D01*
X5943991Y-17843508D02*
X5953515Y-17853031D01*
X5953515Y-17853031D02*
X5963039Y-17872079D01*
X5963039Y-17872079D02*
X5963039Y-17891127D01*
X5963039Y-17891127D02*
X5953515Y-17919698D01*
X5953515Y-17919698D02*
X5839229Y-18033984D01*
X5839229Y-18033984D02*
X5963039Y-18033984D01*
X6048753Y-18014936D02*
X6058277Y-18024460D01*
X6058277Y-18024460D02*
X6048753Y-18033984D01*
X6048753Y-18033984D02*
X6039229Y-18024460D01*
X6039229Y-18024460D02*
X6048753Y-18014936D01*
X6048753Y-18014936D02*
X6048753Y-18033984D01*
X6124943Y-17833984D02*
X6258277Y-17833984D01*
X6258277Y-17833984D02*
X6172562Y-18033984D01*
X6372562Y-17833984D02*
X6391610Y-17833984D01*
X6391610Y-17833984D02*
X6410658Y-17843508D01*
X6410658Y-17843508D02*
X6420182Y-17853031D01*
X6420182Y-17853031D02*
X6429705Y-17872079D01*
X6429705Y-17872079D02*
X6439229Y-17910174D01*
X6439229Y-17910174D02*
X6439229Y-17957793D01*
X6439229Y-17957793D02*
X6429705Y-17995889D01*
X6429705Y-17995889D02*
X6420182Y-18014936D01*
X6420182Y-18014936D02*
X6410658Y-18024460D01*
X6410658Y-18024460D02*
X6391610Y-18033984D01*
X6391610Y-18033984D02*
X6372562Y-18033984D01*
X6372562Y-18033984D02*
X6353515Y-18024460D01*
X6353515Y-18024460D02*
X6343991Y-18014936D01*
X6343991Y-18014936D02*
X6334467Y-17995889D01*
X6334467Y-17995889D02*
X6324943Y-17957793D01*
X6324943Y-17957793D02*
X6324943Y-17910174D01*
X6324943Y-17910174D02*
X6334467Y-17872079D01*
X6334467Y-17872079D02*
X6343991Y-17853031D01*
X6343991Y-17853031D02*
X6353515Y-17843508D01*
X6353515Y-17843508D02*
X6372562Y-17833984D01*
X6563039Y-17833984D02*
X6582086Y-17833984D01*
X6582086Y-17833984D02*
X6601134Y-17843508D01*
X6601134Y-17843508D02*
X6610658Y-17853031D01*
X6610658Y-17853031D02*
X6620182Y-17872079D01*
X6620182Y-17872079D02*
X6629705Y-17910174D01*
X6629705Y-17910174D02*
X6629705Y-17957793D01*
X6629705Y-17957793D02*
X6620182Y-17995889D01*
X6620182Y-17995889D02*
X6610658Y-18014936D01*
X6610658Y-18014936D02*
X6601134Y-18024460D01*
X6601134Y-18024460D02*
X6582086Y-18033984D01*
X6582086Y-18033984D02*
X6563039Y-18033984D01*
X6563039Y-18033984D02*
X6543991Y-18024460D01*
X6543991Y-18024460D02*
X6534467Y-18014936D01*
X6534467Y-18014936D02*
X6524943Y-17995889D01*
X6524943Y-17995889D02*
X6515420Y-17957793D01*
X6515420Y-17957793D02*
X6515420Y-17910174D01*
X6515420Y-17910174D02*
X6524943Y-17872079D01*
X6524943Y-17872079D02*
X6534467Y-17853031D01*
X6534467Y-17853031D02*
X6543991Y-17843508D01*
X6543991Y-17843508D02*
X6563039Y-17833984D01*
X6715420Y-18033984D02*
X6715420Y-17900650D01*
X6715420Y-17919698D02*
X6724943Y-17910174D01*
X6724943Y-17910174D02*
X6743991Y-17900650D01*
X6743991Y-17900650D02*
X6772563Y-17900650D01*
X6772563Y-17900650D02*
X6791610Y-17910174D01*
X6791610Y-17910174D02*
X6801134Y-17929222D01*
X6801134Y-17929222D02*
X6801134Y-18033984D01*
X6801134Y-17929222D02*
X6810658Y-17910174D01*
X6810658Y-17910174D02*
X6829705Y-17900650D01*
X6829705Y-17900650D02*
X6858277Y-17900650D01*
X6858277Y-17900650D02*
X6877324Y-17910174D01*
X6877324Y-17910174D02*
X6886848Y-17929222D01*
X6886848Y-17929222D02*
X6886848Y-18033984D01*
X6982086Y-18033984D02*
X6982086Y-17900650D01*
X6982086Y-17919698D02*
X6991610Y-17910174D01*
X6991610Y-17910174D02*
X7010658Y-17900650D01*
X7010658Y-17900650D02*
X7039229Y-17900650D01*
X7039229Y-17900650D02*
X7058277Y-17910174D01*
X7058277Y-17910174D02*
X7067801Y-17929222D01*
X7067801Y-17929222D02*
X7067801Y-18033984D01*
X7067801Y-17929222D02*
X7077324Y-17910174D01*
X7077324Y-17910174D02*
X7096372Y-17900650D01*
X7096372Y-17900650D02*
X7124943Y-17900650D01*
X7124943Y-17900650D02*
X7143991Y-17910174D01*
X7143991Y-17910174D02*
X7153515Y-17929222D01*
X7153515Y-17929222D02*
X7153515Y-18033984D01*
X7543991Y-17824460D02*
X7372563Y-18081603D01*
X7801134Y-17833984D02*
X7820182Y-17833984D01*
X7820182Y-17833984D02*
X7839229Y-17843508D01*
X7839229Y-17843508D02*
X7848753Y-17853031D01*
X7848753Y-17853031D02*
X7858277Y-17872079D01*
X7858277Y-17872079D02*
X7867801Y-17910174D01*
X7867801Y-17910174D02*
X7867801Y-17957793D01*
X7867801Y-17957793D02*
X7858277Y-17995889D01*
X7858277Y-17995889D02*
X7848753Y-18014936D01*
X7848753Y-18014936D02*
X7839229Y-18024460D01*
X7839229Y-18024460D02*
X7820182Y-18033984D01*
X7820182Y-18033984D02*
X7801134Y-18033984D01*
X7801134Y-18033984D02*
X7782086Y-18024460D01*
X7782086Y-18024460D02*
X7772563Y-18014936D01*
X7772563Y-18014936D02*
X7763039Y-17995889D01*
X7763039Y-17995889D02*
X7753515Y-17957793D01*
X7753515Y-17957793D02*
X7753515Y-17910174D01*
X7753515Y-17910174D02*
X7763039Y-17872079D01*
X7763039Y-17872079D02*
X7772563Y-17853031D01*
X7772563Y-17853031D02*
X7782086Y-17843508D01*
X7782086Y-17843508D02*
X7801134Y-17833984D01*
X7953515Y-18014936D02*
X7963039Y-18024460D01*
X7963039Y-18024460D02*
X7953515Y-18033984D01*
X7953515Y-18033984D02*
X7943991Y-18024460D01*
X7943991Y-18024460D02*
X7953515Y-18014936D01*
X7953515Y-18014936D02*
X7953515Y-18033984D01*
X8153515Y-18033984D02*
X8039229Y-18033984D01*
X8096372Y-18033984D02*
X8096372Y-17833984D01*
X8096372Y-17833984D02*
X8077325Y-17862555D01*
X8077325Y-17862555D02*
X8058277Y-17881603D01*
X8058277Y-17881603D02*
X8039229Y-17891127D01*
X8277325Y-17833984D02*
X8296372Y-17833984D01*
X8296372Y-17833984D02*
X8315420Y-17843508D01*
X8315420Y-17843508D02*
X8324944Y-17853031D01*
X8324944Y-17853031D02*
X8334467Y-17872079D01*
X8334467Y-17872079D02*
X8343991Y-17910174D01*
X8343991Y-17910174D02*
X8343991Y-17957793D01*
X8343991Y-17957793D02*
X8334467Y-17995889D01*
X8334467Y-17995889D02*
X8324944Y-18014936D01*
X8324944Y-18014936D02*
X8315420Y-18024460D01*
X8315420Y-18024460D02*
X8296372Y-18033984D01*
X8296372Y-18033984D02*
X8277325Y-18033984D01*
X8277325Y-18033984D02*
X8258277Y-18024460D01*
X8258277Y-18024460D02*
X8248753Y-18014936D01*
X8248753Y-18014936D02*
X8239229Y-17995889D01*
X8239229Y-17995889D02*
X8229706Y-17957793D01*
X8229706Y-17957793D02*
X8229706Y-17910174D01*
X8229706Y-17910174D02*
X8239229Y-17872079D01*
X8239229Y-17872079D02*
X8248753Y-17853031D01*
X8248753Y-17853031D02*
X8258277Y-17843508D01*
X8258277Y-17843508D02*
X8277325Y-17833984D01*
X8515420Y-17833984D02*
X8477325Y-17833984D01*
X8477325Y-17833984D02*
X8458277Y-17843508D01*
X8458277Y-17843508D02*
X8448753Y-17853031D01*
X8448753Y-17853031D02*
X8429706Y-17881603D01*
X8429706Y-17881603D02*
X8420182Y-17919698D01*
X8420182Y-17919698D02*
X8420182Y-17995889D01*
X8420182Y-17995889D02*
X8429706Y-18014936D01*
X8429706Y-18014936D02*
X8439229Y-18024460D01*
X8439229Y-18024460D02*
X8458277Y-18033984D01*
X8458277Y-18033984D02*
X8496372Y-18033984D01*
X8496372Y-18033984D02*
X8515420Y-18024460D01*
X8515420Y-18024460D02*
X8524944Y-18014936D01*
X8524944Y-18014936D02*
X8534468Y-17995889D01*
X8534468Y-17995889D02*
X8534468Y-17948270D01*
X8534468Y-17948270D02*
X8524944Y-17929222D01*
X8524944Y-17929222D02*
X8515420Y-17919698D01*
X8515420Y-17919698D02*
X8496372Y-17910174D01*
X8496372Y-17910174D02*
X8458277Y-17910174D01*
X8458277Y-17910174D02*
X8439229Y-17919698D01*
X8439229Y-17919698D02*
X8429706Y-17929222D01*
X8429706Y-17929222D02*
X8420182Y-17948270D01*
X8601134Y-17833984D02*
X8724944Y-17833984D01*
X8724944Y-17833984D02*
X8658277Y-17910174D01*
X8658277Y-17910174D02*
X8686849Y-17910174D01*
X8686849Y-17910174D02*
X8705896Y-17919698D01*
X8705896Y-17919698D02*
X8715420Y-17929222D01*
X8715420Y-17929222D02*
X8724944Y-17948270D01*
X8724944Y-17948270D02*
X8724944Y-17995889D01*
X8724944Y-17995889D02*
X8715420Y-18014936D01*
X8715420Y-18014936D02*
X8705896Y-18024460D01*
X8705896Y-18024460D02*
X8686849Y-18033984D01*
X8686849Y-18033984D02*
X8629706Y-18033984D01*
X8629706Y-18033984D02*
X8610658Y-18024460D01*
X8610658Y-18024460D02*
X8601134Y-18014936D01*
X8801134Y-17833984D02*
X8801134Y-17872079D01*
X8877325Y-17833984D02*
X8877325Y-17872079D01*
X9172563Y-18110174D02*
X9163039Y-18100650D01*
X9163039Y-18100650D02*
X9143991Y-18072079D01*
X9143991Y-18072079D02*
X9134468Y-18053031D01*
X9134468Y-18053031D02*
X9124944Y-18024460D01*
X9124944Y-18024460D02*
X9115420Y-17976841D01*
X9115420Y-17976841D02*
X9115420Y-17938746D01*
X9115420Y-17938746D02*
X9124944Y-17891127D01*
X9124944Y-17891127D02*
X9134468Y-17862555D01*
X9134468Y-17862555D02*
X9143991Y-17843508D01*
X9143991Y-17843508D02*
X9163039Y-17814936D01*
X9163039Y-17814936D02*
X9172563Y-17805412D01*
X9334468Y-17900650D02*
X9334468Y-18033984D01*
X9286849Y-17824460D02*
X9239230Y-17967317D01*
X9239230Y-17967317D02*
X9363039Y-17967317D01*
X9591611Y-18033984D02*
X9591611Y-17833984D01*
X9677325Y-18033984D02*
X9677325Y-17929222D01*
X9677325Y-17929222D02*
X9667801Y-17910174D01*
X9667801Y-17910174D02*
X9648753Y-17900650D01*
X9648753Y-17900650D02*
X9620182Y-17900650D01*
X9620182Y-17900650D02*
X9601134Y-17910174D01*
X9601134Y-17910174D02*
X9591611Y-17919698D01*
X9801134Y-18033984D02*
X9782087Y-18024460D01*
X9782087Y-18024460D02*
X9772563Y-18014936D01*
X9772563Y-18014936D02*
X9763039Y-17995889D01*
X9763039Y-17995889D02*
X9763039Y-17938746D01*
X9763039Y-17938746D02*
X9772563Y-17919698D01*
X9772563Y-17919698D02*
X9782087Y-17910174D01*
X9782087Y-17910174D02*
X9801134Y-17900650D01*
X9801134Y-17900650D02*
X9829706Y-17900650D01*
X9829706Y-17900650D02*
X9848753Y-17910174D01*
X9848753Y-17910174D02*
X9858277Y-17919698D01*
X9858277Y-17919698D02*
X9867801Y-17938746D01*
X9867801Y-17938746D02*
X9867801Y-17995889D01*
X9867801Y-17995889D02*
X9858277Y-18014936D01*
X9858277Y-18014936D02*
X9848753Y-18024460D01*
X9848753Y-18024460D02*
X9829706Y-18033984D01*
X9829706Y-18033984D02*
X9801134Y-18033984D01*
X9982087Y-18033984D02*
X9963039Y-18024460D01*
X9963039Y-18024460D02*
X9953515Y-18005412D01*
X9953515Y-18005412D02*
X9953515Y-17833984D01*
X10134468Y-18024460D02*
X10115420Y-18033984D01*
X10115420Y-18033984D02*
X10077325Y-18033984D01*
X10077325Y-18033984D02*
X10058277Y-18024460D01*
X10058277Y-18024460D02*
X10048753Y-18005412D01*
X10048753Y-18005412D02*
X10048753Y-17929222D01*
X10048753Y-17929222D02*
X10058277Y-17910174D01*
X10058277Y-17910174D02*
X10077325Y-17900650D01*
X10077325Y-17900650D02*
X10115420Y-17900650D01*
X10115420Y-17900650D02*
X10134468Y-17910174D01*
X10134468Y-17910174D02*
X10143992Y-17929222D01*
X10143992Y-17929222D02*
X10143992Y-17948270D01*
X10143992Y-17948270D02*
X10048753Y-17967317D01*
X10220182Y-18024460D02*
X10239230Y-18033984D01*
X10239230Y-18033984D02*
X10277325Y-18033984D01*
X10277325Y-18033984D02*
X10296373Y-18024460D01*
X10296373Y-18024460D02*
X10305896Y-18005412D01*
X10305896Y-18005412D02*
X10305896Y-17995889D01*
X10305896Y-17995889D02*
X10296373Y-17976841D01*
X10296373Y-17976841D02*
X10277325Y-17967317D01*
X10277325Y-17967317D02*
X10248753Y-17967317D01*
X10248753Y-17967317D02*
X10229706Y-17957793D01*
X10229706Y-17957793D02*
X10220182Y-17938746D01*
X10220182Y-17938746D02*
X10220182Y-17929222D01*
X10220182Y-17929222D02*
X10229706Y-17910174D01*
X10229706Y-17910174D02*
X10248753Y-17900650D01*
X10248753Y-17900650D02*
X10277325Y-17900650D01*
X10277325Y-17900650D02*
X10296373Y-17910174D01*
X10372563Y-18110174D02*
X10382087Y-18100650D01*
X10382087Y-18100650D02*
X10401134Y-18072079D01*
X10401134Y-18072079D02*
X10410658Y-18053031D01*
X10410658Y-18053031D02*
X10420182Y-18024460D01*
X10420182Y-18024460D02*
X10429706Y-17976841D01*
X10429706Y-17976841D02*
X10429706Y-17938746D01*
X10429706Y-17938746D02*
X10420182Y-17891127D01*
X10420182Y-17891127D02*
X10410658Y-17862555D01*
X10410658Y-17862555D02*
X10401134Y-17843508D01*
X10401134Y-17843508D02*
X10382087Y-17814936D01*
X10382087Y-17814936D02*
X10372563Y-17805412D01*
X10734468Y-18110174D02*
X10724944Y-18100650D01*
X10724944Y-18100650D02*
X10705896Y-18072079D01*
X10705896Y-18072079D02*
X10696373Y-18053031D01*
X10696373Y-18053031D02*
X10686849Y-18024460D01*
X10686849Y-18024460D02*
X10677325Y-17976841D01*
X10677325Y-17976841D02*
X10677325Y-17938746D01*
X10677325Y-17938746D02*
X10686849Y-17891127D01*
X10686849Y-17891127D02*
X10696373Y-17862555D01*
X10696373Y-17862555D02*
X10705896Y-17843508D01*
X10705896Y-17843508D02*
X10724944Y-17814936D01*
X10724944Y-17814936D02*
X10734468Y-17805412D01*
X10810658Y-17900650D02*
X10810658Y-18033984D01*
X10810658Y-17919698D02*
X10820182Y-17910174D01*
X10820182Y-17910174D02*
X10839230Y-17900650D01*
X10839230Y-17900650D02*
X10867801Y-17900650D01*
X10867801Y-17900650D02*
X10886849Y-17910174D01*
X10886849Y-17910174D02*
X10896373Y-17929222D01*
X10896373Y-17929222D02*
X10896373Y-18033984D01*
X11020182Y-18033984D02*
X11001134Y-18024460D01*
X11001134Y-18024460D02*
X10991611Y-18014936D01*
X10991611Y-18014936D02*
X10982087Y-17995889D01*
X10982087Y-17995889D02*
X10982087Y-17938746D01*
X10982087Y-17938746D02*
X10991611Y-17919698D01*
X10991611Y-17919698D02*
X11001134Y-17910174D01*
X11001134Y-17910174D02*
X11020182Y-17900650D01*
X11020182Y-17900650D02*
X11048754Y-17900650D01*
X11048754Y-17900650D02*
X11067801Y-17910174D01*
X11067801Y-17910174D02*
X11077325Y-17919698D01*
X11077325Y-17919698D02*
X11086849Y-17938746D01*
X11086849Y-17938746D02*
X11086849Y-17995889D01*
X11086849Y-17995889D02*
X11077325Y-18014936D01*
X11077325Y-18014936D02*
X11067801Y-18024460D01*
X11067801Y-18024460D02*
X11048754Y-18033984D01*
X11048754Y-18033984D02*
X11020182Y-18033984D01*
X11143992Y-17900650D02*
X11220182Y-17900650D01*
X11172563Y-17833984D02*
X11172563Y-18005412D01*
X11172563Y-18005412D02*
X11182087Y-18024460D01*
X11182087Y-18024460D02*
X11201134Y-18033984D01*
X11201134Y-18033984D02*
X11220182Y-18033984D01*
X11439230Y-17900650D02*
X11439230Y-18100650D01*
X11439230Y-17910174D02*
X11458277Y-17900650D01*
X11458277Y-17900650D02*
X11496373Y-17900650D01*
X11496373Y-17900650D02*
X11515420Y-17910174D01*
X11515420Y-17910174D02*
X11524944Y-17919698D01*
X11524944Y-17919698D02*
X11534468Y-17938746D01*
X11534468Y-17938746D02*
X11534468Y-17995889D01*
X11534468Y-17995889D02*
X11524944Y-18014936D01*
X11524944Y-18014936D02*
X11515420Y-18024460D01*
X11515420Y-18024460D02*
X11496373Y-18033984D01*
X11496373Y-18033984D02*
X11458277Y-18033984D01*
X11458277Y-18033984D02*
X11439230Y-18024460D01*
X11648753Y-18033984D02*
X11629706Y-18024460D01*
X11629706Y-18024460D02*
X11620182Y-18005412D01*
X11620182Y-18005412D02*
X11620182Y-17833984D01*
X11810658Y-18033984D02*
X11810658Y-17929222D01*
X11810658Y-17929222D02*
X11801134Y-17910174D01*
X11801134Y-17910174D02*
X11782087Y-17900650D01*
X11782087Y-17900650D02*
X11743992Y-17900650D01*
X11743992Y-17900650D02*
X11724944Y-17910174D01*
X11810658Y-18024460D02*
X11791611Y-18033984D01*
X11791611Y-18033984D02*
X11743992Y-18033984D01*
X11743992Y-18033984D02*
X11724944Y-18024460D01*
X11724944Y-18024460D02*
X11715420Y-18005412D01*
X11715420Y-18005412D02*
X11715420Y-17986365D01*
X11715420Y-17986365D02*
X11724944Y-17967317D01*
X11724944Y-17967317D02*
X11743992Y-17957793D01*
X11743992Y-17957793D02*
X11791611Y-17957793D01*
X11791611Y-17957793D02*
X11810658Y-17948270D01*
X11877325Y-17900650D02*
X11953515Y-17900650D01*
X11905896Y-17833984D02*
X11905896Y-18005412D01*
X11905896Y-18005412D02*
X11915420Y-18024460D01*
X11915420Y-18024460D02*
X11934468Y-18033984D01*
X11934468Y-18033984D02*
X11953515Y-18033984D01*
X12096373Y-18024460D02*
X12077325Y-18033984D01*
X12077325Y-18033984D02*
X12039230Y-18033984D01*
X12039230Y-18033984D02*
X12020182Y-18024460D01*
X12020182Y-18024460D02*
X12010658Y-18005412D01*
X12010658Y-18005412D02*
X12010658Y-17929222D01*
X12010658Y-17929222D02*
X12020182Y-17910174D01*
X12020182Y-17910174D02*
X12039230Y-17900650D01*
X12039230Y-17900650D02*
X12077325Y-17900650D01*
X12077325Y-17900650D02*
X12096373Y-17910174D01*
X12096373Y-17910174D02*
X12105896Y-17929222D01*
X12105896Y-17929222D02*
X12105896Y-17948270D01*
X12105896Y-17948270D02*
X12010658Y-17967317D01*
X12277325Y-18033984D02*
X12277325Y-17833984D01*
X12277325Y-18024460D02*
X12258277Y-18033984D01*
X12258277Y-18033984D02*
X12220182Y-18033984D01*
X12220182Y-18033984D02*
X12201134Y-18024460D01*
X12201134Y-18024460D02*
X12191611Y-18014936D01*
X12191611Y-18014936D02*
X12182087Y-17995889D01*
X12182087Y-17995889D02*
X12182087Y-17938746D01*
X12182087Y-17938746D02*
X12191611Y-17919698D01*
X12191611Y-17919698D02*
X12201134Y-17910174D01*
X12201134Y-17910174D02*
X12220182Y-17900650D01*
X12220182Y-17900650D02*
X12258277Y-17900650D01*
X12258277Y-17900650D02*
X12277325Y-17910174D01*
X12353515Y-18110174D02*
X12363039Y-18100650D01*
X12363039Y-18100650D02*
X12382087Y-18072079D01*
X12382087Y-18072079D02*
X12391611Y-18053031D01*
X12391611Y-18053031D02*
X12401134Y-18024460D01*
X12401134Y-18024460D02*
X12410658Y-17976841D01*
X12410658Y-17976841D02*
X12410658Y-17938746D01*
X12410658Y-17938746D02*
X12401134Y-17891127D01*
X12401134Y-17891127D02*
X12391611Y-17862555D01*
X12391611Y-17862555D02*
X12382087Y-17843508D01*
X12382087Y-17843508D02*
X12363039Y-17814936D01*
X12363039Y-17814936D02*
X12353515Y-17805412D01*
X5597500Y-18262500D02*
G75*
G02*
X5397500Y-18262500I-100000J0D01*
G01*
X5397500Y-18262500D02*
G75*
G02*
X5597500Y-18262500I100000J0D01*
G01*
X5848753Y-18173031D02*
X5858277Y-18163508D01*
X5858277Y-18163508D02*
X5877324Y-18153984D01*
X5877324Y-18153984D02*
X5924943Y-18153984D01*
X5924943Y-18153984D02*
X5943991Y-18163508D01*
X5943991Y-18163508D02*
X5953515Y-18173031D01*
X5953515Y-18173031D02*
X5963039Y-18192079D01*
X5963039Y-18192079D02*
X5963039Y-18211127D01*
X5963039Y-18211127D02*
X5953515Y-18239698D01*
X5953515Y-18239698D02*
X5839229Y-18353984D01*
X5839229Y-18353984D02*
X5963039Y-18353984D01*
X6048753Y-18334936D02*
X6058277Y-18344460D01*
X6058277Y-18344460D02*
X6048753Y-18353984D01*
X6048753Y-18353984D02*
X6039229Y-18344460D01*
X6039229Y-18344460D02*
X6048753Y-18334936D01*
X6048753Y-18334936D02*
X6048753Y-18353984D01*
X6124943Y-18153984D02*
X6258277Y-18153984D01*
X6258277Y-18153984D02*
X6172562Y-18353984D01*
X6429705Y-18153984D02*
X6334467Y-18153984D01*
X6334467Y-18153984D02*
X6324943Y-18249222D01*
X6324943Y-18249222D02*
X6334467Y-18239698D01*
X6334467Y-18239698D02*
X6353515Y-18230174D01*
X6353515Y-18230174D02*
X6401134Y-18230174D01*
X6401134Y-18230174D02*
X6420182Y-18239698D01*
X6420182Y-18239698D02*
X6429705Y-18249222D01*
X6429705Y-18249222D02*
X6439229Y-18268270D01*
X6439229Y-18268270D02*
X6439229Y-18315889D01*
X6439229Y-18315889D02*
X6429705Y-18334936D01*
X6429705Y-18334936D02*
X6420182Y-18344460D01*
X6420182Y-18344460D02*
X6401134Y-18353984D01*
X6401134Y-18353984D02*
X6353515Y-18353984D01*
X6353515Y-18353984D02*
X6334467Y-18344460D01*
X6334467Y-18344460D02*
X6324943Y-18334936D01*
X6563039Y-18153984D02*
X6582086Y-18153984D01*
X6582086Y-18153984D02*
X6601134Y-18163508D01*
X6601134Y-18163508D02*
X6610658Y-18173031D01*
X6610658Y-18173031D02*
X6620182Y-18192079D01*
X6620182Y-18192079D02*
X6629705Y-18230174D01*
X6629705Y-18230174D02*
X6629705Y-18277793D01*
X6629705Y-18277793D02*
X6620182Y-18315889D01*
X6620182Y-18315889D02*
X6610658Y-18334936D01*
X6610658Y-18334936D02*
X6601134Y-18344460D01*
X6601134Y-18344460D02*
X6582086Y-18353984D01*
X6582086Y-18353984D02*
X6563039Y-18353984D01*
X6563039Y-18353984D02*
X6543991Y-18344460D01*
X6543991Y-18344460D02*
X6534467Y-18334936D01*
X6534467Y-18334936D02*
X6524943Y-18315889D01*
X6524943Y-18315889D02*
X6515420Y-18277793D01*
X6515420Y-18277793D02*
X6515420Y-18230174D01*
X6515420Y-18230174D02*
X6524943Y-18192079D01*
X6524943Y-18192079D02*
X6534467Y-18173031D01*
X6534467Y-18173031D02*
X6543991Y-18163508D01*
X6543991Y-18163508D02*
X6563039Y-18153984D01*
X6715420Y-18353984D02*
X6715420Y-18220650D01*
X6715420Y-18239698D02*
X6724943Y-18230174D01*
X6724943Y-18230174D02*
X6743991Y-18220650D01*
X6743991Y-18220650D02*
X6772563Y-18220650D01*
X6772563Y-18220650D02*
X6791610Y-18230174D01*
X6791610Y-18230174D02*
X6801134Y-18249222D01*
X6801134Y-18249222D02*
X6801134Y-18353984D01*
X6801134Y-18249222D02*
X6810658Y-18230174D01*
X6810658Y-18230174D02*
X6829705Y-18220650D01*
X6829705Y-18220650D02*
X6858277Y-18220650D01*
X6858277Y-18220650D02*
X6877324Y-18230174D01*
X6877324Y-18230174D02*
X6886848Y-18249222D01*
X6886848Y-18249222D02*
X6886848Y-18353984D01*
X6982086Y-18353984D02*
X6982086Y-18220650D01*
X6982086Y-18239698D02*
X6991610Y-18230174D01*
X6991610Y-18230174D02*
X7010658Y-18220650D01*
X7010658Y-18220650D02*
X7039229Y-18220650D01*
X7039229Y-18220650D02*
X7058277Y-18230174D01*
X7058277Y-18230174D02*
X7067801Y-18249222D01*
X7067801Y-18249222D02*
X7067801Y-18353984D01*
X7067801Y-18249222D02*
X7077324Y-18230174D01*
X7077324Y-18230174D02*
X7096372Y-18220650D01*
X7096372Y-18220650D02*
X7124943Y-18220650D01*
X7124943Y-18220650D02*
X7143991Y-18230174D01*
X7143991Y-18230174D02*
X7153515Y-18249222D01*
X7153515Y-18249222D02*
X7153515Y-18353984D01*
X7543991Y-18144460D02*
X7372563Y-18401603D01*
X7801134Y-18153984D02*
X7820182Y-18153984D01*
X7820182Y-18153984D02*
X7839229Y-18163508D01*
X7839229Y-18163508D02*
X7848753Y-18173031D01*
X7848753Y-18173031D02*
X7858277Y-18192079D01*
X7858277Y-18192079D02*
X7867801Y-18230174D01*
X7867801Y-18230174D02*
X7867801Y-18277793D01*
X7867801Y-18277793D02*
X7858277Y-18315889D01*
X7858277Y-18315889D02*
X7848753Y-18334936D01*
X7848753Y-18334936D02*
X7839229Y-18344460D01*
X7839229Y-18344460D02*
X7820182Y-18353984D01*
X7820182Y-18353984D02*
X7801134Y-18353984D01*
X7801134Y-18353984D02*
X7782086Y-18344460D01*
X7782086Y-18344460D02*
X7772563Y-18334936D01*
X7772563Y-18334936D02*
X7763039Y-18315889D01*
X7763039Y-18315889D02*
X7753515Y-18277793D01*
X7753515Y-18277793D02*
X7753515Y-18230174D01*
X7753515Y-18230174D02*
X7763039Y-18192079D01*
X7763039Y-18192079D02*
X7772563Y-18173031D01*
X7772563Y-18173031D02*
X7782086Y-18163508D01*
X7782086Y-18163508D02*
X7801134Y-18153984D01*
X7953515Y-18334936D02*
X7963039Y-18344460D01*
X7963039Y-18344460D02*
X7953515Y-18353984D01*
X7953515Y-18353984D02*
X7943991Y-18344460D01*
X7943991Y-18344460D02*
X7953515Y-18334936D01*
X7953515Y-18334936D02*
X7953515Y-18353984D01*
X8153515Y-18353984D02*
X8039229Y-18353984D01*
X8096372Y-18353984D02*
X8096372Y-18153984D01*
X8096372Y-18153984D02*
X8077325Y-18182555D01*
X8077325Y-18182555D02*
X8058277Y-18201603D01*
X8058277Y-18201603D02*
X8039229Y-18211127D01*
X8277325Y-18153984D02*
X8296372Y-18153984D01*
X8296372Y-18153984D02*
X8315420Y-18163508D01*
X8315420Y-18163508D02*
X8324944Y-18173031D01*
X8324944Y-18173031D02*
X8334467Y-18192079D01*
X8334467Y-18192079D02*
X8343991Y-18230174D01*
X8343991Y-18230174D02*
X8343991Y-18277793D01*
X8343991Y-18277793D02*
X8334467Y-18315889D01*
X8334467Y-18315889D02*
X8324944Y-18334936D01*
X8324944Y-18334936D02*
X8315420Y-18344460D01*
X8315420Y-18344460D02*
X8296372Y-18353984D01*
X8296372Y-18353984D02*
X8277325Y-18353984D01*
X8277325Y-18353984D02*
X8258277Y-18344460D01*
X8258277Y-18344460D02*
X8248753Y-18334936D01*
X8248753Y-18334936D02*
X8239229Y-18315889D01*
X8239229Y-18315889D02*
X8229706Y-18277793D01*
X8229706Y-18277793D02*
X8229706Y-18230174D01*
X8229706Y-18230174D02*
X8239229Y-18192079D01*
X8239229Y-18192079D02*
X8248753Y-18173031D01*
X8248753Y-18173031D02*
X8258277Y-18163508D01*
X8258277Y-18163508D02*
X8277325Y-18153984D01*
X8458277Y-18239698D02*
X8439229Y-18230174D01*
X8439229Y-18230174D02*
X8429706Y-18220650D01*
X8429706Y-18220650D02*
X8420182Y-18201603D01*
X8420182Y-18201603D02*
X8420182Y-18192079D01*
X8420182Y-18192079D02*
X8429706Y-18173031D01*
X8429706Y-18173031D02*
X8439229Y-18163508D01*
X8439229Y-18163508D02*
X8458277Y-18153984D01*
X8458277Y-18153984D02*
X8496372Y-18153984D01*
X8496372Y-18153984D02*
X8515420Y-18163508D01*
X8515420Y-18163508D02*
X8524944Y-18173031D01*
X8524944Y-18173031D02*
X8534468Y-18192079D01*
X8534468Y-18192079D02*
X8534468Y-18201603D01*
X8534468Y-18201603D02*
X8524944Y-18220650D01*
X8524944Y-18220650D02*
X8515420Y-18230174D01*
X8515420Y-18230174D02*
X8496372Y-18239698D01*
X8496372Y-18239698D02*
X8458277Y-18239698D01*
X8458277Y-18239698D02*
X8439229Y-18249222D01*
X8439229Y-18249222D02*
X8429706Y-18258746D01*
X8429706Y-18258746D02*
X8420182Y-18277793D01*
X8420182Y-18277793D02*
X8420182Y-18315889D01*
X8420182Y-18315889D02*
X8429706Y-18334936D01*
X8429706Y-18334936D02*
X8439229Y-18344460D01*
X8439229Y-18344460D02*
X8458277Y-18353984D01*
X8458277Y-18353984D02*
X8496372Y-18353984D01*
X8496372Y-18353984D02*
X8515420Y-18344460D01*
X8515420Y-18344460D02*
X8524944Y-18334936D01*
X8524944Y-18334936D02*
X8534468Y-18315889D01*
X8534468Y-18315889D02*
X8534468Y-18277793D01*
X8534468Y-18277793D02*
X8524944Y-18258746D01*
X8524944Y-18258746D02*
X8515420Y-18249222D01*
X8515420Y-18249222D02*
X8496372Y-18239698D01*
X8601134Y-18153984D02*
X8724944Y-18153984D01*
X8724944Y-18153984D02*
X8658277Y-18230174D01*
X8658277Y-18230174D02*
X8686849Y-18230174D01*
X8686849Y-18230174D02*
X8705896Y-18239698D01*
X8705896Y-18239698D02*
X8715420Y-18249222D01*
X8715420Y-18249222D02*
X8724944Y-18268270D01*
X8724944Y-18268270D02*
X8724944Y-18315889D01*
X8724944Y-18315889D02*
X8715420Y-18334936D01*
X8715420Y-18334936D02*
X8705896Y-18344460D01*
X8705896Y-18344460D02*
X8686849Y-18353984D01*
X8686849Y-18353984D02*
X8629706Y-18353984D01*
X8629706Y-18353984D02*
X8610658Y-18344460D01*
X8610658Y-18344460D02*
X8601134Y-18334936D01*
X8801134Y-18153984D02*
X8801134Y-18192079D01*
X8877325Y-18153984D02*
X8877325Y-18192079D01*
X9172563Y-18430174D02*
X9163039Y-18420650D01*
X9163039Y-18420650D02*
X9143991Y-18392079D01*
X9143991Y-18392079D02*
X9134468Y-18373031D01*
X9134468Y-18373031D02*
X9124944Y-18344460D01*
X9124944Y-18344460D02*
X9115420Y-18296841D01*
X9115420Y-18296841D02*
X9115420Y-18258746D01*
X9115420Y-18258746D02*
X9124944Y-18211127D01*
X9124944Y-18211127D02*
X9134468Y-18182555D01*
X9134468Y-18182555D02*
X9143991Y-18163508D01*
X9143991Y-18163508D02*
X9163039Y-18134936D01*
X9163039Y-18134936D02*
X9172563Y-18125412D01*
X9334468Y-18220650D02*
X9334468Y-18353984D01*
X9286849Y-18144460D02*
X9239230Y-18287317D01*
X9239230Y-18287317D02*
X9363039Y-18287317D01*
X9591611Y-18353984D02*
X9591611Y-18153984D01*
X9677325Y-18353984D02*
X9677325Y-18249222D01*
X9677325Y-18249222D02*
X9667801Y-18230174D01*
X9667801Y-18230174D02*
X9648753Y-18220650D01*
X9648753Y-18220650D02*
X9620182Y-18220650D01*
X9620182Y-18220650D02*
X9601134Y-18230174D01*
X9601134Y-18230174D02*
X9591611Y-18239698D01*
X9801134Y-18353984D02*
X9782087Y-18344460D01*
X9782087Y-18344460D02*
X9772563Y-18334936D01*
X9772563Y-18334936D02*
X9763039Y-18315889D01*
X9763039Y-18315889D02*
X9763039Y-18258746D01*
X9763039Y-18258746D02*
X9772563Y-18239698D01*
X9772563Y-18239698D02*
X9782087Y-18230174D01*
X9782087Y-18230174D02*
X9801134Y-18220650D01*
X9801134Y-18220650D02*
X9829706Y-18220650D01*
X9829706Y-18220650D02*
X9848753Y-18230174D01*
X9848753Y-18230174D02*
X9858277Y-18239698D01*
X9858277Y-18239698D02*
X9867801Y-18258746D01*
X9867801Y-18258746D02*
X9867801Y-18315889D01*
X9867801Y-18315889D02*
X9858277Y-18334936D01*
X9858277Y-18334936D02*
X9848753Y-18344460D01*
X9848753Y-18344460D02*
X9829706Y-18353984D01*
X9829706Y-18353984D02*
X9801134Y-18353984D01*
X9982087Y-18353984D02*
X9963039Y-18344460D01*
X9963039Y-18344460D02*
X9953515Y-18325412D01*
X9953515Y-18325412D02*
X9953515Y-18153984D01*
X10134468Y-18344460D02*
X10115420Y-18353984D01*
X10115420Y-18353984D02*
X10077325Y-18353984D01*
X10077325Y-18353984D02*
X10058277Y-18344460D01*
X10058277Y-18344460D02*
X10048753Y-18325412D01*
X10048753Y-18325412D02*
X10048753Y-18249222D01*
X10048753Y-18249222D02*
X10058277Y-18230174D01*
X10058277Y-18230174D02*
X10077325Y-18220650D01*
X10077325Y-18220650D02*
X10115420Y-18220650D01*
X10115420Y-18220650D02*
X10134468Y-18230174D01*
X10134468Y-18230174D02*
X10143992Y-18249222D01*
X10143992Y-18249222D02*
X10143992Y-18268270D01*
X10143992Y-18268270D02*
X10048753Y-18287317D01*
X10220182Y-18344460D02*
X10239230Y-18353984D01*
X10239230Y-18353984D02*
X10277325Y-18353984D01*
X10277325Y-18353984D02*
X10296373Y-18344460D01*
X10296373Y-18344460D02*
X10305896Y-18325412D01*
X10305896Y-18325412D02*
X10305896Y-18315889D01*
X10305896Y-18315889D02*
X10296373Y-18296841D01*
X10296373Y-18296841D02*
X10277325Y-18287317D01*
X10277325Y-18287317D02*
X10248753Y-18287317D01*
X10248753Y-18287317D02*
X10229706Y-18277793D01*
X10229706Y-18277793D02*
X10220182Y-18258746D01*
X10220182Y-18258746D02*
X10220182Y-18249222D01*
X10220182Y-18249222D02*
X10229706Y-18230174D01*
X10229706Y-18230174D02*
X10248753Y-18220650D01*
X10248753Y-18220650D02*
X10277325Y-18220650D01*
X10277325Y-18220650D02*
X10296373Y-18230174D01*
X10372563Y-18430174D02*
X10382087Y-18420650D01*
X10382087Y-18420650D02*
X10401134Y-18392079D01*
X10401134Y-18392079D02*
X10410658Y-18373031D01*
X10410658Y-18373031D02*
X10420182Y-18344460D01*
X10420182Y-18344460D02*
X10429706Y-18296841D01*
X10429706Y-18296841D02*
X10429706Y-18258746D01*
X10429706Y-18258746D02*
X10420182Y-18211127D01*
X10420182Y-18211127D02*
X10410658Y-18182555D01*
X10410658Y-18182555D02*
X10401134Y-18163508D01*
X10401134Y-18163508D02*
X10382087Y-18134936D01*
X10382087Y-18134936D02*
X10372563Y-18125412D01*
X10734468Y-18430174D02*
X10724944Y-18420650D01*
X10724944Y-18420650D02*
X10705896Y-18392079D01*
X10705896Y-18392079D02*
X10696373Y-18373031D01*
X10696373Y-18373031D02*
X10686849Y-18344460D01*
X10686849Y-18344460D02*
X10677325Y-18296841D01*
X10677325Y-18296841D02*
X10677325Y-18258746D01*
X10677325Y-18258746D02*
X10686849Y-18211127D01*
X10686849Y-18211127D02*
X10696373Y-18182555D01*
X10696373Y-18182555D02*
X10705896Y-18163508D01*
X10705896Y-18163508D02*
X10724944Y-18134936D01*
X10724944Y-18134936D02*
X10734468Y-18125412D01*
X10810658Y-18220650D02*
X10810658Y-18353984D01*
X10810658Y-18239698D02*
X10820182Y-18230174D01*
X10820182Y-18230174D02*
X10839230Y-18220650D01*
X10839230Y-18220650D02*
X10867801Y-18220650D01*
X10867801Y-18220650D02*
X10886849Y-18230174D01*
X10886849Y-18230174D02*
X10896373Y-18249222D01*
X10896373Y-18249222D02*
X10896373Y-18353984D01*
X11020182Y-18353984D02*
X11001134Y-18344460D01*
X11001134Y-18344460D02*
X10991611Y-18334936D01*
X10991611Y-18334936D02*
X10982087Y-18315889D01*
X10982087Y-18315889D02*
X10982087Y-18258746D01*
X10982087Y-18258746D02*
X10991611Y-18239698D01*
X10991611Y-18239698D02*
X11001134Y-18230174D01*
X11001134Y-18230174D02*
X11020182Y-18220650D01*
X11020182Y-18220650D02*
X11048754Y-18220650D01*
X11048754Y-18220650D02*
X11067801Y-18230174D01*
X11067801Y-18230174D02*
X11077325Y-18239698D01*
X11077325Y-18239698D02*
X11086849Y-18258746D01*
X11086849Y-18258746D02*
X11086849Y-18315889D01*
X11086849Y-18315889D02*
X11077325Y-18334936D01*
X11077325Y-18334936D02*
X11067801Y-18344460D01*
X11067801Y-18344460D02*
X11048754Y-18353984D01*
X11048754Y-18353984D02*
X11020182Y-18353984D01*
X11143992Y-18220650D02*
X11220182Y-18220650D01*
X11172563Y-18153984D02*
X11172563Y-18325412D01*
X11172563Y-18325412D02*
X11182087Y-18344460D01*
X11182087Y-18344460D02*
X11201134Y-18353984D01*
X11201134Y-18353984D02*
X11220182Y-18353984D01*
X11439230Y-18220650D02*
X11439230Y-18420650D01*
X11439230Y-18230174D02*
X11458277Y-18220650D01*
X11458277Y-18220650D02*
X11496373Y-18220650D01*
X11496373Y-18220650D02*
X11515420Y-18230174D01*
X11515420Y-18230174D02*
X11524944Y-18239698D01*
X11524944Y-18239698D02*
X11534468Y-18258746D01*
X11534468Y-18258746D02*
X11534468Y-18315889D01*
X11534468Y-18315889D02*
X11524944Y-18334936D01*
X11524944Y-18334936D02*
X11515420Y-18344460D01*
X11515420Y-18344460D02*
X11496373Y-18353984D01*
X11496373Y-18353984D02*
X11458277Y-18353984D01*
X11458277Y-18353984D02*
X11439230Y-18344460D01*
X11648753Y-18353984D02*
X11629706Y-18344460D01*
X11629706Y-18344460D02*
X11620182Y-18325412D01*
X11620182Y-18325412D02*
X11620182Y-18153984D01*
X11810658Y-18353984D02*
X11810658Y-18249222D01*
X11810658Y-18249222D02*
X11801134Y-18230174D01*
X11801134Y-18230174D02*
X11782087Y-18220650D01*
X11782087Y-18220650D02*
X11743992Y-18220650D01*
X11743992Y-18220650D02*
X11724944Y-18230174D01*
X11810658Y-18344460D02*
X11791611Y-18353984D01*
X11791611Y-18353984D02*
X11743992Y-18353984D01*
X11743992Y-18353984D02*
X11724944Y-18344460D01*
X11724944Y-18344460D02*
X11715420Y-18325412D01*
X11715420Y-18325412D02*
X11715420Y-18306365D01*
X11715420Y-18306365D02*
X11724944Y-18287317D01*
X11724944Y-18287317D02*
X11743992Y-18277793D01*
X11743992Y-18277793D02*
X11791611Y-18277793D01*
X11791611Y-18277793D02*
X11810658Y-18268270D01*
X11877325Y-18220650D02*
X11953515Y-18220650D01*
X11905896Y-18153984D02*
X11905896Y-18325412D01*
X11905896Y-18325412D02*
X11915420Y-18344460D01*
X11915420Y-18344460D02*
X11934468Y-18353984D01*
X11934468Y-18353984D02*
X11953515Y-18353984D01*
X12096373Y-18344460D02*
X12077325Y-18353984D01*
X12077325Y-18353984D02*
X12039230Y-18353984D01*
X12039230Y-18353984D02*
X12020182Y-18344460D01*
X12020182Y-18344460D02*
X12010658Y-18325412D01*
X12010658Y-18325412D02*
X12010658Y-18249222D01*
X12010658Y-18249222D02*
X12020182Y-18230174D01*
X12020182Y-18230174D02*
X12039230Y-18220650D01*
X12039230Y-18220650D02*
X12077325Y-18220650D01*
X12077325Y-18220650D02*
X12096373Y-18230174D01*
X12096373Y-18230174D02*
X12105896Y-18249222D01*
X12105896Y-18249222D02*
X12105896Y-18268270D01*
X12105896Y-18268270D02*
X12010658Y-18287317D01*
X12277325Y-18353984D02*
X12277325Y-18153984D01*
X12277325Y-18344460D02*
X12258277Y-18353984D01*
X12258277Y-18353984D02*
X12220182Y-18353984D01*
X12220182Y-18353984D02*
X12201134Y-18344460D01*
X12201134Y-18344460D02*
X12191611Y-18334936D01*
X12191611Y-18334936D02*
X12182087Y-18315889D01*
X12182087Y-18315889D02*
X12182087Y-18258746D01*
X12182087Y-18258746D02*
X12191611Y-18239698D01*
X12191611Y-18239698D02*
X12201134Y-18230174D01*
X12201134Y-18230174D02*
X12220182Y-18220650D01*
X12220182Y-18220650D02*
X12258277Y-18220650D01*
X12258277Y-18220650D02*
X12277325Y-18230174D01*
X12353515Y-18430174D02*
X12363039Y-18420650D01*
X12363039Y-18420650D02*
X12382087Y-18392079D01*
X12382087Y-18392079D02*
X12391611Y-18373031D01*
X12391611Y-18373031D02*
X12401134Y-18344460D01*
X12401134Y-18344460D02*
X12410658Y-18296841D01*
X12410658Y-18296841D02*
X12410658Y-18258746D01*
X12410658Y-18258746D02*
X12401134Y-18211127D01*
X12401134Y-18211127D02*
X12391611Y-18182555D01*
X12391611Y-18182555D02*
X12382087Y-18163508D01*
X12382087Y-18163508D02*
X12363039Y-18134936D01*
X12363039Y-18134936D02*
X12353515Y-18125412D01*
M02*
