G04 #@! TF.GenerationSoftware,KiCad,Pcbnew,9.0.1*
G04 #@! TF.CreationDate,2025-04-09T16:40:50+02:00*
G04 #@! TF.ProjectId,camera_base,63616d65-7261-45f6-9261-73652e6b6963,rev?*
G04 #@! TF.SameCoordinates,Original*
G04 #@! TF.FileFunction,Legend,Top*
G04 #@! TF.FilePolarity,Positive*
%FSLAX46Y46*%
G04 Gerber Fmt 4.6, Leading zero omitted, Abs format (unit mm)*
G04 Created by KiCad (PCBNEW 9.0.1) date 2025-04-09 16:40:50*
%MOMM*%
%LPD*%
G01*
G04 APERTURE LIST*
G04 Aperture macros list*
%AMRoundRect*
0 Rectangle with rounded corners*
0 $1 Rounding radius*
0 $2 $3 $4 $5 $6 $7 $8 $9 X,Y pos of 4 corners*
0 Add a 4 corners polygon primitive as box body*
4,1,4,$2,$3,$4,$5,$6,$7,$8,$9,$2,$3,0*
0 Add four circle primitives for the rounded corners*
1,1,$1+$1,$2,$3*
1,1,$1+$1,$4,$5*
1,1,$1+$1,$6,$7*
1,1,$1+$1,$8,$9*
0 Add four rect primitives between the rounded corners*
20,1,$1+$1,$2,$3,$4,$5,0*
20,1,$1+$1,$4,$5,$6,$7,0*
20,1,$1+$1,$6,$7,$8,$9,0*
20,1,$1+$1,$8,$9,$2,$3,0*%
G04 Aperture macros list end*
%ADD10C,0.300000*%
%ADD11C,0.150000*%
%ADD12C,0.100000*%
%ADD13C,0.200000*%
%ADD14C,0.120000*%
%ADD15C,2.700000*%
%ADD16C,2.750000*%
%ADD17RoundRect,0.102000X-0.754000X-0.754000X0.754000X-0.754000X0.754000X0.754000X-0.754000X0.754000X0*%
%ADD18C,1.712000*%
%ADD19O,3.200000X1.900000*%
%ADD20C,1.600000*%
%ADD21C,1.700000*%
%ADD22C,2.200000*%
%ADD23C,1.800000*%
%ADD24R,1.700000X1.700000*%
G04 APERTURE END LIST*
D10*
G36*
X66343353Y-95999551D02*
G01*
X66343353Y-98990000D01*
X65940169Y-98990000D01*
X64327433Y-96894213D01*
X64327433Y-98990000D01*
X63823316Y-98990000D01*
X63823316Y-95999551D01*
X64226683Y-95999551D01*
X65835205Y-98091125D01*
X65835205Y-95999551D01*
X66343353Y-95999551D01*
G37*
G36*
X68605213Y-95983599D02*
G01*
X68855900Y-96046014D01*
X69076980Y-96146646D01*
X69227866Y-96248927D01*
X69359211Y-96370573D01*
X69472475Y-96512898D01*
X69568274Y-96678058D01*
X69660557Y-96914675D01*
X69718250Y-97183632D01*
X69738450Y-97490654D01*
X69717965Y-97800426D01*
X69659553Y-98070761D01*
X69566259Y-98307646D01*
X69469563Y-98472932D01*
X69355929Y-98615634D01*
X69224787Y-98737851D01*
X69074781Y-98840889D01*
X68912543Y-98920749D01*
X68734151Y-98979054D01*
X68537219Y-99015210D01*
X68318972Y-99027735D01*
X68035553Y-99005801D01*
X67786144Y-98942794D01*
X67564994Y-98840889D01*
X67413922Y-98737810D01*
X67281731Y-98615562D01*
X67167054Y-98472863D01*
X67069303Y-98307646D01*
X66974883Y-98070646D01*
X66915807Y-97800321D01*
X66895097Y-97490654D01*
X67441163Y-97490654D01*
X67458027Y-97760817D01*
X67504713Y-97982050D01*
X67576832Y-98162695D01*
X67672156Y-98309661D01*
X67797579Y-98433344D01*
X67944053Y-98521481D01*
X68115766Y-98576043D01*
X68318972Y-98595242D01*
X68522178Y-98576043D01*
X68693891Y-98521481D01*
X68840365Y-98433344D01*
X68965788Y-98309661D01*
X69061112Y-98162695D01*
X69133230Y-97982050D01*
X69179917Y-97760817D01*
X69196781Y-97490654D01*
X69179938Y-97222761D01*
X69133290Y-97003270D01*
X69061183Y-96823917D01*
X68965788Y-96677875D01*
X68840493Y-96555164D01*
X68694070Y-96467630D01*
X68522312Y-96413399D01*
X68318972Y-96394309D01*
X68115498Y-96413290D01*
X67943695Y-96467188D01*
X67797322Y-96554119D01*
X67672156Y-96675860D01*
X67576982Y-96820798D01*
X67504867Y-96999910D01*
X67458091Y-97220322D01*
X67441163Y-97490654D01*
X66895097Y-97490654D01*
X66915522Y-97183736D01*
X66973878Y-96914789D01*
X67067288Y-96678058D01*
X67164099Y-96512842D01*
X67278082Y-96370491D01*
X67409837Y-96248864D01*
X67560781Y-96146646D01*
X67781862Y-96046020D01*
X68032608Y-95983602D01*
X68318972Y-95961816D01*
X68605213Y-95983599D01*
G37*
G36*
X69875287Y-98990000D02*
G01*
X71895603Y-98990000D01*
X71895603Y-99305073D01*
X69875287Y-99305073D01*
X69875287Y-98990000D01*
G37*
G36*
X73480312Y-99027735D02*
G01*
X73260195Y-99015163D01*
X73060040Y-98978749D01*
X72877270Y-98919826D01*
X72709665Y-98838874D01*
X72554245Y-98734409D01*
X72418975Y-98611240D01*
X72302317Y-98468225D01*
X72203532Y-98303433D01*
X72107757Y-98066346D01*
X72048019Y-97797353D01*
X72027128Y-97490654D01*
X72047957Y-97186803D01*
X72107638Y-96919200D01*
X72203532Y-96682271D01*
X72302394Y-96517429D01*
X72419079Y-96374769D01*
X72554320Y-96252300D01*
X72709665Y-96148845D01*
X72936300Y-96046835D01*
X73191295Y-95983760D01*
X73480312Y-95961816D01*
X73680252Y-95972568D01*
X73869486Y-96004235D01*
X74049459Y-96056338D01*
X74221402Y-96129620D01*
X74368124Y-96217235D01*
X74492576Y-96318838D01*
X74316172Y-96713595D01*
X74109922Y-96569397D01*
X73915003Y-96476374D01*
X73710360Y-96421434D01*
X73488738Y-96402735D01*
X73276220Y-96421910D01*
X73097800Y-96476159D01*
X72946870Y-96563183D01*
X72818841Y-96684286D01*
X72720584Y-96829730D01*
X72646588Y-97007886D01*
X72598838Y-97225460D01*
X72581620Y-97490654D01*
X72598730Y-97758252D01*
X72646149Y-97977648D01*
X72719543Y-98157111D01*
X72816826Y-98303433D01*
X72944002Y-98425153D01*
X73094849Y-98512735D01*
X73274133Y-98567440D01*
X73488738Y-98586816D01*
X73710367Y-98568162D01*
X73915003Y-98513360D01*
X74109929Y-98420198D01*
X74316172Y-98275956D01*
X74492576Y-98670713D01*
X74368111Y-98772424D01*
X74221389Y-98860099D01*
X74049459Y-98933396D01*
X73869493Y-98985397D01*
X73680259Y-99017003D01*
X73480312Y-99027735D01*
G37*
G36*
X77772819Y-98990000D02*
G01*
X77230966Y-98990000D01*
X76932745Y-98288595D01*
X75471135Y-98288595D01*
X75168885Y-98990000D01*
X74622819Y-98990000D01*
X75129992Y-97868558D01*
X75651753Y-97868558D01*
X76752128Y-97868558D01*
X76202032Y-96587566D01*
X75651753Y-97868558D01*
X75129992Y-97868558D01*
X75975252Y-95999551D01*
X76416172Y-95999551D01*
X77772819Y-98990000D01*
G37*
G36*
X81008731Y-95999551D02*
G01*
X81008731Y-98990000D01*
X80530076Y-98990000D01*
X80530076Y-97133632D01*
X79736165Y-98990000D01*
X79379143Y-98990000D01*
X78581202Y-97154515D01*
X78581202Y-98990000D01*
X78102363Y-98990000D01*
X78102363Y-95999551D01*
X78530826Y-95999551D01*
X79559760Y-98338970D01*
X80580451Y-95999551D01*
X81008731Y-95999551D01*
G37*
G36*
X81663790Y-95999551D02*
G01*
X83663040Y-95999551D01*
X83663040Y-96428014D01*
X82193004Y-96428014D01*
X82193004Y-97255448D01*
X83574930Y-97255448D01*
X83574930Y-97683728D01*
X82193004Y-97683728D01*
X82193004Y-98561536D01*
X83663040Y-98561536D01*
X83663040Y-98990000D01*
X81663790Y-98990000D01*
X81663790Y-95999551D01*
G37*
G36*
X85699492Y-96015905D02*
G01*
X85908767Y-96061039D01*
X86078208Y-96130561D01*
X86214767Y-96222301D01*
X86328173Y-96342407D01*
X86410022Y-96485421D01*
X86461279Y-96655976D01*
X86479466Y-96860690D01*
X86461027Y-97054066D01*
X86408145Y-97220956D01*
X86321929Y-97366639D01*
X86205095Y-97489539D01*
X86057807Y-97588219D01*
X85874598Y-97662845D01*
X85994608Y-97704772D01*
X86096780Y-97777048D01*
X86184161Y-97883588D01*
X86256899Y-98032323D01*
X86622165Y-98990000D01*
X86051003Y-98990000D01*
X85668885Y-97994588D01*
X85627138Y-97908304D01*
X85575381Y-97845262D01*
X85513363Y-97801331D01*
X85398853Y-97761666D01*
X85240422Y-97746742D01*
X84698569Y-97746742D01*
X84698569Y-98990000D01*
X84160929Y-98990000D01*
X84160929Y-97326889D01*
X84690143Y-97326889D01*
X85366451Y-97326889D01*
X85568747Y-97311828D01*
X85715496Y-97272134D01*
X85820010Y-97213499D01*
X85899602Y-97127859D01*
X85949034Y-97015841D01*
X85966922Y-96868934D01*
X85949288Y-96724773D01*
X85900550Y-96614909D01*
X85822025Y-96530963D01*
X85718866Y-96473642D01*
X85571755Y-96434523D01*
X85366451Y-96419588D01*
X84690143Y-96419588D01*
X84690143Y-97326889D01*
X84160929Y-97326889D01*
X84160929Y-95999551D01*
X85441922Y-95999551D01*
X85699492Y-96015905D01*
G37*
G36*
X89898011Y-98990000D02*
G01*
X89356158Y-98990000D01*
X89057937Y-98288595D01*
X87596327Y-98288595D01*
X87294077Y-98990000D01*
X86748011Y-98990000D01*
X87255184Y-97868558D01*
X87776945Y-97868558D01*
X88877320Y-97868558D01*
X88327224Y-96587566D01*
X87776945Y-97868558D01*
X87255184Y-97868558D01*
X88100444Y-95999551D01*
X88541364Y-95999551D01*
X89898011Y-98990000D01*
G37*
G36*
X93337988Y-96873147D02*
G01*
X92409804Y-98990000D01*
X91951849Y-98990000D01*
X91036304Y-96873147D01*
X91586584Y-96873147D01*
X92195481Y-98393558D01*
X92817201Y-96873147D01*
X93337988Y-96873147D01*
G37*
G36*
X95639122Y-98549080D02*
G01*
X95639122Y-98990000D01*
X93795394Y-98990000D01*
X93795394Y-98549080D01*
X94450636Y-98549080D01*
X94450636Y-96621271D01*
X93841556Y-96986536D01*
X93841556Y-96503668D01*
X94673203Y-95999551D01*
X94988093Y-95999551D01*
X94988093Y-98549080D01*
X95639122Y-98549080D01*
G37*
G36*
X80630121Y-100162894D02*
G01*
X80698301Y-100179482D01*
X80760205Y-100206540D01*
X80816086Y-100244049D01*
X80861970Y-100289669D01*
X80898783Y-100344110D01*
X80898783Y-100184467D01*
X81157069Y-100184467D01*
X81157069Y-101245000D01*
X80898783Y-101245000D01*
X80898783Y-101074915D01*
X80861970Y-101129356D01*
X80816086Y-101174975D01*
X80760205Y-101212485D01*
X80698307Y-101239490D01*
X80630125Y-101256049D01*
X80554400Y-101261761D01*
X80463968Y-101254030D01*
X80382629Y-101231554D01*
X80308661Y-101194624D01*
X80243280Y-101144117D01*
X80188171Y-101080971D01*
X80142790Y-101003565D01*
X80110855Y-100919055D01*
X80090941Y-100823747D01*
X80083989Y-100715786D01*
X80348595Y-100715786D01*
X80357773Y-100822840D01*
X80382706Y-100905033D01*
X80421044Y-100967845D01*
X80474847Y-101016059D01*
X80541758Y-101045498D01*
X80625841Y-101055956D01*
X80708246Y-101045330D01*
X80774092Y-101015294D01*
X80827342Y-100965738D01*
X80865193Y-100901702D01*
X80889766Y-100818716D01*
X80898783Y-100711573D01*
X80889688Y-100601593D01*
X80865045Y-100517383D01*
X80827342Y-100453286D01*
X80774031Y-100403791D01*
X80707542Y-100373671D01*
X80623735Y-100362978D01*
X80560357Y-100369206D01*
X80506646Y-100386958D01*
X80460633Y-100415779D01*
X80421044Y-100456492D01*
X80382576Y-100522570D01*
X80357692Y-100607330D01*
X80348595Y-100715786D01*
X80083989Y-100715786D01*
X80091002Y-100607933D01*
X80111204Y-100511557D01*
X80143797Y-100424985D01*
X80189885Y-100345241D01*
X80245395Y-100279972D01*
X80310768Y-100227514D01*
X80384896Y-100188664D01*
X80465541Y-100165200D01*
X80554400Y-100157172D01*
X80630121Y-100162894D01*
G37*
G36*
X83131040Y-100184467D02*
G01*
X82715217Y-101245000D01*
X82486331Y-101245000D01*
X82223831Y-100549915D01*
X81967650Y-101245000D01*
X81736658Y-101245000D01*
X81320834Y-100184467D01*
X81589654Y-100184467D01*
X81862687Y-100932124D01*
X82137735Y-100184467D01*
X82326779Y-100184467D01*
X82601827Y-100938444D01*
X82874860Y-100184467D01*
X83131040Y-100184467D01*
G37*
G36*
X84291682Y-101245000D02*
G01*
X84033395Y-101245000D01*
X84033395Y-101074915D01*
X83996583Y-101129356D01*
X83950698Y-101174975D01*
X83894818Y-101212485D01*
X83832919Y-101239490D01*
X83764738Y-101256049D01*
X83689013Y-101261761D01*
X83600095Y-101253848D01*
X83519443Y-101230735D01*
X83445381Y-101192518D01*
X83380042Y-101140657D01*
X83324533Y-101075773D01*
X83278410Y-100996147D01*
X83245817Y-100909574D01*
X83225615Y-100813198D01*
X83218601Y-100705345D01*
X83483208Y-100705345D01*
X83492327Y-100813798D01*
X83517228Y-100898180D01*
X83555656Y-100963632D01*
X83595170Y-101003766D01*
X83641154Y-101032231D01*
X83694891Y-101049790D01*
X83758347Y-101055956D01*
X83840792Y-101045356D01*
X83907036Y-101015332D01*
X83960947Y-100965738D01*
X83999290Y-100901591D01*
X84024226Y-100817977D01*
X84033395Y-100709467D01*
X84024340Y-100600937D01*
X83999733Y-100517352D01*
X83961954Y-100453286D01*
X83908698Y-100403676D01*
X83842852Y-100373611D01*
X83760454Y-100362978D01*
X83676466Y-100373551D01*
X83609552Y-100403353D01*
X83555656Y-100452279D01*
X83517279Y-100515714D01*
X83492362Y-100598287D01*
X83483208Y-100705345D01*
X83218601Y-100705345D01*
X83225555Y-100597384D01*
X83245470Y-100502108D01*
X83277403Y-100417657D01*
X83322749Y-100340132D01*
X83377860Y-100276604D01*
X83443274Y-100225499D01*
X83517312Y-100187887D01*
X83598644Y-100165029D01*
X83689013Y-100157172D01*
X83763416Y-100162650D01*
X83830553Y-100178535D01*
X83891612Y-100204433D01*
X83946932Y-100240530D01*
X83992480Y-100284751D01*
X84029182Y-100337790D01*
X84029182Y-99699400D01*
X84291682Y-99699400D01*
X84291682Y-101245000D01*
G37*
G36*
X85485663Y-100381937D02*
G01*
X85485663Y-100856470D01*
X85493732Y-100928257D01*
X85515172Y-100978656D01*
X85548308Y-101013424D01*
X85594956Y-101035309D01*
X85659961Y-101043408D01*
X85708970Y-101039411D01*
X85764924Y-101026555D01*
X85764924Y-101234467D01*
X85691432Y-101252871D01*
X85596946Y-101259654D01*
X85507042Y-101252566D01*
X85432652Y-101232730D01*
X85370921Y-101201462D01*
X85319700Y-101158904D01*
X85279282Y-101106020D01*
X85249255Y-101041762D01*
X85230054Y-100963788D01*
X85223163Y-100869110D01*
X85223163Y-100381937D01*
X85019465Y-100381937D01*
X85019465Y-100184467D01*
X85223163Y-100184467D01*
X85223163Y-99926180D01*
X85485663Y-99837978D01*
X85485663Y-100184467D01*
X85767031Y-100184467D01*
X85767031Y-100381937D01*
X85485663Y-100381937D01*
G37*
G36*
X86510356Y-100166721D02*
G01*
X86601832Y-100193908D01*
X86680549Y-100237757D01*
X86748613Y-100298955D01*
X86802151Y-100372905D01*
X86841675Y-100460584D01*
X86866733Y-100564656D01*
X86875649Y-100688492D01*
X86875649Y-100728426D01*
X86144844Y-100728426D01*
X86159748Y-100839299D01*
X86188952Y-100920655D01*
X86229932Y-100979385D01*
X86286132Y-101022542D01*
X86360246Y-101050081D01*
X86457811Y-101060169D01*
X86542796Y-101053181D01*
X86624344Y-101032334D01*
X86703528Y-100997238D01*
X86781219Y-100946779D01*
X86856782Y-101127397D01*
X86774645Y-101181149D01*
X86670943Y-101225033D01*
X86559556Y-101252633D01*
X86447278Y-101261761D01*
X86317998Y-101251597D01*
X86208899Y-101222912D01*
X86116397Y-101177310D01*
X86037774Y-101114849D01*
X85974182Y-101037061D01*
X85927934Y-100945827D01*
X85898925Y-100838508D01*
X85888664Y-100711573D01*
X85896247Y-100605396D01*
X85900308Y-100587742D01*
X86153271Y-100587742D01*
X86646763Y-100587742D01*
X86631905Y-100510222D01*
X86607347Y-100451319D01*
X86574315Y-100407124D01*
X86530911Y-100374106D01*
X86476973Y-100353565D01*
X86409451Y-100346216D01*
X86341924Y-100353530D01*
X86285681Y-100374321D01*
X86238267Y-100408224D01*
X86200883Y-100453398D01*
X86172296Y-100512162D01*
X86153271Y-100587742D01*
X85900308Y-100587742D01*
X85918174Y-100510073D01*
X85953785Y-100423886D01*
X86003499Y-100345446D01*
X86064133Y-100280424D01*
X86136509Y-100227514D01*
X86217447Y-100188786D01*
X86305754Y-100165248D01*
X86403131Y-100157172D01*
X86510356Y-100166721D01*
G37*
G36*
X87578794Y-101261761D02*
G01*
X87469846Y-101253818D01*
X87374664Y-101231107D01*
X87291015Y-101194624D01*
X87215943Y-101143453D01*
X87154040Y-101080486D01*
X87104169Y-101004573D01*
X87068782Y-100920338D01*
X87046748Y-100824784D01*
X87039048Y-100715786D01*
X87047037Y-100606935D01*
X87070045Y-100510293D01*
X87107283Y-100423886D01*
X87159235Y-100345854D01*
X87223255Y-100280770D01*
X87300449Y-100227514D01*
X87386307Y-100189049D01*
X87481915Y-100165374D01*
X87589235Y-100157172D01*
X87700966Y-100166131D01*
X87808688Y-100192893D01*
X87906424Y-100236870D01*
X87977765Y-100291628D01*
X87904217Y-100476367D01*
X87834355Y-100428005D01*
X87761427Y-100393477D01*
X87685519Y-100372022D01*
X87612316Y-100365084D01*
X87521091Y-100375764D01*
X87448326Y-100405733D01*
X87389750Y-100454385D01*
X87347373Y-100518474D01*
X87320017Y-100602291D01*
X87309974Y-100711573D01*
X87319922Y-100821002D01*
X87346943Y-100904462D01*
X87388651Y-100967845D01*
X87430809Y-101005444D01*
X87480961Y-101032729D01*
X87540719Y-101049869D01*
X87612316Y-101055956D01*
X87685477Y-101048780D01*
X87761427Y-101026555D01*
X87834398Y-100991182D01*
X87904217Y-100942566D01*
X87977765Y-101127397D01*
X87902801Y-101182319D01*
X87803467Y-101226132D01*
X87694324Y-101252764D01*
X87578794Y-101261761D01*
G37*
G36*
X88759861Y-100157172D02*
G01*
X88864114Y-100166754D01*
X88946934Y-100193245D01*
X89012882Y-100234879D01*
X89065009Y-100292170D01*
X89104479Y-100367829D01*
X89130406Y-100466425D01*
X89139964Y-100593970D01*
X89139964Y-101245000D01*
X88877464Y-101245000D01*
X88877464Y-100606610D01*
X88871015Y-100523605D01*
X88854106Y-100464332D01*
X88829195Y-100422878D01*
X88793112Y-100391924D01*
X88744741Y-100372289D01*
X88680085Y-100365084D01*
X88603552Y-100374064D01*
X88540128Y-100399653D01*
X88486828Y-100441746D01*
X88446808Y-100496851D01*
X88422115Y-100563352D01*
X88413372Y-100644437D01*
X88413372Y-101245000D01*
X88152978Y-101245000D01*
X88152978Y-99699400D01*
X88413372Y-99699400D01*
X88413372Y-100337790D01*
X88453844Y-100284586D01*
X88501904Y-100240354D01*
X88558269Y-100204433D01*
X88620008Y-100178436D01*
X88686854Y-100162599D01*
X88759861Y-100157172D01*
G37*
G36*
X90026016Y-100157172D02*
G01*
X90130269Y-100166754D01*
X90213089Y-100193245D01*
X90279037Y-100234879D01*
X90331164Y-100292170D01*
X90370634Y-100367829D01*
X90396561Y-100466425D01*
X90406119Y-100593970D01*
X90406119Y-101245000D01*
X90143619Y-101245000D01*
X90143619Y-100606610D01*
X90137170Y-100523605D01*
X90120261Y-100464332D01*
X90095350Y-100422878D01*
X90059267Y-100391924D01*
X90010896Y-100372289D01*
X89946240Y-100365084D01*
X89869707Y-100374064D01*
X89806283Y-100399653D01*
X89752983Y-100441746D01*
X89712963Y-100496851D01*
X89688270Y-100563352D01*
X89679527Y-100644437D01*
X89679527Y-101245000D01*
X89419133Y-101245000D01*
X89419133Y-100484794D01*
X89414685Y-100321176D01*
X89402372Y-100184467D01*
X89648019Y-100184467D01*
X89666979Y-100358764D01*
X89708061Y-100298847D01*
X89757183Y-100249495D01*
X89814990Y-100209746D01*
X89879089Y-100180840D01*
X89949012Y-100163222D01*
X90026016Y-100157172D01*
G37*
G36*
X91270860Y-100165021D02*
G01*
X91364019Y-100187663D01*
X91447601Y-100224400D01*
X91522654Y-100275655D01*
X91584953Y-100339284D01*
X91635546Y-100416558D01*
X91671498Y-100502164D01*
X91693864Y-100599092D01*
X91701674Y-100709467D01*
X91693862Y-100819903D01*
X91671495Y-100916860D01*
X91635546Y-101002466D01*
X91584953Y-101079740D01*
X91522654Y-101143369D01*
X91447601Y-101194624D01*
X91364024Y-101231310D01*
X91270864Y-101253922D01*
X91166233Y-101261761D01*
X91060118Y-101253903D01*
X90965906Y-101231272D01*
X90881659Y-101194624D01*
X90805965Y-101143310D01*
X90743318Y-101079673D01*
X90692616Y-101002466D01*
X90656666Y-100916860D01*
X90634299Y-100819903D01*
X90626487Y-100709467D01*
X90891093Y-100709467D01*
X90900214Y-100822450D01*
X90924619Y-100906708D01*
X90961435Y-100968852D01*
X91013893Y-101016390D01*
X91080031Y-101045546D01*
X91164126Y-101055956D01*
X91249577Y-101045492D01*
X91316324Y-101016285D01*
X91368832Y-100968852D01*
X91405648Y-100906708D01*
X91430054Y-100822450D01*
X91439174Y-100709467D01*
X91430015Y-100598034D01*
X91405319Y-100513620D01*
X91367733Y-100450172D01*
X91314555Y-100401167D01*
X91248711Y-100371409D01*
X91166233Y-100360871D01*
X91082279Y-100371468D01*
X91015733Y-100401282D01*
X90962443Y-100450172D01*
X90924909Y-100513612D01*
X90900242Y-100598027D01*
X90891093Y-100709467D01*
X90626487Y-100709467D01*
X90634297Y-100599092D01*
X90656664Y-100502164D01*
X90692616Y-100416558D01*
X90743318Y-100339352D01*
X90805965Y-100275714D01*
X90881659Y-100224400D01*
X90965911Y-100187701D01*
X91060122Y-100165040D01*
X91166233Y-100157172D01*
X91270860Y-100165021D01*
G37*
G36*
X91927996Y-99699400D02*
G01*
X92188389Y-99699400D01*
X92188389Y-101245000D01*
X91927996Y-101245000D01*
X91927996Y-99699400D01*
G37*
G36*
X93061648Y-100165021D02*
G01*
X93154807Y-100187663D01*
X93238389Y-100224400D01*
X93313442Y-100275655D01*
X93375741Y-100339284D01*
X93426334Y-100416558D01*
X93462286Y-100502164D01*
X93484652Y-100599092D01*
X93492463Y-100709467D01*
X93484651Y-100819903D01*
X93462283Y-100916860D01*
X93426334Y-101002466D01*
X93375741Y-101079740D01*
X93313442Y-101143369D01*
X93238389Y-101194624D01*
X93154813Y-101231310D01*
X93061653Y-101253922D01*
X92957021Y-101261761D01*
X92850906Y-101253903D01*
X92756695Y-101231272D01*
X92672448Y-101194624D01*
X92596754Y-101143310D01*
X92534107Y-101079673D01*
X92483404Y-101002466D01*
X92447455Y-100916860D01*
X92425087Y-100819903D01*
X92417275Y-100709467D01*
X92681882Y-100709467D01*
X92691002Y-100822450D01*
X92715408Y-100906708D01*
X92752224Y-100968852D01*
X92804682Y-101016390D01*
X92870819Y-101045546D01*
X92954915Y-101055956D01*
X93040365Y-101045492D01*
X93107112Y-101016285D01*
X93159621Y-100968852D01*
X93196437Y-100906708D01*
X93220843Y-100822450D01*
X93229963Y-100709467D01*
X93220804Y-100598034D01*
X93196107Y-100513620D01*
X93158522Y-100450172D01*
X93105343Y-100401167D01*
X93039500Y-100371409D01*
X92957021Y-100360871D01*
X92873068Y-100371468D01*
X92806521Y-100401282D01*
X92753231Y-100450172D01*
X92715697Y-100513612D01*
X92691031Y-100598027D01*
X92681882Y-100709467D01*
X92417275Y-100709467D01*
X92425086Y-100599092D01*
X92447452Y-100502164D01*
X92483404Y-100416558D01*
X92534107Y-100339352D01*
X92596754Y-100275714D01*
X92672448Y-100224400D01*
X92756700Y-100187701D01*
X92850911Y-100165040D01*
X92957021Y-100157172D01*
X93061648Y-100165021D01*
G37*
G36*
X94211748Y-100162912D02*
G01*
X94280953Y-100179518D01*
X94343527Y-100206540D01*
X94400103Y-100244116D01*
X94446332Y-100289744D01*
X94483203Y-100344110D01*
X94483203Y-100184467D01*
X94743597Y-100184467D01*
X94743597Y-101211386D01*
X94733898Y-101334980D01*
X94706877Y-101436209D01*
X94664492Y-101519255D01*
X94607035Y-101587275D01*
X94535709Y-101640486D01*
X94447617Y-101680386D01*
X94339194Y-101706117D01*
X94205957Y-101715411D01*
X94083323Y-101708583D01*
X93971201Y-101688764D01*
X93868268Y-101656640D01*
X93773373Y-101612463D01*
X93815413Y-101412978D01*
X93947019Y-101470061D01*
X94074568Y-101503048D01*
X94199729Y-101513819D01*
X94291729Y-101504888D01*
X94360847Y-101480703D01*
X94412501Y-101443290D01*
X94450049Y-101391954D01*
X94474270Y-101323422D01*
X94483203Y-101232360D01*
X94483203Y-101022433D01*
X94446557Y-101075693D01*
X94400033Y-101122104D01*
X94342520Y-101162110D01*
X94279040Y-101191577D01*
X94210149Y-101209471D01*
X94134608Y-101215599D01*
X94044108Y-101207992D01*
X93962410Y-101185856D01*
X93887862Y-101149470D01*
X93821555Y-101099724D01*
X93765746Y-101037921D01*
X93719792Y-100962624D01*
X93687142Y-100880143D01*
X93666972Y-100788605D01*
X93659983Y-100686386D01*
X93924590Y-100686386D01*
X93933792Y-100784600D01*
X93959206Y-100862227D01*
X93999145Y-100923698D01*
X94054012Y-100970900D01*
X94121013Y-100999639D01*
X94203851Y-101009794D01*
X94286750Y-100999637D01*
X94353779Y-100970895D01*
X94408648Y-100923698D01*
X94448587Y-100862227D01*
X94474001Y-100784600D01*
X94483203Y-100686386D01*
X94474110Y-100588093D01*
X94449019Y-100510466D01*
X94409656Y-100449073D01*
X94355400Y-100402024D01*
X94288127Y-100373216D01*
X94203851Y-100362978D01*
X94121013Y-100373132D01*
X94054012Y-100401871D01*
X93999145Y-100449073D01*
X93959206Y-100510544D01*
X93933792Y-100588171D01*
X93924590Y-100686386D01*
X93659983Y-100686386D01*
X93666973Y-100584167D01*
X93687145Y-100492661D01*
X93719792Y-100410239D01*
X93765746Y-100334942D01*
X93821555Y-100273138D01*
X93887862Y-100223393D01*
X93962415Y-100186955D01*
X94044113Y-100164789D01*
X94134608Y-100157172D01*
X94211748Y-100162912D01*
G37*
G36*
X96029810Y-100184467D02*
G01*
X95536318Y-101316441D01*
X95471464Y-101442036D01*
X95399931Y-101536111D01*
X95321994Y-101604128D01*
X95231608Y-101656092D01*
X95125408Y-101696289D01*
X95000785Y-101723838D01*
X94941983Y-101522154D01*
X95040818Y-101495318D01*
X95113625Y-101466702D01*
X95165648Y-101437158D01*
X95210841Y-101398773D01*
X95251074Y-101348677D01*
X95286366Y-101284933D01*
X95319979Y-101207172D01*
X94878968Y-100184467D01*
X95154108Y-100184467D01*
X95458557Y-100946779D01*
X95769417Y-100184467D01*
X96029810Y-100184467D01*
G37*
D11*
X131338095Y-142854819D02*
X131338095Y-141854819D01*
X131338095Y-142331009D02*
X131909523Y-142331009D01*
X131909523Y-142854819D02*
X131909523Y-141854819D01*
X132290476Y-141854819D02*
X132909523Y-141854819D01*
X132909523Y-141854819D02*
X132576190Y-142235771D01*
X132576190Y-142235771D02*
X132719047Y-142235771D01*
X132719047Y-142235771D02*
X132814285Y-142283390D01*
X132814285Y-142283390D02*
X132861904Y-142331009D01*
X132861904Y-142331009D02*
X132909523Y-142426247D01*
X132909523Y-142426247D02*
X132909523Y-142664342D01*
X132909523Y-142664342D02*
X132861904Y-142759580D01*
X132861904Y-142759580D02*
X132814285Y-142807200D01*
X132814285Y-142807200D02*
X132719047Y-142854819D01*
X132719047Y-142854819D02*
X132433333Y-142854819D01*
X132433333Y-142854819D02*
X132338095Y-142807200D01*
X132338095Y-142807200D02*
X132290476Y-142759580D01*
X131338095Y-165854819D02*
X131338095Y-164854819D01*
X131338095Y-165331009D02*
X131909523Y-165331009D01*
X131909523Y-165854819D02*
X131909523Y-164854819D01*
X132814285Y-165188152D02*
X132814285Y-165854819D01*
X132576190Y-164807200D02*
X132338095Y-165521485D01*
X132338095Y-165521485D02*
X132957142Y-165521485D01*
X131338095Y-93754819D02*
X131338095Y-92754819D01*
X131338095Y-93231009D02*
X131909523Y-93231009D01*
X131909523Y-93754819D02*
X131909523Y-92754819D01*
X132338095Y-92850057D02*
X132385714Y-92802438D01*
X132385714Y-92802438D02*
X132480952Y-92754819D01*
X132480952Y-92754819D02*
X132719047Y-92754819D01*
X132719047Y-92754819D02*
X132814285Y-92802438D01*
X132814285Y-92802438D02*
X132861904Y-92850057D01*
X132861904Y-92850057D02*
X132909523Y-92945295D01*
X132909523Y-92945295D02*
X132909523Y-93040533D01*
X132909523Y-93040533D02*
X132861904Y-93183390D01*
X132861904Y-93183390D02*
X132290476Y-93754819D01*
X132290476Y-93754819D02*
X132909523Y-93754819D01*
X59138095Y-93654819D02*
X59138095Y-92654819D01*
X59138095Y-93131009D02*
X59709523Y-93131009D01*
X59709523Y-93654819D02*
X59709523Y-92654819D01*
X60709523Y-93654819D02*
X60138095Y-93654819D01*
X60423809Y-93654819D02*
X60423809Y-92654819D01*
X60423809Y-92654819D02*
X60328571Y-92797676D01*
X60328571Y-92797676D02*
X60233333Y-92892914D01*
X60233333Y-92892914D02*
X60138095Y-92940533D01*
D12*
X124166667Y-108909800D02*
X124309524Y-108957419D01*
X124309524Y-108957419D02*
X124547619Y-108957419D01*
X124547619Y-108957419D02*
X124642857Y-108909800D01*
X124642857Y-108909800D02*
X124690476Y-108862180D01*
X124690476Y-108862180D02*
X124738095Y-108766942D01*
X124738095Y-108766942D02*
X124738095Y-108671704D01*
X124738095Y-108671704D02*
X124690476Y-108576466D01*
X124690476Y-108576466D02*
X124642857Y-108528847D01*
X124642857Y-108528847D02*
X124547619Y-108481228D01*
X124547619Y-108481228D02*
X124357143Y-108433609D01*
X124357143Y-108433609D02*
X124261905Y-108385990D01*
X124261905Y-108385990D02*
X124214286Y-108338371D01*
X124214286Y-108338371D02*
X124166667Y-108243133D01*
X124166667Y-108243133D02*
X124166667Y-108147895D01*
X124166667Y-108147895D02*
X124214286Y-108052657D01*
X124214286Y-108052657D02*
X124261905Y-108005038D01*
X124261905Y-108005038D02*
X124357143Y-107957419D01*
X124357143Y-107957419D02*
X124595238Y-107957419D01*
X124595238Y-107957419D02*
X124738095Y-108005038D01*
X125071429Y-107957419D02*
X125309524Y-108957419D01*
X125309524Y-108957419D02*
X125500000Y-108243133D01*
X125500000Y-108243133D02*
X125690476Y-108957419D01*
X125690476Y-108957419D02*
X125928572Y-107957419D01*
X126261905Y-108052657D02*
X126309524Y-108005038D01*
X126309524Y-108005038D02*
X126404762Y-107957419D01*
X126404762Y-107957419D02*
X126642857Y-107957419D01*
X126642857Y-107957419D02*
X126738095Y-108005038D01*
X126738095Y-108005038D02*
X126785714Y-108052657D01*
X126785714Y-108052657D02*
X126833333Y-108147895D01*
X126833333Y-108147895D02*
X126833333Y-108243133D01*
X126833333Y-108243133D02*
X126785714Y-108385990D01*
X126785714Y-108385990D02*
X126214286Y-108957419D01*
X126214286Y-108957419D02*
X126833333Y-108957419D01*
X80928571Y-115957419D02*
X81499999Y-115957419D01*
X81214285Y-116957419D02*
X81214285Y-115957419D01*
X82166666Y-116433609D02*
X81833333Y-116433609D01*
X81833333Y-116957419D02*
X81833333Y-115957419D01*
X81833333Y-115957419D02*
X82309523Y-115957419D01*
X82547619Y-115957419D02*
X83119047Y-115957419D01*
X82833333Y-116957419D02*
X82833333Y-115957419D01*
X83976190Y-116957419D02*
X83404762Y-116957419D01*
X83690476Y-116957419D02*
X83690476Y-115957419D01*
X83690476Y-115957419D02*
X83595238Y-116100276D01*
X83595238Y-116100276D02*
X83500000Y-116195514D01*
X83500000Y-116195514D02*
X83404762Y-116243133D01*
X58161027Y-107332419D02*
X58494360Y-108332419D01*
X58494360Y-108332419D02*
X58827693Y-107332419D01*
X59161027Y-108332419D02*
X59161027Y-107665752D01*
X59161027Y-107332419D02*
X59113408Y-107380038D01*
X59113408Y-107380038D02*
X59161027Y-107427657D01*
X59161027Y-107427657D02*
X59208646Y-107380038D01*
X59208646Y-107380038D02*
X59161027Y-107332419D01*
X59161027Y-107332419D02*
X59161027Y-107427657D01*
X59637217Y-107665752D02*
X59637217Y-108332419D01*
X59637217Y-107760990D02*
X59684836Y-107713371D01*
X59684836Y-107713371D02*
X59780074Y-107665752D01*
X59780074Y-107665752D02*
X59922931Y-107665752D01*
X59922931Y-107665752D02*
X60018169Y-107713371D01*
X60018169Y-107713371D02*
X60065788Y-107808609D01*
X60065788Y-107808609D02*
X60065788Y-108332419D01*
X57994360Y-105082419D02*
X58184836Y-105082419D01*
X58184836Y-105082419D02*
X58280074Y-105130038D01*
X58280074Y-105130038D02*
X58375312Y-105225276D01*
X58375312Y-105225276D02*
X58422931Y-105415752D01*
X58422931Y-105415752D02*
X58422931Y-105749085D01*
X58422931Y-105749085D02*
X58375312Y-105939561D01*
X58375312Y-105939561D02*
X58280074Y-106034800D01*
X58280074Y-106034800D02*
X58184836Y-106082419D01*
X58184836Y-106082419D02*
X57994360Y-106082419D01*
X57994360Y-106082419D02*
X57899122Y-106034800D01*
X57899122Y-106034800D02*
X57803884Y-105939561D01*
X57803884Y-105939561D02*
X57756265Y-105749085D01*
X57756265Y-105749085D02*
X57756265Y-105415752D01*
X57756265Y-105415752D02*
X57803884Y-105225276D01*
X57803884Y-105225276D02*
X57899122Y-105130038D01*
X57899122Y-105130038D02*
X57994360Y-105082419D01*
X59184836Y-105558609D02*
X58851503Y-105558609D01*
X58851503Y-106082419D02*
X58851503Y-105082419D01*
X58851503Y-105082419D02*
X59327693Y-105082419D01*
X60041979Y-105558609D02*
X59708646Y-105558609D01*
X59708646Y-106082419D02*
X59708646Y-105082419D01*
X59708646Y-105082419D02*
X60184836Y-105082419D01*
X58494360Y-110582419D02*
X58684836Y-110582419D01*
X58684836Y-110582419D02*
X58780074Y-110630038D01*
X58780074Y-110630038D02*
X58875312Y-110725276D01*
X58875312Y-110725276D02*
X58922931Y-110915752D01*
X58922931Y-110915752D02*
X58922931Y-111249085D01*
X58922931Y-111249085D02*
X58875312Y-111439561D01*
X58875312Y-111439561D02*
X58780074Y-111534800D01*
X58780074Y-111534800D02*
X58684836Y-111582419D01*
X58684836Y-111582419D02*
X58494360Y-111582419D01*
X58494360Y-111582419D02*
X58399122Y-111534800D01*
X58399122Y-111534800D02*
X58303884Y-111439561D01*
X58303884Y-111439561D02*
X58256265Y-111249085D01*
X58256265Y-111249085D02*
X58256265Y-110915752D01*
X58256265Y-110915752D02*
X58303884Y-110725276D01*
X58303884Y-110725276D02*
X58399122Y-110630038D01*
X58399122Y-110630038D02*
X58494360Y-110582419D01*
X59351503Y-111582419D02*
X59351503Y-110582419D01*
X59351503Y-110582419D02*
X59922931Y-111582419D01*
X59922931Y-111582419D02*
X59922931Y-110582419D01*
X105759800Y-125411904D02*
X105807419Y-125269047D01*
X105807419Y-125269047D02*
X105807419Y-125030952D01*
X105807419Y-125030952D02*
X105759800Y-124935714D01*
X105759800Y-124935714D02*
X105712180Y-124888095D01*
X105712180Y-124888095D02*
X105616942Y-124840476D01*
X105616942Y-124840476D02*
X105521704Y-124840476D01*
X105521704Y-124840476D02*
X105426466Y-124888095D01*
X105426466Y-124888095D02*
X105378847Y-124935714D01*
X105378847Y-124935714D02*
X105331228Y-125030952D01*
X105331228Y-125030952D02*
X105283609Y-125221428D01*
X105283609Y-125221428D02*
X105235990Y-125316666D01*
X105235990Y-125316666D02*
X105188371Y-125364285D01*
X105188371Y-125364285D02*
X105093133Y-125411904D01*
X105093133Y-125411904D02*
X104997895Y-125411904D01*
X104997895Y-125411904D02*
X104902657Y-125364285D01*
X104902657Y-125364285D02*
X104855038Y-125316666D01*
X104855038Y-125316666D02*
X104807419Y-125221428D01*
X104807419Y-125221428D02*
X104807419Y-124983333D01*
X104807419Y-124983333D02*
X104855038Y-124840476D01*
X105140752Y-123983333D02*
X105807419Y-123983333D01*
X104759800Y-124221428D02*
X105474085Y-124459523D01*
X105474085Y-124459523D02*
X105474085Y-123840476D01*
G36*
X108298101Y-127207210D02*
G01*
X108298101Y-127738493D01*
X108224451Y-127769029D01*
X108121006Y-127795652D01*
X108010856Y-127811913D01*
X107898831Y-127817350D01*
X107786875Y-127809053D01*
X107689460Y-127785364D01*
X107604188Y-127747341D01*
X107545934Y-127708496D01*
X107495326Y-127662257D01*
X107451773Y-127608135D01*
X107415016Y-127545318D01*
X107379838Y-127455033D01*
X107357670Y-127350690D01*
X107349852Y-127229750D01*
X107357662Y-127109860D01*
X107379823Y-127006326D01*
X107415016Y-126916640D01*
X107451686Y-126854069D01*
X107494839Y-126800159D01*
X107544700Y-126754099D01*
X107601801Y-126715390D01*
X107685453Y-126677251D01*
X107780471Y-126653578D01*
X107889140Y-126645311D01*
X107969023Y-126649508D01*
X108042571Y-126661720D01*
X108110543Y-126681544D01*
X108175030Y-126710000D01*
X108232483Y-126746140D01*
X108283635Y-126790174D01*
X108232094Y-126891642D01*
X108146786Y-126829034D01*
X108068692Y-126789402D01*
X107985667Y-126766163D01*
X107889140Y-126758014D01*
X107810874Y-126763442D01*
X107743419Y-126778854D01*
X107685059Y-126803389D01*
X107634409Y-126836820D01*
X107590495Y-126879564D01*
X107547494Y-126942468D01*
X107515103Y-127019712D01*
X107494188Y-127114261D01*
X107486640Y-127229750D01*
X107494398Y-127347730D01*
X107515844Y-127443752D01*
X107548976Y-127521695D01*
X107592883Y-127584711D01*
X107637627Y-127627190D01*
X107689639Y-127660592D01*
X107749995Y-127685230D01*
X107820191Y-127700771D01*
X107902061Y-127706262D01*
X107996798Y-127701201D01*
X108088388Y-127686161D01*
X108177393Y-127661181D01*
X108177393Y-127311837D01*
X107892370Y-127311837D01*
X107892370Y-127207210D01*
X108298101Y-127207210D01*
G37*
G36*
X109487343Y-126658161D02*
G01*
X109487343Y-127804500D01*
X109384261Y-127804500D01*
X108691963Y-126881952D01*
X108691963Y-127804500D01*
X108568025Y-127804500D01*
X108568025Y-126658161D01*
X108669423Y-126658161D01*
X109361720Y-127580709D01*
X109361720Y-126658161D01*
X109487343Y-126658161D01*
G37*
G36*
X110265632Y-126664944D02*
G01*
X110362065Y-126684153D01*
X110445356Y-126714536D01*
X110517407Y-126755490D01*
X110579683Y-126807097D01*
X110631924Y-126868859D01*
X110673320Y-126940333D01*
X110704000Y-127022975D01*
X110723389Y-127118690D01*
X110730234Y-127229750D01*
X110723382Y-127341486D01*
X110703979Y-127437767D01*
X110673286Y-127520875D01*
X110631891Y-127592727D01*
X110579683Y-127654791D01*
X110517365Y-127706695D01*
X110445290Y-127747863D01*
X110361997Y-127778392D01*
X110265587Y-127797687D01*
X110153800Y-127804500D01*
X109769065Y-127804500D01*
X109769065Y-127691797D01*
X109901079Y-127691797D01*
X110145795Y-127691797D01*
X110236691Y-127686380D01*
X110313579Y-127671175D01*
X110378597Y-127647368D01*
X110433549Y-127615586D01*
X110479830Y-127575864D01*
X110517875Y-127528364D01*
X110548543Y-127471696D01*
X110571652Y-127404351D01*
X110586470Y-127324438D01*
X110591761Y-127229750D01*
X110585218Y-127125320D01*
X110567032Y-127039081D01*
X110538817Y-126968006D01*
X110501381Y-126909587D01*
X110454668Y-126861962D01*
X110397762Y-126824051D01*
X110328969Y-126795641D01*
X110245938Y-126777406D01*
X110145795Y-126770864D01*
X109901079Y-126770864D01*
X109901079Y-127691797D01*
X109769065Y-127691797D01*
X109769065Y-126658161D01*
X110153800Y-126658161D01*
X110265632Y-126664944D01*
G37*
D11*
X75702438Y-163457142D02*
X75654819Y-163552380D01*
X75654819Y-163552380D02*
X75654819Y-163695237D01*
X75654819Y-163695237D02*
X75702438Y-163838094D01*
X75702438Y-163838094D02*
X75797676Y-163933332D01*
X75797676Y-163933332D02*
X75892914Y-163980951D01*
X75892914Y-163980951D02*
X76083390Y-164028570D01*
X76083390Y-164028570D02*
X76226247Y-164028570D01*
X76226247Y-164028570D02*
X76416723Y-163980951D01*
X76416723Y-163980951D02*
X76511961Y-163933332D01*
X76511961Y-163933332D02*
X76607200Y-163838094D01*
X76607200Y-163838094D02*
X76654819Y-163695237D01*
X76654819Y-163695237D02*
X76654819Y-163599999D01*
X76654819Y-163599999D02*
X76607200Y-163457142D01*
X76607200Y-163457142D02*
X76559580Y-163409523D01*
X76559580Y-163409523D02*
X76226247Y-163409523D01*
X76226247Y-163409523D02*
X76226247Y-163599999D01*
X76654819Y-162980951D02*
X75654819Y-162980951D01*
X75654819Y-162980951D02*
X75654819Y-162599999D01*
X75654819Y-162599999D02*
X75702438Y-162504761D01*
X75702438Y-162504761D02*
X75750057Y-162457142D01*
X75750057Y-162457142D02*
X75845295Y-162409523D01*
X75845295Y-162409523D02*
X75988152Y-162409523D01*
X75988152Y-162409523D02*
X76083390Y-162457142D01*
X76083390Y-162457142D02*
X76131009Y-162504761D01*
X76131009Y-162504761D02*
X76178628Y-162599999D01*
X76178628Y-162599999D02*
X76178628Y-162980951D01*
X76654819Y-161980951D02*
X75654819Y-161980951D01*
X75654819Y-161314285D02*
X75654819Y-161123809D01*
X75654819Y-161123809D02*
X75702438Y-161028571D01*
X75702438Y-161028571D02*
X75797676Y-160933333D01*
X75797676Y-160933333D02*
X75988152Y-160885714D01*
X75988152Y-160885714D02*
X76321485Y-160885714D01*
X76321485Y-160885714D02*
X76511961Y-160933333D01*
X76511961Y-160933333D02*
X76607200Y-161028571D01*
X76607200Y-161028571D02*
X76654819Y-161123809D01*
X76654819Y-161123809D02*
X76654819Y-161314285D01*
X76654819Y-161314285D02*
X76607200Y-161409523D01*
X76607200Y-161409523D02*
X76511961Y-161504761D01*
X76511961Y-161504761D02*
X76321485Y-161552380D01*
X76321485Y-161552380D02*
X75988152Y-161552380D01*
X75988152Y-161552380D02*
X75797676Y-161504761D01*
X75797676Y-161504761D02*
X75702438Y-161409523D01*
X75702438Y-161409523D02*
X75654819Y-161314285D01*
X76750057Y-160695238D02*
X76750057Y-159933333D01*
X75988152Y-159266666D02*
X76654819Y-159266666D01*
X75607200Y-159504761D02*
X76321485Y-159742856D01*
X76321485Y-159742856D02*
X76321485Y-159123809D01*
X85002438Y-163773333D02*
X84954819Y-163868571D01*
X84954819Y-163868571D02*
X84954819Y-164011428D01*
X84954819Y-164011428D02*
X85002438Y-164154285D01*
X85002438Y-164154285D02*
X85097676Y-164249523D01*
X85097676Y-164249523D02*
X85192914Y-164297142D01*
X85192914Y-164297142D02*
X85383390Y-164344761D01*
X85383390Y-164344761D02*
X85526247Y-164344761D01*
X85526247Y-164344761D02*
X85716723Y-164297142D01*
X85716723Y-164297142D02*
X85811961Y-164249523D01*
X85811961Y-164249523D02*
X85907200Y-164154285D01*
X85907200Y-164154285D02*
X85954819Y-164011428D01*
X85954819Y-164011428D02*
X85954819Y-163916190D01*
X85954819Y-163916190D02*
X85907200Y-163773333D01*
X85907200Y-163773333D02*
X85859580Y-163725714D01*
X85859580Y-163725714D02*
X85526247Y-163725714D01*
X85526247Y-163725714D02*
X85526247Y-163916190D01*
X85954819Y-163297142D02*
X84954819Y-163297142D01*
X84954819Y-163297142D02*
X84954819Y-162916190D01*
X84954819Y-162916190D02*
X85002438Y-162820952D01*
X85002438Y-162820952D02*
X85050057Y-162773333D01*
X85050057Y-162773333D02*
X85145295Y-162725714D01*
X85145295Y-162725714D02*
X85288152Y-162725714D01*
X85288152Y-162725714D02*
X85383390Y-162773333D01*
X85383390Y-162773333D02*
X85431009Y-162820952D01*
X85431009Y-162820952D02*
X85478628Y-162916190D01*
X85478628Y-162916190D02*
X85478628Y-163297142D01*
X85954819Y-162297142D02*
X84954819Y-162297142D01*
X84954819Y-161630476D02*
X84954819Y-161440000D01*
X84954819Y-161440000D02*
X85002438Y-161344762D01*
X85002438Y-161344762D02*
X85097676Y-161249524D01*
X85097676Y-161249524D02*
X85288152Y-161201905D01*
X85288152Y-161201905D02*
X85621485Y-161201905D01*
X85621485Y-161201905D02*
X85811961Y-161249524D01*
X85811961Y-161249524D02*
X85907200Y-161344762D01*
X85907200Y-161344762D02*
X85954819Y-161440000D01*
X85954819Y-161440000D02*
X85954819Y-161630476D01*
X85954819Y-161630476D02*
X85907200Y-161725714D01*
X85907200Y-161725714D02*
X85811961Y-161820952D01*
X85811961Y-161820952D02*
X85621485Y-161868571D01*
X85621485Y-161868571D02*
X85288152Y-161868571D01*
X85288152Y-161868571D02*
X85097676Y-161820952D01*
X85097676Y-161820952D02*
X85002438Y-161725714D01*
X85002438Y-161725714D02*
X84954819Y-161630476D01*
X86050057Y-161011429D02*
X86050057Y-160249524D01*
X85050057Y-160059047D02*
X85002438Y-160011428D01*
X85002438Y-160011428D02*
X84954819Y-159916190D01*
X84954819Y-159916190D02*
X84954819Y-159678095D01*
X84954819Y-159678095D02*
X85002438Y-159582857D01*
X85002438Y-159582857D02*
X85050057Y-159535238D01*
X85050057Y-159535238D02*
X85145295Y-159487619D01*
X85145295Y-159487619D02*
X85240533Y-159487619D01*
X85240533Y-159487619D02*
X85383390Y-159535238D01*
X85383390Y-159535238D02*
X85954819Y-160106666D01*
X85954819Y-160106666D02*
X85954819Y-159487619D01*
X84954819Y-159154285D02*
X84954819Y-158487619D01*
X84954819Y-158487619D02*
X85954819Y-158916190D01*
X80402438Y-163633333D02*
X80354819Y-163728571D01*
X80354819Y-163728571D02*
X80354819Y-163871428D01*
X80354819Y-163871428D02*
X80402438Y-164014285D01*
X80402438Y-164014285D02*
X80497676Y-164109523D01*
X80497676Y-164109523D02*
X80592914Y-164157142D01*
X80592914Y-164157142D02*
X80783390Y-164204761D01*
X80783390Y-164204761D02*
X80926247Y-164204761D01*
X80926247Y-164204761D02*
X81116723Y-164157142D01*
X81116723Y-164157142D02*
X81211961Y-164109523D01*
X81211961Y-164109523D02*
X81307200Y-164014285D01*
X81307200Y-164014285D02*
X81354819Y-163871428D01*
X81354819Y-163871428D02*
X81354819Y-163776190D01*
X81354819Y-163776190D02*
X81307200Y-163633333D01*
X81307200Y-163633333D02*
X81259580Y-163585714D01*
X81259580Y-163585714D02*
X80926247Y-163585714D01*
X80926247Y-163585714D02*
X80926247Y-163776190D01*
X81354819Y-163157142D02*
X80354819Y-163157142D01*
X80354819Y-163157142D02*
X80354819Y-162776190D01*
X80354819Y-162776190D02*
X80402438Y-162680952D01*
X80402438Y-162680952D02*
X80450057Y-162633333D01*
X80450057Y-162633333D02*
X80545295Y-162585714D01*
X80545295Y-162585714D02*
X80688152Y-162585714D01*
X80688152Y-162585714D02*
X80783390Y-162633333D01*
X80783390Y-162633333D02*
X80831009Y-162680952D01*
X80831009Y-162680952D02*
X80878628Y-162776190D01*
X80878628Y-162776190D02*
X80878628Y-163157142D01*
X81354819Y-162157142D02*
X80354819Y-162157142D01*
X80354819Y-161490476D02*
X80354819Y-161300000D01*
X80354819Y-161300000D02*
X80402438Y-161204762D01*
X80402438Y-161204762D02*
X80497676Y-161109524D01*
X80497676Y-161109524D02*
X80688152Y-161061905D01*
X80688152Y-161061905D02*
X81021485Y-161061905D01*
X81021485Y-161061905D02*
X81211961Y-161109524D01*
X81211961Y-161109524D02*
X81307200Y-161204762D01*
X81307200Y-161204762D02*
X81354819Y-161300000D01*
X81354819Y-161300000D02*
X81354819Y-161490476D01*
X81354819Y-161490476D02*
X81307200Y-161585714D01*
X81307200Y-161585714D02*
X81211961Y-161680952D01*
X81211961Y-161680952D02*
X81021485Y-161728571D01*
X81021485Y-161728571D02*
X80688152Y-161728571D01*
X80688152Y-161728571D02*
X80497676Y-161680952D01*
X80497676Y-161680952D02*
X80402438Y-161585714D01*
X80402438Y-161585714D02*
X80354819Y-161490476D01*
X81450057Y-160871429D02*
X81450057Y-160109524D01*
X81354819Y-159347619D02*
X81354819Y-159919047D01*
X81354819Y-159633333D02*
X80354819Y-159633333D01*
X80354819Y-159633333D02*
X80497676Y-159728571D01*
X80497676Y-159728571D02*
X80592914Y-159823809D01*
X80592914Y-159823809D02*
X80640533Y-159919047D01*
X80354819Y-159014285D02*
X80354819Y-158347619D01*
X80354819Y-158347619D02*
X81354819Y-158776190D01*
X89502438Y-163833333D02*
X89454819Y-163928571D01*
X89454819Y-163928571D02*
X89454819Y-164071428D01*
X89454819Y-164071428D02*
X89502438Y-164214285D01*
X89502438Y-164214285D02*
X89597676Y-164309523D01*
X89597676Y-164309523D02*
X89692914Y-164357142D01*
X89692914Y-164357142D02*
X89883390Y-164404761D01*
X89883390Y-164404761D02*
X90026247Y-164404761D01*
X90026247Y-164404761D02*
X90216723Y-164357142D01*
X90216723Y-164357142D02*
X90311961Y-164309523D01*
X90311961Y-164309523D02*
X90407200Y-164214285D01*
X90407200Y-164214285D02*
X90454819Y-164071428D01*
X90454819Y-164071428D02*
X90454819Y-163976190D01*
X90454819Y-163976190D02*
X90407200Y-163833333D01*
X90407200Y-163833333D02*
X90359580Y-163785714D01*
X90359580Y-163785714D02*
X90026247Y-163785714D01*
X90026247Y-163785714D02*
X90026247Y-163976190D01*
X90454819Y-163357142D02*
X89454819Y-163357142D01*
X89454819Y-163357142D02*
X89454819Y-162976190D01*
X89454819Y-162976190D02*
X89502438Y-162880952D01*
X89502438Y-162880952D02*
X89550057Y-162833333D01*
X89550057Y-162833333D02*
X89645295Y-162785714D01*
X89645295Y-162785714D02*
X89788152Y-162785714D01*
X89788152Y-162785714D02*
X89883390Y-162833333D01*
X89883390Y-162833333D02*
X89931009Y-162880952D01*
X89931009Y-162880952D02*
X89978628Y-162976190D01*
X89978628Y-162976190D02*
X89978628Y-163357142D01*
X90454819Y-162357142D02*
X89454819Y-162357142D01*
X89454819Y-161690476D02*
X89454819Y-161500000D01*
X89454819Y-161500000D02*
X89502438Y-161404762D01*
X89502438Y-161404762D02*
X89597676Y-161309524D01*
X89597676Y-161309524D02*
X89788152Y-161261905D01*
X89788152Y-161261905D02*
X90121485Y-161261905D01*
X90121485Y-161261905D02*
X90311961Y-161309524D01*
X90311961Y-161309524D02*
X90407200Y-161404762D01*
X90407200Y-161404762D02*
X90454819Y-161500000D01*
X90454819Y-161500000D02*
X90454819Y-161690476D01*
X90454819Y-161690476D02*
X90407200Y-161785714D01*
X90407200Y-161785714D02*
X90311961Y-161880952D01*
X90311961Y-161880952D02*
X90121485Y-161928571D01*
X90121485Y-161928571D02*
X89788152Y-161928571D01*
X89788152Y-161928571D02*
X89597676Y-161880952D01*
X89597676Y-161880952D02*
X89502438Y-161785714D01*
X89502438Y-161785714D02*
X89454819Y-161690476D01*
X90550057Y-161071429D02*
X90550057Y-160309524D01*
X89550057Y-160119047D02*
X89502438Y-160071428D01*
X89502438Y-160071428D02*
X89454819Y-159976190D01*
X89454819Y-159976190D02*
X89454819Y-159738095D01*
X89454819Y-159738095D02*
X89502438Y-159642857D01*
X89502438Y-159642857D02*
X89550057Y-159595238D01*
X89550057Y-159595238D02*
X89645295Y-159547619D01*
X89645295Y-159547619D02*
X89740533Y-159547619D01*
X89740533Y-159547619D02*
X89883390Y-159595238D01*
X89883390Y-159595238D02*
X90454819Y-160166666D01*
X90454819Y-160166666D02*
X90454819Y-159547619D01*
X89550057Y-159166666D02*
X89502438Y-159119047D01*
X89502438Y-159119047D02*
X89454819Y-159023809D01*
X89454819Y-159023809D02*
X89454819Y-158785714D01*
X89454819Y-158785714D02*
X89502438Y-158690476D01*
X89502438Y-158690476D02*
X89550057Y-158642857D01*
X89550057Y-158642857D02*
X89645295Y-158595238D01*
X89645295Y-158595238D02*
X89740533Y-158595238D01*
X89740533Y-158595238D02*
X89883390Y-158642857D01*
X89883390Y-158642857D02*
X90454819Y-159214285D01*
X90454819Y-159214285D02*
X90454819Y-158595238D01*
X66652438Y-163547142D02*
X66604819Y-163642380D01*
X66604819Y-163642380D02*
X66604819Y-163785237D01*
X66604819Y-163785237D02*
X66652438Y-163928094D01*
X66652438Y-163928094D02*
X66747676Y-164023332D01*
X66747676Y-164023332D02*
X66842914Y-164070951D01*
X66842914Y-164070951D02*
X67033390Y-164118570D01*
X67033390Y-164118570D02*
X67176247Y-164118570D01*
X67176247Y-164118570D02*
X67366723Y-164070951D01*
X67366723Y-164070951D02*
X67461961Y-164023332D01*
X67461961Y-164023332D02*
X67557200Y-163928094D01*
X67557200Y-163928094D02*
X67604819Y-163785237D01*
X67604819Y-163785237D02*
X67604819Y-163689999D01*
X67604819Y-163689999D02*
X67557200Y-163547142D01*
X67557200Y-163547142D02*
X67509580Y-163499523D01*
X67509580Y-163499523D02*
X67176247Y-163499523D01*
X67176247Y-163499523D02*
X67176247Y-163689999D01*
X67604819Y-163070951D02*
X66604819Y-163070951D01*
X66604819Y-163070951D02*
X66604819Y-162689999D01*
X66604819Y-162689999D02*
X66652438Y-162594761D01*
X66652438Y-162594761D02*
X66700057Y-162547142D01*
X66700057Y-162547142D02*
X66795295Y-162499523D01*
X66795295Y-162499523D02*
X66938152Y-162499523D01*
X66938152Y-162499523D02*
X67033390Y-162547142D01*
X67033390Y-162547142D02*
X67081009Y-162594761D01*
X67081009Y-162594761D02*
X67128628Y-162689999D01*
X67128628Y-162689999D02*
X67128628Y-163070951D01*
X67604819Y-162070951D02*
X66604819Y-162070951D01*
X66604819Y-161404285D02*
X66604819Y-161213809D01*
X66604819Y-161213809D02*
X66652438Y-161118571D01*
X66652438Y-161118571D02*
X66747676Y-161023333D01*
X66747676Y-161023333D02*
X66938152Y-160975714D01*
X66938152Y-160975714D02*
X67271485Y-160975714D01*
X67271485Y-160975714D02*
X67461961Y-161023333D01*
X67461961Y-161023333D02*
X67557200Y-161118571D01*
X67557200Y-161118571D02*
X67604819Y-161213809D01*
X67604819Y-161213809D02*
X67604819Y-161404285D01*
X67604819Y-161404285D02*
X67557200Y-161499523D01*
X67557200Y-161499523D02*
X67461961Y-161594761D01*
X67461961Y-161594761D02*
X67271485Y-161642380D01*
X67271485Y-161642380D02*
X66938152Y-161642380D01*
X66938152Y-161642380D02*
X66747676Y-161594761D01*
X66747676Y-161594761D02*
X66652438Y-161499523D01*
X66652438Y-161499523D02*
X66604819Y-161404285D01*
X67700057Y-160785238D02*
X67700057Y-160023333D01*
X66700057Y-159832856D02*
X66652438Y-159785237D01*
X66652438Y-159785237D02*
X66604819Y-159689999D01*
X66604819Y-159689999D02*
X66604819Y-159451904D01*
X66604819Y-159451904D02*
X66652438Y-159356666D01*
X66652438Y-159356666D02*
X66700057Y-159309047D01*
X66700057Y-159309047D02*
X66795295Y-159261428D01*
X66795295Y-159261428D02*
X66890533Y-159261428D01*
X66890533Y-159261428D02*
X67033390Y-159309047D01*
X67033390Y-159309047D02*
X67604819Y-159880475D01*
X67604819Y-159880475D02*
X67604819Y-159261428D01*
X71152438Y-163547142D02*
X71104819Y-163642380D01*
X71104819Y-163642380D02*
X71104819Y-163785237D01*
X71104819Y-163785237D02*
X71152438Y-163928094D01*
X71152438Y-163928094D02*
X71247676Y-164023332D01*
X71247676Y-164023332D02*
X71342914Y-164070951D01*
X71342914Y-164070951D02*
X71533390Y-164118570D01*
X71533390Y-164118570D02*
X71676247Y-164118570D01*
X71676247Y-164118570D02*
X71866723Y-164070951D01*
X71866723Y-164070951D02*
X71961961Y-164023332D01*
X71961961Y-164023332D02*
X72057200Y-163928094D01*
X72057200Y-163928094D02*
X72104819Y-163785237D01*
X72104819Y-163785237D02*
X72104819Y-163689999D01*
X72104819Y-163689999D02*
X72057200Y-163547142D01*
X72057200Y-163547142D02*
X72009580Y-163499523D01*
X72009580Y-163499523D02*
X71676247Y-163499523D01*
X71676247Y-163499523D02*
X71676247Y-163689999D01*
X72104819Y-163070951D02*
X71104819Y-163070951D01*
X71104819Y-163070951D02*
X71104819Y-162689999D01*
X71104819Y-162689999D02*
X71152438Y-162594761D01*
X71152438Y-162594761D02*
X71200057Y-162547142D01*
X71200057Y-162547142D02*
X71295295Y-162499523D01*
X71295295Y-162499523D02*
X71438152Y-162499523D01*
X71438152Y-162499523D02*
X71533390Y-162547142D01*
X71533390Y-162547142D02*
X71581009Y-162594761D01*
X71581009Y-162594761D02*
X71628628Y-162689999D01*
X71628628Y-162689999D02*
X71628628Y-163070951D01*
X72104819Y-162070951D02*
X71104819Y-162070951D01*
X71104819Y-161404285D02*
X71104819Y-161213809D01*
X71104819Y-161213809D02*
X71152438Y-161118571D01*
X71152438Y-161118571D02*
X71247676Y-161023333D01*
X71247676Y-161023333D02*
X71438152Y-160975714D01*
X71438152Y-160975714D02*
X71771485Y-160975714D01*
X71771485Y-160975714D02*
X71961961Y-161023333D01*
X71961961Y-161023333D02*
X72057200Y-161118571D01*
X72057200Y-161118571D02*
X72104819Y-161213809D01*
X72104819Y-161213809D02*
X72104819Y-161404285D01*
X72104819Y-161404285D02*
X72057200Y-161499523D01*
X72057200Y-161499523D02*
X71961961Y-161594761D01*
X71961961Y-161594761D02*
X71771485Y-161642380D01*
X71771485Y-161642380D02*
X71438152Y-161642380D01*
X71438152Y-161642380D02*
X71247676Y-161594761D01*
X71247676Y-161594761D02*
X71152438Y-161499523D01*
X71152438Y-161499523D02*
X71104819Y-161404285D01*
X72200057Y-160785238D02*
X72200057Y-160023333D01*
X71104819Y-159880475D02*
X71104819Y-159261428D01*
X71104819Y-159261428D02*
X71485771Y-159594761D01*
X71485771Y-159594761D02*
X71485771Y-159451904D01*
X71485771Y-159451904D02*
X71533390Y-159356666D01*
X71533390Y-159356666D02*
X71581009Y-159309047D01*
X71581009Y-159309047D02*
X71676247Y-159261428D01*
X71676247Y-159261428D02*
X71914342Y-159261428D01*
X71914342Y-159261428D02*
X72009580Y-159309047D01*
X72009580Y-159309047D02*
X72057200Y-159356666D01*
X72057200Y-159356666D02*
X72104819Y-159451904D01*
X72104819Y-159451904D02*
X72104819Y-159737618D01*
X72104819Y-159737618D02*
X72057200Y-159832856D01*
X72057200Y-159832856D02*
X72009580Y-159880475D01*
D12*
X106166667Y-108909800D02*
X106309524Y-108957419D01*
X106309524Y-108957419D02*
X106547619Y-108957419D01*
X106547619Y-108957419D02*
X106642857Y-108909800D01*
X106642857Y-108909800D02*
X106690476Y-108862180D01*
X106690476Y-108862180D02*
X106738095Y-108766942D01*
X106738095Y-108766942D02*
X106738095Y-108671704D01*
X106738095Y-108671704D02*
X106690476Y-108576466D01*
X106690476Y-108576466D02*
X106642857Y-108528847D01*
X106642857Y-108528847D02*
X106547619Y-108481228D01*
X106547619Y-108481228D02*
X106357143Y-108433609D01*
X106357143Y-108433609D02*
X106261905Y-108385990D01*
X106261905Y-108385990D02*
X106214286Y-108338371D01*
X106214286Y-108338371D02*
X106166667Y-108243133D01*
X106166667Y-108243133D02*
X106166667Y-108147895D01*
X106166667Y-108147895D02*
X106214286Y-108052657D01*
X106214286Y-108052657D02*
X106261905Y-108005038D01*
X106261905Y-108005038D02*
X106357143Y-107957419D01*
X106357143Y-107957419D02*
X106595238Y-107957419D01*
X106595238Y-107957419D02*
X106738095Y-108005038D01*
X107071429Y-107957419D02*
X107309524Y-108957419D01*
X107309524Y-108957419D02*
X107500000Y-108243133D01*
X107500000Y-108243133D02*
X107690476Y-108957419D01*
X107690476Y-108957419D02*
X107928572Y-107957419D01*
X108833333Y-108957419D02*
X108261905Y-108957419D01*
X108547619Y-108957419D02*
X108547619Y-107957419D01*
X108547619Y-107957419D02*
X108452381Y-108100276D01*
X108452381Y-108100276D02*
X108357143Y-108195514D01*
X108357143Y-108195514D02*
X108261905Y-108243133D01*
D13*
X54710000Y-147370000D02*
G75*
G02*
X54510000Y-147370000I-100000J0D01*
G01*
X54510000Y-147370000D02*
G75*
G02*
X54710000Y-147370000I100000J0D01*
G01*
D14*
X119140000Y-102890000D02*
X119140000Y-105400000D01*
X119140000Y-102890000D02*
X131360000Y-102890000D01*
X119140000Y-107700000D02*
X119140000Y-110300000D01*
X119140000Y-112600000D02*
X119140000Y-115110000D01*
X131360000Y-102890000D02*
X131360000Y-105400000D01*
X131360000Y-107700000D02*
X131360000Y-110300000D01*
X131360000Y-112600000D02*
X131360000Y-115110000D01*
X131360000Y-115110000D02*
X119140000Y-115110000D01*
X128800000Y-109000000D02*
G75*
G02*
X121700000Y-109000000I-3550000J0D01*
G01*
X121700000Y-109000000D02*
G75*
G02*
X128800000Y-109000000I3550000J0D01*
G01*
D12*
X66500000Y-103000000D02*
X98500000Y-103000000D01*
X98500000Y-131000000D01*
X66500000Y-131000000D01*
X66500000Y-103000000D01*
X60750000Y-113960000D02*
X64250000Y-113960000D01*
X64250000Y-102960000D01*
X60750000Y-102960000D01*
X60750000Y-113960000D01*
D13*
X100350000Y-118050000D02*
X114350000Y-118050000D01*
X114350000Y-131050000D01*
X100350000Y-131050000D01*
X100350000Y-118050000D01*
D14*
X74820000Y-168670000D02*
X74820000Y-171270000D01*
X74820000Y-168670000D02*
X77480000Y-168670000D01*
X74820000Y-171270000D02*
X77480000Y-171270000D01*
X76150000Y-166070000D02*
X77480000Y-166070000D01*
X77480000Y-166070000D02*
X77480000Y-167400000D01*
X77480000Y-168670000D02*
X77480000Y-171270000D01*
X84020000Y-168670000D02*
X84020000Y-171270000D01*
X84020000Y-168670000D02*
X86680000Y-168670000D01*
X84020000Y-171270000D02*
X86680000Y-171270000D01*
X85350000Y-166070000D02*
X86680000Y-166070000D01*
X86680000Y-166070000D02*
X86680000Y-167400000D01*
X86680000Y-168670000D02*
X86680000Y-171270000D01*
X79420000Y-168670000D02*
X79420000Y-171270000D01*
X79420000Y-168670000D02*
X82080000Y-168670000D01*
X79420000Y-171270000D02*
X82080000Y-171270000D01*
X80750000Y-166070000D02*
X82080000Y-166070000D01*
X82080000Y-166070000D02*
X82080000Y-167400000D01*
X82080000Y-168670000D02*
X82080000Y-171270000D01*
X88620000Y-168670000D02*
X88620000Y-171270000D01*
X88620000Y-168670000D02*
X91280000Y-168670000D01*
X88620000Y-171270000D02*
X91280000Y-171270000D01*
X89950000Y-166070000D02*
X91280000Y-166070000D01*
X91280000Y-166070000D02*
X91280000Y-167400000D01*
X91280000Y-168670000D02*
X91280000Y-171270000D01*
X65620000Y-168670000D02*
X65620000Y-171270000D01*
X65620000Y-168670000D02*
X68280000Y-168670000D01*
X65620000Y-171270000D02*
X68280000Y-171270000D01*
X66950000Y-166070000D02*
X68280000Y-166070000D01*
X68280000Y-166070000D02*
X68280000Y-167400000D01*
X68280000Y-168670000D02*
X68280000Y-171270000D01*
X70220000Y-168670000D02*
X70220000Y-171270000D01*
X70220000Y-168670000D02*
X72880000Y-168670000D01*
X70220000Y-171270000D02*
X72880000Y-171270000D01*
X71550000Y-166070000D02*
X72880000Y-166070000D01*
X72880000Y-166070000D02*
X72880000Y-167400000D01*
X72880000Y-168670000D02*
X72880000Y-171270000D01*
X101140000Y-102890000D02*
X101140000Y-105400000D01*
X101140000Y-102890000D02*
X113360000Y-102890000D01*
X101140000Y-107700000D02*
X101140000Y-110300000D01*
X101140000Y-112600000D02*
X101140000Y-115110000D01*
X113360000Y-102890000D02*
X113360000Y-105400000D01*
X113360000Y-107700000D02*
X113360000Y-110300000D01*
X113360000Y-112600000D02*
X113360000Y-115110000D01*
X113360000Y-115110000D02*
X101140000Y-115110000D01*
X110800000Y-109000000D02*
G75*
G02*
X103700000Y-109000000I-3550000J0D01*
G01*
X103700000Y-109000000D02*
G75*
G02*
X110800000Y-109000000I3550000J0D01*
G01*
%LPC*%
D15*
X132100000Y-146100000D03*
X132100000Y-169100000D03*
X132100000Y-97000000D03*
X59900000Y-96900000D03*
D16*
X59900000Y-146100000D03*
X59900000Y-169100000D03*
X117900000Y-146100000D03*
X117900000Y-169100000D03*
D17*
X64770000Y-147370000D03*
D18*
X64770000Y-144830000D03*
X67310000Y-147370000D03*
X67310000Y-144830000D03*
X69850000Y-147370000D03*
X69850000Y-144830000D03*
X72390000Y-147370000D03*
X72390000Y-144830000D03*
X74930000Y-147370000D03*
X74930000Y-144830000D03*
X77470000Y-147370000D03*
X77470000Y-144830000D03*
X80010000Y-147370000D03*
X80010000Y-144830000D03*
X82550000Y-147370000D03*
X82550000Y-144830000D03*
X85090000Y-147370000D03*
X85090000Y-144830000D03*
X87630000Y-147370000D03*
X87630000Y-144830000D03*
X90170000Y-147370000D03*
X90170000Y-144830000D03*
X92710000Y-147370000D03*
X92710000Y-144830000D03*
X95250000Y-147370000D03*
X95250000Y-144830000D03*
X97790000Y-147370000D03*
X97790000Y-144830000D03*
X100330000Y-147370000D03*
X100330000Y-144830000D03*
X102870000Y-147370000D03*
X102870000Y-144830000D03*
X105410000Y-147370000D03*
X105410000Y-144830000D03*
X107950000Y-147370000D03*
X107950000Y-144830000D03*
X110490000Y-147370000D03*
X110490000Y-144830000D03*
X113030000Y-147370000D03*
X113030000Y-144830000D03*
D19*
X119000000Y-106500000D03*
X119000000Y-111500000D03*
X131500000Y-106500000D03*
X131500000Y-111500000D03*
D20*
X95200000Y-129700000D03*
X92660000Y-129700000D03*
X90120000Y-129700000D03*
X87580000Y-129700000D03*
X85040000Y-129700000D03*
X82500000Y-129700000D03*
X79960000Y-129700000D03*
X77420000Y-129700000D03*
X74880000Y-129700000D03*
X72340000Y-129700000D03*
X69800000Y-129700000D03*
D21*
X62500000Y-105920000D03*
X62500000Y-108460000D03*
X62500000Y-111000000D03*
D22*
X102200000Y-120800000D03*
D23*
X102200000Y-124500000D03*
D22*
X102200000Y-127300000D03*
X112500000Y-127300000D03*
D23*
X112500000Y-124500000D03*
D22*
X112500000Y-120800000D03*
D24*
X76150000Y-167400000D03*
D21*
X76150000Y-169940000D03*
D24*
X85350000Y-167400000D03*
D21*
X85350000Y-169940000D03*
D24*
X80750000Y-167400000D03*
D21*
X80750000Y-169940000D03*
D24*
X89950000Y-167400000D03*
D21*
X89950000Y-169940000D03*
D24*
X66950000Y-167400000D03*
D21*
X66950000Y-169940000D03*
D24*
X71550000Y-167400000D03*
D21*
X71550000Y-169940000D03*
D19*
X101000000Y-106500000D03*
X101000000Y-111500000D03*
X113500000Y-106500000D03*
X113500000Y-111500000D03*
D20*
X90280000Y-118250000D03*
X87740000Y-118250000D03*
X85200000Y-118250000D03*
X82660000Y-118250000D03*
X80120000Y-118250000D03*
X77580000Y-118250000D03*
X75040000Y-118250000D03*
X72500000Y-118250000D03*
%LPD*%
M02*
