%TF.GenerationSoftware,KiCad,Pcbnew,9.0.1*%
%TF.CreationDate,2025-04-09T16:40:48+02:00*%
%TF.ProjectId,camera_base,63616d65-7261-45f6-9261-73652e6b6963,rev?*%
%TF.SameCoordinates,Original*%
%TF.FileFunction,Drillmap*%
%TF.FilePolarity,Positive*%
%FSLAX45Y45*%
G04 Gerber Fmt 4.5, Leading zero omitted, Abs format (unit mm)*
G04 Created by KiCad (PCBNEW 9.0.1) date 2025-04-09 16:40:48*
%MOMM*%
%LPD*%
G01*
G04 APERTURE LIST*
%ADD10C,0.050000*%
%ADD11C,0.200000*%
%ADD12C,0.100000*%
%ADD13C,0.120000*%
%ADD14C,0.130000*%
G04 APERTURE END LIST*
D10*
X13300000Y-9300000D02*
G75*
G02*
X13600000Y-9600000I0J-300000D01*
G01*
X13600000Y-9600000D02*
X13600000Y-17000000D01*
X13600000Y-17000000D02*
G75*
G02*
X13300000Y-17300000I-300000J0D01*
G01*
X13300000Y-9300000D02*
X5900000Y-9300000D01*
X5600000Y-17000000D02*
X5600000Y-9600000D01*
X5900000Y-17300000D02*
X13300000Y-17300000D01*
X5900000Y-17300000D02*
G75*
G02*
X5600000Y-17000000I0J300000D01*
G01*
X5600000Y-9600000D02*
G75*
G02*
X5900000Y-9300000I300000J0D01*
G01*
D11*
D12*
X6200000Y-10542000D02*
X6300000Y-10642000D01*
X6300000Y-10542000D02*
X6200000Y-10642000D01*
X6200000Y-10796000D02*
X6300000Y-10896000D01*
X6300000Y-10796000D02*
X6200000Y-10896000D01*
X6200000Y-11050000D02*
X6300000Y-11150000D01*
X6300000Y-11050000D02*
X6200000Y-11150000D01*
X6427000Y-14433000D02*
X6527000Y-14533000D01*
X6527000Y-14433000D02*
X6427000Y-14533000D01*
X6427000Y-14687000D02*
X6527000Y-14787000D01*
X6527000Y-14687000D02*
X6427000Y-14787000D01*
X6645000Y-16690000D02*
X6745000Y-16790000D01*
X6745000Y-16690000D02*
X6645000Y-16790000D01*
X6645000Y-16944000D02*
X6745000Y-17044000D01*
X6745000Y-16944000D02*
X6645000Y-17044000D01*
X6681000Y-14433000D02*
X6781000Y-14533000D01*
X6781000Y-14433000D02*
X6681000Y-14533000D01*
X6681000Y-14687000D02*
X6781000Y-14787000D01*
X6781000Y-14687000D02*
X6681000Y-14787000D01*
X6930000Y-12920000D02*
X7030000Y-13020000D01*
X7030000Y-12920000D02*
X6930000Y-13020000D01*
X6935000Y-14433000D02*
X7035000Y-14533000D01*
X7035000Y-14433000D02*
X6935000Y-14533000D01*
X6935000Y-14687000D02*
X7035000Y-14787000D01*
X7035000Y-14687000D02*
X6935000Y-14787000D01*
X7105000Y-16690000D02*
X7205000Y-16790000D01*
X7205000Y-16690000D02*
X7105000Y-16790000D01*
X7105000Y-16944000D02*
X7205000Y-17044000D01*
X7205000Y-16944000D02*
X7105000Y-17044000D01*
X7184000Y-12920000D02*
X7284000Y-13020000D01*
X7284000Y-12920000D02*
X7184000Y-13020000D01*
X7189000Y-14433000D02*
X7289000Y-14533000D01*
X7289000Y-14433000D02*
X7189000Y-14533000D01*
X7189000Y-14687000D02*
X7289000Y-14787000D01*
X7289000Y-14687000D02*
X7189000Y-14787000D01*
X7200000Y-11775000D02*
X7300000Y-11875000D01*
X7300000Y-11775000D02*
X7200000Y-11875000D01*
X7438000Y-12920000D02*
X7538000Y-13020000D01*
X7538000Y-12920000D02*
X7438000Y-13020000D01*
X7443000Y-14433000D02*
X7543000Y-14533000D01*
X7543000Y-14433000D02*
X7443000Y-14533000D01*
X7443000Y-14687000D02*
X7543000Y-14787000D01*
X7543000Y-14687000D02*
X7443000Y-14787000D01*
X7454000Y-11775000D02*
X7554000Y-11875000D01*
X7554000Y-11775000D02*
X7454000Y-11875000D01*
X7565000Y-16690000D02*
X7665000Y-16790000D01*
X7665000Y-16690000D02*
X7565000Y-16790000D01*
X7565000Y-16944000D02*
X7665000Y-17044000D01*
X7665000Y-16944000D02*
X7565000Y-17044000D01*
X7692000Y-12920000D02*
X7792000Y-13020000D01*
X7792000Y-12920000D02*
X7692000Y-13020000D01*
X7697000Y-14433000D02*
X7797000Y-14533000D01*
X7797000Y-14433000D02*
X7697000Y-14533000D01*
X7697000Y-14687000D02*
X7797000Y-14787000D01*
X7797000Y-14687000D02*
X7697000Y-14787000D01*
X7708000Y-11775000D02*
X7808000Y-11875000D01*
X7808000Y-11775000D02*
X7708000Y-11875000D01*
X7946000Y-12920000D02*
X8046000Y-13020000D01*
X8046000Y-12920000D02*
X7946000Y-13020000D01*
X7951000Y-14433000D02*
X8051000Y-14533000D01*
X8051000Y-14433000D02*
X7951000Y-14533000D01*
X7951000Y-14687000D02*
X8051000Y-14787000D01*
X8051000Y-14687000D02*
X7951000Y-14787000D01*
X7962000Y-11775000D02*
X8062000Y-11875000D01*
X8062000Y-11775000D02*
X7962000Y-11875000D01*
X8025000Y-16690000D02*
X8125000Y-16790000D01*
X8125000Y-16690000D02*
X8025000Y-16790000D01*
X8025000Y-16944000D02*
X8125000Y-17044000D01*
X8125000Y-16944000D02*
X8025000Y-17044000D01*
X8200000Y-12920000D02*
X8300000Y-13020000D01*
X8300000Y-12920000D02*
X8200000Y-13020000D01*
X8205000Y-14433000D02*
X8305000Y-14533000D01*
X8305000Y-14433000D02*
X8205000Y-14533000D01*
X8205000Y-14687000D02*
X8305000Y-14787000D01*
X8305000Y-14687000D02*
X8205000Y-14787000D01*
X8216000Y-11775000D02*
X8316000Y-11875000D01*
X8316000Y-11775000D02*
X8216000Y-11875000D01*
X8454000Y-12920000D02*
X8554000Y-13020000D01*
X8554000Y-12920000D02*
X8454000Y-13020000D01*
X8459000Y-14433000D02*
X8559000Y-14533000D01*
X8559000Y-14433000D02*
X8459000Y-14533000D01*
X8459000Y-14687000D02*
X8559000Y-14787000D01*
X8559000Y-14687000D02*
X8459000Y-14787000D01*
X8470000Y-11775000D02*
X8570000Y-11875000D01*
X8570000Y-11775000D02*
X8470000Y-11875000D01*
X8485000Y-16690000D02*
X8585000Y-16790000D01*
X8585000Y-16690000D02*
X8485000Y-16790000D01*
X8485000Y-16944000D02*
X8585000Y-17044000D01*
X8585000Y-16944000D02*
X8485000Y-17044000D01*
X8708000Y-12920000D02*
X8808000Y-13020000D01*
X8808000Y-12920000D02*
X8708000Y-13020000D01*
X8713000Y-14433000D02*
X8813000Y-14533000D01*
X8813000Y-14433000D02*
X8713000Y-14533000D01*
X8713000Y-14687000D02*
X8813000Y-14787000D01*
X8813000Y-14687000D02*
X8713000Y-14787000D01*
X8724000Y-11775000D02*
X8824000Y-11875000D01*
X8824000Y-11775000D02*
X8724000Y-11875000D01*
X8945000Y-16690000D02*
X9045000Y-16790000D01*
X9045000Y-16690000D02*
X8945000Y-16790000D01*
X8945000Y-16944000D02*
X9045000Y-17044000D01*
X9045000Y-16944000D02*
X8945000Y-17044000D01*
X8962000Y-12920000D02*
X9062000Y-13020000D01*
X9062000Y-12920000D02*
X8962000Y-13020000D01*
X8967000Y-14433000D02*
X9067000Y-14533000D01*
X9067000Y-14433000D02*
X8967000Y-14533000D01*
X8967000Y-14687000D02*
X9067000Y-14787000D01*
X9067000Y-14687000D02*
X8967000Y-14787000D01*
X8978000Y-11775000D02*
X9078000Y-11875000D01*
X9078000Y-11775000D02*
X8978000Y-11875000D01*
X9216000Y-12920000D02*
X9316000Y-13020000D01*
X9316000Y-12920000D02*
X9216000Y-13020000D01*
X9221000Y-14433000D02*
X9321000Y-14533000D01*
X9321000Y-14433000D02*
X9221000Y-14533000D01*
X9221000Y-14687000D02*
X9321000Y-14787000D01*
X9321000Y-14687000D02*
X9221000Y-14787000D01*
X9470000Y-12920000D02*
X9570000Y-13020000D01*
X9570000Y-12920000D02*
X9470000Y-13020000D01*
X9475000Y-14433000D02*
X9575000Y-14533000D01*
X9575000Y-14433000D02*
X9475000Y-14533000D01*
X9475000Y-14687000D02*
X9575000Y-14787000D01*
X9575000Y-14687000D02*
X9475000Y-14787000D01*
X9729000Y-14433000D02*
X9829000Y-14533000D01*
X9829000Y-14433000D02*
X9729000Y-14533000D01*
X9729000Y-14687000D02*
X9829000Y-14787000D01*
X9829000Y-14687000D02*
X9729000Y-14787000D01*
X9983000Y-14433000D02*
X10083000Y-14533000D01*
X10083000Y-14433000D02*
X9983000Y-14533000D01*
X9983000Y-14687000D02*
X10083000Y-14787000D01*
X10083000Y-14687000D02*
X9983000Y-14787000D01*
X10170000Y-12400000D02*
X10270000Y-12500000D01*
X10270000Y-12400000D02*
X10170000Y-12500000D01*
X10237000Y-14433000D02*
X10337000Y-14533000D01*
X10337000Y-14433000D02*
X10237000Y-14533000D01*
X10237000Y-14687000D02*
X10337000Y-14787000D01*
X10337000Y-14687000D02*
X10237000Y-14787000D01*
X10491000Y-14433000D02*
X10591000Y-14533000D01*
X10591000Y-14433000D02*
X10491000Y-14533000D01*
X10491000Y-14687000D02*
X10591000Y-14787000D01*
X10591000Y-14687000D02*
X10491000Y-14787000D01*
X10745000Y-14433000D02*
X10845000Y-14533000D01*
X10845000Y-14433000D02*
X10745000Y-14533000D01*
X10745000Y-14687000D02*
X10845000Y-14787000D01*
X10845000Y-14687000D02*
X10745000Y-14787000D01*
X10999000Y-14433000D02*
X11099000Y-14533000D01*
X11099000Y-14433000D02*
X10999000Y-14533000D01*
X10999000Y-14687000D02*
X11099000Y-14787000D01*
X11099000Y-14687000D02*
X10999000Y-14787000D01*
X11200000Y-12400000D02*
X11300000Y-12500000D01*
X11300000Y-12400000D02*
X11200000Y-12500000D01*
X11253000Y-14433000D02*
X11353000Y-14533000D01*
X11353000Y-14433000D02*
X11253000Y-14533000D01*
X11253000Y-14687000D02*
X11353000Y-14787000D01*
X11353000Y-14687000D02*
X11253000Y-14787000D01*
D13*
X10280000Y-12080000D02*
G75*
G02*
X10160000Y-12080000I-60000J0D01*
G01*
X10160000Y-12080000D02*
G75*
G02*
X10280000Y-12080000I60000J0D01*
G01*
X10280000Y-12730000D02*
G75*
G02*
X10160000Y-12730000I-60000J0D01*
G01*
X10160000Y-12730000D02*
G75*
G02*
X10280000Y-12730000I60000J0D01*
G01*
X11310000Y-12080000D02*
G75*
G02*
X11190000Y-12080000I-60000J0D01*
G01*
X11190000Y-12080000D02*
G75*
G02*
X11310000Y-12080000I60000J0D01*
G01*
X11310000Y-12730000D02*
G75*
G02*
X11190000Y-12730000I-60000J0D01*
G01*
X11190000Y-12730000D02*
G75*
G02*
X11310000Y-12730000I60000J0D01*
G01*
D14*
X10100000Y-10585000D02*
X10100000Y-10715000D01*
X10035000Y-10650000D02*
X10165000Y-10650000D01*
X10100000Y-11085000D02*
X10100000Y-11215000D01*
X10035000Y-11150000D02*
X10165000Y-11150000D01*
X11350000Y-10585000D02*
X11350000Y-10715000D01*
X11285000Y-10650000D02*
X11415000Y-10650000D01*
X11350000Y-11085000D02*
X11350000Y-11215000D01*
X11285000Y-11150000D02*
X11415000Y-11150000D01*
X11900000Y-10585000D02*
X11900000Y-10715000D01*
X11835000Y-10650000D02*
X11965000Y-10650000D01*
X11900000Y-11085000D02*
X11900000Y-11215000D01*
X11835000Y-11150000D02*
X11965000Y-11150000D01*
X13150000Y-10585000D02*
X13150000Y-10715000D01*
X13085000Y-10650000D02*
X13215000Y-10650000D01*
X13150000Y-11085000D02*
X13150000Y-11215000D01*
X13085000Y-11150000D02*
X13215000Y-11150000D01*
D11*
X5858277Y-17613984D02*
X5858277Y-17413984D01*
X5858277Y-17413984D02*
X5905896Y-17413984D01*
X5905896Y-17413984D02*
X5934467Y-17423508D01*
X5934467Y-17423508D02*
X5953515Y-17442555D01*
X5953515Y-17442555D02*
X5963039Y-17461603D01*
X5963039Y-17461603D02*
X5972562Y-17499698D01*
X5972562Y-17499698D02*
X5972562Y-17528270D01*
X5972562Y-17528270D02*
X5963039Y-17566365D01*
X5963039Y-17566365D02*
X5953515Y-17585412D01*
X5953515Y-17585412D02*
X5934467Y-17604460D01*
X5934467Y-17604460D02*
X5905896Y-17613984D01*
X5905896Y-17613984D02*
X5858277Y-17613984D01*
X6058277Y-17613984D02*
X6058277Y-17480650D01*
X6058277Y-17518746D02*
X6067801Y-17499698D01*
X6067801Y-17499698D02*
X6077324Y-17490174D01*
X6077324Y-17490174D02*
X6096372Y-17480650D01*
X6096372Y-17480650D02*
X6115420Y-17480650D01*
X6182086Y-17613984D02*
X6182086Y-17480650D01*
X6182086Y-17413984D02*
X6172562Y-17423508D01*
X6172562Y-17423508D02*
X6182086Y-17433031D01*
X6182086Y-17433031D02*
X6191610Y-17423508D01*
X6191610Y-17423508D02*
X6182086Y-17413984D01*
X6182086Y-17413984D02*
X6182086Y-17433031D01*
X6305896Y-17613984D02*
X6286848Y-17604460D01*
X6286848Y-17604460D02*
X6277324Y-17585412D01*
X6277324Y-17585412D02*
X6277324Y-17413984D01*
X6410658Y-17613984D02*
X6391610Y-17604460D01*
X6391610Y-17604460D02*
X6382086Y-17585412D01*
X6382086Y-17585412D02*
X6382086Y-17413984D01*
X6639229Y-17613984D02*
X6639229Y-17413984D01*
X6639229Y-17413984D02*
X6705896Y-17556841D01*
X6705896Y-17556841D02*
X6772562Y-17413984D01*
X6772562Y-17413984D02*
X6772562Y-17613984D01*
X6953515Y-17613984D02*
X6953515Y-17509222D01*
X6953515Y-17509222D02*
X6943991Y-17490174D01*
X6943991Y-17490174D02*
X6924943Y-17480650D01*
X6924943Y-17480650D02*
X6886848Y-17480650D01*
X6886848Y-17480650D02*
X6867801Y-17490174D01*
X6953515Y-17604460D02*
X6934467Y-17613984D01*
X6934467Y-17613984D02*
X6886848Y-17613984D01*
X6886848Y-17613984D02*
X6867801Y-17604460D01*
X6867801Y-17604460D02*
X6858277Y-17585412D01*
X6858277Y-17585412D02*
X6858277Y-17566365D01*
X6858277Y-17566365D02*
X6867801Y-17547317D01*
X6867801Y-17547317D02*
X6886848Y-17537793D01*
X6886848Y-17537793D02*
X6934467Y-17537793D01*
X6934467Y-17537793D02*
X6953515Y-17528270D01*
X7048753Y-17480650D02*
X7048753Y-17680650D01*
X7048753Y-17490174D02*
X7067801Y-17480650D01*
X7067801Y-17480650D02*
X7105896Y-17480650D01*
X7105896Y-17480650D02*
X7124943Y-17490174D01*
X7124943Y-17490174D02*
X7134467Y-17499698D01*
X7134467Y-17499698D02*
X7143991Y-17518746D01*
X7143991Y-17518746D02*
X7143991Y-17575889D01*
X7143991Y-17575889D02*
X7134467Y-17594936D01*
X7134467Y-17594936D02*
X7124943Y-17604460D01*
X7124943Y-17604460D02*
X7105896Y-17613984D01*
X7105896Y-17613984D02*
X7067801Y-17613984D01*
X7067801Y-17613984D02*
X7048753Y-17604460D01*
X7229705Y-17594936D02*
X7239229Y-17604460D01*
X7239229Y-17604460D02*
X7229705Y-17613984D01*
X7229705Y-17613984D02*
X7220182Y-17604460D01*
X7220182Y-17604460D02*
X7229705Y-17594936D01*
X7229705Y-17594936D02*
X7229705Y-17613984D01*
X7229705Y-17490174D02*
X7239229Y-17499698D01*
X7239229Y-17499698D02*
X7229705Y-17509222D01*
X7229705Y-17509222D02*
X7220182Y-17499698D01*
X7220182Y-17499698D02*
X7229705Y-17490174D01*
X7229705Y-17490174D02*
X7229705Y-17509222D01*
D12*
X5497500Y-17892500D02*
X5597500Y-17992500D01*
X5597500Y-17892500D02*
X5497500Y-17992500D01*
D11*
X5963039Y-18033984D02*
X5848753Y-18033984D01*
X5905896Y-18033984D02*
X5905896Y-17833984D01*
X5905896Y-17833984D02*
X5886848Y-17862555D01*
X5886848Y-17862555D02*
X5867801Y-17881603D01*
X5867801Y-17881603D02*
X5848753Y-17891127D01*
X6048753Y-18014936D02*
X6058277Y-18024460D01*
X6058277Y-18024460D02*
X6048753Y-18033984D01*
X6048753Y-18033984D02*
X6039229Y-18024460D01*
X6039229Y-18024460D02*
X6048753Y-18014936D01*
X6048753Y-18014936D02*
X6048753Y-18033984D01*
X6182086Y-17833984D02*
X6201134Y-17833984D01*
X6201134Y-17833984D02*
X6220182Y-17843508D01*
X6220182Y-17843508D02*
X6229705Y-17853031D01*
X6229705Y-17853031D02*
X6239229Y-17872079D01*
X6239229Y-17872079D02*
X6248753Y-17910174D01*
X6248753Y-17910174D02*
X6248753Y-17957793D01*
X6248753Y-17957793D02*
X6239229Y-17995889D01*
X6239229Y-17995889D02*
X6229705Y-18014936D01*
X6229705Y-18014936D02*
X6220182Y-18024460D01*
X6220182Y-18024460D02*
X6201134Y-18033984D01*
X6201134Y-18033984D02*
X6182086Y-18033984D01*
X6182086Y-18033984D02*
X6163039Y-18024460D01*
X6163039Y-18024460D02*
X6153515Y-18014936D01*
X6153515Y-18014936D02*
X6143991Y-17995889D01*
X6143991Y-17995889D02*
X6134467Y-17957793D01*
X6134467Y-17957793D02*
X6134467Y-17910174D01*
X6134467Y-17910174D02*
X6143991Y-17872079D01*
X6143991Y-17872079D02*
X6153515Y-17853031D01*
X6153515Y-17853031D02*
X6163039Y-17843508D01*
X6163039Y-17843508D02*
X6182086Y-17833984D01*
X6372562Y-17833984D02*
X6391610Y-17833984D01*
X6391610Y-17833984D02*
X6410658Y-17843508D01*
X6410658Y-17843508D02*
X6420182Y-17853031D01*
X6420182Y-17853031D02*
X6429705Y-17872079D01*
X6429705Y-17872079D02*
X6439229Y-17910174D01*
X6439229Y-17910174D02*
X6439229Y-17957793D01*
X6439229Y-17957793D02*
X6429705Y-17995889D01*
X6429705Y-17995889D02*
X6420182Y-18014936D01*
X6420182Y-18014936D02*
X6410658Y-18024460D01*
X6410658Y-18024460D02*
X6391610Y-18033984D01*
X6391610Y-18033984D02*
X6372562Y-18033984D01*
X6372562Y-18033984D02*
X6353515Y-18024460D01*
X6353515Y-18024460D02*
X6343991Y-18014936D01*
X6343991Y-18014936D02*
X6334467Y-17995889D01*
X6334467Y-17995889D02*
X6324943Y-17957793D01*
X6324943Y-17957793D02*
X6324943Y-17910174D01*
X6324943Y-17910174D02*
X6334467Y-17872079D01*
X6334467Y-17872079D02*
X6343991Y-17853031D01*
X6343991Y-17853031D02*
X6353515Y-17843508D01*
X6353515Y-17843508D02*
X6372562Y-17833984D01*
X6563039Y-17833984D02*
X6582086Y-17833984D01*
X6582086Y-17833984D02*
X6601134Y-17843508D01*
X6601134Y-17843508D02*
X6610658Y-17853031D01*
X6610658Y-17853031D02*
X6620182Y-17872079D01*
X6620182Y-17872079D02*
X6629705Y-17910174D01*
X6629705Y-17910174D02*
X6629705Y-17957793D01*
X6629705Y-17957793D02*
X6620182Y-17995889D01*
X6620182Y-17995889D02*
X6610658Y-18014936D01*
X6610658Y-18014936D02*
X6601134Y-18024460D01*
X6601134Y-18024460D02*
X6582086Y-18033984D01*
X6582086Y-18033984D02*
X6563039Y-18033984D01*
X6563039Y-18033984D02*
X6543991Y-18024460D01*
X6543991Y-18024460D02*
X6534467Y-18014936D01*
X6534467Y-18014936D02*
X6524943Y-17995889D01*
X6524943Y-17995889D02*
X6515420Y-17957793D01*
X6515420Y-17957793D02*
X6515420Y-17910174D01*
X6515420Y-17910174D02*
X6524943Y-17872079D01*
X6524943Y-17872079D02*
X6534467Y-17853031D01*
X6534467Y-17853031D02*
X6543991Y-17843508D01*
X6543991Y-17843508D02*
X6563039Y-17833984D01*
X6715420Y-18033984D02*
X6715420Y-17900650D01*
X6715420Y-17919698D02*
X6724943Y-17910174D01*
X6724943Y-17910174D02*
X6743991Y-17900650D01*
X6743991Y-17900650D02*
X6772563Y-17900650D01*
X6772563Y-17900650D02*
X6791610Y-17910174D01*
X6791610Y-17910174D02*
X6801134Y-17929222D01*
X6801134Y-17929222D02*
X6801134Y-18033984D01*
X6801134Y-17929222D02*
X6810658Y-17910174D01*
X6810658Y-17910174D02*
X6829705Y-17900650D01*
X6829705Y-17900650D02*
X6858277Y-17900650D01*
X6858277Y-17900650D02*
X6877324Y-17910174D01*
X6877324Y-17910174D02*
X6886848Y-17929222D01*
X6886848Y-17929222D02*
X6886848Y-18033984D01*
X6982086Y-18033984D02*
X6982086Y-17900650D01*
X6982086Y-17919698D02*
X6991610Y-17910174D01*
X6991610Y-17910174D02*
X7010658Y-17900650D01*
X7010658Y-17900650D02*
X7039229Y-17900650D01*
X7039229Y-17900650D02*
X7058277Y-17910174D01*
X7058277Y-17910174D02*
X7067801Y-17929222D01*
X7067801Y-17929222D02*
X7067801Y-18033984D01*
X7067801Y-17929222D02*
X7077324Y-17910174D01*
X7077324Y-17910174D02*
X7096372Y-17900650D01*
X7096372Y-17900650D02*
X7124943Y-17900650D01*
X7124943Y-17900650D02*
X7143991Y-17910174D01*
X7143991Y-17910174D02*
X7153515Y-17929222D01*
X7153515Y-17929222D02*
X7153515Y-18033984D01*
X7543991Y-17824460D02*
X7372563Y-18081603D01*
X7801134Y-17833984D02*
X7820182Y-17833984D01*
X7820182Y-17833984D02*
X7839229Y-17843508D01*
X7839229Y-17843508D02*
X7848753Y-17853031D01*
X7848753Y-17853031D02*
X7858277Y-17872079D01*
X7858277Y-17872079D02*
X7867801Y-17910174D01*
X7867801Y-17910174D02*
X7867801Y-17957793D01*
X7867801Y-17957793D02*
X7858277Y-17995889D01*
X7858277Y-17995889D02*
X7848753Y-18014936D01*
X7848753Y-18014936D02*
X7839229Y-18024460D01*
X7839229Y-18024460D02*
X7820182Y-18033984D01*
X7820182Y-18033984D02*
X7801134Y-18033984D01*
X7801134Y-18033984D02*
X7782086Y-18024460D01*
X7782086Y-18024460D02*
X7772563Y-18014936D01*
X7772563Y-18014936D02*
X7763039Y-17995889D01*
X7763039Y-17995889D02*
X7753515Y-17957793D01*
X7753515Y-17957793D02*
X7753515Y-17910174D01*
X7753515Y-17910174D02*
X7763039Y-17872079D01*
X7763039Y-17872079D02*
X7772563Y-17853031D01*
X7772563Y-17853031D02*
X7782086Y-17843508D01*
X7782086Y-17843508D02*
X7801134Y-17833984D01*
X7953515Y-18014936D02*
X7963039Y-18024460D01*
X7963039Y-18024460D02*
X7953515Y-18033984D01*
X7953515Y-18033984D02*
X7943991Y-18024460D01*
X7943991Y-18024460D02*
X7953515Y-18014936D01*
X7953515Y-18014936D02*
X7953515Y-18033984D01*
X8086848Y-17833984D02*
X8105896Y-17833984D01*
X8105896Y-17833984D02*
X8124944Y-17843508D01*
X8124944Y-17843508D02*
X8134467Y-17853031D01*
X8134467Y-17853031D02*
X8143991Y-17872079D01*
X8143991Y-17872079D02*
X8153515Y-17910174D01*
X8153515Y-17910174D02*
X8153515Y-17957793D01*
X8153515Y-17957793D02*
X8143991Y-17995889D01*
X8143991Y-17995889D02*
X8134467Y-18014936D01*
X8134467Y-18014936D02*
X8124944Y-18024460D01*
X8124944Y-18024460D02*
X8105896Y-18033984D01*
X8105896Y-18033984D02*
X8086848Y-18033984D01*
X8086848Y-18033984D02*
X8067801Y-18024460D01*
X8067801Y-18024460D02*
X8058277Y-18014936D01*
X8058277Y-18014936D02*
X8048753Y-17995889D01*
X8048753Y-17995889D02*
X8039229Y-17957793D01*
X8039229Y-17957793D02*
X8039229Y-17910174D01*
X8039229Y-17910174D02*
X8048753Y-17872079D01*
X8048753Y-17872079D02*
X8058277Y-17853031D01*
X8058277Y-17853031D02*
X8067801Y-17843508D01*
X8067801Y-17843508D02*
X8086848Y-17833984D01*
X8220182Y-17833984D02*
X8343991Y-17833984D01*
X8343991Y-17833984D02*
X8277325Y-17910174D01*
X8277325Y-17910174D02*
X8305896Y-17910174D01*
X8305896Y-17910174D02*
X8324944Y-17919698D01*
X8324944Y-17919698D02*
X8334467Y-17929222D01*
X8334467Y-17929222D02*
X8343991Y-17948270D01*
X8343991Y-17948270D02*
X8343991Y-17995889D01*
X8343991Y-17995889D02*
X8334467Y-18014936D01*
X8334467Y-18014936D02*
X8324944Y-18024460D01*
X8324944Y-18024460D02*
X8305896Y-18033984D01*
X8305896Y-18033984D02*
X8248753Y-18033984D01*
X8248753Y-18033984D02*
X8229706Y-18024460D01*
X8229706Y-18024460D02*
X8220182Y-18014936D01*
X8439229Y-18033984D02*
X8477325Y-18033984D01*
X8477325Y-18033984D02*
X8496372Y-18024460D01*
X8496372Y-18024460D02*
X8505896Y-18014936D01*
X8505896Y-18014936D02*
X8524944Y-17986365D01*
X8524944Y-17986365D02*
X8534468Y-17948270D01*
X8534468Y-17948270D02*
X8534468Y-17872079D01*
X8534468Y-17872079D02*
X8524944Y-17853031D01*
X8524944Y-17853031D02*
X8515420Y-17843508D01*
X8515420Y-17843508D02*
X8496372Y-17833984D01*
X8496372Y-17833984D02*
X8458277Y-17833984D01*
X8458277Y-17833984D02*
X8439229Y-17843508D01*
X8439229Y-17843508D02*
X8429706Y-17853031D01*
X8429706Y-17853031D02*
X8420182Y-17872079D01*
X8420182Y-17872079D02*
X8420182Y-17919698D01*
X8420182Y-17919698D02*
X8429706Y-17938746D01*
X8429706Y-17938746D02*
X8439229Y-17948270D01*
X8439229Y-17948270D02*
X8458277Y-17957793D01*
X8458277Y-17957793D02*
X8496372Y-17957793D01*
X8496372Y-17957793D02*
X8515420Y-17948270D01*
X8515420Y-17948270D02*
X8524944Y-17938746D01*
X8524944Y-17938746D02*
X8534468Y-17919698D01*
X8705896Y-17900650D02*
X8705896Y-18033984D01*
X8658277Y-17824460D02*
X8610658Y-17967317D01*
X8610658Y-17967317D02*
X8734468Y-17967317D01*
X8801134Y-17833984D02*
X8801134Y-17872079D01*
X8877325Y-17833984D02*
X8877325Y-17872079D01*
X9172563Y-18110174D02*
X9163039Y-18100650D01*
X9163039Y-18100650D02*
X9143991Y-18072079D01*
X9143991Y-18072079D02*
X9134468Y-18053031D01*
X9134468Y-18053031D02*
X9124944Y-18024460D01*
X9124944Y-18024460D02*
X9115420Y-17976841D01*
X9115420Y-17976841D02*
X9115420Y-17938746D01*
X9115420Y-17938746D02*
X9124944Y-17891127D01*
X9124944Y-17891127D02*
X9134468Y-17862555D01*
X9134468Y-17862555D02*
X9143991Y-17843508D01*
X9143991Y-17843508D02*
X9163039Y-17814936D01*
X9163039Y-17814936D02*
X9172563Y-17805412D01*
X9229706Y-17833984D02*
X9363039Y-17833984D01*
X9363039Y-17833984D02*
X9277325Y-18033984D01*
X9524944Y-17833984D02*
X9486849Y-17833984D01*
X9486849Y-17833984D02*
X9467801Y-17843508D01*
X9467801Y-17843508D02*
X9458277Y-17853031D01*
X9458277Y-17853031D02*
X9439230Y-17881603D01*
X9439230Y-17881603D02*
X9429706Y-17919698D01*
X9429706Y-17919698D02*
X9429706Y-17995889D01*
X9429706Y-17995889D02*
X9439230Y-18014936D01*
X9439230Y-18014936D02*
X9448753Y-18024460D01*
X9448753Y-18024460D02*
X9467801Y-18033984D01*
X9467801Y-18033984D02*
X9505896Y-18033984D01*
X9505896Y-18033984D02*
X9524944Y-18024460D01*
X9524944Y-18024460D02*
X9534468Y-18014936D01*
X9534468Y-18014936D02*
X9543991Y-17995889D01*
X9543991Y-17995889D02*
X9543991Y-17948270D01*
X9543991Y-17948270D02*
X9534468Y-17929222D01*
X9534468Y-17929222D02*
X9524944Y-17919698D01*
X9524944Y-17919698D02*
X9505896Y-17910174D01*
X9505896Y-17910174D02*
X9467801Y-17910174D01*
X9467801Y-17910174D02*
X9448753Y-17919698D01*
X9448753Y-17919698D02*
X9439230Y-17929222D01*
X9439230Y-17929222D02*
X9429706Y-17948270D01*
X9782087Y-18033984D02*
X9782087Y-17833984D01*
X9867801Y-18033984D02*
X9867801Y-17929222D01*
X9867801Y-17929222D02*
X9858277Y-17910174D01*
X9858277Y-17910174D02*
X9839230Y-17900650D01*
X9839230Y-17900650D02*
X9810658Y-17900650D01*
X9810658Y-17900650D02*
X9791611Y-17910174D01*
X9791611Y-17910174D02*
X9782087Y-17919698D01*
X9991611Y-18033984D02*
X9972563Y-18024460D01*
X9972563Y-18024460D02*
X9963039Y-18014936D01*
X9963039Y-18014936D02*
X9953515Y-17995889D01*
X9953515Y-17995889D02*
X9953515Y-17938746D01*
X9953515Y-17938746D02*
X9963039Y-17919698D01*
X9963039Y-17919698D02*
X9972563Y-17910174D01*
X9972563Y-17910174D02*
X9991611Y-17900650D01*
X9991611Y-17900650D02*
X10020182Y-17900650D01*
X10020182Y-17900650D02*
X10039230Y-17910174D01*
X10039230Y-17910174D02*
X10048753Y-17919698D01*
X10048753Y-17919698D02*
X10058277Y-17938746D01*
X10058277Y-17938746D02*
X10058277Y-17995889D01*
X10058277Y-17995889D02*
X10048753Y-18014936D01*
X10048753Y-18014936D02*
X10039230Y-18024460D01*
X10039230Y-18024460D02*
X10020182Y-18033984D01*
X10020182Y-18033984D02*
X9991611Y-18033984D01*
X10172563Y-18033984D02*
X10153515Y-18024460D01*
X10153515Y-18024460D02*
X10143992Y-18005412D01*
X10143992Y-18005412D02*
X10143992Y-17833984D01*
X10324944Y-18024460D02*
X10305896Y-18033984D01*
X10305896Y-18033984D02*
X10267801Y-18033984D01*
X10267801Y-18033984D02*
X10248753Y-18024460D01*
X10248753Y-18024460D02*
X10239230Y-18005412D01*
X10239230Y-18005412D02*
X10239230Y-17929222D01*
X10239230Y-17929222D02*
X10248753Y-17910174D01*
X10248753Y-17910174D02*
X10267801Y-17900650D01*
X10267801Y-17900650D02*
X10305896Y-17900650D01*
X10305896Y-17900650D02*
X10324944Y-17910174D01*
X10324944Y-17910174D02*
X10334468Y-17929222D01*
X10334468Y-17929222D02*
X10334468Y-17948270D01*
X10334468Y-17948270D02*
X10239230Y-17967317D01*
X10410658Y-18024460D02*
X10429706Y-18033984D01*
X10429706Y-18033984D02*
X10467801Y-18033984D01*
X10467801Y-18033984D02*
X10486849Y-18024460D01*
X10486849Y-18024460D02*
X10496373Y-18005412D01*
X10496373Y-18005412D02*
X10496373Y-17995889D01*
X10496373Y-17995889D02*
X10486849Y-17976841D01*
X10486849Y-17976841D02*
X10467801Y-17967317D01*
X10467801Y-17967317D02*
X10439230Y-17967317D01*
X10439230Y-17967317D02*
X10420182Y-17957793D01*
X10420182Y-17957793D02*
X10410658Y-17938746D01*
X10410658Y-17938746D02*
X10410658Y-17929222D01*
X10410658Y-17929222D02*
X10420182Y-17910174D01*
X10420182Y-17910174D02*
X10439230Y-17900650D01*
X10439230Y-17900650D02*
X10467801Y-17900650D01*
X10467801Y-17900650D02*
X10486849Y-17910174D01*
X10563039Y-18110174D02*
X10572563Y-18100650D01*
X10572563Y-18100650D02*
X10591611Y-18072079D01*
X10591611Y-18072079D02*
X10601134Y-18053031D01*
X10601134Y-18053031D02*
X10610658Y-18024460D01*
X10610658Y-18024460D02*
X10620182Y-17976841D01*
X10620182Y-17976841D02*
X10620182Y-17938746D01*
X10620182Y-17938746D02*
X10610658Y-17891127D01*
X10610658Y-17891127D02*
X10601134Y-17862555D01*
X10601134Y-17862555D02*
X10591611Y-17843508D01*
X10591611Y-17843508D02*
X10572563Y-17814936D01*
X10572563Y-17814936D02*
X10563039Y-17805412D01*
D13*
X5597500Y-18206500D02*
G75*
G02*
X5477500Y-18206500I-60000J0D01*
G01*
X5477500Y-18206500D02*
G75*
G02*
X5597500Y-18206500I60000J0D01*
G01*
D11*
X5963039Y-18297984D02*
X5848753Y-18297984D01*
X5905896Y-18297984D02*
X5905896Y-18097984D01*
X5905896Y-18097984D02*
X5886848Y-18126555D01*
X5886848Y-18126555D02*
X5867801Y-18145603D01*
X5867801Y-18145603D02*
X5848753Y-18155127D01*
X6048753Y-18278936D02*
X6058277Y-18288460D01*
X6058277Y-18288460D02*
X6048753Y-18297984D01*
X6048753Y-18297984D02*
X6039229Y-18288460D01*
X6039229Y-18288460D02*
X6048753Y-18278936D01*
X6048753Y-18278936D02*
X6048753Y-18297984D01*
X6134467Y-18117031D02*
X6143991Y-18107508D01*
X6143991Y-18107508D02*
X6163039Y-18097984D01*
X6163039Y-18097984D02*
X6210658Y-18097984D01*
X6210658Y-18097984D02*
X6229705Y-18107508D01*
X6229705Y-18107508D02*
X6239229Y-18117031D01*
X6239229Y-18117031D02*
X6248753Y-18136079D01*
X6248753Y-18136079D02*
X6248753Y-18155127D01*
X6248753Y-18155127D02*
X6239229Y-18183698D01*
X6239229Y-18183698D02*
X6124943Y-18297984D01*
X6124943Y-18297984D02*
X6248753Y-18297984D01*
X6372562Y-18097984D02*
X6391610Y-18097984D01*
X6391610Y-18097984D02*
X6410658Y-18107508D01*
X6410658Y-18107508D02*
X6420182Y-18117031D01*
X6420182Y-18117031D02*
X6429705Y-18136079D01*
X6429705Y-18136079D02*
X6439229Y-18174174D01*
X6439229Y-18174174D02*
X6439229Y-18221793D01*
X6439229Y-18221793D02*
X6429705Y-18259889D01*
X6429705Y-18259889D02*
X6420182Y-18278936D01*
X6420182Y-18278936D02*
X6410658Y-18288460D01*
X6410658Y-18288460D02*
X6391610Y-18297984D01*
X6391610Y-18297984D02*
X6372562Y-18297984D01*
X6372562Y-18297984D02*
X6353515Y-18288460D01*
X6353515Y-18288460D02*
X6343991Y-18278936D01*
X6343991Y-18278936D02*
X6334467Y-18259889D01*
X6334467Y-18259889D02*
X6324943Y-18221793D01*
X6324943Y-18221793D02*
X6324943Y-18174174D01*
X6324943Y-18174174D02*
X6334467Y-18136079D01*
X6334467Y-18136079D02*
X6343991Y-18117031D01*
X6343991Y-18117031D02*
X6353515Y-18107508D01*
X6353515Y-18107508D02*
X6372562Y-18097984D01*
X6563039Y-18097984D02*
X6582086Y-18097984D01*
X6582086Y-18097984D02*
X6601134Y-18107508D01*
X6601134Y-18107508D02*
X6610658Y-18117031D01*
X6610658Y-18117031D02*
X6620182Y-18136079D01*
X6620182Y-18136079D02*
X6629705Y-18174174D01*
X6629705Y-18174174D02*
X6629705Y-18221793D01*
X6629705Y-18221793D02*
X6620182Y-18259889D01*
X6620182Y-18259889D02*
X6610658Y-18278936D01*
X6610658Y-18278936D02*
X6601134Y-18288460D01*
X6601134Y-18288460D02*
X6582086Y-18297984D01*
X6582086Y-18297984D02*
X6563039Y-18297984D01*
X6563039Y-18297984D02*
X6543991Y-18288460D01*
X6543991Y-18288460D02*
X6534467Y-18278936D01*
X6534467Y-18278936D02*
X6524943Y-18259889D01*
X6524943Y-18259889D02*
X6515420Y-18221793D01*
X6515420Y-18221793D02*
X6515420Y-18174174D01*
X6515420Y-18174174D02*
X6524943Y-18136079D01*
X6524943Y-18136079D02*
X6534467Y-18117031D01*
X6534467Y-18117031D02*
X6543991Y-18107508D01*
X6543991Y-18107508D02*
X6563039Y-18097984D01*
X6715420Y-18297984D02*
X6715420Y-18164650D01*
X6715420Y-18183698D02*
X6724943Y-18174174D01*
X6724943Y-18174174D02*
X6743991Y-18164650D01*
X6743991Y-18164650D02*
X6772563Y-18164650D01*
X6772563Y-18164650D02*
X6791610Y-18174174D01*
X6791610Y-18174174D02*
X6801134Y-18193222D01*
X6801134Y-18193222D02*
X6801134Y-18297984D01*
X6801134Y-18193222D02*
X6810658Y-18174174D01*
X6810658Y-18174174D02*
X6829705Y-18164650D01*
X6829705Y-18164650D02*
X6858277Y-18164650D01*
X6858277Y-18164650D02*
X6877324Y-18174174D01*
X6877324Y-18174174D02*
X6886848Y-18193222D01*
X6886848Y-18193222D02*
X6886848Y-18297984D01*
X6982086Y-18297984D02*
X6982086Y-18164650D01*
X6982086Y-18183698D02*
X6991610Y-18174174D01*
X6991610Y-18174174D02*
X7010658Y-18164650D01*
X7010658Y-18164650D02*
X7039229Y-18164650D01*
X7039229Y-18164650D02*
X7058277Y-18174174D01*
X7058277Y-18174174D02*
X7067801Y-18193222D01*
X7067801Y-18193222D02*
X7067801Y-18297984D01*
X7067801Y-18193222D02*
X7077324Y-18174174D01*
X7077324Y-18174174D02*
X7096372Y-18164650D01*
X7096372Y-18164650D02*
X7124943Y-18164650D01*
X7124943Y-18164650D02*
X7143991Y-18174174D01*
X7143991Y-18174174D02*
X7153515Y-18193222D01*
X7153515Y-18193222D02*
X7153515Y-18297984D01*
X7543991Y-18088460D02*
X7372563Y-18345603D01*
X7801134Y-18097984D02*
X7820182Y-18097984D01*
X7820182Y-18097984D02*
X7839229Y-18107508D01*
X7839229Y-18107508D02*
X7848753Y-18117031D01*
X7848753Y-18117031D02*
X7858277Y-18136079D01*
X7858277Y-18136079D02*
X7867801Y-18174174D01*
X7867801Y-18174174D02*
X7867801Y-18221793D01*
X7867801Y-18221793D02*
X7858277Y-18259889D01*
X7858277Y-18259889D02*
X7848753Y-18278936D01*
X7848753Y-18278936D02*
X7839229Y-18288460D01*
X7839229Y-18288460D02*
X7820182Y-18297984D01*
X7820182Y-18297984D02*
X7801134Y-18297984D01*
X7801134Y-18297984D02*
X7782086Y-18288460D01*
X7782086Y-18288460D02*
X7772563Y-18278936D01*
X7772563Y-18278936D02*
X7763039Y-18259889D01*
X7763039Y-18259889D02*
X7753515Y-18221793D01*
X7753515Y-18221793D02*
X7753515Y-18174174D01*
X7753515Y-18174174D02*
X7763039Y-18136079D01*
X7763039Y-18136079D02*
X7772563Y-18117031D01*
X7772563Y-18117031D02*
X7782086Y-18107508D01*
X7782086Y-18107508D02*
X7801134Y-18097984D01*
X7953515Y-18278936D02*
X7963039Y-18288460D01*
X7963039Y-18288460D02*
X7953515Y-18297984D01*
X7953515Y-18297984D02*
X7943991Y-18288460D01*
X7943991Y-18288460D02*
X7953515Y-18278936D01*
X7953515Y-18278936D02*
X7953515Y-18297984D01*
X8086848Y-18097984D02*
X8105896Y-18097984D01*
X8105896Y-18097984D02*
X8124944Y-18107508D01*
X8124944Y-18107508D02*
X8134467Y-18117031D01*
X8134467Y-18117031D02*
X8143991Y-18136079D01*
X8143991Y-18136079D02*
X8153515Y-18174174D01*
X8153515Y-18174174D02*
X8153515Y-18221793D01*
X8153515Y-18221793D02*
X8143991Y-18259889D01*
X8143991Y-18259889D02*
X8134467Y-18278936D01*
X8134467Y-18278936D02*
X8124944Y-18288460D01*
X8124944Y-18288460D02*
X8105896Y-18297984D01*
X8105896Y-18297984D02*
X8086848Y-18297984D01*
X8086848Y-18297984D02*
X8067801Y-18288460D01*
X8067801Y-18288460D02*
X8058277Y-18278936D01*
X8058277Y-18278936D02*
X8048753Y-18259889D01*
X8048753Y-18259889D02*
X8039229Y-18221793D01*
X8039229Y-18221793D02*
X8039229Y-18174174D01*
X8039229Y-18174174D02*
X8048753Y-18136079D01*
X8048753Y-18136079D02*
X8058277Y-18117031D01*
X8058277Y-18117031D02*
X8067801Y-18107508D01*
X8067801Y-18107508D02*
X8086848Y-18097984D01*
X8324944Y-18164650D02*
X8324944Y-18297984D01*
X8277325Y-18088460D02*
X8229706Y-18231317D01*
X8229706Y-18231317D02*
X8353515Y-18231317D01*
X8410658Y-18097984D02*
X8543991Y-18097984D01*
X8543991Y-18097984D02*
X8458277Y-18297984D01*
X8610658Y-18117031D02*
X8620182Y-18107508D01*
X8620182Y-18107508D02*
X8639229Y-18097984D01*
X8639229Y-18097984D02*
X8686849Y-18097984D01*
X8686849Y-18097984D02*
X8705896Y-18107508D01*
X8705896Y-18107508D02*
X8715420Y-18117031D01*
X8715420Y-18117031D02*
X8724944Y-18136079D01*
X8724944Y-18136079D02*
X8724944Y-18155127D01*
X8724944Y-18155127D02*
X8715420Y-18183698D01*
X8715420Y-18183698D02*
X8601134Y-18297984D01*
X8601134Y-18297984D02*
X8724944Y-18297984D01*
X8801134Y-18097984D02*
X8801134Y-18136079D01*
X8877325Y-18097984D02*
X8877325Y-18136079D01*
X9172563Y-18374174D02*
X9163039Y-18364650D01*
X9163039Y-18364650D02*
X9143991Y-18336079D01*
X9143991Y-18336079D02*
X9134468Y-18317031D01*
X9134468Y-18317031D02*
X9124944Y-18288460D01*
X9124944Y-18288460D02*
X9115420Y-18240841D01*
X9115420Y-18240841D02*
X9115420Y-18202746D01*
X9115420Y-18202746D02*
X9124944Y-18155127D01*
X9124944Y-18155127D02*
X9134468Y-18126555D01*
X9134468Y-18126555D02*
X9143991Y-18107508D01*
X9143991Y-18107508D02*
X9163039Y-18078936D01*
X9163039Y-18078936D02*
X9172563Y-18069412D01*
X9334468Y-18164650D02*
X9334468Y-18297984D01*
X9286849Y-18088460D02*
X9239230Y-18231317D01*
X9239230Y-18231317D02*
X9363039Y-18231317D01*
X9591611Y-18297984D02*
X9591611Y-18097984D01*
X9677325Y-18297984D02*
X9677325Y-18193222D01*
X9677325Y-18193222D02*
X9667801Y-18174174D01*
X9667801Y-18174174D02*
X9648753Y-18164650D01*
X9648753Y-18164650D02*
X9620182Y-18164650D01*
X9620182Y-18164650D02*
X9601134Y-18174174D01*
X9601134Y-18174174D02*
X9591611Y-18183698D01*
X9801134Y-18297984D02*
X9782087Y-18288460D01*
X9782087Y-18288460D02*
X9772563Y-18278936D01*
X9772563Y-18278936D02*
X9763039Y-18259889D01*
X9763039Y-18259889D02*
X9763039Y-18202746D01*
X9763039Y-18202746D02*
X9772563Y-18183698D01*
X9772563Y-18183698D02*
X9782087Y-18174174D01*
X9782087Y-18174174D02*
X9801134Y-18164650D01*
X9801134Y-18164650D02*
X9829706Y-18164650D01*
X9829706Y-18164650D02*
X9848753Y-18174174D01*
X9848753Y-18174174D02*
X9858277Y-18183698D01*
X9858277Y-18183698D02*
X9867801Y-18202746D01*
X9867801Y-18202746D02*
X9867801Y-18259889D01*
X9867801Y-18259889D02*
X9858277Y-18278936D01*
X9858277Y-18278936D02*
X9848753Y-18288460D01*
X9848753Y-18288460D02*
X9829706Y-18297984D01*
X9829706Y-18297984D02*
X9801134Y-18297984D01*
X9982087Y-18297984D02*
X9963039Y-18288460D01*
X9963039Y-18288460D02*
X9953515Y-18269412D01*
X9953515Y-18269412D02*
X9953515Y-18097984D01*
X10134468Y-18288460D02*
X10115420Y-18297984D01*
X10115420Y-18297984D02*
X10077325Y-18297984D01*
X10077325Y-18297984D02*
X10058277Y-18288460D01*
X10058277Y-18288460D02*
X10048753Y-18269412D01*
X10048753Y-18269412D02*
X10048753Y-18193222D01*
X10048753Y-18193222D02*
X10058277Y-18174174D01*
X10058277Y-18174174D02*
X10077325Y-18164650D01*
X10077325Y-18164650D02*
X10115420Y-18164650D01*
X10115420Y-18164650D02*
X10134468Y-18174174D01*
X10134468Y-18174174D02*
X10143992Y-18193222D01*
X10143992Y-18193222D02*
X10143992Y-18212270D01*
X10143992Y-18212270D02*
X10048753Y-18231317D01*
X10220182Y-18288460D02*
X10239230Y-18297984D01*
X10239230Y-18297984D02*
X10277325Y-18297984D01*
X10277325Y-18297984D02*
X10296373Y-18288460D01*
X10296373Y-18288460D02*
X10305896Y-18269412D01*
X10305896Y-18269412D02*
X10305896Y-18259889D01*
X10305896Y-18259889D02*
X10296373Y-18240841D01*
X10296373Y-18240841D02*
X10277325Y-18231317D01*
X10277325Y-18231317D02*
X10248753Y-18231317D01*
X10248753Y-18231317D02*
X10229706Y-18221793D01*
X10229706Y-18221793D02*
X10220182Y-18202746D01*
X10220182Y-18202746D02*
X10220182Y-18193222D01*
X10220182Y-18193222D02*
X10229706Y-18174174D01*
X10229706Y-18174174D02*
X10248753Y-18164650D01*
X10248753Y-18164650D02*
X10277325Y-18164650D01*
X10277325Y-18164650D02*
X10296373Y-18174174D01*
X10372563Y-18374174D02*
X10382087Y-18364650D01*
X10382087Y-18364650D02*
X10401134Y-18336079D01*
X10401134Y-18336079D02*
X10410658Y-18317031D01*
X10410658Y-18317031D02*
X10420182Y-18288460D01*
X10420182Y-18288460D02*
X10429706Y-18240841D01*
X10429706Y-18240841D02*
X10429706Y-18202746D01*
X10429706Y-18202746D02*
X10420182Y-18155127D01*
X10420182Y-18155127D02*
X10410658Y-18126555D01*
X10410658Y-18126555D02*
X10401134Y-18107508D01*
X10401134Y-18107508D02*
X10382087Y-18078936D01*
X10382087Y-18078936D02*
X10372563Y-18069412D01*
D14*
X5532500Y-18405500D02*
X5532500Y-18535500D01*
X5467500Y-18470500D02*
X5597500Y-18470500D01*
D11*
X5963039Y-18561984D02*
X5848753Y-18561984D01*
X5905896Y-18561984D02*
X5905896Y-18361984D01*
X5905896Y-18361984D02*
X5886848Y-18390555D01*
X5886848Y-18390555D02*
X5867801Y-18409603D01*
X5867801Y-18409603D02*
X5848753Y-18419127D01*
X6048753Y-18542936D02*
X6058277Y-18552460D01*
X6058277Y-18552460D02*
X6048753Y-18561984D01*
X6048753Y-18561984D02*
X6039229Y-18552460D01*
X6039229Y-18552460D02*
X6048753Y-18542936D01*
X6048753Y-18542936D02*
X6048753Y-18561984D01*
X6124943Y-18361984D02*
X6248753Y-18361984D01*
X6248753Y-18361984D02*
X6182086Y-18438174D01*
X6182086Y-18438174D02*
X6210658Y-18438174D01*
X6210658Y-18438174D02*
X6229705Y-18447698D01*
X6229705Y-18447698D02*
X6239229Y-18457222D01*
X6239229Y-18457222D02*
X6248753Y-18476270D01*
X6248753Y-18476270D02*
X6248753Y-18523889D01*
X6248753Y-18523889D02*
X6239229Y-18542936D01*
X6239229Y-18542936D02*
X6229705Y-18552460D01*
X6229705Y-18552460D02*
X6210658Y-18561984D01*
X6210658Y-18561984D02*
X6153515Y-18561984D01*
X6153515Y-18561984D02*
X6134467Y-18552460D01*
X6134467Y-18552460D02*
X6124943Y-18542936D01*
X6372562Y-18361984D02*
X6391610Y-18361984D01*
X6391610Y-18361984D02*
X6410658Y-18371508D01*
X6410658Y-18371508D02*
X6420182Y-18381031D01*
X6420182Y-18381031D02*
X6429705Y-18400079D01*
X6429705Y-18400079D02*
X6439229Y-18438174D01*
X6439229Y-18438174D02*
X6439229Y-18485793D01*
X6439229Y-18485793D02*
X6429705Y-18523889D01*
X6429705Y-18523889D02*
X6420182Y-18542936D01*
X6420182Y-18542936D02*
X6410658Y-18552460D01*
X6410658Y-18552460D02*
X6391610Y-18561984D01*
X6391610Y-18561984D02*
X6372562Y-18561984D01*
X6372562Y-18561984D02*
X6353515Y-18552460D01*
X6353515Y-18552460D02*
X6343991Y-18542936D01*
X6343991Y-18542936D02*
X6334467Y-18523889D01*
X6334467Y-18523889D02*
X6324943Y-18485793D01*
X6324943Y-18485793D02*
X6324943Y-18438174D01*
X6324943Y-18438174D02*
X6334467Y-18400079D01*
X6334467Y-18400079D02*
X6343991Y-18381031D01*
X6343991Y-18381031D02*
X6353515Y-18371508D01*
X6353515Y-18371508D02*
X6372562Y-18361984D01*
X6563039Y-18361984D02*
X6582086Y-18361984D01*
X6582086Y-18361984D02*
X6601134Y-18371508D01*
X6601134Y-18371508D02*
X6610658Y-18381031D01*
X6610658Y-18381031D02*
X6620182Y-18400079D01*
X6620182Y-18400079D02*
X6629705Y-18438174D01*
X6629705Y-18438174D02*
X6629705Y-18485793D01*
X6629705Y-18485793D02*
X6620182Y-18523889D01*
X6620182Y-18523889D02*
X6610658Y-18542936D01*
X6610658Y-18542936D02*
X6601134Y-18552460D01*
X6601134Y-18552460D02*
X6582086Y-18561984D01*
X6582086Y-18561984D02*
X6563039Y-18561984D01*
X6563039Y-18561984D02*
X6543991Y-18552460D01*
X6543991Y-18552460D02*
X6534467Y-18542936D01*
X6534467Y-18542936D02*
X6524943Y-18523889D01*
X6524943Y-18523889D02*
X6515420Y-18485793D01*
X6515420Y-18485793D02*
X6515420Y-18438174D01*
X6515420Y-18438174D02*
X6524943Y-18400079D01*
X6524943Y-18400079D02*
X6534467Y-18381031D01*
X6534467Y-18381031D02*
X6543991Y-18371508D01*
X6543991Y-18371508D02*
X6563039Y-18361984D01*
X6715420Y-18561984D02*
X6715420Y-18428650D01*
X6715420Y-18447698D02*
X6724943Y-18438174D01*
X6724943Y-18438174D02*
X6743991Y-18428650D01*
X6743991Y-18428650D02*
X6772563Y-18428650D01*
X6772563Y-18428650D02*
X6791610Y-18438174D01*
X6791610Y-18438174D02*
X6801134Y-18457222D01*
X6801134Y-18457222D02*
X6801134Y-18561984D01*
X6801134Y-18457222D02*
X6810658Y-18438174D01*
X6810658Y-18438174D02*
X6829705Y-18428650D01*
X6829705Y-18428650D02*
X6858277Y-18428650D01*
X6858277Y-18428650D02*
X6877324Y-18438174D01*
X6877324Y-18438174D02*
X6886848Y-18457222D01*
X6886848Y-18457222D02*
X6886848Y-18561984D01*
X6982086Y-18561984D02*
X6982086Y-18428650D01*
X6982086Y-18447698D02*
X6991610Y-18438174D01*
X6991610Y-18438174D02*
X7010658Y-18428650D01*
X7010658Y-18428650D02*
X7039229Y-18428650D01*
X7039229Y-18428650D02*
X7058277Y-18438174D01*
X7058277Y-18438174D02*
X7067801Y-18457222D01*
X7067801Y-18457222D02*
X7067801Y-18561984D01*
X7067801Y-18457222D02*
X7077324Y-18438174D01*
X7077324Y-18438174D02*
X7096372Y-18428650D01*
X7096372Y-18428650D02*
X7124943Y-18428650D01*
X7124943Y-18428650D02*
X7143991Y-18438174D01*
X7143991Y-18438174D02*
X7153515Y-18457222D01*
X7153515Y-18457222D02*
X7153515Y-18561984D01*
X7543991Y-18352460D02*
X7372563Y-18609603D01*
X7801134Y-18361984D02*
X7820182Y-18361984D01*
X7820182Y-18361984D02*
X7839229Y-18371508D01*
X7839229Y-18371508D02*
X7848753Y-18381031D01*
X7848753Y-18381031D02*
X7858277Y-18400079D01*
X7858277Y-18400079D02*
X7867801Y-18438174D01*
X7867801Y-18438174D02*
X7867801Y-18485793D01*
X7867801Y-18485793D02*
X7858277Y-18523889D01*
X7858277Y-18523889D02*
X7848753Y-18542936D01*
X7848753Y-18542936D02*
X7839229Y-18552460D01*
X7839229Y-18552460D02*
X7820182Y-18561984D01*
X7820182Y-18561984D02*
X7801134Y-18561984D01*
X7801134Y-18561984D02*
X7782086Y-18552460D01*
X7782086Y-18552460D02*
X7772563Y-18542936D01*
X7772563Y-18542936D02*
X7763039Y-18523889D01*
X7763039Y-18523889D02*
X7753515Y-18485793D01*
X7753515Y-18485793D02*
X7753515Y-18438174D01*
X7753515Y-18438174D02*
X7763039Y-18400079D01*
X7763039Y-18400079D02*
X7772563Y-18381031D01*
X7772563Y-18381031D02*
X7782086Y-18371508D01*
X7782086Y-18371508D02*
X7801134Y-18361984D01*
X7953515Y-18542936D02*
X7963039Y-18552460D01*
X7963039Y-18552460D02*
X7953515Y-18561984D01*
X7953515Y-18561984D02*
X7943991Y-18552460D01*
X7943991Y-18552460D02*
X7953515Y-18542936D01*
X7953515Y-18542936D02*
X7953515Y-18561984D01*
X8086848Y-18361984D02*
X8105896Y-18361984D01*
X8105896Y-18361984D02*
X8124944Y-18371508D01*
X8124944Y-18371508D02*
X8134467Y-18381031D01*
X8134467Y-18381031D02*
X8143991Y-18400079D01*
X8143991Y-18400079D02*
X8153515Y-18438174D01*
X8153515Y-18438174D02*
X8153515Y-18485793D01*
X8153515Y-18485793D02*
X8143991Y-18523889D01*
X8143991Y-18523889D02*
X8134467Y-18542936D01*
X8134467Y-18542936D02*
X8124944Y-18552460D01*
X8124944Y-18552460D02*
X8105896Y-18561984D01*
X8105896Y-18561984D02*
X8086848Y-18561984D01*
X8086848Y-18561984D02*
X8067801Y-18552460D01*
X8067801Y-18552460D02*
X8058277Y-18542936D01*
X8058277Y-18542936D02*
X8048753Y-18523889D01*
X8048753Y-18523889D02*
X8039229Y-18485793D01*
X8039229Y-18485793D02*
X8039229Y-18438174D01*
X8039229Y-18438174D02*
X8048753Y-18400079D01*
X8048753Y-18400079D02*
X8058277Y-18381031D01*
X8058277Y-18381031D02*
X8067801Y-18371508D01*
X8067801Y-18371508D02*
X8086848Y-18361984D01*
X8334467Y-18361984D02*
X8239229Y-18361984D01*
X8239229Y-18361984D02*
X8229706Y-18457222D01*
X8229706Y-18457222D02*
X8239229Y-18447698D01*
X8239229Y-18447698D02*
X8258277Y-18438174D01*
X8258277Y-18438174D02*
X8305896Y-18438174D01*
X8305896Y-18438174D02*
X8324944Y-18447698D01*
X8324944Y-18447698D02*
X8334467Y-18457222D01*
X8334467Y-18457222D02*
X8343991Y-18476270D01*
X8343991Y-18476270D02*
X8343991Y-18523889D01*
X8343991Y-18523889D02*
X8334467Y-18542936D01*
X8334467Y-18542936D02*
X8324944Y-18552460D01*
X8324944Y-18552460D02*
X8305896Y-18561984D01*
X8305896Y-18561984D02*
X8258277Y-18561984D01*
X8258277Y-18561984D02*
X8239229Y-18552460D01*
X8239229Y-18552460D02*
X8229706Y-18542936D01*
X8534468Y-18561984D02*
X8420182Y-18561984D01*
X8477325Y-18561984D02*
X8477325Y-18361984D01*
X8477325Y-18361984D02*
X8458277Y-18390555D01*
X8458277Y-18390555D02*
X8439229Y-18409603D01*
X8439229Y-18409603D02*
X8420182Y-18419127D01*
X8610658Y-18381031D02*
X8620182Y-18371508D01*
X8620182Y-18371508D02*
X8639229Y-18361984D01*
X8639229Y-18361984D02*
X8686849Y-18361984D01*
X8686849Y-18361984D02*
X8705896Y-18371508D01*
X8705896Y-18371508D02*
X8715420Y-18381031D01*
X8715420Y-18381031D02*
X8724944Y-18400079D01*
X8724944Y-18400079D02*
X8724944Y-18419127D01*
X8724944Y-18419127D02*
X8715420Y-18447698D01*
X8715420Y-18447698D02*
X8601134Y-18561984D01*
X8601134Y-18561984D02*
X8724944Y-18561984D01*
X8801134Y-18361984D02*
X8801134Y-18400079D01*
X8877325Y-18361984D02*
X8877325Y-18400079D01*
X9172563Y-18638174D02*
X9163039Y-18628650D01*
X9163039Y-18628650D02*
X9143991Y-18600079D01*
X9143991Y-18600079D02*
X9134468Y-18581031D01*
X9134468Y-18581031D02*
X9124944Y-18552460D01*
X9124944Y-18552460D02*
X9115420Y-18504841D01*
X9115420Y-18504841D02*
X9115420Y-18466746D01*
X9115420Y-18466746D02*
X9124944Y-18419127D01*
X9124944Y-18419127D02*
X9134468Y-18390555D01*
X9134468Y-18390555D02*
X9143991Y-18371508D01*
X9143991Y-18371508D02*
X9163039Y-18342936D01*
X9163039Y-18342936D02*
X9172563Y-18333412D01*
X9277325Y-18447698D02*
X9258277Y-18438174D01*
X9258277Y-18438174D02*
X9248753Y-18428650D01*
X9248753Y-18428650D02*
X9239230Y-18409603D01*
X9239230Y-18409603D02*
X9239230Y-18400079D01*
X9239230Y-18400079D02*
X9248753Y-18381031D01*
X9248753Y-18381031D02*
X9258277Y-18371508D01*
X9258277Y-18371508D02*
X9277325Y-18361984D01*
X9277325Y-18361984D02*
X9315420Y-18361984D01*
X9315420Y-18361984D02*
X9334468Y-18371508D01*
X9334468Y-18371508D02*
X9343991Y-18381031D01*
X9343991Y-18381031D02*
X9353515Y-18400079D01*
X9353515Y-18400079D02*
X9353515Y-18409603D01*
X9353515Y-18409603D02*
X9343991Y-18428650D01*
X9343991Y-18428650D02*
X9334468Y-18438174D01*
X9334468Y-18438174D02*
X9315420Y-18447698D01*
X9315420Y-18447698D02*
X9277325Y-18447698D01*
X9277325Y-18447698D02*
X9258277Y-18457222D01*
X9258277Y-18457222D02*
X9248753Y-18466746D01*
X9248753Y-18466746D02*
X9239230Y-18485793D01*
X9239230Y-18485793D02*
X9239230Y-18523889D01*
X9239230Y-18523889D02*
X9248753Y-18542936D01*
X9248753Y-18542936D02*
X9258277Y-18552460D01*
X9258277Y-18552460D02*
X9277325Y-18561984D01*
X9277325Y-18561984D02*
X9315420Y-18561984D01*
X9315420Y-18561984D02*
X9334468Y-18552460D01*
X9334468Y-18552460D02*
X9343991Y-18542936D01*
X9343991Y-18542936D02*
X9353515Y-18523889D01*
X9353515Y-18523889D02*
X9353515Y-18485793D01*
X9353515Y-18485793D02*
X9343991Y-18466746D01*
X9343991Y-18466746D02*
X9334468Y-18457222D01*
X9334468Y-18457222D02*
X9315420Y-18447698D01*
X9591611Y-18561984D02*
X9591611Y-18361984D01*
X9677325Y-18561984D02*
X9677325Y-18457222D01*
X9677325Y-18457222D02*
X9667801Y-18438174D01*
X9667801Y-18438174D02*
X9648753Y-18428650D01*
X9648753Y-18428650D02*
X9620182Y-18428650D01*
X9620182Y-18428650D02*
X9601134Y-18438174D01*
X9601134Y-18438174D02*
X9591611Y-18447698D01*
X9801134Y-18561984D02*
X9782087Y-18552460D01*
X9782087Y-18552460D02*
X9772563Y-18542936D01*
X9772563Y-18542936D02*
X9763039Y-18523889D01*
X9763039Y-18523889D02*
X9763039Y-18466746D01*
X9763039Y-18466746D02*
X9772563Y-18447698D01*
X9772563Y-18447698D02*
X9782087Y-18438174D01*
X9782087Y-18438174D02*
X9801134Y-18428650D01*
X9801134Y-18428650D02*
X9829706Y-18428650D01*
X9829706Y-18428650D02*
X9848753Y-18438174D01*
X9848753Y-18438174D02*
X9858277Y-18447698D01*
X9858277Y-18447698D02*
X9867801Y-18466746D01*
X9867801Y-18466746D02*
X9867801Y-18523889D01*
X9867801Y-18523889D02*
X9858277Y-18542936D01*
X9858277Y-18542936D02*
X9848753Y-18552460D01*
X9848753Y-18552460D02*
X9829706Y-18561984D01*
X9829706Y-18561984D02*
X9801134Y-18561984D01*
X9982087Y-18561984D02*
X9963039Y-18552460D01*
X9963039Y-18552460D02*
X9953515Y-18533412D01*
X9953515Y-18533412D02*
X9953515Y-18361984D01*
X10134468Y-18552460D02*
X10115420Y-18561984D01*
X10115420Y-18561984D02*
X10077325Y-18561984D01*
X10077325Y-18561984D02*
X10058277Y-18552460D01*
X10058277Y-18552460D02*
X10048753Y-18533412D01*
X10048753Y-18533412D02*
X10048753Y-18457222D01*
X10048753Y-18457222D02*
X10058277Y-18438174D01*
X10058277Y-18438174D02*
X10077325Y-18428650D01*
X10077325Y-18428650D02*
X10115420Y-18428650D01*
X10115420Y-18428650D02*
X10134468Y-18438174D01*
X10134468Y-18438174D02*
X10143992Y-18457222D01*
X10143992Y-18457222D02*
X10143992Y-18476270D01*
X10143992Y-18476270D02*
X10048753Y-18495317D01*
X10220182Y-18552460D02*
X10239230Y-18561984D01*
X10239230Y-18561984D02*
X10277325Y-18561984D01*
X10277325Y-18561984D02*
X10296373Y-18552460D01*
X10296373Y-18552460D02*
X10305896Y-18533412D01*
X10305896Y-18533412D02*
X10305896Y-18523889D01*
X10305896Y-18523889D02*
X10296373Y-18504841D01*
X10296373Y-18504841D02*
X10277325Y-18495317D01*
X10277325Y-18495317D02*
X10248753Y-18495317D01*
X10248753Y-18495317D02*
X10229706Y-18485793D01*
X10229706Y-18485793D02*
X10220182Y-18466746D01*
X10220182Y-18466746D02*
X10220182Y-18457222D01*
X10220182Y-18457222D02*
X10229706Y-18438174D01*
X10229706Y-18438174D02*
X10248753Y-18428650D01*
X10248753Y-18428650D02*
X10277325Y-18428650D01*
X10277325Y-18428650D02*
X10296373Y-18438174D01*
X10372563Y-18638174D02*
X10382087Y-18628650D01*
X10382087Y-18628650D02*
X10401134Y-18600079D01*
X10401134Y-18600079D02*
X10410658Y-18581031D01*
X10410658Y-18581031D02*
X10420182Y-18552460D01*
X10420182Y-18552460D02*
X10429706Y-18504841D01*
X10429706Y-18504841D02*
X10429706Y-18466746D01*
X10429706Y-18466746D02*
X10420182Y-18419127D01*
X10420182Y-18419127D02*
X10410658Y-18390555D01*
X10410658Y-18390555D02*
X10401134Y-18371508D01*
X10401134Y-18371508D02*
X10382087Y-18342936D01*
X10382087Y-18342936D02*
X10372563Y-18333412D01*
M02*
