G04 #@! TF.GenerationSoftware,KiCad,Pcbnew,9.0.1*
G04 #@! TF.CreationDate,2025-04-09T16:40:50+02:00*
G04 #@! TF.ProjectId,camera_base,63616d65-7261-45f6-9261-73652e6b6963,rev?*
G04 #@! TF.SameCoordinates,Original*
G04 #@! TF.FileFunction,Legend,Bot*
G04 #@! TF.FilePolarity,Positive*
%FSLAX46Y46*%
G04 Gerber Fmt 4.6, Leading zero omitted, Abs format (unit mm)*
G04 Created by KiCad (PCBNEW 9.0.1) date 2025-04-09 16:40:50*
%MOMM*%
%LPD*%
G01*
G04 APERTURE LIST*
G04 Aperture macros list*
%AMRoundRect*
0 Rectangle with rounded corners*
0 $1 Rounding radius*
0 $2 $3 $4 $5 $6 $7 $8 $9 X,Y pos of 4 corners*
0 Add a 4 corners polygon primitive as box body*
4,1,4,$2,$3,$4,$5,$6,$7,$8,$9,$2,$3,0*
0 Add four circle primitives for the rounded corners*
1,1,$1+$1,$2,$3*
1,1,$1+$1,$4,$5*
1,1,$1+$1,$6,$7*
1,1,$1+$1,$8,$9*
0 Add four rect primitives between the rounded corners*
20,1,$1+$1,$2,$3,$4,$5,0*
20,1,$1+$1,$4,$5,$6,$7,0*
20,1,$1+$1,$6,$7,$8,$9,0*
20,1,$1+$1,$8,$9,$2,$3,0*%
G04 Aperture macros list end*
%ADD10C,0.100000*%
%ADD11C,2.700000*%
%ADD12C,2.750000*%
%ADD13RoundRect,0.102000X-0.754000X-0.754000X0.754000X-0.754000X0.754000X0.754000X-0.754000X0.754000X0*%
%ADD14C,1.712000*%
%ADD15O,3.200000X1.900000*%
%ADD16C,1.600000*%
%ADD17C,1.700000*%
%ADD18C,2.200000*%
%ADD19C,1.800000*%
%ADD20R,1.700000X1.700000*%
G04 APERTURE END LIST*
D10*
X79413332Y-130207419D02*
X79413332Y-129207419D01*
X79413332Y-129207419D02*
X79032380Y-129207419D01*
X79032380Y-129207419D02*
X78937142Y-129255038D01*
X78937142Y-129255038D02*
X78889523Y-129302657D01*
X78889523Y-129302657D02*
X78841904Y-129397895D01*
X78841904Y-129397895D02*
X78841904Y-129540752D01*
X78841904Y-129540752D02*
X78889523Y-129635990D01*
X78889523Y-129635990D02*
X78937142Y-129683609D01*
X78937142Y-129683609D02*
X79032380Y-129731228D01*
X79032380Y-129731228D02*
X79413332Y-129731228D01*
X78222856Y-129207419D02*
X78032380Y-129207419D01*
X78032380Y-129207419D02*
X77937142Y-129255038D01*
X77937142Y-129255038D02*
X77841904Y-129350276D01*
X77841904Y-129350276D02*
X77794285Y-129540752D01*
X77794285Y-129540752D02*
X77794285Y-129874085D01*
X77794285Y-129874085D02*
X77841904Y-130064561D01*
X77841904Y-130064561D02*
X77937142Y-130159800D01*
X77937142Y-130159800D02*
X78032380Y-130207419D01*
X78032380Y-130207419D02*
X78222856Y-130207419D01*
X78222856Y-130207419D02*
X78318094Y-130159800D01*
X78318094Y-130159800D02*
X78413332Y-130064561D01*
X78413332Y-130064561D02*
X78460951Y-129874085D01*
X78460951Y-129874085D02*
X78460951Y-129540752D01*
X78460951Y-129540752D02*
X78413332Y-129350276D01*
X78413332Y-129350276D02*
X78318094Y-129255038D01*
X78318094Y-129255038D02*
X78222856Y-129207419D01*
X77460951Y-129207419D02*
X77222856Y-130207419D01*
X77222856Y-130207419D02*
X77032380Y-129493133D01*
X77032380Y-129493133D02*
X76841904Y-130207419D01*
X76841904Y-130207419D02*
X76603809Y-129207419D01*
X75699047Y-130207419D02*
X76270475Y-130207419D01*
X75984761Y-130207419D02*
X75984761Y-129207419D01*
X75984761Y-129207419D02*
X76079999Y-129350276D01*
X76079999Y-129350276D02*
X76175237Y-129445514D01*
X76175237Y-129445514D02*
X76270475Y-129493133D01*
G36*
X74919960Y-120798101D02*
G01*
X75451243Y-120798101D01*
X75481779Y-120724451D01*
X75508402Y-120621006D01*
X75524663Y-120510856D01*
X75530100Y-120398831D01*
X75521803Y-120286875D01*
X75498114Y-120189460D01*
X75460091Y-120104188D01*
X75421246Y-120045934D01*
X75375007Y-119995326D01*
X75320885Y-119951773D01*
X75258068Y-119915016D01*
X75167783Y-119879838D01*
X75063440Y-119857670D01*
X74942500Y-119849852D01*
X74822610Y-119857662D01*
X74719076Y-119879823D01*
X74629390Y-119915016D01*
X74566819Y-119951686D01*
X74512909Y-119994839D01*
X74466849Y-120044700D01*
X74428140Y-120101801D01*
X74390001Y-120185453D01*
X74366328Y-120280471D01*
X74358061Y-120389140D01*
X74362258Y-120469023D01*
X74374470Y-120542571D01*
X74394294Y-120610543D01*
X74422750Y-120675030D01*
X74458890Y-120732483D01*
X74502924Y-120783635D01*
X74604392Y-120732094D01*
X74541784Y-120646786D01*
X74502152Y-120568692D01*
X74478913Y-120485667D01*
X74470764Y-120389140D01*
X74476192Y-120310874D01*
X74491604Y-120243419D01*
X74516139Y-120185059D01*
X74549570Y-120134409D01*
X74592314Y-120090495D01*
X74655218Y-120047494D01*
X74732462Y-120015103D01*
X74827011Y-119994188D01*
X74942500Y-119986640D01*
X75060480Y-119994398D01*
X75156502Y-120015844D01*
X75234445Y-120048976D01*
X75297461Y-120092883D01*
X75339940Y-120137627D01*
X75373342Y-120189639D01*
X75397980Y-120249995D01*
X75413521Y-120320191D01*
X75419012Y-120402061D01*
X75413951Y-120496798D01*
X75398911Y-120588388D01*
X75373931Y-120677393D01*
X75024587Y-120677393D01*
X75024587Y-120392370D01*
X74919960Y-120392370D01*
X74919960Y-120798101D01*
G37*
G36*
X74370911Y-121987343D02*
G01*
X75517250Y-121987343D01*
X75517250Y-121884261D01*
X74594702Y-121191963D01*
X75517250Y-121191963D01*
X75517250Y-121068025D01*
X74370911Y-121068025D01*
X74370911Y-121169423D01*
X75293459Y-121861720D01*
X74370911Y-121861720D01*
X74370911Y-121987343D01*
G37*
G36*
X75517250Y-122653800D02*
G01*
X75510437Y-122765587D01*
X75491142Y-122861997D01*
X75460613Y-122945290D01*
X75419445Y-123017365D01*
X75367541Y-123079683D01*
X75305477Y-123131891D01*
X75233625Y-123173286D01*
X75150517Y-123203979D01*
X75054236Y-123223382D01*
X74942500Y-123230234D01*
X74831440Y-123223389D01*
X74735725Y-123204000D01*
X74653083Y-123173320D01*
X74581609Y-123131924D01*
X74519847Y-123079683D01*
X74468240Y-123017407D01*
X74427286Y-122945356D01*
X74396903Y-122862065D01*
X74377694Y-122765632D01*
X74370911Y-122653800D01*
X74370911Y-122645795D01*
X74483614Y-122645795D01*
X74490156Y-122745938D01*
X74508391Y-122828969D01*
X74536801Y-122897762D01*
X74574712Y-122954668D01*
X74622337Y-123001381D01*
X74680756Y-123038817D01*
X74751831Y-123067032D01*
X74838070Y-123085218D01*
X74942500Y-123091761D01*
X75037188Y-123086470D01*
X75117101Y-123071652D01*
X75184446Y-123048543D01*
X75241114Y-123017875D01*
X75288614Y-122979830D01*
X75328336Y-122933549D01*
X75360118Y-122878597D01*
X75383925Y-122813579D01*
X75399130Y-122736691D01*
X75404547Y-122645795D01*
X75404547Y-122401079D01*
X74483614Y-122401079D01*
X74483614Y-122645795D01*
X74370911Y-122645795D01*
X74370911Y-122269065D01*
X75517250Y-122269065D01*
X75517250Y-122653800D01*
G37*
G36*
X90167965Y-120390755D02*
G01*
X90192918Y-120454935D01*
X90226214Y-120505729D01*
X90267817Y-120545309D01*
X90317530Y-120574138D01*
X90376363Y-120592110D01*
X90446527Y-120598466D01*
X90519746Y-120591672D01*
X90582170Y-120572307D01*
X90635906Y-120540969D01*
X90682395Y-120496998D01*
X90718634Y-120444381D01*
X90745440Y-120382245D01*
X90762441Y-120308781D01*
X90768485Y-120221736D01*
X90764336Y-120148335D01*
X90751999Y-120077385D01*
X90731479Y-120008408D01*
X90702817Y-119942594D01*
X90667935Y-119885197D01*
X90626851Y-119835317D01*
X90525384Y-119886858D01*
X90585237Y-119970831D01*
X90625928Y-120053373D01*
X90649594Y-120135512D01*
X90657397Y-120218506D01*
X90650422Y-120298412D01*
X90631571Y-120358921D01*
X90602696Y-120404448D01*
X90562105Y-120438811D01*
X90509662Y-120460295D01*
X90441682Y-120468067D01*
X90376738Y-120460605D01*
X90326515Y-120439953D01*
X90287487Y-120406837D01*
X90257927Y-120359445D01*
X90238222Y-120293752D01*
X90230812Y-120204041D01*
X90230812Y-120072028D01*
X90119724Y-120072028D01*
X90119724Y-120178270D01*
X90112572Y-120261344D01*
X90093179Y-120324818D01*
X90063407Y-120373060D01*
X90021564Y-120409928D01*
X89968977Y-120432590D01*
X89902323Y-120440682D01*
X89842489Y-120433929D01*
X89795757Y-120415185D01*
X89759075Y-120385138D01*
X89732417Y-120345271D01*
X89715362Y-120294034D01*
X89709148Y-120228196D01*
X89716783Y-120149389D01*
X89740164Y-120069735D01*
X89780796Y-119987951D01*
X89841162Y-119902938D01*
X89739764Y-119853012D01*
X89699521Y-119901726D01*
X89664887Y-119958045D01*
X89635909Y-120022874D01*
X89614912Y-120090818D01*
X89602300Y-120160684D01*
X89598061Y-120232971D01*
X89603543Y-120310129D01*
X89619034Y-120375836D01*
X89643595Y-120431983D01*
X89676988Y-120480075D01*
X89719540Y-120520371D01*
X89768226Y-120548964D01*
X89824268Y-120566550D01*
X89889473Y-120572695D01*
X89953467Y-120567106D01*
X90010439Y-120550915D01*
X90061722Y-120524384D01*
X90106388Y-120488161D01*
X90141591Y-120443987D01*
X90167965Y-120390755D01*
G37*
G36*
X89949019Y-121552332D02*
G01*
X90757250Y-121202918D01*
X90757250Y-121078980D01*
X89949019Y-120734411D01*
X89949019Y-120871270D01*
X90615546Y-121144986D01*
X89949019Y-121421863D01*
X89949019Y-121552332D01*
G37*
G36*
X90167965Y-122209730D02*
G01*
X90192918Y-122273909D01*
X90226214Y-122324703D01*
X90267817Y-122364283D01*
X90317530Y-122393112D01*
X90376363Y-122411084D01*
X90446527Y-122417440D01*
X90519746Y-122410646D01*
X90582170Y-122391282D01*
X90635906Y-122359943D01*
X90682395Y-122315972D01*
X90718634Y-122263356D01*
X90745440Y-122201220D01*
X90762441Y-122127756D01*
X90768485Y-122040710D01*
X90764336Y-121967309D01*
X90751999Y-121896359D01*
X90731479Y-121827383D01*
X90702817Y-121761568D01*
X90667935Y-121704171D01*
X90626851Y-121654291D01*
X90525384Y-121705832D01*
X90585237Y-121789805D01*
X90625928Y-121872347D01*
X90649594Y-121954487D01*
X90657397Y-122037480D01*
X90650422Y-122117386D01*
X90631571Y-122177896D01*
X90602696Y-122223422D01*
X90562105Y-122257786D01*
X90509662Y-122279269D01*
X90441682Y-122287042D01*
X90376738Y-122279579D01*
X90326515Y-122258927D01*
X90287487Y-122225811D01*
X90257927Y-122178420D01*
X90238222Y-122112726D01*
X90230812Y-122023015D01*
X90230812Y-121891002D01*
X90119724Y-121891002D01*
X90119724Y-121997244D01*
X90112572Y-122080318D01*
X90093179Y-122143792D01*
X90063407Y-122192034D01*
X90021564Y-122228902D01*
X89968977Y-122251564D01*
X89902323Y-122259656D01*
X89842489Y-122252903D01*
X89795757Y-122234159D01*
X89759075Y-122204112D01*
X89732417Y-122164245D01*
X89715362Y-122113008D01*
X89709148Y-122047171D01*
X89716783Y-121968363D01*
X89740164Y-121888709D01*
X89780796Y-121806925D01*
X89841162Y-121721912D01*
X89739764Y-121671986D01*
X89699521Y-121720700D01*
X89664887Y-121777019D01*
X89635909Y-121841848D01*
X89614912Y-121909793D01*
X89602300Y-121979658D01*
X89598061Y-122051946D01*
X89603543Y-122129103D01*
X89619034Y-122194810D01*
X89643595Y-122250958D01*
X89676988Y-122299049D01*
X89719540Y-122339346D01*
X89768226Y-122367938D01*
X89824268Y-122385524D01*
X89889473Y-122391669D01*
X89953467Y-122386080D01*
X90010439Y-122369890D01*
X90061722Y-122343358D01*
X90106388Y-122307135D01*
X90141591Y-122262961D01*
X90167965Y-122209730D01*
G37*
G36*
X82417567Y-120281283D02*
G01*
X82422942Y-120351978D01*
X82438418Y-120414586D01*
X82463490Y-120470455D01*
X82498235Y-120520627D01*
X82540659Y-120561969D01*
X82591501Y-120595235D01*
X82647724Y-120618944D01*
X82710618Y-120633608D01*
X82781446Y-120638702D01*
X82852084Y-120633201D01*
X82915549Y-120617259D01*
X82973076Y-120591233D01*
X83024588Y-120555180D01*
X83067555Y-120510410D01*
X83102631Y-120455990D01*
X83127566Y-120395884D01*
X83143073Y-120327951D01*
X83148485Y-120250737D01*
X83144323Y-120181593D01*
X83131804Y-120113023D01*
X83110706Y-120044572D01*
X83081657Y-119979230D01*
X83047016Y-119922668D01*
X83006851Y-119873937D01*
X82905384Y-119923864D01*
X82965508Y-120007962D01*
X83006166Y-120089733D01*
X83029682Y-120170235D01*
X83037397Y-120250737D01*
X83032657Y-120310663D01*
X83019295Y-120361091D01*
X82998069Y-120403722D01*
X82969003Y-120439839D01*
X82932856Y-120469073D01*
X82890668Y-120490309D01*
X82841260Y-120503607D01*
X82783061Y-120508303D01*
X82709572Y-120500282D01*
X82649081Y-120477580D01*
X82598734Y-120440682D01*
X82560402Y-120391647D01*
X82536937Y-120332520D01*
X82528654Y-120260357D01*
X82534170Y-120196369D01*
X82550159Y-120139248D01*
X82576366Y-120087700D01*
X82613318Y-120040776D01*
X82662283Y-119997946D01*
X82662283Y-119906168D01*
X81990911Y-119906168D01*
X81990911Y-120593620D01*
X82100384Y-120593620D01*
X82100384Y-120038182D01*
X82509344Y-120038182D01*
X82469629Y-120088317D01*
X82441193Y-120144671D01*
X82423667Y-120208450D01*
X82417567Y-120281283D01*
G37*
G36*
X81990911Y-121835669D02*
G01*
X83137250Y-121334931D01*
X83137250Y-121218998D01*
X81990911Y-120718331D01*
X81990911Y-120858419D01*
X82969775Y-121278615D01*
X81990911Y-121698810D01*
X81990911Y-121835669D01*
G37*
G36*
X85079960Y-120798101D02*
G01*
X85611243Y-120798101D01*
X85641779Y-120724451D01*
X85668402Y-120621006D01*
X85684663Y-120510856D01*
X85690100Y-120398831D01*
X85681803Y-120286875D01*
X85658114Y-120189460D01*
X85620091Y-120104188D01*
X85581246Y-120045934D01*
X85535007Y-119995326D01*
X85480885Y-119951773D01*
X85418068Y-119915016D01*
X85327783Y-119879838D01*
X85223440Y-119857670D01*
X85102500Y-119849852D01*
X84982610Y-119857662D01*
X84879076Y-119879823D01*
X84789390Y-119915016D01*
X84726819Y-119951686D01*
X84672909Y-119994839D01*
X84626849Y-120044700D01*
X84588140Y-120101801D01*
X84550001Y-120185453D01*
X84526328Y-120280471D01*
X84518061Y-120389140D01*
X84522258Y-120469023D01*
X84534470Y-120542571D01*
X84554294Y-120610543D01*
X84582750Y-120675030D01*
X84618890Y-120732483D01*
X84662924Y-120783635D01*
X84764392Y-120732094D01*
X84701784Y-120646786D01*
X84662152Y-120568692D01*
X84638913Y-120485667D01*
X84630764Y-120389140D01*
X84636192Y-120310874D01*
X84651604Y-120243419D01*
X84676139Y-120185059D01*
X84709570Y-120134409D01*
X84752314Y-120090495D01*
X84815218Y-120047494D01*
X84892462Y-120015103D01*
X84987011Y-119994188D01*
X85102500Y-119986640D01*
X85220480Y-119994398D01*
X85316502Y-120015844D01*
X85394445Y-120048976D01*
X85457461Y-120092883D01*
X85499940Y-120137627D01*
X85533342Y-120189639D01*
X85557980Y-120249995D01*
X85573521Y-120320191D01*
X85579012Y-120402061D01*
X85573951Y-120496798D01*
X85558911Y-120588388D01*
X85533931Y-120677393D01*
X85184587Y-120677393D01*
X85184587Y-120392370D01*
X85079960Y-120392370D01*
X85079960Y-120798101D01*
G37*
G36*
X84530911Y-121987343D02*
G01*
X85677250Y-121987343D01*
X85677250Y-121884261D01*
X84754702Y-121191963D01*
X85677250Y-121191963D01*
X85677250Y-121068025D01*
X84530911Y-121068025D01*
X84530911Y-121169423D01*
X85453459Y-121861720D01*
X84530911Y-121861720D01*
X84530911Y-121987343D01*
G37*
G36*
X85677250Y-122653800D02*
G01*
X85670437Y-122765587D01*
X85651142Y-122861997D01*
X85620613Y-122945290D01*
X85579445Y-123017365D01*
X85527541Y-123079683D01*
X85465477Y-123131891D01*
X85393625Y-123173286D01*
X85310517Y-123203979D01*
X85214236Y-123223382D01*
X85102500Y-123230234D01*
X84991440Y-123223389D01*
X84895725Y-123204000D01*
X84813083Y-123173320D01*
X84741609Y-123131924D01*
X84679847Y-123079683D01*
X84628240Y-123017407D01*
X84587286Y-122945356D01*
X84556903Y-122862065D01*
X84537694Y-122765632D01*
X84530911Y-122653800D01*
X84530911Y-122645795D01*
X84643614Y-122645795D01*
X84650156Y-122745938D01*
X84668391Y-122828969D01*
X84696801Y-122897762D01*
X84734712Y-122954668D01*
X84782337Y-123001381D01*
X84840756Y-123038817D01*
X84911831Y-123067032D01*
X84998070Y-123085218D01*
X85102500Y-123091761D01*
X85197188Y-123086470D01*
X85277101Y-123071652D01*
X85344446Y-123048543D01*
X85401114Y-123017875D01*
X85448614Y-122979830D01*
X85488336Y-122933549D01*
X85520118Y-122878597D01*
X85543925Y-122813579D01*
X85559130Y-122736691D01*
X85564547Y-122645795D01*
X85564547Y-122401079D01*
X84643614Y-122401079D01*
X84643614Y-122645795D01*
X84530911Y-122645795D01*
X84530911Y-122269065D01*
X85677250Y-122269065D01*
X85677250Y-122653800D01*
G37*
G36*
X78057250Y-120368215D02*
G01*
X78051374Y-120460095D01*
X78035037Y-120535956D01*
X78009665Y-120598497D01*
X77975935Y-120649937D01*
X77931841Y-120692982D01*
X77879822Y-120723819D01*
X77818289Y-120743009D01*
X77744912Y-120749789D01*
X77675931Y-120743311D01*
X77617325Y-120724864D01*
X77567045Y-120695018D01*
X77524807Y-120654490D01*
X77491835Y-120604125D01*
X77467965Y-120542149D01*
X77442063Y-120595840D01*
X77409160Y-120639668D01*
X77369025Y-120674935D01*
X77322453Y-120701022D01*
X77270053Y-120716953D01*
X77210398Y-120722474D01*
X77140282Y-120715885D01*
X77081371Y-120697209D01*
X77031441Y-120667126D01*
X76988995Y-120625009D01*
X76956576Y-120574859D01*
X76932209Y-120514130D01*
X76916539Y-120440732D01*
X76910911Y-120352134D01*
X76910911Y-120331209D01*
X77020384Y-120331209D01*
X77027472Y-120420871D01*
X77046236Y-120486096D01*
X77074167Y-120532717D01*
X77110671Y-120564947D01*
X77157176Y-120584854D01*
X77216859Y-120592005D01*
X77280184Y-120584089D01*
X77329501Y-120561987D01*
X77368182Y-120525999D01*
X77395153Y-120479119D01*
X77413043Y-120415801D01*
X77417689Y-120356980D01*
X77530812Y-120356980D01*
X77538201Y-120446030D01*
X77557861Y-120511286D01*
X77587378Y-120558409D01*
X77626389Y-120591373D01*
X77676644Y-120611950D01*
X77741682Y-120619391D01*
X77808458Y-120611563D01*
X77858928Y-120590065D01*
X77897078Y-120555772D01*
X77923269Y-120510385D01*
X77941024Y-120446146D01*
X77947777Y-120356980D01*
X77947777Y-120022101D01*
X77530812Y-120022101D01*
X77530812Y-120356980D01*
X77417689Y-120356980D01*
X77419724Y-120331209D01*
X77419724Y-120022101D01*
X77020384Y-120022101D01*
X77020384Y-120331209D01*
X76910911Y-120331209D01*
X76910911Y-119891703D01*
X78057250Y-119891703D01*
X78057250Y-120368215D01*
G37*
G36*
X78057250Y-121000053D02*
G01*
X77762607Y-121127221D01*
X77762607Y-121726126D01*
X78057250Y-121851679D01*
X78057250Y-121986922D01*
X76910911Y-121483025D01*
X76910911Y-121426708D01*
X77063850Y-121426708D01*
X77653134Y-121679429D01*
X77653134Y-121173917D01*
X77063850Y-121426708D01*
X76910911Y-121426708D01*
X76910911Y-121367092D01*
X78057250Y-120863194D01*
X78057250Y-121000053D01*
G37*
G36*
X77023614Y-122299892D02*
G01*
X77023614Y-121900622D01*
X76910911Y-121900622D01*
X76910911Y-122832790D01*
X77023614Y-122832790D01*
X77023614Y-122433520D01*
X78057250Y-122433520D01*
X78057250Y-122299892D01*
X77023614Y-122299892D01*
G37*
G36*
X72990100Y-120339284D02*
G01*
X72984658Y-120247081D01*
X72969368Y-120168862D01*
X72945404Y-120102519D01*
X72913396Y-120046267D01*
X72873394Y-119998718D01*
X72825391Y-119959399D01*
X72768476Y-119927842D01*
X72701216Y-119904158D01*
X72621788Y-119889020D01*
X72528053Y-119883628D01*
X71830911Y-119883628D01*
X71830911Y-120014026D01*
X72539359Y-120014026D01*
X72623610Y-120019985D01*
X72691980Y-120036469D01*
X72747372Y-120062020D01*
X72792080Y-120096113D01*
X72827796Y-120139590D01*
X72854301Y-120193080D01*
X72871281Y-120258718D01*
X72877397Y-120339284D01*
X72871290Y-120418983D01*
X72854328Y-120483925D01*
X72827830Y-120536871D01*
X72792080Y-120579928D01*
X72747424Y-120613669D01*
X72692054Y-120638985D01*
X72623667Y-120655330D01*
X72539359Y-120661242D01*
X71830911Y-120661242D01*
X71830911Y-120793255D01*
X72528053Y-120793255D01*
X72620949Y-120787855D01*
X72699948Y-120772668D01*
X72767119Y-120748852D01*
X72824218Y-120717045D01*
X72872622Y-120677322D01*
X72913058Y-120629406D01*
X72945305Y-120573133D01*
X72969365Y-120507198D01*
X72984668Y-120429915D01*
X72990100Y-120339284D01*
G37*
G36*
X72990100Y-121431834D02*
G01*
X72983629Y-121323075D01*
X72965161Y-121227575D01*
X72935721Y-121143488D01*
X72895780Y-121069250D01*
X72845236Y-121003634D01*
X72743769Y-121053490D01*
X72788638Y-121112519D01*
X72822632Y-121170342D01*
X72846851Y-121227354D01*
X72863308Y-121287189D01*
X72873728Y-121355490D01*
X72877397Y-121433449D01*
X72870473Y-121524517D01*
X72851790Y-121594080D01*
X72823468Y-121646777D01*
X72793672Y-121679584D01*
X72759112Y-121702605D01*
X72718855Y-121716699D01*
X72671372Y-121721632D01*
X72634209Y-121717383D01*
X72603288Y-121705274D01*
X72577207Y-121685398D01*
X72545515Y-121644762D01*
X72520048Y-121590461D01*
X72499962Y-121526465D01*
X72476512Y-121433449D01*
X72444797Y-121307698D01*
X72413806Y-121216119D01*
X72387377Y-121161870D01*
X72354925Y-121116040D01*
X72316341Y-121077646D01*
X72271220Y-121048931D01*
X72216507Y-121030962D01*
X72149709Y-121024559D01*
X72085831Y-121030467D01*
X72028584Y-121047658D01*
X71976617Y-121076031D01*
X71931153Y-121114336D01*
X71892315Y-121162438D01*
X71859912Y-121221737D01*
X71837250Y-121285853D01*
X71823039Y-121358641D01*
X71818061Y-121441525D01*
X71822304Y-121520299D01*
X71834749Y-121594147D01*
X71855137Y-121663700D01*
X71884085Y-121729803D01*
X71919997Y-121787451D01*
X71962924Y-121837564D01*
X72064392Y-121786093D01*
X72003296Y-121703128D01*
X71962994Y-121622622D01*
X71939020Y-121537025D01*
X71930764Y-121441525D01*
X71937948Y-121354055D01*
X71957595Y-121285610D01*
X71987922Y-121232199D01*
X72019286Y-121199013D01*
X72055202Y-121175738D01*
X72096577Y-121161527D01*
X72144864Y-121156573D01*
X72199268Y-121164302D01*
X72241752Y-121186135D01*
X72275262Y-121222579D01*
X72300325Y-121268548D01*
X72325749Y-121334415D01*
X72350959Y-121425444D01*
X72387083Y-121565146D01*
X72416193Y-121658012D01*
X72439859Y-121712018D01*
X72469878Y-121758689D01*
X72506355Y-121798873D01*
X72549622Y-121829508D01*
X72602159Y-121848509D01*
X72666527Y-121855260D01*
X72729296Y-121849347D01*
X72785462Y-121832141D01*
X72836389Y-121803719D01*
X72880635Y-121765448D01*
X72918421Y-121716894D01*
X72949864Y-121656468D01*
X72971588Y-121591417D01*
X72985283Y-121517036D01*
X72990100Y-121431834D01*
G37*
G36*
X72977250Y-122546714D02*
G01*
X72971374Y-122638594D01*
X72955037Y-122714456D01*
X72929665Y-122776996D01*
X72895935Y-122828436D01*
X72851841Y-122871481D01*
X72799822Y-122902319D01*
X72738289Y-122921509D01*
X72664912Y-122928289D01*
X72595931Y-122921811D01*
X72537325Y-122903364D01*
X72487045Y-122873517D01*
X72444807Y-122832990D01*
X72411835Y-122782625D01*
X72387965Y-122720649D01*
X72362063Y-122774339D01*
X72329160Y-122818167D01*
X72289025Y-122853435D01*
X72242453Y-122879521D01*
X72190053Y-122895453D01*
X72130398Y-122900973D01*
X72060282Y-122894385D01*
X72001371Y-122875709D01*
X71951441Y-122845625D01*
X71908995Y-122803508D01*
X71876576Y-122753359D01*
X71852209Y-122692629D01*
X71836539Y-122619231D01*
X71830911Y-122530634D01*
X71830911Y-122509709D01*
X71940384Y-122509709D01*
X71947472Y-122599371D01*
X71966236Y-122664596D01*
X71994167Y-122711217D01*
X72030671Y-122743446D01*
X72077176Y-122763353D01*
X72136859Y-122770505D01*
X72200184Y-122762589D01*
X72249501Y-122740486D01*
X72288182Y-122704498D01*
X72315153Y-122657619D01*
X72333043Y-122594301D01*
X72337689Y-122535479D01*
X72450812Y-122535479D01*
X72458201Y-122624530D01*
X72477861Y-122689786D01*
X72507378Y-122736908D01*
X72546389Y-122769873D01*
X72596644Y-122790450D01*
X72661682Y-122797891D01*
X72728458Y-122790062D01*
X72778928Y-122768564D01*
X72817078Y-122734272D01*
X72843269Y-122688884D01*
X72861024Y-122624646D01*
X72867777Y-122535479D01*
X72867777Y-122200601D01*
X72450812Y-122200601D01*
X72450812Y-122535479D01*
X72337689Y-122535479D01*
X72339724Y-122509709D01*
X72339724Y-122200601D01*
X71940384Y-122200601D01*
X71940384Y-122509709D01*
X71830911Y-122509709D01*
X71830911Y-122070203D01*
X72977250Y-122070203D01*
X72977250Y-122546714D01*
G37*
G36*
X79999960Y-120798101D02*
G01*
X80531243Y-120798101D01*
X80561779Y-120724451D01*
X80588402Y-120621006D01*
X80604663Y-120510856D01*
X80610100Y-120398831D01*
X80601803Y-120286875D01*
X80578114Y-120189460D01*
X80540091Y-120104188D01*
X80501246Y-120045934D01*
X80455007Y-119995326D01*
X80400885Y-119951773D01*
X80338068Y-119915016D01*
X80247783Y-119879838D01*
X80143440Y-119857670D01*
X80022500Y-119849852D01*
X79902610Y-119857662D01*
X79799076Y-119879823D01*
X79709390Y-119915016D01*
X79646819Y-119951686D01*
X79592909Y-119994839D01*
X79546849Y-120044700D01*
X79508140Y-120101801D01*
X79470001Y-120185453D01*
X79446328Y-120280471D01*
X79438061Y-120389140D01*
X79442258Y-120469023D01*
X79454470Y-120542571D01*
X79474294Y-120610543D01*
X79502750Y-120675030D01*
X79538890Y-120732483D01*
X79582924Y-120783635D01*
X79684392Y-120732094D01*
X79621784Y-120646786D01*
X79582152Y-120568692D01*
X79558913Y-120485667D01*
X79550764Y-120389140D01*
X79556192Y-120310874D01*
X79571604Y-120243419D01*
X79596139Y-120185059D01*
X79629570Y-120134409D01*
X79672314Y-120090495D01*
X79735218Y-120047494D01*
X79812462Y-120015103D01*
X79907011Y-119994188D01*
X80022500Y-119986640D01*
X80140480Y-119994398D01*
X80236502Y-120015844D01*
X80314445Y-120048976D01*
X80377461Y-120092883D01*
X80419940Y-120137627D01*
X80453342Y-120189639D01*
X80477980Y-120249995D01*
X80493521Y-120320191D01*
X80499012Y-120402061D01*
X80493951Y-120496798D01*
X80478911Y-120588388D01*
X80453931Y-120677393D01*
X80104587Y-120677393D01*
X80104587Y-120392370D01*
X79999960Y-120392370D01*
X79999960Y-120798101D01*
G37*
G36*
X79450911Y-121987343D02*
G01*
X80597250Y-121987343D01*
X80597250Y-121884261D01*
X79674702Y-121191963D01*
X80597250Y-121191963D01*
X80597250Y-121068025D01*
X79450911Y-121068025D01*
X79450911Y-121169423D01*
X80373459Y-121861720D01*
X79450911Y-121861720D01*
X79450911Y-121987343D01*
G37*
G36*
X80597250Y-122653800D02*
G01*
X80590437Y-122765587D01*
X80571142Y-122861997D01*
X80540613Y-122945290D01*
X80499445Y-123017365D01*
X80447541Y-123079683D01*
X80385477Y-123131891D01*
X80313625Y-123173286D01*
X80230517Y-123203979D01*
X80134236Y-123223382D01*
X80022500Y-123230234D01*
X79911440Y-123223389D01*
X79815725Y-123204000D01*
X79733083Y-123173320D01*
X79661609Y-123131924D01*
X79599847Y-123079683D01*
X79548240Y-123017407D01*
X79507286Y-122945356D01*
X79476903Y-122862065D01*
X79457694Y-122765632D01*
X79450911Y-122653800D01*
X79450911Y-122645795D01*
X79563614Y-122645795D01*
X79570156Y-122745938D01*
X79588391Y-122828969D01*
X79616801Y-122897762D01*
X79654712Y-122954668D01*
X79702337Y-123001381D01*
X79760756Y-123038817D01*
X79831831Y-123067032D01*
X79918070Y-123085218D01*
X80022500Y-123091761D01*
X80117188Y-123086470D01*
X80197101Y-123071652D01*
X80264446Y-123048543D01*
X80321114Y-123017875D01*
X80368614Y-122979830D01*
X80408336Y-122933549D01*
X80440118Y-122878597D01*
X80463925Y-122813579D01*
X80479130Y-122736691D01*
X80484547Y-122645795D01*
X80484547Y-122401079D01*
X79563614Y-122401079D01*
X79563614Y-122645795D01*
X79450911Y-122645795D01*
X79450911Y-122269065D01*
X80597250Y-122269065D01*
X80597250Y-122653800D01*
G37*
G36*
X87070911Y-119891703D02*
G01*
X87070911Y-120616161D01*
X87180384Y-120616161D01*
X87180384Y-120022101D01*
X87579724Y-120022101D01*
X87579724Y-120584000D01*
X87690812Y-120584000D01*
X87690812Y-120022101D01*
X88107777Y-120022101D01*
X88107777Y-120616161D01*
X88217250Y-120616161D01*
X88217250Y-119891703D01*
X87070911Y-119891703D01*
G37*
G36*
X87070911Y-121757022D02*
G01*
X88217250Y-121757022D01*
X88217250Y-121653940D01*
X87294702Y-120961642D01*
X88217250Y-120961642D01*
X88217250Y-120837704D01*
X87070911Y-120837704D01*
X87070911Y-120939102D01*
X87993459Y-121631399D01*
X87070911Y-121631399D01*
X87070911Y-121757022D01*
G37*
X56580000Y-142250000D02*
X98580000Y-142250000D01*
X98580000Y-116250000D01*
X56580000Y-116250000D01*
X56580000Y-142250000D01*
%LPC*%
D11*
X132100000Y-146100000D03*
X132100000Y-169100000D03*
X132100000Y-97000000D03*
X59900000Y-96900000D03*
D12*
X59900000Y-146100000D03*
X59900000Y-169100000D03*
X117900000Y-146100000D03*
X117900000Y-169100000D03*
D13*
X64770000Y-147370000D03*
D14*
X64770000Y-144830000D03*
X67310000Y-147370000D03*
X67310000Y-144830000D03*
X69850000Y-147370000D03*
X69850000Y-144830000D03*
X72390000Y-147370000D03*
X72390000Y-144830000D03*
X74930000Y-147370000D03*
X74930000Y-144830000D03*
X77470000Y-147370000D03*
X77470000Y-144830000D03*
X80010000Y-147370000D03*
X80010000Y-144830000D03*
X82550000Y-147370000D03*
X82550000Y-144830000D03*
X85090000Y-147370000D03*
X85090000Y-144830000D03*
X87630000Y-147370000D03*
X87630000Y-144830000D03*
X90170000Y-147370000D03*
X90170000Y-144830000D03*
X92710000Y-147370000D03*
X92710000Y-144830000D03*
X95250000Y-147370000D03*
X95250000Y-144830000D03*
X97790000Y-147370000D03*
X97790000Y-144830000D03*
X100330000Y-147370000D03*
X100330000Y-144830000D03*
X102870000Y-147370000D03*
X102870000Y-144830000D03*
X105410000Y-147370000D03*
X105410000Y-144830000D03*
X107950000Y-147370000D03*
X107950000Y-144830000D03*
X110490000Y-147370000D03*
X110490000Y-144830000D03*
X113030000Y-147370000D03*
X113030000Y-144830000D03*
D15*
X119000000Y-106500000D03*
X119000000Y-111500000D03*
X131500000Y-106500000D03*
X131500000Y-111500000D03*
D16*
X95200000Y-129700000D03*
X92660000Y-129700000D03*
X90120000Y-129700000D03*
X87580000Y-129700000D03*
X85040000Y-129700000D03*
X82500000Y-129700000D03*
X79960000Y-129700000D03*
X77420000Y-129700000D03*
X74880000Y-129700000D03*
X72340000Y-129700000D03*
X69800000Y-129700000D03*
D17*
X62500000Y-105920000D03*
X62500000Y-108460000D03*
X62500000Y-111000000D03*
D18*
X102200000Y-120800000D03*
D19*
X102200000Y-124500000D03*
D18*
X102200000Y-127300000D03*
X112500000Y-127300000D03*
D19*
X112500000Y-124500000D03*
D18*
X112500000Y-120800000D03*
D20*
X76150000Y-167400000D03*
D17*
X76150000Y-169940000D03*
D20*
X85350000Y-167400000D03*
D17*
X85350000Y-169940000D03*
D20*
X80750000Y-167400000D03*
D17*
X80750000Y-169940000D03*
D20*
X89950000Y-167400000D03*
D17*
X89950000Y-169940000D03*
D20*
X66950000Y-167400000D03*
D17*
X66950000Y-169940000D03*
D20*
X71550000Y-167400000D03*
D17*
X71550000Y-169940000D03*
D15*
X101000000Y-106500000D03*
X101000000Y-111500000D03*
X113500000Y-106500000D03*
X113500000Y-111500000D03*
D16*
X90280000Y-118250000D03*
X87740000Y-118250000D03*
X85200000Y-118250000D03*
X82660000Y-118250000D03*
X80120000Y-118250000D03*
X77580000Y-118250000D03*
X75040000Y-118250000D03*
X72500000Y-118250000D03*
%LPD*%
M02*
