M48
; DRILL file {KiCad 9.0.1} date 2025-04-09T16:40:48+0200
; FORMAT={-:-/ absolute / metric / decimal}
; #@! TF.CreationDate,2025-04-09T16:40:48+02:00
; #@! TF.GenerationSoftware,Kicad,Pcbnew,9.0.1
; #@! TF.FileFunction,Plated,1,2,PTH
FMAT,2
METRIC
; #@! TA.AperFunction,Plated,PTH,ComponentDrill
T1C1.000
; #@! TA.AperFunction,Plated,PTH,ComponentDrill
T2C1.200
; #@! TA.AperFunction,Plated,PTH,ComponentDrill
T3C1.300
%
G90
G05
T1
X62.5Y-105.92
X62.5Y-108.46
X62.5Y-111.0
X64.77Y-144.83
X64.77Y-147.37
X66.95Y-167.4
X66.95Y-169.94
X67.31Y-144.83
X67.31Y-147.37
X69.8Y-129.7
X69.85Y-144.83
X69.85Y-147.37
X71.55Y-167.4
X71.55Y-169.94
X72.34Y-129.7
X72.39Y-144.83
X72.39Y-147.37
X72.5Y-118.25
X74.88Y-129.7
X74.93Y-144.83
X74.93Y-147.37
X75.04Y-118.25
X76.15Y-167.4
X76.15Y-169.94
X77.42Y-129.7
X77.47Y-144.83
X77.47Y-147.37
X77.58Y-118.25
X79.96Y-129.7
X80.01Y-144.83
X80.01Y-147.37
X80.12Y-118.25
X80.75Y-167.4
X80.75Y-169.94
X82.5Y-129.7
X82.55Y-144.83
X82.55Y-147.37
X82.66Y-118.25
X85.04Y-129.7
X85.09Y-144.83
X85.09Y-147.37
X85.2Y-118.25
X85.35Y-167.4
X85.35Y-169.94
X87.58Y-129.7
X87.63Y-144.83
X87.63Y-147.37
X87.74Y-118.25
X89.95Y-167.4
X89.95Y-169.94
X90.12Y-129.7
X90.17Y-144.83
X90.17Y-147.37
X90.28Y-118.25
X92.66Y-129.7
X92.71Y-144.83
X92.71Y-147.37
X95.2Y-129.7
X95.25Y-144.83
X95.25Y-147.37
X97.79Y-144.83
X97.79Y-147.37
X100.33Y-144.83
X100.33Y-147.37
X102.2Y-124.5
X102.87Y-144.83
X102.87Y-147.37
X105.41Y-144.83
X105.41Y-147.37
X107.95Y-144.83
X107.95Y-147.37
X110.49Y-144.83
X110.49Y-147.37
X112.5Y-124.5
X113.03Y-144.83
X113.03Y-147.37
T2
X102.2Y-120.8
X102.2Y-127.3
X112.5Y-120.8
X112.5Y-127.3
T3
X101.0Y-106.5
X101.0Y-111.5
X113.5Y-106.5
X113.5Y-111.5
X119.0Y-106.5
X119.0Y-111.5
X131.5Y-106.5
X131.5Y-111.5
M30
