G04 #@! TF.GenerationSoftware,KiCad,Pcbnew,9.0.1*
G04 #@! TF.CreationDate,2025-04-09T16:40:49+02:00*
G04 #@! TF.ProjectId,camera_base,63616d65-7261-45f6-9261-73652e6b6963,rev?*
G04 #@! TF.SameCoordinates,Original*
G04 #@! TF.FileFunction,Copper,L2,Bot*
G04 #@! TF.FilePolarity,Positive*
%FSLAX46Y46*%
G04 Gerber Fmt 4.6, Leading zero omitted, Abs format (unit mm)*
G04 Created by KiCad (PCBNEW 9.0.1) date 2025-04-09 16:40:49*
%MOMM*%
%LPD*%
G01*
G04 APERTURE LIST*
%ADD10C,0.300000*%
G04 #@! TA.AperFunction,NonConductor*
%ADD11C,0.300000*%
G04 #@! TD*
G04 #@! TA.AperFunction,NonConductor*
%ADD12C,0.200000*%
G04 #@! TD*
G04 #@! TA.AperFunction,ComponentPad*
%ADD13R,1.508000X1.508000*%
G04 #@! TD*
G04 #@! TA.AperFunction,ComponentPad*
%ADD14C,1.508000*%
G04 #@! TD*
G04 #@! TA.AperFunction,ComponentPad*
%ADD15O,3.200000X1.900000*%
G04 #@! TD*
G04 #@! TA.AperFunction,ComponentPad*
%ADD16C,1.600000*%
G04 #@! TD*
G04 #@! TA.AperFunction,ComponentPad*
%ADD17C,1.700000*%
G04 #@! TD*
G04 #@! TA.AperFunction,ComponentPad*
%ADD18C,2.200000*%
G04 #@! TD*
G04 #@! TA.AperFunction,ComponentPad*
%ADD19C,1.800000*%
G04 #@! TD*
G04 #@! TA.AperFunction,ComponentPad*
%ADD20R,1.700000X1.700000*%
G04 #@! TD*
G04 #@! TA.AperFunction,Conductor*
%ADD21C,0.500000*%
G04 #@! TD*
G04 APERTURE END LIST*
D10*
D11*
X98285713Y-166478328D02*
X97285713Y-166478328D01*
X97285713Y-166478328D02*
X97928570Y-167978328D01*
X96785713Y-166621185D02*
X96714285Y-166549757D01*
X96714285Y-166549757D02*
X96571428Y-166478328D01*
X96571428Y-166478328D02*
X96214285Y-166478328D01*
X96214285Y-166478328D02*
X96071428Y-166549757D01*
X96071428Y-166549757D02*
X95999999Y-166621185D01*
X95999999Y-166621185D02*
X95928570Y-166764042D01*
X95928570Y-166764042D02*
X95928570Y-166906900D01*
X95928570Y-166906900D02*
X95999999Y-167121185D01*
X95999999Y-167121185D02*
X96857142Y-167978328D01*
X96857142Y-167978328D02*
X95928570Y-167978328D01*
X95285714Y-167835471D02*
X95214285Y-167906900D01*
X95214285Y-167906900D02*
X95285714Y-167978328D01*
X95285714Y-167978328D02*
X95357142Y-167906900D01*
X95357142Y-167906900D02*
X95285714Y-167835471D01*
X95285714Y-167835471D02*
X95285714Y-167978328D01*
X94642856Y-166621185D02*
X94571428Y-166549757D01*
X94571428Y-166549757D02*
X94428571Y-166478328D01*
X94428571Y-166478328D02*
X94071428Y-166478328D01*
X94071428Y-166478328D02*
X93928571Y-166549757D01*
X93928571Y-166549757D02*
X93857142Y-166621185D01*
X93857142Y-166621185D02*
X93785713Y-166764042D01*
X93785713Y-166764042D02*
X93785713Y-166906900D01*
X93785713Y-166906900D02*
X93857142Y-167121185D01*
X93857142Y-167121185D02*
X94714285Y-167978328D01*
X94714285Y-167978328D02*
X93785713Y-167978328D01*
D12*
X59900000Y-168600000D02*
X59900000Y-169686420D01*
X132100000Y-169100000D02*
X132100000Y-169100000D01*
X59900000Y-169100000D02*
X132100000Y-169100000D01*
X59900000Y-169100000D02*
X61026504Y-168513579D01*
X59900000Y-169100000D02*
X61026504Y-169686421D01*
X132100000Y-169100000D02*
X130973496Y-169686421D01*
X132100000Y-169100000D02*
X130973496Y-168513579D01*
D10*
D11*
X98285713Y-143478328D02*
X97285713Y-143478328D01*
X97285713Y-143478328D02*
X97928570Y-144978328D01*
X96785713Y-143621185D02*
X96714285Y-143549757D01*
X96714285Y-143549757D02*
X96571428Y-143478328D01*
X96571428Y-143478328D02*
X96214285Y-143478328D01*
X96214285Y-143478328D02*
X96071428Y-143549757D01*
X96071428Y-143549757D02*
X95999999Y-143621185D01*
X95999999Y-143621185D02*
X95928570Y-143764042D01*
X95928570Y-143764042D02*
X95928570Y-143906900D01*
X95928570Y-143906900D02*
X95999999Y-144121185D01*
X95999999Y-144121185D02*
X96857142Y-144978328D01*
X96857142Y-144978328D02*
X95928570Y-144978328D01*
X95285714Y-144835471D02*
X95214285Y-144906900D01*
X95214285Y-144906900D02*
X95285714Y-144978328D01*
X95285714Y-144978328D02*
X95357142Y-144906900D01*
X95357142Y-144906900D02*
X95285714Y-144835471D01*
X95285714Y-144835471D02*
X95285714Y-144978328D01*
X94642856Y-143621185D02*
X94571428Y-143549757D01*
X94571428Y-143549757D02*
X94428571Y-143478328D01*
X94428571Y-143478328D02*
X94071428Y-143478328D01*
X94071428Y-143478328D02*
X93928571Y-143549757D01*
X93928571Y-143549757D02*
X93857142Y-143621185D01*
X93857142Y-143621185D02*
X93785713Y-143764042D01*
X93785713Y-143764042D02*
X93785713Y-143906900D01*
X93785713Y-143906900D02*
X93857142Y-144121185D01*
X93857142Y-144121185D02*
X94714285Y-144978328D01*
X94714285Y-144978328D02*
X93785713Y-144978328D01*
D12*
X59900000Y-145600000D02*
X59900000Y-146686420D01*
X132100000Y-146100000D02*
X132100000Y-146100000D01*
X59900000Y-146100000D02*
X132100000Y-146100000D01*
X59900000Y-146100000D02*
X61026504Y-145513579D01*
X59900000Y-146100000D02*
X61026504Y-146686421D01*
X132100000Y-146100000D02*
X130973496Y-146686421D01*
X132100000Y-146100000D02*
X130973496Y-145513579D01*
D13*
X64770000Y-147370000D03*
D14*
X64770000Y-144830000D03*
X67310000Y-147370000D03*
X67310000Y-144830000D03*
X69850000Y-147370000D03*
X69850000Y-144830000D03*
X72390000Y-147370000D03*
X72390000Y-144830000D03*
X74930000Y-147370000D03*
X74930000Y-144830000D03*
X77470000Y-147370000D03*
X77470000Y-144830000D03*
X80010000Y-147370000D03*
X80010000Y-144830000D03*
X82550000Y-147370000D03*
X82550000Y-144830000D03*
X85090000Y-147370000D03*
X85090000Y-144830000D03*
X87630000Y-147370000D03*
X87630000Y-144830000D03*
X90170000Y-147370000D03*
X90170000Y-144830000D03*
X92710000Y-147370000D03*
X92710000Y-144830000D03*
X95250000Y-147370000D03*
X95250000Y-144830000D03*
X97790000Y-147370000D03*
X97790000Y-144830000D03*
X100330000Y-147370000D03*
X100330000Y-144830000D03*
X102870000Y-147370000D03*
X102870000Y-144830000D03*
X105410000Y-147370000D03*
X105410000Y-144830000D03*
X107950000Y-147370000D03*
X107950000Y-144830000D03*
X110490000Y-147370000D03*
X110490000Y-144830000D03*
X113030000Y-147370000D03*
X113030000Y-144830000D03*
D15*
X119000000Y-106500000D03*
X119000000Y-111500000D03*
X131500000Y-106500000D03*
X131500000Y-111500000D03*
D16*
X95200000Y-129700000D03*
X92660000Y-129700000D03*
X90120000Y-129700000D03*
X87580000Y-129700000D03*
X85040000Y-129700000D03*
X82500000Y-129700000D03*
X79960000Y-129700000D03*
X77420000Y-129700000D03*
X74880000Y-129700000D03*
X72340000Y-129700000D03*
X69800000Y-129700000D03*
D17*
X62500000Y-105920000D03*
X62500000Y-108460000D03*
X62500000Y-111000000D03*
D18*
X102200000Y-120800000D03*
D19*
X102200000Y-124500000D03*
D18*
X102200000Y-127300000D03*
X112500000Y-127300000D03*
D19*
X112500000Y-124500000D03*
D18*
X112500000Y-120800000D03*
D20*
X76150000Y-167400000D03*
D17*
X76150000Y-169940000D03*
D20*
X85350000Y-167400000D03*
D17*
X85350000Y-169940000D03*
D20*
X80750000Y-167400000D03*
D17*
X80750000Y-169940000D03*
D20*
X89950000Y-167400000D03*
D17*
X89950000Y-169940000D03*
D20*
X66950000Y-167400000D03*
D17*
X66950000Y-169940000D03*
D20*
X71550000Y-167400000D03*
D17*
X71550000Y-169940000D03*
D15*
X101000000Y-106500000D03*
X101000000Y-111500000D03*
X113500000Y-106500000D03*
X113500000Y-111500000D03*
D16*
X90280000Y-118250000D03*
X87740000Y-118250000D03*
X85200000Y-118250000D03*
X82660000Y-118250000D03*
X80120000Y-118250000D03*
X77580000Y-118250000D03*
X75040000Y-118250000D03*
X72500000Y-118250000D03*
D21*
X92710000Y-144830000D02*
X92500000Y-144620000D01*
X91959000Y-142530364D02*
X91959000Y-131500000D01*
X92500000Y-144620000D02*
X92500000Y-143071364D01*
X85000000Y-129740000D02*
X85040000Y-129700000D01*
X92500000Y-143071364D02*
X91959000Y-142530364D01*
X91959000Y-131500000D02*
X85000000Y-131500000D01*
X85000000Y-131500000D02*
X85000000Y-129740000D01*
X90170000Y-147370000D02*
X90170000Y-148436317D01*
X78121000Y-132279000D02*
X78123000Y-132277000D01*
X66308636Y-139100000D02*
X75331364Y-139100000D01*
X86991364Y-149000000D02*
X86290364Y-149701000D01*
X63009636Y-149701000D02*
X62599000Y-149290364D01*
X62599000Y-142809636D02*
X66308636Y-139100000D01*
X86290364Y-149701000D02*
X63009636Y-149701000D01*
X90170000Y-148436317D02*
X89606317Y-149000000D01*
X79960000Y-130160000D02*
X79960000Y-129700000D01*
X62599000Y-149290364D02*
X62599000Y-142809636D01*
X78123000Y-132277000D02*
X79923000Y-132277000D01*
X75331364Y-139100000D02*
X78121000Y-136310364D01*
X89606317Y-149000000D02*
X86991364Y-149000000D01*
X78121000Y-136310364D02*
X78121000Y-132279000D01*
X79923000Y-132277000D02*
X80000000Y-132200000D01*
X80000000Y-132200000D02*
X80000000Y-130200000D01*
X80000000Y-130200000D02*
X79960000Y-130160000D01*
X82500000Y-129700000D02*
X82500000Y-132400000D01*
X78822000Y-132978000D02*
X78822000Y-136600728D01*
X86000000Y-149000000D02*
X87630000Y-147370000D01*
X82500000Y-132400000D02*
X81922000Y-132978000D01*
X81922000Y-132978000D02*
X78822000Y-132978000D01*
X75621728Y-139801000D02*
X66599000Y-139801000D01*
X78822000Y-136600728D02*
X75621728Y-139801000D01*
X66599000Y-139801000D02*
X63300000Y-143100000D01*
X63300000Y-149000000D02*
X86000000Y-149000000D01*
X63300000Y-143100000D02*
X63300000Y-149000000D01*
X82100000Y-129700000D02*
X82500000Y-129700000D01*
X75140000Y-138300000D02*
X77420000Y-136020000D01*
X77420000Y-136020000D02*
X77420000Y-129700000D01*
X61898000Y-149580728D02*
X62719272Y-150402000D01*
X75140000Y-138300000D02*
X66117272Y-138300000D01*
X61898000Y-142519272D02*
X61898000Y-149580728D01*
X66117272Y-138300000D02*
X61898000Y-142519272D01*
X62719272Y-150402000D02*
X89678000Y-150402000D01*
X89678000Y-150402000D02*
X92710000Y-147370000D01*
X95250000Y-144830000D02*
X92660000Y-142240000D01*
X92660000Y-142240000D02*
X92660000Y-129700000D01*
X90170000Y-129750000D02*
X90120000Y-129700000D01*
G04 #@! TA.AperFunction,Conductor*
G36*
X83841445Y-130243865D02*
G01*
X83880485Y-130288919D01*
X83927715Y-130381614D01*
X84048028Y-130547213D01*
X84048034Y-130547219D01*
X84192781Y-130691966D01*
X84198381Y-130696034D01*
X84241049Y-130751360D01*
X84249500Y-130796355D01*
X84249500Y-131573918D01*
X84249500Y-131573920D01*
X84249499Y-131573920D01*
X84278340Y-131718907D01*
X84278343Y-131718917D01*
X84334912Y-131855488D01*
X84334919Y-131855501D01*
X84417048Y-131978415D01*
X84417051Y-131978419D01*
X84521580Y-132082948D01*
X84521584Y-132082951D01*
X84644498Y-132165080D01*
X84644511Y-132165087D01*
X84747667Y-132207815D01*
X84781087Y-132221658D01*
X84781091Y-132221658D01*
X84781092Y-132221659D01*
X84926079Y-132250500D01*
X84926082Y-132250500D01*
X85073918Y-132250500D01*
X91084500Y-132250500D01*
X91151539Y-132270185D01*
X91197294Y-132322989D01*
X91208500Y-132374500D01*
X91208500Y-142604282D01*
X91208500Y-142604284D01*
X91208499Y-142604284D01*
X91237340Y-142749271D01*
X91237343Y-142749281D01*
X91293913Y-142885853D01*
X91293914Y-142885855D01*
X91293916Y-142885859D01*
X91306705Y-142905000D01*
X91306764Y-142905087D01*
X91306763Y-142905087D01*
X91376046Y-143008778D01*
X91376052Y-143008785D01*
X91713181Y-143345912D01*
X91746666Y-143407235D01*
X91749500Y-143433593D01*
X91749500Y-143977440D01*
X91729815Y-144044479D01*
X91725819Y-144050324D01*
X91637056Y-144172498D01*
X91637055Y-144172500D01*
X91592704Y-144259541D01*
X91556805Y-144330000D01*
X91550485Y-144342403D01*
X91502510Y-144393199D01*
X91434689Y-144409994D01*
X91368554Y-144387456D01*
X91329515Y-144342403D01*
X91324862Y-144333271D01*
X91242944Y-144172499D01*
X91217159Y-144137009D01*
X91126884Y-144012753D01*
X90987246Y-143873115D01*
X90827504Y-143757058D01*
X90827503Y-143757057D01*
X90827501Y-143757056D01*
X90651561Y-143667409D01*
X90651558Y-143667408D01*
X90463763Y-143606389D01*
X90268736Y-143575500D01*
X90268731Y-143575500D01*
X90071269Y-143575500D01*
X90071264Y-143575500D01*
X89876236Y-143606389D01*
X89688441Y-143667408D01*
X89512495Y-143757058D01*
X89352753Y-143873115D01*
X89213115Y-144012753D01*
X89097058Y-144172495D01*
X89097056Y-144172499D01*
X89010203Y-144342954D01*
X88962230Y-144393749D01*
X88894409Y-144410544D01*
X88828274Y-144388006D01*
X88789235Y-144342953D01*
X88702520Y-144172768D01*
X88702512Y-144172755D01*
X88676542Y-144137010D01*
X88676541Y-144137009D01*
X88112962Y-144700589D01*
X88095925Y-144637007D01*
X88030099Y-144522993D01*
X87937007Y-144429901D01*
X87822993Y-144364075D01*
X87759409Y-144347037D01*
X88322989Y-143783457D01*
X88287239Y-143757483D01*
X88111373Y-143667873D01*
X87923646Y-143606876D01*
X87728697Y-143576000D01*
X87531303Y-143576000D01*
X87336353Y-143606876D01*
X87148626Y-143667873D01*
X86972762Y-143757482D01*
X86972760Y-143757483D01*
X86937010Y-143783456D01*
X86937010Y-143783457D01*
X87500591Y-144347037D01*
X87437007Y-144364075D01*
X87322993Y-144429901D01*
X87229901Y-144522993D01*
X87164075Y-144637007D01*
X87147037Y-144700590D01*
X86583457Y-144137010D01*
X86583456Y-144137010D01*
X86557483Y-144172760D01*
X86557479Y-144172767D01*
X86470763Y-144342954D01*
X86422788Y-144393749D01*
X86354967Y-144410544D01*
X86288833Y-144388006D01*
X86249798Y-144342957D01*
X86162944Y-144172499D01*
X86162942Y-144172496D01*
X86162941Y-144172494D01*
X86046884Y-144012753D01*
X85907246Y-143873115D01*
X85747504Y-143757058D01*
X85747503Y-143757057D01*
X85747501Y-143757056D01*
X85571561Y-143667409D01*
X85571558Y-143667408D01*
X85383763Y-143606389D01*
X85188736Y-143575500D01*
X85188731Y-143575500D01*
X84991269Y-143575500D01*
X84991264Y-143575500D01*
X84796236Y-143606389D01*
X84608441Y-143667408D01*
X84432495Y-143757058D01*
X84272753Y-143873115D01*
X84133115Y-144012753D01*
X84017058Y-144172495D01*
X84017056Y-144172499D01*
X83936805Y-144330000D01*
X83930485Y-144342403D01*
X83882510Y-144393199D01*
X83814689Y-144409994D01*
X83748554Y-144387456D01*
X83709515Y-144342403D01*
X83704862Y-144333271D01*
X83622944Y-144172499D01*
X83597159Y-144137009D01*
X83506884Y-144012753D01*
X83367246Y-143873115D01*
X83207504Y-143757058D01*
X83207503Y-143757057D01*
X83207501Y-143757056D01*
X83031561Y-143667409D01*
X83031558Y-143667408D01*
X82843763Y-143606389D01*
X82648736Y-143575500D01*
X82648731Y-143575500D01*
X82451269Y-143575500D01*
X82451264Y-143575500D01*
X82256236Y-143606389D01*
X82068441Y-143667408D01*
X81892495Y-143757058D01*
X81732753Y-143873115D01*
X81593115Y-144012753D01*
X81477058Y-144172495D01*
X81477056Y-144172499D01*
X81390203Y-144342954D01*
X81342230Y-144393749D01*
X81274409Y-144410544D01*
X81208274Y-144388006D01*
X81169235Y-144342953D01*
X81082520Y-144172768D01*
X81082512Y-144172755D01*
X81056542Y-144137010D01*
X81056541Y-144137009D01*
X80492962Y-144700589D01*
X80475925Y-144637007D01*
X80410099Y-144522993D01*
X80317007Y-144429901D01*
X80202993Y-144364075D01*
X80139409Y-144347037D01*
X80702989Y-143783457D01*
X80667239Y-143757483D01*
X80491373Y-143667873D01*
X80303646Y-143606876D01*
X80108697Y-143576000D01*
X79911303Y-143576000D01*
X79716353Y-143606876D01*
X79528626Y-143667873D01*
X79352762Y-143757482D01*
X79352760Y-143757483D01*
X79317010Y-143783456D01*
X79317010Y-143783457D01*
X79880591Y-144347037D01*
X79817007Y-144364075D01*
X79702993Y-144429901D01*
X79609901Y-144522993D01*
X79544075Y-144637007D01*
X79527037Y-144700590D01*
X78963457Y-144137010D01*
X78963456Y-144137010D01*
X78937483Y-144172760D01*
X78937479Y-144172767D01*
X78850763Y-144342954D01*
X78802788Y-144393749D01*
X78734967Y-144410544D01*
X78668833Y-144388006D01*
X78629798Y-144342957D01*
X78542944Y-144172499D01*
X78542942Y-144172496D01*
X78542941Y-144172494D01*
X78426884Y-144012753D01*
X78287246Y-143873115D01*
X78127504Y-143757058D01*
X78127503Y-143757057D01*
X78127501Y-143757056D01*
X77951561Y-143667409D01*
X77951558Y-143667408D01*
X77763763Y-143606389D01*
X77568736Y-143575500D01*
X77568731Y-143575500D01*
X77371269Y-143575500D01*
X77371264Y-143575500D01*
X77176236Y-143606389D01*
X76988441Y-143667408D01*
X76812495Y-143757058D01*
X76652753Y-143873115D01*
X76513115Y-144012753D01*
X76397058Y-144172495D01*
X76397056Y-144172499D01*
X76316805Y-144330000D01*
X76310485Y-144342403D01*
X76262510Y-144393199D01*
X76194689Y-144409994D01*
X76128554Y-144387456D01*
X76089515Y-144342403D01*
X76084862Y-144333271D01*
X76002944Y-144172499D01*
X75977159Y-144137009D01*
X75886884Y-144012753D01*
X75747246Y-143873115D01*
X75587504Y-143757058D01*
X75587503Y-143757057D01*
X75587501Y-143757056D01*
X75411561Y-143667409D01*
X75411558Y-143667408D01*
X75223763Y-143606389D01*
X75028736Y-143575500D01*
X75028731Y-143575500D01*
X74831269Y-143575500D01*
X74831264Y-143575500D01*
X74636236Y-143606389D01*
X74448441Y-143667408D01*
X74272495Y-143757058D01*
X74112753Y-143873115D01*
X73973115Y-144012753D01*
X73857058Y-144172495D01*
X73857056Y-144172499D01*
X73776805Y-144330000D01*
X73770485Y-144342403D01*
X73722510Y-144393199D01*
X73654689Y-144409994D01*
X73588554Y-144387456D01*
X73549515Y-144342403D01*
X73544862Y-144333271D01*
X73462944Y-144172499D01*
X73437159Y-144137009D01*
X73346884Y-144012753D01*
X73207246Y-143873115D01*
X73047504Y-143757058D01*
X73047503Y-143757057D01*
X73047501Y-143757056D01*
X72871561Y-143667409D01*
X72871558Y-143667408D01*
X72683763Y-143606389D01*
X72488736Y-143575500D01*
X72488731Y-143575500D01*
X72291269Y-143575500D01*
X72291264Y-143575500D01*
X72096236Y-143606389D01*
X71908441Y-143667408D01*
X71732495Y-143757058D01*
X71572753Y-143873115D01*
X71433115Y-144012753D01*
X71317058Y-144172495D01*
X71317056Y-144172499D01*
X71230203Y-144342954D01*
X71182230Y-144393749D01*
X71114409Y-144410544D01*
X71048274Y-144388006D01*
X71009235Y-144342953D01*
X70922520Y-144172768D01*
X70922512Y-144172755D01*
X70896542Y-144137010D01*
X70896541Y-144137009D01*
X70332962Y-144700589D01*
X70315925Y-144637007D01*
X70250099Y-144522993D01*
X70157007Y-144429901D01*
X70042993Y-144364075D01*
X69979409Y-144347037D01*
X70542989Y-143783457D01*
X70507239Y-143757483D01*
X70331373Y-143667873D01*
X70143646Y-143606876D01*
X69948697Y-143576000D01*
X69751303Y-143576000D01*
X69556353Y-143606876D01*
X69368626Y-143667873D01*
X69192762Y-143757482D01*
X69192760Y-143757483D01*
X69157010Y-143783456D01*
X69157010Y-143783457D01*
X69720591Y-144347037D01*
X69657007Y-144364075D01*
X69542993Y-144429901D01*
X69449901Y-144522993D01*
X69384075Y-144637007D01*
X69367037Y-144700590D01*
X68803457Y-144137010D01*
X68803456Y-144137010D01*
X68777483Y-144172760D01*
X68777479Y-144172767D01*
X68690763Y-144342954D01*
X68642788Y-144393749D01*
X68574967Y-144410544D01*
X68508833Y-144388006D01*
X68469798Y-144342957D01*
X68382944Y-144172499D01*
X68382942Y-144172496D01*
X68382941Y-144172494D01*
X68266884Y-144012753D01*
X68127246Y-143873115D01*
X67967504Y-143757058D01*
X67967503Y-143757057D01*
X67967501Y-143757056D01*
X67791561Y-143667409D01*
X67791558Y-143667408D01*
X67603763Y-143606389D01*
X67408736Y-143575500D01*
X67408731Y-143575500D01*
X67211269Y-143575500D01*
X67211264Y-143575500D01*
X67016236Y-143606389D01*
X66828441Y-143667408D01*
X66652495Y-143757058D01*
X66492753Y-143873115D01*
X66353115Y-144012753D01*
X66237058Y-144172495D01*
X66237056Y-144172499D01*
X66156805Y-144330000D01*
X66150485Y-144342403D01*
X66102510Y-144393199D01*
X66034689Y-144409994D01*
X65968554Y-144387456D01*
X65929515Y-144342403D01*
X65924862Y-144333271D01*
X65842944Y-144172499D01*
X65817159Y-144137009D01*
X65726884Y-144012753D01*
X65587246Y-143873115D01*
X65427504Y-143757058D01*
X65427503Y-143757057D01*
X65427501Y-143757056D01*
X65251561Y-143667409D01*
X65251558Y-143667408D01*
X65063763Y-143606389D01*
X64868736Y-143575500D01*
X64868731Y-143575500D01*
X64671269Y-143575500D01*
X64671264Y-143575500D01*
X64476236Y-143606389D01*
X64288441Y-143667408D01*
X64288439Y-143667408D01*
X64288439Y-143667409D01*
X64230793Y-143696781D01*
X64228089Y-143697289D01*
X64226011Y-143699090D01*
X64193961Y-143703698D01*
X64162126Y-143709677D01*
X64159576Y-143708642D01*
X64156853Y-143709034D01*
X64127394Y-143695580D01*
X64097385Y-143683401D01*
X64095799Y-143681151D01*
X64093297Y-143680009D01*
X64075788Y-143652765D01*
X64057128Y-143626294D01*
X64056555Y-143622837D01*
X64055523Y-143621231D01*
X64050500Y-143586296D01*
X64050500Y-143462229D01*
X64070185Y-143395190D01*
X64086819Y-143374548D01*
X66873548Y-140587819D01*
X66934871Y-140554334D01*
X66961229Y-140551500D01*
X75695648Y-140551500D01*
X75793190Y-140532096D01*
X75840641Y-140522658D01*
X75977223Y-140466084D01*
X76026457Y-140433186D01*
X76100144Y-140383952D01*
X79404952Y-137079144D01*
X79474238Y-136975448D01*
X79487084Y-136956223D01*
X79543658Y-136819641D01*
X79572500Y-136674646D01*
X79572500Y-133852500D01*
X79592185Y-133785461D01*
X79644989Y-133739706D01*
X79696500Y-133728500D01*
X81995920Y-133728500D01*
X82093462Y-133709096D01*
X82140913Y-133699658D01*
X82277495Y-133643084D01*
X82326729Y-133610186D01*
X82400416Y-133560952D01*
X83082951Y-132878416D01*
X83165084Y-132755495D01*
X83221658Y-132618913D01*
X83250500Y-132473918D01*
X83250500Y-130825416D01*
X83270185Y-130758377D01*
X83301613Y-130725099D01*
X83347219Y-130691966D01*
X83491966Y-130547219D01*
X83491968Y-130547215D01*
X83491971Y-130547213D01*
X83612284Y-130381614D01*
X83612286Y-130381611D01*
X83612287Y-130381610D01*
X83659516Y-130288917D01*
X83707489Y-130238123D01*
X83775310Y-130221328D01*
X83841445Y-130243865D01*
G37*
G04 #@! TD.AperFunction*
G04 #@! TA.AperFunction,Conductor*
G36*
X133003736Y-93500726D02*
G01*
X133293796Y-93518271D01*
X133308659Y-93520076D01*
X133590798Y-93571780D01*
X133605335Y-93575363D01*
X133879172Y-93660695D01*
X133893163Y-93666000D01*
X134154743Y-93783727D01*
X134167989Y-93790680D01*
X134413465Y-93939075D01*
X134425776Y-93947573D01*
X134651573Y-94124473D01*
X134662781Y-94134403D01*
X134865596Y-94337218D01*
X134875526Y-94348426D01*
X134995481Y-94501538D01*
X135052422Y-94574217D01*
X135060928Y-94586540D01*
X135209316Y-94832004D01*
X135216275Y-94845263D01*
X135333997Y-95106831D01*
X135339306Y-95120832D01*
X135424635Y-95394663D01*
X135428219Y-95409201D01*
X135479923Y-95691340D01*
X135481728Y-95706205D01*
X135499274Y-95996263D01*
X135499500Y-96003750D01*
X135499500Y-169996249D01*
X135499274Y-170003736D01*
X135481728Y-170293794D01*
X135479923Y-170308659D01*
X135428219Y-170590798D01*
X135424635Y-170605336D01*
X135339306Y-170879167D01*
X135333997Y-170893168D01*
X135216275Y-171154736D01*
X135209316Y-171167995D01*
X135060928Y-171413459D01*
X135052422Y-171425782D01*
X134875526Y-171651573D01*
X134865596Y-171662781D01*
X134662781Y-171865596D01*
X134651573Y-171875526D01*
X134425782Y-172052422D01*
X134413459Y-172060928D01*
X134167995Y-172209316D01*
X134154736Y-172216275D01*
X133893168Y-172333997D01*
X133879167Y-172339306D01*
X133605336Y-172424635D01*
X133590798Y-172428219D01*
X133308659Y-172479923D01*
X133293794Y-172481728D01*
X133003736Y-172499274D01*
X132996249Y-172499500D01*
X59003751Y-172499500D01*
X58996264Y-172499274D01*
X58706205Y-172481728D01*
X58691340Y-172479923D01*
X58409201Y-172428219D01*
X58394663Y-172424635D01*
X58120832Y-172339306D01*
X58106831Y-172333997D01*
X57845263Y-172216275D01*
X57832004Y-172209316D01*
X57586540Y-172060928D01*
X57574217Y-172052422D01*
X57348426Y-171875526D01*
X57337218Y-171865596D01*
X57134403Y-171662781D01*
X57124473Y-171651573D01*
X56947573Y-171425776D01*
X56939075Y-171413465D01*
X56790680Y-171167989D01*
X56783727Y-171154743D01*
X56666000Y-170893163D01*
X56660693Y-170879167D01*
X56605397Y-170701717D01*
X56575363Y-170605335D01*
X56571780Y-170590798D01*
X56520076Y-170308659D01*
X56518271Y-170293794D01*
X56518256Y-170293554D01*
X56500726Y-170003736D01*
X56500500Y-169996249D01*
X56500500Y-168972070D01*
X58274500Y-168972070D01*
X58274500Y-169227929D01*
X58314526Y-169480640D01*
X58393588Y-169723972D01*
X58393589Y-169723975D01*
X58472533Y-169878910D01*
X58503660Y-169939999D01*
X58509750Y-169951950D01*
X58660132Y-170158935D01*
X58660136Y-170158940D01*
X58841059Y-170339863D01*
X58841064Y-170339867D01*
X58931986Y-170405925D01*
X59048053Y-170490252D01*
X59197080Y-170566185D01*
X59276024Y-170606410D01*
X59276027Y-170606411D01*
X59397693Y-170645942D01*
X59519361Y-170685474D01*
X59772070Y-170725500D01*
X59772071Y-170725500D01*
X60027929Y-170725500D01*
X60027930Y-170725500D01*
X60280639Y-170685474D01*
X60523975Y-170606410D01*
X60751947Y-170490252D01*
X60958942Y-170339862D01*
X60976518Y-170322286D01*
X61037840Y-170288799D01*
X61058793Y-170286083D01*
X61091037Y-170284675D01*
X61131679Y-170282901D01*
X61282476Y-170235355D01*
X61415829Y-170150400D01*
X61522649Y-170033825D01*
X61595658Y-169893577D01*
X61616922Y-169797661D01*
X61650650Y-169736472D01*
X61712106Y-169703230D01*
X61737983Y-169700500D01*
X65476345Y-169700500D01*
X65543384Y-169720185D01*
X65589139Y-169772989D01*
X65599016Y-169828881D01*
X65600000Y-169828881D01*
X65600000Y-170046246D01*
X65633242Y-170256127D01*
X65633242Y-170256130D01*
X65698904Y-170458217D01*
X65795375Y-170647550D01*
X65834728Y-170701716D01*
X66467036Y-170069407D01*
X66484075Y-170132993D01*
X66549901Y-170247007D01*
X66642993Y-170340099D01*
X66757007Y-170405925D01*
X66820590Y-170422962D01*
X66188282Y-171055269D01*
X66188282Y-171055270D01*
X66242449Y-171094624D01*
X66431782Y-171191095D01*
X66633870Y-171256757D01*
X66843754Y-171290000D01*
X67056246Y-171290000D01*
X67266127Y-171256757D01*
X67266130Y-171256757D01*
X67468217Y-171191095D01*
X67657554Y-171094622D01*
X67711716Y-171055270D01*
X67711717Y-171055270D01*
X67079408Y-170422962D01*
X67142993Y-170405925D01*
X67257007Y-170340099D01*
X67350099Y-170247007D01*
X67415925Y-170132993D01*
X67432962Y-170069409D01*
X68065270Y-170701717D01*
X68065270Y-170701716D01*
X68104622Y-170647554D01*
X68201095Y-170458217D01*
X68266757Y-170256130D01*
X68266757Y-170256127D01*
X68300000Y-170046246D01*
X68300000Y-169828881D01*
X68301162Y-169828881D01*
X68314399Y-169765857D01*
X68363447Y-169716098D01*
X68423655Y-169700500D01*
X70076345Y-169700500D01*
X70143384Y-169720185D01*
X70189139Y-169772989D01*
X70199016Y-169828881D01*
X70200000Y-169828881D01*
X70200000Y-170046246D01*
X70233242Y-170256127D01*
X70233242Y-170256130D01*
X70298904Y-170458217D01*
X70395375Y-170647550D01*
X70434728Y-170701716D01*
X71067036Y-170069407D01*
X71084075Y-170132993D01*
X71149901Y-170247007D01*
X71242993Y-170340099D01*
X71357007Y-170405925D01*
X71420590Y-170422962D01*
X70788282Y-171055269D01*
X70788282Y-171055270D01*
X70842449Y-171094624D01*
X71031782Y-171191095D01*
X71233870Y-171256757D01*
X71443754Y-171290000D01*
X71656246Y-171290000D01*
X71866127Y-171256757D01*
X71866130Y-171256757D01*
X72068217Y-171191095D01*
X72257554Y-171094622D01*
X72311716Y-171055270D01*
X72311717Y-171055270D01*
X71679408Y-170422962D01*
X71742993Y-170405925D01*
X71857007Y-170340099D01*
X71950099Y-170247007D01*
X72015925Y-170132993D01*
X72032962Y-170069409D01*
X72665270Y-170701717D01*
X72665270Y-170701716D01*
X72704622Y-170647554D01*
X72801095Y-170458217D01*
X72866757Y-170256130D01*
X72866757Y-170256127D01*
X72900000Y-170046246D01*
X72900000Y-169828881D01*
X72901162Y-169828881D01*
X72914399Y-169765857D01*
X72963447Y-169716098D01*
X73023655Y-169700500D01*
X74676345Y-169700500D01*
X74743384Y-169720185D01*
X74789139Y-169772989D01*
X74799016Y-169828881D01*
X74800000Y-169828881D01*
X74800000Y-170046246D01*
X74833242Y-170256127D01*
X74833242Y-170256130D01*
X74898904Y-170458217D01*
X74995375Y-170647550D01*
X75034728Y-170701716D01*
X75667036Y-170069407D01*
X75684075Y-170132993D01*
X75749901Y-170247007D01*
X75842993Y-170340099D01*
X75957007Y-170405925D01*
X76020590Y-170422962D01*
X75388282Y-171055269D01*
X75388282Y-171055270D01*
X75442449Y-171094624D01*
X75631782Y-171191095D01*
X75833870Y-171256757D01*
X76043754Y-171290000D01*
X76256246Y-171290000D01*
X76466127Y-171256757D01*
X76466130Y-171256757D01*
X76668217Y-171191095D01*
X76857554Y-171094622D01*
X76911716Y-171055270D01*
X76911717Y-171055270D01*
X76279408Y-170422962D01*
X76342993Y-170405925D01*
X76457007Y-170340099D01*
X76550099Y-170247007D01*
X76615925Y-170132993D01*
X76632962Y-170069409D01*
X77265270Y-170701717D01*
X77265270Y-170701716D01*
X77304622Y-170647554D01*
X77401095Y-170458217D01*
X77466757Y-170256130D01*
X77466757Y-170256127D01*
X77500000Y-170046246D01*
X77500000Y-169828881D01*
X77501162Y-169828881D01*
X77514399Y-169765857D01*
X77563447Y-169716098D01*
X77623655Y-169700500D01*
X79276345Y-169700500D01*
X79343384Y-169720185D01*
X79389139Y-169772989D01*
X79399016Y-169828881D01*
X79400000Y-169828881D01*
X79400000Y-170046246D01*
X79433242Y-170256127D01*
X79433242Y-170256130D01*
X79498904Y-170458217D01*
X79595375Y-170647550D01*
X79634728Y-170701716D01*
X80267036Y-170069407D01*
X80284075Y-170132993D01*
X80349901Y-170247007D01*
X80442993Y-170340099D01*
X80557007Y-170405925D01*
X80620590Y-170422962D01*
X79988282Y-171055269D01*
X79988282Y-171055270D01*
X80042449Y-171094624D01*
X80231782Y-171191095D01*
X80433870Y-171256757D01*
X80643754Y-171290000D01*
X80856246Y-171290000D01*
X81066127Y-171256757D01*
X81066130Y-171256757D01*
X81268217Y-171191095D01*
X81457554Y-171094622D01*
X81511716Y-171055270D01*
X81511717Y-171055270D01*
X80879408Y-170422962D01*
X80942993Y-170405925D01*
X81057007Y-170340099D01*
X81150099Y-170247007D01*
X81215925Y-170132993D01*
X81232962Y-170069409D01*
X81865270Y-170701717D01*
X81865270Y-170701716D01*
X81904622Y-170647554D01*
X82001095Y-170458217D01*
X82066757Y-170256130D01*
X82066757Y-170256127D01*
X82100000Y-170046246D01*
X82100000Y-169828881D01*
X82101162Y-169828881D01*
X82114399Y-169765857D01*
X82163447Y-169716098D01*
X82223655Y-169700500D01*
X83876345Y-169700500D01*
X83943384Y-169720185D01*
X83989139Y-169772989D01*
X83999016Y-169828881D01*
X84000000Y-169828881D01*
X84000000Y-170046246D01*
X84033242Y-170256127D01*
X84033242Y-170256130D01*
X84098904Y-170458217D01*
X84195375Y-170647550D01*
X84234728Y-170701716D01*
X84867036Y-170069407D01*
X84884075Y-170132993D01*
X84949901Y-170247007D01*
X85042993Y-170340099D01*
X85157007Y-170405925D01*
X85220590Y-170422962D01*
X84588282Y-171055269D01*
X84588282Y-171055270D01*
X84642449Y-171094624D01*
X84831782Y-171191095D01*
X85033870Y-171256757D01*
X85243754Y-171290000D01*
X85456246Y-171290000D01*
X85666127Y-171256757D01*
X85666130Y-171256757D01*
X85868217Y-171191095D01*
X86057554Y-171094622D01*
X86111716Y-171055270D01*
X86111717Y-171055270D01*
X85479408Y-170422962D01*
X85542993Y-170405925D01*
X85657007Y-170340099D01*
X85750099Y-170247007D01*
X85815925Y-170132993D01*
X85832962Y-170069409D01*
X86465270Y-170701717D01*
X86465270Y-170701716D01*
X86504622Y-170647554D01*
X86601095Y-170458217D01*
X86666757Y-170256130D01*
X86666757Y-170256127D01*
X86700000Y-170046246D01*
X86700000Y-169828881D01*
X86701162Y-169828881D01*
X86714399Y-169765857D01*
X86763447Y-169716098D01*
X86823655Y-169700500D01*
X88476345Y-169700500D01*
X88543384Y-169720185D01*
X88589139Y-169772989D01*
X88599016Y-169828881D01*
X88600000Y-169828881D01*
X88600000Y-170046246D01*
X88633242Y-170256127D01*
X88633242Y-170256130D01*
X88698904Y-170458217D01*
X88795375Y-170647550D01*
X88834728Y-170701716D01*
X89467036Y-170069407D01*
X89484075Y-170132993D01*
X89549901Y-170247007D01*
X89642993Y-170340099D01*
X89757007Y-170405925D01*
X89820590Y-170422962D01*
X89188282Y-171055269D01*
X89188282Y-171055270D01*
X89242449Y-171094624D01*
X89431782Y-171191095D01*
X89633870Y-171256757D01*
X89843754Y-171290000D01*
X90056246Y-171290000D01*
X90266127Y-171256757D01*
X90266130Y-171256757D01*
X90468217Y-171191095D01*
X90657554Y-171094622D01*
X90711716Y-171055270D01*
X90711717Y-171055270D01*
X90079408Y-170422962D01*
X90142993Y-170405925D01*
X90257007Y-170340099D01*
X90350099Y-170247007D01*
X90415925Y-170132993D01*
X90432962Y-170069409D01*
X91065270Y-170701717D01*
X91065270Y-170701716D01*
X91104622Y-170647554D01*
X91201095Y-170458217D01*
X91266757Y-170256130D01*
X91266757Y-170256127D01*
X91300000Y-170046246D01*
X91300000Y-169828881D01*
X91301162Y-169828881D01*
X91314399Y-169765857D01*
X91363447Y-169716098D01*
X91423655Y-169700500D01*
X116305642Y-169700500D01*
X116372681Y-169720185D01*
X116416125Y-169768203D01*
X116509748Y-169951947D01*
X116509750Y-169951950D01*
X116660132Y-170158935D01*
X116660136Y-170158940D01*
X116841059Y-170339863D01*
X116841064Y-170339867D01*
X116931986Y-170405925D01*
X117048053Y-170490252D01*
X117197080Y-170566185D01*
X117276024Y-170606410D01*
X117276027Y-170606411D01*
X117397693Y-170645942D01*
X117519361Y-170685474D01*
X117772070Y-170725500D01*
X117772071Y-170725500D01*
X118027929Y-170725500D01*
X118027930Y-170725500D01*
X118280639Y-170685474D01*
X118523975Y-170606410D01*
X118751947Y-170490252D01*
X118958942Y-170339862D01*
X119139862Y-170158942D01*
X119290252Y-169951947D01*
X119383874Y-169768203D01*
X119431848Y-169717409D01*
X119494358Y-169700500D01*
X130262017Y-169700500D01*
X130329056Y-169720185D01*
X130374811Y-169772989D01*
X130383076Y-169797656D01*
X130404342Y-169893577D01*
X130434727Y-169951947D01*
X130459741Y-170000000D01*
X130477350Y-170033826D01*
X130584171Y-170150400D01*
X130584174Y-170150402D01*
X130584176Y-170150404D01*
X130704417Y-170227006D01*
X130717524Y-170235356D01*
X130868320Y-170282902D01*
X130978177Y-170287697D01*
X131044292Y-170310286D01*
X131053383Y-170317945D01*
X131053648Y-170317636D01*
X131057350Y-170320798D01*
X131083916Y-170340099D01*
X131261155Y-170468870D01*
X131404184Y-170541747D01*
X131485616Y-170583239D01*
X131485618Y-170583239D01*
X131485621Y-170583241D01*
X131725215Y-170661090D01*
X131974038Y-170700500D01*
X131974039Y-170700500D01*
X132225961Y-170700500D01*
X132225962Y-170700500D01*
X132474785Y-170661090D01*
X132714379Y-170583241D01*
X132938845Y-170468870D01*
X133142656Y-170320793D01*
X133320793Y-170142656D01*
X133468870Y-169938845D01*
X133583241Y-169714379D01*
X133661090Y-169474785D01*
X133700500Y-169225962D01*
X133700500Y-168974038D01*
X133661090Y-168725215D01*
X133583241Y-168485621D01*
X133583239Y-168485618D01*
X133583239Y-168485616D01*
X133540807Y-168402339D01*
X133468870Y-168261155D01*
X133399863Y-168166175D01*
X133320798Y-168057350D01*
X133320794Y-168057345D01*
X133142654Y-167879205D01*
X133142649Y-167879201D01*
X132938848Y-167731132D01*
X132938847Y-167731131D01*
X132938845Y-167731130D01*
X132868747Y-167695413D01*
X132714383Y-167616760D01*
X132474785Y-167538910D01*
X132225962Y-167499500D01*
X131974038Y-167499500D01*
X131849626Y-167519205D01*
X131725214Y-167538910D01*
X131485616Y-167616760D01*
X131261151Y-167731132D01*
X131057348Y-167879203D01*
X131053641Y-167882370D01*
X131052179Y-167880659D01*
X130998948Y-167909625D01*
X130978176Y-167912302D01*
X130868323Y-167917097D01*
X130868321Y-167917097D01*
X130717522Y-167964644D01*
X130717521Y-167964645D01*
X130584176Y-168049595D01*
X130584172Y-168049599D01*
X130584171Y-168049600D01*
X130507870Y-168132867D01*
X130477348Y-168166176D01*
X130404341Y-168306425D01*
X130383078Y-168402339D01*
X130349350Y-168463528D01*
X130287894Y-168496770D01*
X130262017Y-168499500D01*
X119494358Y-168499500D01*
X119427319Y-168479815D01*
X119383874Y-168431796D01*
X119290252Y-168248053D01*
X119230765Y-168166176D01*
X119139867Y-168041064D01*
X119139863Y-168041059D01*
X118958940Y-167860136D01*
X118958935Y-167860132D01*
X118751950Y-167709750D01*
X118751949Y-167709749D01*
X118751947Y-167709748D01*
X118678910Y-167672533D01*
X118523975Y-167593589D01*
X118523972Y-167593588D01*
X118280640Y-167514526D01*
X118154284Y-167494513D01*
X118027930Y-167474500D01*
X117772070Y-167474500D01*
X117687833Y-167487842D01*
X117519359Y-167514526D01*
X117276027Y-167593588D01*
X117276024Y-167593589D01*
X117048049Y-167709750D01*
X116841064Y-167860132D01*
X116841059Y-167860136D01*
X116660136Y-168041059D01*
X116660132Y-168041064D01*
X116509750Y-168248049D01*
X116509748Y-168248053D01*
X116416125Y-168431796D01*
X116368152Y-168482591D01*
X116305642Y-168499500D01*
X99065213Y-168499500D01*
X98998174Y-168479815D01*
X98952419Y-168427011D01*
X98941213Y-168375500D01*
X98941213Y-165821103D01*
X93128488Y-165821103D01*
X93128488Y-168375500D01*
X93108803Y-168442539D01*
X93055999Y-168488294D01*
X93004488Y-168499500D01*
X91416868Y-168499500D01*
X91349829Y-168479815D01*
X91304074Y-168427011D01*
X91293579Y-168362244D01*
X91294091Y-168357483D01*
X91300500Y-168297873D01*
X91300499Y-166502128D01*
X91294091Y-166442517D01*
X91243796Y-166307669D01*
X91243795Y-166307668D01*
X91243793Y-166307664D01*
X91157547Y-166192455D01*
X91157544Y-166192452D01*
X91042335Y-166106206D01*
X91042328Y-166106202D01*
X90907482Y-166055908D01*
X90907483Y-166055908D01*
X90847883Y-166049501D01*
X90847881Y-166049500D01*
X90847873Y-166049500D01*
X90847864Y-166049500D01*
X89052129Y-166049500D01*
X89052123Y-166049501D01*
X88992516Y-166055908D01*
X88857671Y-166106202D01*
X88857664Y-166106206D01*
X88742455Y-166192452D01*
X88742452Y-166192455D01*
X88656206Y-166307664D01*
X88656202Y-166307671D01*
X88605908Y-166442517D01*
X88599501Y-166502116D01*
X88599501Y-166502123D01*
X88599500Y-166502135D01*
X88599500Y-168297870D01*
X88599501Y-168297876D01*
X88606421Y-168362247D01*
X88594014Y-168431006D01*
X88546403Y-168482143D01*
X88483131Y-168499500D01*
X86816868Y-168499500D01*
X86749829Y-168479815D01*
X86704074Y-168427011D01*
X86693579Y-168362244D01*
X86694091Y-168357483D01*
X86700500Y-168297873D01*
X86700499Y-166502128D01*
X86694091Y-166442517D01*
X86643796Y-166307669D01*
X86643795Y-166307668D01*
X86643793Y-166307664D01*
X86557547Y-166192455D01*
X86557544Y-166192452D01*
X86442335Y-166106206D01*
X86442328Y-166106202D01*
X86307482Y-166055908D01*
X86307483Y-166055908D01*
X86247883Y-166049501D01*
X86247881Y-166049500D01*
X86247873Y-166049500D01*
X86247864Y-166049500D01*
X84452129Y-166049500D01*
X84452123Y-166049501D01*
X84392516Y-166055908D01*
X84257671Y-166106202D01*
X84257664Y-166106206D01*
X84142455Y-166192452D01*
X84142452Y-166192455D01*
X84056206Y-166307664D01*
X84056202Y-166307671D01*
X84005908Y-166442517D01*
X83999501Y-166502116D01*
X83999501Y-166502123D01*
X83999500Y-166502135D01*
X83999500Y-168297870D01*
X83999501Y-168297876D01*
X84006421Y-168362247D01*
X83994014Y-168431006D01*
X83946403Y-168482143D01*
X83883131Y-168499500D01*
X82216868Y-168499500D01*
X82149829Y-168479815D01*
X82104074Y-168427011D01*
X82093579Y-168362244D01*
X82094091Y-168357483D01*
X82100500Y-168297873D01*
X82100499Y-166502128D01*
X82094091Y-166442517D01*
X82043796Y-166307669D01*
X82043795Y-166307668D01*
X82043793Y-166307664D01*
X81957547Y-166192455D01*
X81957544Y-166192452D01*
X81842335Y-166106206D01*
X81842328Y-166106202D01*
X81707482Y-166055908D01*
X81707483Y-166055908D01*
X81647883Y-166049501D01*
X81647881Y-166049500D01*
X81647873Y-166049500D01*
X81647864Y-166049500D01*
X79852129Y-166049500D01*
X79852123Y-166049501D01*
X79792516Y-166055908D01*
X79657671Y-166106202D01*
X79657664Y-166106206D01*
X79542455Y-166192452D01*
X79542452Y-166192455D01*
X79456206Y-166307664D01*
X79456202Y-166307671D01*
X79405908Y-166442517D01*
X79399501Y-166502116D01*
X79399501Y-166502123D01*
X79399500Y-166502135D01*
X79399500Y-168297870D01*
X79399501Y-168297876D01*
X79406421Y-168362247D01*
X79394014Y-168431006D01*
X79346403Y-168482143D01*
X79283131Y-168499500D01*
X77616868Y-168499500D01*
X77549829Y-168479815D01*
X77504074Y-168427011D01*
X77493579Y-168362244D01*
X77494091Y-168357483D01*
X77500500Y-168297873D01*
X77500499Y-166502128D01*
X77494091Y-166442517D01*
X77443796Y-166307669D01*
X77443795Y-166307668D01*
X77443793Y-166307664D01*
X77357547Y-166192455D01*
X77357544Y-166192452D01*
X77242335Y-166106206D01*
X77242328Y-166106202D01*
X77107482Y-166055908D01*
X77107483Y-166055908D01*
X77047883Y-166049501D01*
X77047881Y-166049500D01*
X77047873Y-166049500D01*
X77047864Y-166049500D01*
X75252129Y-166049500D01*
X75252123Y-166049501D01*
X75192516Y-166055908D01*
X75057671Y-166106202D01*
X75057664Y-166106206D01*
X74942455Y-166192452D01*
X74942452Y-166192455D01*
X74856206Y-166307664D01*
X74856202Y-166307671D01*
X74805908Y-166442517D01*
X74799501Y-166502116D01*
X74799501Y-166502123D01*
X74799500Y-166502135D01*
X74799500Y-168297870D01*
X74799501Y-168297876D01*
X74806421Y-168362247D01*
X74794014Y-168431006D01*
X74746403Y-168482143D01*
X74683131Y-168499500D01*
X73016868Y-168499500D01*
X72949829Y-168479815D01*
X72904074Y-168427011D01*
X72893579Y-168362244D01*
X72894091Y-168357483D01*
X72900500Y-168297873D01*
X72900499Y-166502128D01*
X72894091Y-166442517D01*
X72843796Y-166307669D01*
X72843795Y-166307668D01*
X72843793Y-166307664D01*
X72757547Y-166192455D01*
X72757544Y-166192452D01*
X72642335Y-166106206D01*
X72642328Y-166106202D01*
X72507482Y-166055908D01*
X72507483Y-166055908D01*
X72447883Y-166049501D01*
X72447881Y-166049500D01*
X72447873Y-166049500D01*
X72447864Y-166049500D01*
X70652129Y-166049500D01*
X70652123Y-166049501D01*
X70592516Y-166055908D01*
X70457671Y-166106202D01*
X70457664Y-166106206D01*
X70342455Y-166192452D01*
X70342452Y-166192455D01*
X70256206Y-166307664D01*
X70256202Y-166307671D01*
X70205908Y-166442517D01*
X70199501Y-166502116D01*
X70199501Y-166502123D01*
X70199500Y-166502135D01*
X70199500Y-168297870D01*
X70199501Y-168297876D01*
X70206421Y-168362247D01*
X70194014Y-168431006D01*
X70146403Y-168482143D01*
X70083131Y-168499500D01*
X68416868Y-168499500D01*
X68349829Y-168479815D01*
X68304074Y-168427011D01*
X68293579Y-168362244D01*
X68294091Y-168357483D01*
X68300500Y-168297873D01*
X68300499Y-166502128D01*
X68294091Y-166442517D01*
X68243796Y-166307669D01*
X68243795Y-166307668D01*
X68243793Y-166307664D01*
X68157547Y-166192455D01*
X68157544Y-166192452D01*
X68042335Y-166106206D01*
X68042328Y-166106202D01*
X67907482Y-166055908D01*
X67907483Y-166055908D01*
X67847883Y-166049501D01*
X67847881Y-166049500D01*
X67847873Y-166049500D01*
X67847864Y-166049500D01*
X66052129Y-166049500D01*
X66052123Y-166049501D01*
X65992516Y-166055908D01*
X65857671Y-166106202D01*
X65857664Y-166106206D01*
X65742455Y-166192452D01*
X65742452Y-166192455D01*
X65656206Y-166307664D01*
X65656202Y-166307671D01*
X65605908Y-166442517D01*
X65599501Y-166502116D01*
X65599501Y-166502123D01*
X65599500Y-166502135D01*
X65599500Y-168297870D01*
X65599501Y-168297876D01*
X65606421Y-168362247D01*
X65594014Y-168431006D01*
X65546403Y-168482143D01*
X65483131Y-168499500D01*
X61737983Y-168499500D01*
X61670944Y-168479815D01*
X61625189Y-168427011D01*
X61616922Y-168402339D01*
X61608033Y-168362244D01*
X61595658Y-168306423D01*
X61522649Y-168166175D01*
X61415829Y-168049600D01*
X61415826Y-168049598D01*
X61415824Y-168049596D01*
X61282476Y-167964645D01*
X61282471Y-167964643D01*
X61131682Y-167917100D01*
X61131679Y-167917099D01*
X61058789Y-167913916D01*
X60992673Y-167891325D01*
X60976519Y-167877715D01*
X60958940Y-167860136D01*
X60958935Y-167860132D01*
X60751950Y-167709750D01*
X60751949Y-167709749D01*
X60751947Y-167709748D01*
X60678910Y-167672533D01*
X60523975Y-167593589D01*
X60523972Y-167593588D01*
X60280640Y-167514526D01*
X60154284Y-167494513D01*
X60027930Y-167474500D01*
X59772070Y-167474500D01*
X59687833Y-167487842D01*
X59519359Y-167514526D01*
X59276027Y-167593588D01*
X59276024Y-167593589D01*
X59048049Y-167709750D01*
X58841064Y-167860132D01*
X58841059Y-167860136D01*
X58660136Y-168041059D01*
X58660132Y-168041064D01*
X58509750Y-168248049D01*
X58393589Y-168476024D01*
X58393588Y-168476027D01*
X58314526Y-168719359D01*
X58274500Y-168972070D01*
X56500500Y-168972070D01*
X56500500Y-145972070D01*
X58274500Y-145972070D01*
X58274500Y-146227929D01*
X58314526Y-146480640D01*
X58393588Y-146723972D01*
X58393589Y-146723975D01*
X58431135Y-146797661D01*
X58503072Y-146938845D01*
X58509750Y-146951950D01*
X58660132Y-147158935D01*
X58660136Y-147158940D01*
X58841059Y-147339863D01*
X58841064Y-147339867D01*
X58987460Y-147446229D01*
X59048053Y-147490252D01*
X59190815Y-147562993D01*
X59276024Y-147606410D01*
X59276027Y-147606411D01*
X59397693Y-147645942D01*
X59519361Y-147685474D01*
X59772070Y-147725500D01*
X59772071Y-147725500D01*
X60027929Y-147725500D01*
X60027930Y-147725500D01*
X60280639Y-147685474D01*
X60523975Y-147606410D01*
X60751947Y-147490252D01*
X60950618Y-147345909D01*
X61016421Y-147322431D01*
X61084475Y-147338256D01*
X61133170Y-147388362D01*
X61147500Y-147446229D01*
X61147500Y-149654646D01*
X61147500Y-149654648D01*
X61147499Y-149654648D01*
X61176340Y-149799635D01*
X61176343Y-149799645D01*
X61232913Y-149936217D01*
X61232914Y-149936219D01*
X61232916Y-149936223D01*
X61245705Y-149955364D01*
X61245764Y-149955451D01*
X61245763Y-149955451D01*
X61315046Y-150059142D01*
X61315052Y-150059149D01*
X62240856Y-150984952D01*
X62240858Y-150984954D01*
X62270330Y-151004645D01*
X62314542Y-151034186D01*
X62363777Y-151067084D01*
X62363778Y-151067084D01*
X62363779Y-151067085D01*
X62363781Y-151067086D01*
X62500354Y-151123656D01*
X62500359Y-151123658D01*
X62500363Y-151123658D01*
X62500364Y-151123659D01*
X62645351Y-151152500D01*
X62645354Y-151152500D01*
X89751920Y-151152500D01*
X89849462Y-151133096D01*
X89896913Y-151123658D01*
X90033495Y-151067084D01*
X90082729Y-151034186D01*
X90082734Y-151034183D01*
X90107071Y-151017921D01*
X90156416Y-150984952D01*
X92485100Y-148656265D01*
X92546421Y-148622782D01*
X92592172Y-148621475D01*
X92611269Y-148624500D01*
X92611276Y-148624500D01*
X92808736Y-148624500D01*
X93003763Y-148593610D01*
X93005262Y-148593123D01*
X93191561Y-148532591D01*
X93367501Y-148442944D01*
X93457192Y-148377779D01*
X93527246Y-148326884D01*
X93527248Y-148326881D01*
X93527252Y-148326879D01*
X93666879Y-148187252D01*
X93666881Y-148187248D01*
X93666884Y-148187246D01*
X93782941Y-148027505D01*
X93782943Y-148027502D01*
X93782944Y-148027501D01*
X93869517Y-147857593D01*
X93917490Y-147806800D01*
X93985311Y-147790005D01*
X94051446Y-147812542D01*
X94090482Y-147857593D01*
X94173804Y-148021119D01*
X94177058Y-148027505D01*
X94293115Y-148187246D01*
X94432753Y-148326884D01*
X94556158Y-148416541D01*
X94592499Y-148442944D01*
X94768439Y-148532591D01*
X94893637Y-148573270D01*
X94956236Y-148593610D01*
X95151264Y-148624500D01*
X95151269Y-148624500D01*
X95348736Y-148624500D01*
X95543763Y-148593610D01*
X95545262Y-148593123D01*
X95731561Y-148532591D01*
X95907501Y-148442944D01*
X95997192Y-148377779D01*
X96067246Y-148326884D01*
X96067248Y-148326881D01*
X96067252Y-148326879D01*
X96206879Y-148187252D01*
X96206881Y-148187248D01*
X96206884Y-148187246D01*
X96322941Y-148027505D01*
X96322943Y-148027502D01*
X96322944Y-148027501D01*
X96409517Y-147857593D01*
X96457490Y-147806800D01*
X96525311Y-147790005D01*
X96591446Y-147812542D01*
X96630482Y-147857593D01*
X96713804Y-148021119D01*
X96717058Y-148027505D01*
X96833115Y-148187246D01*
X96972753Y-148326884D01*
X97096158Y-148416541D01*
X97132499Y-148442944D01*
X97308439Y-148532591D01*
X97433637Y-148573270D01*
X97496236Y-148593610D01*
X97691264Y-148624500D01*
X97691269Y-148624500D01*
X97888736Y-148624500D01*
X98083763Y-148593610D01*
X98085262Y-148593123D01*
X98271561Y-148532591D01*
X98447501Y-148442944D01*
X98537192Y-148377779D01*
X98607246Y-148326884D01*
X98607248Y-148326881D01*
X98607252Y-148326879D01*
X98746879Y-148187252D01*
X98746881Y-148187248D01*
X98746884Y-148187246D01*
X98862941Y-148027505D01*
X98862943Y-148027502D01*
X98862944Y-148027501D01*
X98949517Y-147857593D01*
X98997490Y-147806800D01*
X99065311Y-147790005D01*
X99131446Y-147812542D01*
X99170482Y-147857593D01*
X99253804Y-148021119D01*
X99257058Y-148027505D01*
X99373115Y-148187246D01*
X99512753Y-148326884D01*
X99636158Y-148416541D01*
X99672499Y-148442944D01*
X99848439Y-148532591D01*
X99973637Y-148573270D01*
X100036236Y-148593610D01*
X100231264Y-148624500D01*
X100231269Y-148624500D01*
X100428736Y-148624500D01*
X100623763Y-148593610D01*
X100625262Y-148593123D01*
X100811561Y-148532591D01*
X100987501Y-148442944D01*
X101077192Y-148377779D01*
X101147246Y-148326884D01*
X101147248Y-148326881D01*
X101147252Y-148326879D01*
X101286879Y-148187252D01*
X101286881Y-148187248D01*
X101286884Y-148187246D01*
X101402941Y-148027505D01*
X101402943Y-148027502D01*
X101402944Y-148027501D01*
X101489517Y-147857593D01*
X101537490Y-147806800D01*
X101605311Y-147790005D01*
X101671446Y-147812542D01*
X101710482Y-147857593D01*
X101793804Y-148021119D01*
X101797058Y-148027505D01*
X101913115Y-148187246D01*
X102052753Y-148326884D01*
X102176158Y-148416541D01*
X102212499Y-148442944D01*
X102388439Y-148532591D01*
X102513637Y-148573270D01*
X102576236Y-148593610D01*
X102771264Y-148624500D01*
X102771269Y-148624500D01*
X102968736Y-148624500D01*
X103163763Y-148593610D01*
X103165262Y-148593123D01*
X103351561Y-148532591D01*
X103527501Y-148442944D01*
X103617192Y-148377779D01*
X103687246Y-148326884D01*
X103687248Y-148326881D01*
X103687252Y-148326879D01*
X103826879Y-148187252D01*
X103826881Y-148187248D01*
X103826884Y-148187246D01*
X103942941Y-148027505D01*
X103942943Y-148027502D01*
X103942944Y-148027501D01*
X104029517Y-147857593D01*
X104077490Y-147806800D01*
X104145311Y-147790005D01*
X104211446Y-147812542D01*
X104250482Y-147857593D01*
X104333804Y-148021119D01*
X104337058Y-148027505D01*
X104453115Y-148187246D01*
X104592753Y-148326884D01*
X104716158Y-148416541D01*
X104752499Y-148442944D01*
X104928439Y-148532591D01*
X105053637Y-148573270D01*
X105116236Y-148593610D01*
X105311264Y-148624500D01*
X105311269Y-148624500D01*
X105508736Y-148624500D01*
X105703763Y-148593610D01*
X105705262Y-148593123D01*
X105891561Y-148532591D01*
X106067501Y-148442944D01*
X106157192Y-148377779D01*
X106227246Y-148326884D01*
X106227248Y-148326881D01*
X106227252Y-148326879D01*
X106366879Y-148187252D01*
X106366881Y-148187248D01*
X106366884Y-148187246D01*
X106482941Y-148027505D01*
X106482943Y-148027502D01*
X106482944Y-148027501D01*
X106569517Y-147857593D01*
X106617490Y-147806800D01*
X106685311Y-147790005D01*
X106751446Y-147812542D01*
X106790482Y-147857593D01*
X106873804Y-148021119D01*
X106877058Y-148027505D01*
X106993115Y-148187246D01*
X107132753Y-148326884D01*
X107256158Y-148416541D01*
X107292499Y-148442944D01*
X107468439Y-148532591D01*
X107593637Y-148573270D01*
X107656236Y-148593610D01*
X107851264Y-148624500D01*
X107851269Y-148624500D01*
X108048736Y-148624500D01*
X108243763Y-148593610D01*
X108245262Y-148593123D01*
X108431561Y-148532591D01*
X108607501Y-148442944D01*
X108697192Y-148377779D01*
X108767246Y-148326884D01*
X108767248Y-148326881D01*
X108767252Y-148326879D01*
X108906879Y-148187252D01*
X108906881Y-148187248D01*
X108906884Y-148187246D01*
X109022941Y-148027505D01*
X109022943Y-148027502D01*
X109022944Y-148027501D01*
X109109517Y-147857593D01*
X109157490Y-147806800D01*
X109225311Y-147790005D01*
X109291446Y-147812542D01*
X109330482Y-147857593D01*
X109413804Y-148021119D01*
X109417058Y-148027505D01*
X109533115Y-148187246D01*
X109672753Y-148326884D01*
X109796158Y-148416541D01*
X109832499Y-148442944D01*
X110008439Y-148532591D01*
X110133637Y-148573270D01*
X110196236Y-148593610D01*
X110391264Y-148624500D01*
X110391269Y-148624500D01*
X110588736Y-148624500D01*
X110783763Y-148593610D01*
X110785262Y-148593123D01*
X110971561Y-148532591D01*
X111147501Y-148442944D01*
X111237192Y-148377779D01*
X111307246Y-148326884D01*
X111307248Y-148326881D01*
X111307252Y-148326879D01*
X111446879Y-148187252D01*
X111446881Y-148187248D01*
X111446884Y-148187246D01*
X111562943Y-148027502D01*
X111563079Y-148027236D01*
X111649797Y-147857043D01*
X111697768Y-147806250D01*
X111765589Y-147789455D01*
X111831724Y-147811992D01*
X111870763Y-147857045D01*
X111957481Y-148027236D01*
X111983457Y-148062988D01*
X111983457Y-148062989D01*
X112547037Y-147499408D01*
X112564075Y-147562993D01*
X112629901Y-147677007D01*
X112722993Y-147770099D01*
X112837007Y-147835925D01*
X112900590Y-147852962D01*
X112337009Y-148416541D01*
X112337010Y-148416542D01*
X112372755Y-148442512D01*
X112372768Y-148442520D01*
X112548626Y-148532126D01*
X112736353Y-148593123D01*
X112931303Y-148624000D01*
X113128697Y-148624000D01*
X113323646Y-148593123D01*
X113511373Y-148532126D01*
X113687241Y-148442516D01*
X113722988Y-148416543D01*
X113722988Y-148416541D01*
X113159410Y-147852962D01*
X113222993Y-147835925D01*
X113337007Y-147770099D01*
X113430099Y-147677007D01*
X113495925Y-147562993D01*
X113512962Y-147499409D01*
X114076541Y-148062988D01*
X114076543Y-148062988D01*
X114102516Y-148027241D01*
X114192126Y-147851373D01*
X114253123Y-147663646D01*
X114284000Y-147468697D01*
X114284000Y-147271302D01*
X114253123Y-147076353D01*
X114192125Y-146888625D01*
X114188137Y-146880798D01*
X114175239Y-146812130D01*
X114201513Y-146747388D01*
X114258618Y-146707130D01*
X114298620Y-146700500D01*
X116305642Y-146700500D01*
X116372681Y-146720185D01*
X116416125Y-146768203D01*
X116503074Y-146938848D01*
X116509750Y-146951950D01*
X116660132Y-147158935D01*
X116660136Y-147158940D01*
X116841059Y-147339863D01*
X116841064Y-147339867D01*
X116987460Y-147446229D01*
X117048053Y-147490252D01*
X117190815Y-147562993D01*
X117276024Y-147606410D01*
X117276027Y-147606411D01*
X117397693Y-147645942D01*
X117519361Y-147685474D01*
X117772070Y-147725500D01*
X117772071Y-147725500D01*
X118027929Y-147725500D01*
X118027930Y-147725500D01*
X118280639Y-147685474D01*
X118523975Y-147606410D01*
X118751947Y-147490252D01*
X118958942Y-147339862D01*
X119139862Y-147158942D01*
X119290252Y-146951947D01*
X119383874Y-146768203D01*
X119431848Y-146717409D01*
X119494358Y-146700500D01*
X130262017Y-146700500D01*
X130329056Y-146720185D01*
X130374811Y-146772989D01*
X130383076Y-146797656D01*
X130404342Y-146893577D01*
X130477350Y-147033826D01*
X130584171Y-147150400D01*
X130584174Y-147150402D01*
X130584176Y-147150404D01*
X130704417Y-147227006D01*
X130717524Y-147235356D01*
X130868320Y-147282902D01*
X130978177Y-147287697D01*
X131044292Y-147310286D01*
X131053383Y-147317945D01*
X131053648Y-147317636D01*
X131057350Y-147320798D01*
X131125070Y-147369999D01*
X131261155Y-147468870D01*
X131404184Y-147541747D01*
X131485616Y-147583239D01*
X131485618Y-147583239D01*
X131485621Y-147583241D01*
X131725215Y-147661090D01*
X131974038Y-147700500D01*
X131974039Y-147700500D01*
X132225961Y-147700500D01*
X132225962Y-147700500D01*
X132474785Y-147661090D01*
X132714379Y-147583241D01*
X132938845Y-147468870D01*
X133142656Y-147320793D01*
X133320793Y-147142656D01*
X133468870Y-146938845D01*
X133583241Y-146714379D01*
X133661090Y-146474785D01*
X133700500Y-146225962D01*
X133700500Y-145974038D01*
X133661090Y-145725215D01*
X133583241Y-145485621D01*
X133583239Y-145485618D01*
X133583239Y-145485616D01*
X133518140Y-145357853D01*
X133468870Y-145261155D01*
X133399864Y-145166176D01*
X133320798Y-145057350D01*
X133320794Y-145057345D01*
X133142654Y-144879205D01*
X133142649Y-144879201D01*
X132938848Y-144731132D01*
X132938847Y-144731131D01*
X132938845Y-144731130D01*
X132868747Y-144695413D01*
X132714383Y-144616760D01*
X132474785Y-144538910D01*
X132457902Y-144536236D01*
X132225962Y-144499500D01*
X131974038Y-144499500D01*
X131849626Y-144519205D01*
X131725214Y-144538910D01*
X131485616Y-144616760D01*
X131261151Y-144731132D01*
X131057348Y-144879203D01*
X131053641Y-144882370D01*
X131052179Y-144880659D01*
X130998948Y-144909625D01*
X130978176Y-144912302D01*
X130868323Y-144917097D01*
X130868321Y-144917097D01*
X130717522Y-144964644D01*
X130717521Y-144964645D01*
X130584176Y-145049595D01*
X130584172Y-145049599D01*
X130584171Y-145049600D01*
X130516213Y-145123763D01*
X130477348Y-145166176D01*
X130404341Y-145306425D01*
X130383078Y-145402339D01*
X130349350Y-145463528D01*
X130287894Y-145496770D01*
X130262017Y-145499500D01*
X119494358Y-145499500D01*
X119427319Y-145479815D01*
X119383874Y-145431796D01*
X119290252Y-145248053D01*
X119209573Y-145137007D01*
X119139867Y-145041064D01*
X119139863Y-145041059D01*
X118958940Y-144860136D01*
X118958935Y-144860132D01*
X118751950Y-144709750D01*
X118751949Y-144709749D01*
X118751947Y-144709748D01*
X118678910Y-144672533D01*
X118523975Y-144593589D01*
X118523972Y-144593588D01*
X118280640Y-144514526D01*
X118154284Y-144494513D01*
X118027930Y-144474500D01*
X117772070Y-144474500D01*
X117687833Y-144487842D01*
X117519359Y-144514526D01*
X117276027Y-144593588D01*
X117276024Y-144593589D01*
X117048049Y-144709750D01*
X116841064Y-144860132D01*
X116841059Y-144860136D01*
X116660136Y-145041059D01*
X116660132Y-145041064D01*
X116509750Y-145248049D01*
X116509748Y-145248053D01*
X116416125Y-145431796D01*
X116368152Y-145482591D01*
X116305642Y-145499500D01*
X114299180Y-145499500D01*
X114232141Y-145479815D01*
X114186386Y-145427011D01*
X114176442Y-145357853D01*
X114188694Y-145319209D01*
X114192591Y-145311561D01*
X114253610Y-145123763D01*
X114264130Y-145057344D01*
X114284500Y-144928736D01*
X114284500Y-144731263D01*
X114253610Y-144536236D01*
X114197671Y-144364075D01*
X114192591Y-144348439D01*
X114102944Y-144172499D01*
X114077159Y-144137009D01*
X113986884Y-144012753D01*
X113847246Y-143873115D01*
X113687504Y-143757058D01*
X113687503Y-143757057D01*
X113687501Y-143757056D01*
X113511561Y-143667409D01*
X113511558Y-143667408D01*
X113323763Y-143606389D01*
X113128736Y-143575500D01*
X113128731Y-143575500D01*
X112931269Y-143575500D01*
X112931264Y-143575500D01*
X112736236Y-143606389D01*
X112548441Y-143667408D01*
X112372495Y-143757058D01*
X112212753Y-143873115D01*
X112073115Y-144012753D01*
X111957058Y-144172495D01*
X111957056Y-144172499D01*
X111876805Y-144330000D01*
X111870485Y-144342403D01*
X111822510Y-144393199D01*
X111754689Y-144409994D01*
X111688554Y-144387456D01*
X111649515Y-144342403D01*
X111644862Y-144333271D01*
X111562944Y-144172499D01*
X111537159Y-144137009D01*
X111446884Y-144012753D01*
X111307246Y-143873115D01*
X111147504Y-143757058D01*
X111147503Y-143757057D01*
X111147501Y-143757056D01*
X110971561Y-143667409D01*
X110971558Y-143667408D01*
X110783763Y-143606389D01*
X110588736Y-143575500D01*
X110588731Y-143575500D01*
X110391269Y-143575500D01*
X110391264Y-143575500D01*
X110196236Y-143606389D01*
X110008441Y-143667408D01*
X109832495Y-143757058D01*
X109672753Y-143873115D01*
X109533115Y-144012753D01*
X109417058Y-144172495D01*
X109417056Y-144172499D01*
X109336805Y-144330000D01*
X109330485Y-144342403D01*
X109282510Y-144393199D01*
X109214689Y-144409994D01*
X109148554Y-144387456D01*
X109109515Y-144342403D01*
X109104862Y-144333271D01*
X109022944Y-144172499D01*
X108997159Y-144137009D01*
X108906884Y-144012753D01*
X108767246Y-143873115D01*
X108607504Y-143757058D01*
X108607503Y-143757057D01*
X108607501Y-143757056D01*
X108431561Y-143667409D01*
X108431558Y-143667408D01*
X108243763Y-143606389D01*
X108048736Y-143575500D01*
X108048731Y-143575500D01*
X107851269Y-143575500D01*
X107851264Y-143575500D01*
X107656236Y-143606389D01*
X107468441Y-143667408D01*
X107292495Y-143757058D01*
X107132753Y-143873115D01*
X106993115Y-144012753D01*
X106877058Y-144172495D01*
X106877056Y-144172499D01*
X106790203Y-144342954D01*
X106742230Y-144393749D01*
X106674409Y-144410544D01*
X106608274Y-144388006D01*
X106569235Y-144342953D01*
X106482520Y-144172768D01*
X106482512Y-144172755D01*
X106456542Y-144137010D01*
X106456541Y-144137009D01*
X105892962Y-144700589D01*
X105875925Y-144637007D01*
X105810099Y-144522993D01*
X105717007Y-144429901D01*
X105602993Y-144364075D01*
X105539409Y-144347037D01*
X106102989Y-143783457D01*
X106067239Y-143757483D01*
X105891373Y-143667873D01*
X105703646Y-143606876D01*
X105508697Y-143576000D01*
X105311303Y-143576000D01*
X105116353Y-143606876D01*
X104928626Y-143667873D01*
X104752762Y-143757482D01*
X104752760Y-143757483D01*
X104717010Y-143783456D01*
X104717010Y-143783457D01*
X105280591Y-144347037D01*
X105217007Y-144364075D01*
X105102993Y-144429901D01*
X105009901Y-144522993D01*
X104944075Y-144637007D01*
X104927037Y-144700590D01*
X104363457Y-144137010D01*
X104363456Y-144137010D01*
X104337483Y-144172760D01*
X104337479Y-144172767D01*
X104250763Y-144342954D01*
X104202788Y-144393749D01*
X104134967Y-144410544D01*
X104068833Y-144388006D01*
X104029798Y-144342957D01*
X103942944Y-144172499D01*
X103942942Y-144172496D01*
X103942941Y-144172494D01*
X103826884Y-144012753D01*
X103687246Y-143873115D01*
X103527504Y-143757058D01*
X103527503Y-143757057D01*
X103527501Y-143757056D01*
X103351561Y-143667409D01*
X103351558Y-143667408D01*
X103163763Y-143606389D01*
X102968736Y-143575500D01*
X102968731Y-143575500D01*
X102771269Y-143575500D01*
X102771264Y-143575500D01*
X102576236Y-143606389D01*
X102388441Y-143667408D01*
X102212495Y-143757058D01*
X102052753Y-143873115D01*
X101913115Y-144012753D01*
X101797058Y-144172495D01*
X101797056Y-144172499D01*
X101710203Y-144342954D01*
X101662230Y-144393749D01*
X101594409Y-144410544D01*
X101528274Y-144388006D01*
X101489235Y-144342953D01*
X101402520Y-144172768D01*
X101402512Y-144172755D01*
X101376542Y-144137010D01*
X101376541Y-144137009D01*
X100812962Y-144700589D01*
X100795925Y-144637007D01*
X100730099Y-144522993D01*
X100637007Y-144429901D01*
X100522993Y-144364075D01*
X100459409Y-144347037D01*
X101022989Y-143783457D01*
X100987239Y-143757483D01*
X100811373Y-143667873D01*
X100623646Y-143606876D01*
X100428697Y-143576000D01*
X100231303Y-143576000D01*
X100036353Y-143606876D01*
X99848626Y-143667873D01*
X99672762Y-143757482D01*
X99672760Y-143757483D01*
X99637010Y-143783456D01*
X99637010Y-143783457D01*
X100200591Y-144347037D01*
X100137007Y-144364075D01*
X100022993Y-144429901D01*
X99929901Y-144522993D01*
X99864075Y-144637007D01*
X99847037Y-144700590D01*
X99283457Y-144137010D01*
X99283456Y-144137010D01*
X99257483Y-144172760D01*
X99257476Y-144172772D01*
X99175697Y-144333271D01*
X99127723Y-144384067D01*
X99059902Y-144400862D01*
X98993767Y-144378324D01*
X98950316Y-144323609D01*
X98941213Y-144276976D01*
X98941213Y-142821103D01*
X94353833Y-142821103D01*
X94286794Y-142801418D01*
X94266152Y-142784784D01*
X93446819Y-141965451D01*
X93413334Y-141904128D01*
X93410500Y-141877770D01*
X93410500Y-130825416D01*
X93430185Y-130758377D01*
X93461613Y-130725099D01*
X93507219Y-130691966D01*
X93651966Y-130547219D01*
X93651968Y-130547215D01*
X93651971Y-130547213D01*
X93772284Y-130381614D01*
X93772286Y-130381611D01*
X93772287Y-130381610D01*
X93819516Y-130288917D01*
X93867489Y-130238123D01*
X93935310Y-130221328D01*
X94001445Y-130243865D01*
X94040485Y-130288919D01*
X94087715Y-130381614D01*
X94208028Y-130547213D01*
X94352786Y-130691971D01*
X94496461Y-130796355D01*
X94518390Y-130812287D01*
X94634607Y-130871503D01*
X94700776Y-130905218D01*
X94700778Y-130905218D01*
X94700781Y-130905220D01*
X94805137Y-130939127D01*
X94895465Y-130968477D01*
X94996557Y-130984488D01*
X95097648Y-131000500D01*
X95097649Y-131000500D01*
X95302351Y-131000500D01*
X95302352Y-131000500D01*
X95504534Y-130968477D01*
X95699219Y-130905220D01*
X95881610Y-130812287D01*
X96001619Y-130725096D01*
X96047213Y-130691971D01*
X96047215Y-130691968D01*
X96047219Y-130691966D01*
X96191966Y-130547219D01*
X96191968Y-130547215D01*
X96191971Y-130547213D01*
X96244732Y-130474590D01*
X96312287Y-130381610D01*
X96405220Y-130199219D01*
X96468477Y-130004534D01*
X96500500Y-129802352D01*
X96500500Y-129597648D01*
X96468477Y-129395466D01*
X96467673Y-129392993D01*
X96405218Y-129200776D01*
X96312420Y-129018652D01*
X96312287Y-129018390D01*
X96280092Y-128974077D01*
X96191971Y-128852786D01*
X96047213Y-128708028D01*
X95881613Y-128587715D01*
X95881612Y-128587714D01*
X95881610Y-128587713D01*
X95824653Y-128558691D01*
X95699223Y-128494781D01*
X95504534Y-128431522D01*
X95329995Y-128403878D01*
X95302352Y-128399500D01*
X95097648Y-128399500D01*
X95073329Y-128403351D01*
X94895465Y-128431522D01*
X94700776Y-128494781D01*
X94518386Y-128587715D01*
X94352786Y-128708028D01*
X94208028Y-128852786D01*
X94087715Y-129018386D01*
X94040485Y-129111080D01*
X93992510Y-129161876D01*
X93924689Y-129178671D01*
X93858554Y-129156134D01*
X93819515Y-129111080D01*
X93772420Y-129018652D01*
X93772287Y-129018390D01*
X93740092Y-128974077D01*
X93651971Y-128852786D01*
X93507213Y-128708028D01*
X93341613Y-128587715D01*
X93341612Y-128587714D01*
X93341610Y-128587713D01*
X93284653Y-128558691D01*
X93159223Y-128494781D01*
X92964534Y-128431522D01*
X92789995Y-128403878D01*
X92762352Y-128399500D01*
X92557648Y-128399500D01*
X92533329Y-128403351D01*
X92355465Y-128431522D01*
X92160776Y-128494781D01*
X91978386Y-128587715D01*
X91812786Y-128708028D01*
X91668028Y-128852786D01*
X91547715Y-129018386D01*
X91500485Y-129111080D01*
X91452510Y-129161876D01*
X91384689Y-129178671D01*
X91318554Y-129156134D01*
X91279515Y-129111080D01*
X91232420Y-129018652D01*
X91232287Y-129018390D01*
X91200092Y-128974077D01*
X91111971Y-128852786D01*
X90967213Y-128708028D01*
X90801613Y-128587715D01*
X90801612Y-128587714D01*
X90801610Y-128587713D01*
X90744653Y-128558691D01*
X90619223Y-128494781D01*
X90424534Y-128431522D01*
X90249995Y-128403878D01*
X90222352Y-128399500D01*
X90017648Y-128399500D01*
X89993329Y-128403351D01*
X89815465Y-128431522D01*
X89620776Y-128494781D01*
X89438386Y-128587715D01*
X89272786Y-128708028D01*
X89128028Y-128852786D01*
X89007715Y-129018386D01*
X88960485Y-129111080D01*
X88912510Y-129161876D01*
X88844689Y-129178671D01*
X88778554Y-129156134D01*
X88739515Y-129111080D01*
X88692420Y-129018652D01*
X88692287Y-129018390D01*
X88660092Y-128974077D01*
X88571971Y-128852786D01*
X88427213Y-128708028D01*
X88261613Y-128587715D01*
X88261612Y-128587714D01*
X88261610Y-128587713D01*
X88204653Y-128558691D01*
X88079223Y-128494781D01*
X87884534Y-128431522D01*
X87709995Y-128403878D01*
X87682352Y-128399500D01*
X87477648Y-128399500D01*
X87453329Y-128403351D01*
X87275465Y-128431522D01*
X87080776Y-128494781D01*
X86898386Y-128587715D01*
X86732786Y-128708028D01*
X86588028Y-128852786D01*
X86467715Y-129018386D01*
X86420485Y-129111080D01*
X86372510Y-129161876D01*
X86304689Y-129178671D01*
X86238554Y-129156134D01*
X86199515Y-129111080D01*
X86152420Y-129018652D01*
X86152287Y-129018390D01*
X86120092Y-128974077D01*
X86031971Y-128852786D01*
X85887213Y-128708028D01*
X85721613Y-128587715D01*
X85721612Y-128587714D01*
X85721610Y-128587713D01*
X85664653Y-128558691D01*
X85539223Y-128494781D01*
X85344534Y-128431522D01*
X85169995Y-128403878D01*
X85142352Y-128399500D01*
X84937648Y-128399500D01*
X84913329Y-128403351D01*
X84735465Y-128431522D01*
X84540776Y-128494781D01*
X84358386Y-128587715D01*
X84192786Y-128708028D01*
X84048028Y-128852786D01*
X83927715Y-129018386D01*
X83880485Y-129111080D01*
X83832510Y-129161876D01*
X83764689Y-129178671D01*
X83698554Y-129156134D01*
X83659515Y-129111080D01*
X83612420Y-129018652D01*
X83612287Y-129018390D01*
X83580092Y-128974077D01*
X83491971Y-128852786D01*
X83347213Y-128708028D01*
X83181613Y-128587715D01*
X83181612Y-128587714D01*
X83181610Y-128587713D01*
X83124653Y-128558691D01*
X82999223Y-128494781D01*
X82804534Y-128431522D01*
X82629995Y-128403878D01*
X82602352Y-128399500D01*
X82397648Y-128399500D01*
X82373329Y-128403351D01*
X82195465Y-128431522D01*
X82000776Y-128494781D01*
X81818386Y-128587715D01*
X81652786Y-128708028D01*
X81508028Y-128852786D01*
X81387715Y-129018386D01*
X81340485Y-129111080D01*
X81292510Y-129161876D01*
X81224689Y-129178671D01*
X81158554Y-129156134D01*
X81119515Y-129111080D01*
X81072420Y-129018652D01*
X81072287Y-129018390D01*
X81040092Y-128974077D01*
X80951971Y-128852786D01*
X80807213Y-128708028D01*
X80641613Y-128587715D01*
X80641612Y-128587714D01*
X80641610Y-128587713D01*
X80584653Y-128558691D01*
X80459223Y-128494781D01*
X80264534Y-128431522D01*
X80089995Y-128403878D01*
X80062352Y-128399500D01*
X79857648Y-128399500D01*
X79833329Y-128403351D01*
X79655465Y-128431522D01*
X79460776Y-128494781D01*
X79278386Y-128587715D01*
X79112786Y-128708028D01*
X78968028Y-128852786D01*
X78847715Y-129018386D01*
X78800485Y-129111080D01*
X78752510Y-129161876D01*
X78684689Y-129178671D01*
X78618554Y-129156134D01*
X78579515Y-129111080D01*
X78532420Y-129018652D01*
X78532287Y-129018390D01*
X78500092Y-128974077D01*
X78411971Y-128852786D01*
X78267213Y-128708028D01*
X78101613Y-128587715D01*
X78101612Y-128587714D01*
X78101610Y-128587713D01*
X78044653Y-128558691D01*
X77919223Y-128494781D01*
X77724534Y-128431522D01*
X77549995Y-128403878D01*
X77522352Y-128399500D01*
X77317648Y-128399500D01*
X77293329Y-128403351D01*
X77115465Y-128431522D01*
X76920776Y-128494781D01*
X76738386Y-128587715D01*
X76572786Y-128708028D01*
X76428028Y-128852786D01*
X76307713Y-129018388D01*
X76260203Y-129111630D01*
X76212228Y-129162426D01*
X76144407Y-129179220D01*
X76078272Y-129156682D01*
X76039234Y-129111628D01*
X75991861Y-129018652D01*
X75959474Y-128974077D01*
X75959474Y-128974076D01*
X75362962Y-129570589D01*
X75345925Y-129507007D01*
X75280099Y-129392993D01*
X75187007Y-129299901D01*
X75072993Y-129234075D01*
X75009408Y-129217037D01*
X75605922Y-128620524D01*
X75605921Y-128620523D01*
X75561359Y-128588147D01*
X75561350Y-128588141D01*
X75379031Y-128495244D01*
X75184417Y-128432009D01*
X74982317Y-128400000D01*
X74777683Y-128400000D01*
X74575582Y-128432009D01*
X74380968Y-128495244D01*
X74198644Y-128588143D01*
X74154077Y-128620523D01*
X74154077Y-128620524D01*
X74750591Y-129217037D01*
X74687007Y-129234075D01*
X74572993Y-129299901D01*
X74479901Y-129392993D01*
X74414075Y-129507007D01*
X74397037Y-129570590D01*
X73800524Y-128974077D01*
X73800523Y-128974077D01*
X73768143Y-129018644D01*
X73720765Y-129111630D01*
X73672790Y-129162426D01*
X73604969Y-129179221D01*
X73538834Y-129156683D01*
X73499795Y-129111630D01*
X73452284Y-129018385D01*
X73331971Y-128852786D01*
X73187213Y-128708028D01*
X73021613Y-128587715D01*
X73021612Y-128587714D01*
X73021610Y-128587713D01*
X72964653Y-128558691D01*
X72839223Y-128494781D01*
X72644534Y-128431522D01*
X72469995Y-128403878D01*
X72442352Y-128399500D01*
X72237648Y-128399500D01*
X72213329Y-128403351D01*
X72035465Y-128431522D01*
X71840776Y-128494781D01*
X71658386Y-128587715D01*
X71492786Y-128708028D01*
X71348028Y-128852786D01*
X71227715Y-129018386D01*
X71180485Y-129111080D01*
X71132510Y-129161876D01*
X71064689Y-129178671D01*
X70998554Y-129156134D01*
X70959515Y-129111080D01*
X70912420Y-129018652D01*
X70912287Y-129018390D01*
X70880092Y-128974077D01*
X70791971Y-128852786D01*
X70647213Y-128708028D01*
X70481613Y-128587715D01*
X70481612Y-128587714D01*
X70481610Y-128587713D01*
X70424653Y-128558691D01*
X70299223Y-128494781D01*
X70104534Y-128431522D01*
X69929995Y-128403878D01*
X69902352Y-128399500D01*
X69697648Y-128399500D01*
X69673329Y-128403351D01*
X69495465Y-128431522D01*
X69300776Y-128494781D01*
X69118386Y-128587715D01*
X68952786Y-128708028D01*
X68808028Y-128852786D01*
X68687715Y-129018386D01*
X68594781Y-129200776D01*
X68531522Y-129395465D01*
X68499500Y-129597648D01*
X68499500Y-129802351D01*
X68531522Y-130004534D01*
X68594781Y-130199223D01*
X68658691Y-130324653D01*
X68687585Y-130381359D01*
X68687715Y-130381613D01*
X68808028Y-130547213D01*
X68952786Y-130691971D01*
X69096461Y-130796355D01*
X69118390Y-130812287D01*
X69234607Y-130871503D01*
X69300776Y-130905218D01*
X69300778Y-130905218D01*
X69300781Y-130905220D01*
X69405137Y-130939127D01*
X69495465Y-130968477D01*
X69596557Y-130984488D01*
X69697648Y-131000500D01*
X69697649Y-131000500D01*
X69902351Y-131000500D01*
X69902352Y-131000500D01*
X70104534Y-130968477D01*
X70299219Y-130905220D01*
X70481610Y-130812287D01*
X70601619Y-130725096D01*
X70647213Y-130691971D01*
X70647215Y-130691968D01*
X70647219Y-130691966D01*
X70791966Y-130547219D01*
X70791968Y-130547215D01*
X70791971Y-130547213D01*
X70912284Y-130381614D01*
X70912286Y-130381611D01*
X70912287Y-130381610D01*
X70959516Y-130288917D01*
X71007489Y-130238123D01*
X71075310Y-130221328D01*
X71141445Y-130243865D01*
X71180485Y-130288919D01*
X71227715Y-130381614D01*
X71348028Y-130547213D01*
X71492786Y-130691971D01*
X71636461Y-130796355D01*
X71658390Y-130812287D01*
X71774607Y-130871503D01*
X71840776Y-130905218D01*
X71840778Y-130905218D01*
X71840781Y-130905220D01*
X71945137Y-130939127D01*
X72035465Y-130968477D01*
X72136557Y-130984488D01*
X72237648Y-131000500D01*
X72237649Y-131000500D01*
X72442351Y-131000500D01*
X72442352Y-131000500D01*
X72644534Y-130968477D01*
X72839219Y-130905220D01*
X73021610Y-130812287D01*
X73141619Y-130725096D01*
X73187213Y-130691971D01*
X73187215Y-130691968D01*
X73187219Y-130691966D01*
X73331966Y-130547219D01*
X73331968Y-130547215D01*
X73331971Y-130547213D01*
X73452286Y-130381611D01*
X73452415Y-130381359D01*
X73499795Y-130288369D01*
X73547769Y-130237573D01*
X73615590Y-130220778D01*
X73681725Y-130243315D01*
X73720765Y-130288369D01*
X73768141Y-130381350D01*
X73768147Y-130381359D01*
X73800523Y-130425921D01*
X73800524Y-130425922D01*
X74397037Y-129829408D01*
X74414075Y-129892993D01*
X74479901Y-130007007D01*
X74572993Y-130100099D01*
X74687007Y-130165925D01*
X74750590Y-130182962D01*
X74154076Y-130779474D01*
X74198650Y-130811859D01*
X74380968Y-130904755D01*
X74575582Y-130967990D01*
X74777683Y-131000000D01*
X74982317Y-131000000D01*
X75184417Y-130967990D01*
X75379031Y-130904755D01*
X75561349Y-130811859D01*
X75605921Y-130779474D01*
X75009409Y-130182962D01*
X75072993Y-130165925D01*
X75187007Y-130100099D01*
X75280099Y-130007007D01*
X75345925Y-129892993D01*
X75362962Y-129829409D01*
X75959474Y-130425921D01*
X75991861Y-130381347D01*
X75991861Y-130381346D01*
X76039234Y-130288371D01*
X76087208Y-130237575D01*
X76155028Y-130220779D01*
X76221164Y-130243316D01*
X76260203Y-130288369D01*
X76307713Y-130381611D01*
X76428028Y-130547213D01*
X76428034Y-130547219D01*
X76572781Y-130691966D01*
X76618384Y-130725098D01*
X76661050Y-130780425D01*
X76669500Y-130825416D01*
X76669500Y-135657770D01*
X76649815Y-135724809D01*
X76633181Y-135745451D01*
X74865451Y-137513181D01*
X74804128Y-137546666D01*
X74777770Y-137549500D01*
X66043348Y-137549500D01*
X66014514Y-137555234D01*
X66014515Y-137555235D01*
X65898365Y-137578339D01*
X65898355Y-137578342D01*
X65818353Y-137611479D01*
X65818354Y-137611480D01*
X65761777Y-137634915D01*
X65679644Y-137689795D01*
X65638857Y-137717047D01*
X65638853Y-137717050D01*
X61315045Y-142040858D01*
X61292541Y-142074539D01*
X61283563Y-142087978D01*
X61258152Y-142126007D01*
X61232914Y-142163779D01*
X61176343Y-142300354D01*
X61176340Y-142300364D01*
X61147500Y-142445351D01*
X61147500Y-144753769D01*
X61127815Y-144820808D01*
X61075011Y-144866563D01*
X61005853Y-144876507D01*
X60950615Y-144854087D01*
X60751950Y-144709750D01*
X60751949Y-144709749D01*
X60751947Y-144709748D01*
X60678910Y-144672533D01*
X60523975Y-144593589D01*
X60523972Y-144593588D01*
X60280640Y-144514526D01*
X60154284Y-144494513D01*
X60027930Y-144474500D01*
X59772070Y-144474500D01*
X59687833Y-144487842D01*
X59519359Y-144514526D01*
X59276027Y-144593588D01*
X59276024Y-144593589D01*
X59048049Y-144709750D01*
X58841064Y-144860132D01*
X58841059Y-144860136D01*
X58660136Y-145041059D01*
X58660132Y-145041064D01*
X58509750Y-145248049D01*
X58393589Y-145476024D01*
X58393588Y-145476027D01*
X58314526Y-145719359D01*
X58274500Y-145972070D01*
X56500500Y-145972070D01*
X56500500Y-127174038D01*
X100599500Y-127174038D01*
X100599500Y-127425961D01*
X100638910Y-127674785D01*
X100716760Y-127914383D01*
X100795413Y-128068747D01*
X100830995Y-128138581D01*
X100831132Y-128138848D01*
X100979201Y-128342649D01*
X100979205Y-128342654D01*
X101157345Y-128520794D01*
X101157350Y-128520798D01*
X101250049Y-128588147D01*
X101361155Y-128668870D01*
X101504184Y-128741747D01*
X101585616Y-128783239D01*
X101585618Y-128783239D01*
X101585621Y-128783241D01*
X101825215Y-128861090D01*
X102074038Y-128900500D01*
X102074039Y-128900500D01*
X102325961Y-128900500D01*
X102325962Y-128900500D01*
X102574785Y-128861090D01*
X102814379Y-128783241D01*
X103038845Y-128668870D01*
X103242656Y-128520793D01*
X103420793Y-128342656D01*
X103568870Y-128138845D01*
X103683241Y-127914379D01*
X103761090Y-127674785D01*
X103800500Y-127425962D01*
X103800500Y-127174071D01*
X110900000Y-127174071D01*
X110900000Y-127425928D01*
X110939397Y-127674669D01*
X111017219Y-127914184D01*
X111131557Y-128138583D01*
X111205748Y-128240697D01*
X111205748Y-128240698D01*
X111935387Y-127511059D01*
X111940889Y-127531591D01*
X112019881Y-127668408D01*
X112131592Y-127780119D01*
X112268409Y-127859111D01*
X112288940Y-127864612D01*
X111559300Y-128594250D01*
X111661416Y-128668442D01*
X111885815Y-128782780D01*
X112125330Y-128860602D01*
X112374072Y-128900000D01*
X112625928Y-128900000D01*
X112874669Y-128860602D01*
X113114184Y-128782780D01*
X113338575Y-128668446D01*
X113338581Y-128668442D01*
X113440697Y-128594250D01*
X113440698Y-128594250D01*
X112711059Y-127864612D01*
X112731591Y-127859111D01*
X112868408Y-127780119D01*
X112980119Y-127668408D01*
X113059111Y-127531591D01*
X113064612Y-127511060D01*
X113794250Y-128240698D01*
X113794250Y-128240697D01*
X113868442Y-128138581D01*
X113868446Y-128138575D01*
X113982780Y-127914184D01*
X114060602Y-127674669D01*
X114100000Y-127425928D01*
X114100000Y-127174071D01*
X114060602Y-126925330D01*
X113982780Y-126685815D01*
X113868442Y-126461416D01*
X113794250Y-126359301D01*
X113794250Y-126359300D01*
X113064612Y-127088939D01*
X113059111Y-127068409D01*
X112980119Y-126931592D01*
X112868408Y-126819881D01*
X112731591Y-126740889D01*
X112711058Y-126735387D01*
X113440698Y-126005748D01*
X113338580Y-125931555D01*
X113268316Y-125895753D01*
X113217521Y-125847779D01*
X113200726Y-125779957D01*
X113223264Y-125713823D01*
X113251724Y-125684953D01*
X113412365Y-125568242D01*
X113568242Y-125412365D01*
X113697815Y-125234022D01*
X113797895Y-125037606D01*
X113866015Y-124827951D01*
X113900500Y-124610222D01*
X113900500Y-124389778D01*
X113866015Y-124172049D01*
X113797895Y-123962394D01*
X113797895Y-123962393D01*
X113763237Y-123894375D01*
X113697815Y-123765978D01*
X113681260Y-123743192D01*
X113568247Y-123587641D01*
X113568243Y-123587636D01*
X113412363Y-123431756D01*
X113412358Y-123431752D01*
X113234025Y-123302187D01*
X113234024Y-123302186D01*
X113234022Y-123302185D01*
X113171096Y-123270122D01*
X113037606Y-123202104D01*
X113037603Y-123202103D01*
X112827952Y-123133985D01*
X112719086Y-123116742D01*
X112610222Y-123099500D01*
X112389778Y-123099500D01*
X112317201Y-123110995D01*
X112172047Y-123133985D01*
X111962396Y-123202103D01*
X111962393Y-123202104D01*
X111765974Y-123302187D01*
X111587641Y-123431752D01*
X111587636Y-123431756D01*
X111431756Y-123587636D01*
X111431752Y-123587641D01*
X111302187Y-123765974D01*
X111202104Y-123962393D01*
X111202103Y-123962396D01*
X111133985Y-124172047D01*
X111099500Y-124389778D01*
X111099500Y-124610221D01*
X111133985Y-124827952D01*
X111202103Y-125037603D01*
X111202104Y-125037606D01*
X111302187Y-125234025D01*
X111431752Y-125412358D01*
X111431756Y-125412363D01*
X111431758Y-125412365D01*
X111587635Y-125568242D01*
X111748273Y-125684952D01*
X111790938Y-125740280D01*
X111796917Y-125809893D01*
X111764312Y-125871689D01*
X111731683Y-125895753D01*
X111661415Y-125931557D01*
X111559301Y-126005747D01*
X111559300Y-126005748D01*
X112288940Y-126735387D01*
X112268409Y-126740889D01*
X112131592Y-126819881D01*
X112019881Y-126931592D01*
X111940889Y-127068409D01*
X111935387Y-127088940D01*
X111205748Y-126359300D01*
X111205747Y-126359301D01*
X111131559Y-126461413D01*
X111017219Y-126685815D01*
X110939397Y-126925330D01*
X110900000Y-127174071D01*
X103800500Y-127174071D01*
X103800500Y-127174038D01*
X103761090Y-126925215D01*
X103683241Y-126685621D01*
X103683239Y-126685618D01*
X103683239Y-126685616D01*
X103641747Y-126604184D01*
X103568870Y-126461155D01*
X103494868Y-126359300D01*
X103420798Y-126257350D01*
X103420794Y-126257345D01*
X103242654Y-126079205D01*
X103242649Y-126079201D01*
X103038848Y-125931132D01*
X103038847Y-125931131D01*
X103038845Y-125931130D01*
X102968770Y-125895425D01*
X102917974Y-125847450D01*
X102901179Y-125779629D01*
X102923716Y-125713494D01*
X102952178Y-125684623D01*
X103112365Y-125568242D01*
X103268242Y-125412365D01*
X103397815Y-125234022D01*
X103497895Y-125037606D01*
X103566015Y-124827951D01*
X103600500Y-124610222D01*
X103600500Y-124389778D01*
X103566015Y-124172049D01*
X103497895Y-123962394D01*
X103497895Y-123962393D01*
X103463237Y-123894375D01*
X103397815Y-123765978D01*
X103381260Y-123743192D01*
X103268247Y-123587641D01*
X103268243Y-123587636D01*
X103112363Y-123431756D01*
X103112358Y-123431752D01*
X102934025Y-123302187D01*
X102934024Y-123302186D01*
X102934022Y-123302185D01*
X102871096Y-123270122D01*
X102737606Y-123202104D01*
X102737603Y-123202103D01*
X102527952Y-123133985D01*
X102419086Y-123116742D01*
X102310222Y-123099500D01*
X102089778Y-123099500D01*
X102017201Y-123110995D01*
X101872047Y-123133985D01*
X101662396Y-123202103D01*
X101662393Y-123202104D01*
X101465974Y-123302187D01*
X101287641Y-123431752D01*
X101287636Y-123431756D01*
X101131756Y-123587636D01*
X101131752Y-123587641D01*
X101002187Y-123765974D01*
X100902104Y-123962393D01*
X100902103Y-123962396D01*
X100833985Y-124172047D01*
X100799500Y-124389778D01*
X100799500Y-124610221D01*
X100833985Y-124827952D01*
X100902103Y-125037603D01*
X100902104Y-125037606D01*
X101002187Y-125234025D01*
X101131752Y-125412358D01*
X101131756Y-125412363D01*
X101131758Y-125412365D01*
X101287635Y-125568242D01*
X101447820Y-125684622D01*
X101490485Y-125739951D01*
X101496464Y-125809564D01*
X101463859Y-125871360D01*
X101431230Y-125895424D01*
X101361153Y-125931130D01*
X101157350Y-126079201D01*
X101157345Y-126079205D01*
X100979205Y-126257345D01*
X100979201Y-126257350D01*
X100831132Y-126461151D01*
X100716760Y-126685616D01*
X100638910Y-126925214D01*
X100599500Y-127174038D01*
X56500500Y-127174038D01*
X56500500Y-120674038D01*
X100599500Y-120674038D01*
X100599500Y-120925961D01*
X100638910Y-121174785D01*
X100716760Y-121414383D01*
X100831132Y-121638848D01*
X100979201Y-121842649D01*
X100979205Y-121842654D01*
X101157345Y-122020794D01*
X101157350Y-122020798D01*
X101335117Y-122149952D01*
X101361155Y-122168870D01*
X101504184Y-122241747D01*
X101585616Y-122283239D01*
X101585618Y-122283239D01*
X101585621Y-122283241D01*
X101825215Y-122361090D01*
X102074038Y-122400500D01*
X102074039Y-122400500D01*
X102325961Y-122400500D01*
X102325962Y-122400500D01*
X102574785Y-122361090D01*
X102814379Y-122283241D01*
X103038845Y-122168870D01*
X103242656Y-122020793D01*
X103420793Y-121842656D01*
X103568870Y-121638845D01*
X103683241Y-121414379D01*
X103761090Y-121174785D01*
X103800500Y-120925962D01*
X103800500Y-120674038D01*
X110899500Y-120674038D01*
X110899500Y-120925961D01*
X110938910Y-121174785D01*
X111016760Y-121414383D01*
X111131132Y-121638848D01*
X111279201Y-121842649D01*
X111279205Y-121842654D01*
X111457345Y-122020794D01*
X111457350Y-122020798D01*
X111635117Y-122149952D01*
X111661155Y-122168870D01*
X111804184Y-122241747D01*
X111885616Y-122283239D01*
X111885618Y-122283239D01*
X111885621Y-122283241D01*
X112125215Y-122361090D01*
X112374038Y-122400500D01*
X112374039Y-122400500D01*
X112625961Y-122400500D01*
X112625962Y-122400500D01*
X112874785Y-122361090D01*
X113114379Y-122283241D01*
X113338845Y-122168870D01*
X113542656Y-122020793D01*
X113720793Y-121842656D01*
X113868870Y-121638845D01*
X113983241Y-121414379D01*
X114061090Y-121174785D01*
X114100500Y-120925962D01*
X114100500Y-120674038D01*
X114061090Y-120425215D01*
X113983241Y-120185621D01*
X113983239Y-120185618D01*
X113983239Y-120185616D01*
X113941747Y-120104184D01*
X113868870Y-119961155D01*
X113849952Y-119935117D01*
X113720798Y-119757350D01*
X113720794Y-119757345D01*
X113542654Y-119579205D01*
X113542649Y-119579201D01*
X113338848Y-119431132D01*
X113338847Y-119431131D01*
X113338845Y-119431130D01*
X113268747Y-119395413D01*
X113114383Y-119316760D01*
X112874785Y-119238910D01*
X112625962Y-119199500D01*
X112374038Y-119199500D01*
X112249626Y-119219205D01*
X112125214Y-119238910D01*
X111885616Y-119316760D01*
X111661151Y-119431132D01*
X111457350Y-119579201D01*
X111457345Y-119579205D01*
X111279205Y-119757345D01*
X111279201Y-119757350D01*
X111131132Y-119961151D01*
X111016760Y-120185616D01*
X110938910Y-120425214D01*
X110899500Y-120674038D01*
X103800500Y-120674038D01*
X103761090Y-120425215D01*
X103683241Y-120185621D01*
X103683239Y-120185618D01*
X103683239Y-120185616D01*
X103641747Y-120104184D01*
X103568870Y-119961155D01*
X103549952Y-119935117D01*
X103420798Y-119757350D01*
X103420794Y-119757345D01*
X103242654Y-119579205D01*
X103242649Y-119579201D01*
X103038848Y-119431132D01*
X103038847Y-119431131D01*
X103038845Y-119431130D01*
X102968747Y-119395413D01*
X102814383Y-119316760D01*
X102574785Y-119238910D01*
X102325962Y-119199500D01*
X102074038Y-119199500D01*
X101949626Y-119219205D01*
X101825214Y-119238910D01*
X101585616Y-119316760D01*
X101361151Y-119431132D01*
X101157350Y-119579201D01*
X101157345Y-119579205D01*
X100979205Y-119757345D01*
X100979201Y-119757350D01*
X100831132Y-119961151D01*
X100716760Y-120185616D01*
X100638910Y-120425214D01*
X100599500Y-120674038D01*
X56500500Y-120674038D01*
X56500500Y-118147648D01*
X71199500Y-118147648D01*
X71199500Y-118352351D01*
X71231522Y-118554534D01*
X71294781Y-118749223D01*
X71358691Y-118874653D01*
X71387585Y-118931359D01*
X71387715Y-118931613D01*
X71508028Y-119097213D01*
X71652786Y-119241971D01*
X71773226Y-119329474D01*
X71818390Y-119362287D01*
X71934607Y-119421503D01*
X72000776Y-119455218D01*
X72000778Y-119455218D01*
X72000781Y-119455220D01*
X72105137Y-119489127D01*
X72195465Y-119518477D01*
X72296557Y-119534488D01*
X72397648Y-119550500D01*
X72397649Y-119550500D01*
X72602351Y-119550500D01*
X72602352Y-119550500D01*
X72804534Y-119518477D01*
X72999219Y-119455220D01*
X73181610Y-119362287D01*
X73274590Y-119294732D01*
X73347213Y-119241971D01*
X73347215Y-119241968D01*
X73347219Y-119241966D01*
X73491966Y-119097219D01*
X73491968Y-119097215D01*
X73491971Y-119097213D01*
X73612286Y-118931611D01*
X73612415Y-118931359D01*
X73659795Y-118838369D01*
X73707769Y-118787573D01*
X73775590Y-118770778D01*
X73841725Y-118793315D01*
X73880765Y-118838369D01*
X73928141Y-118931350D01*
X73928147Y-118931359D01*
X73960523Y-118975921D01*
X73960524Y-118975922D01*
X74557037Y-118379409D01*
X74574075Y-118442993D01*
X74639901Y-118557007D01*
X74732993Y-118650099D01*
X74847007Y-118715925D01*
X74910590Y-118732962D01*
X74314076Y-119329474D01*
X74358650Y-119361859D01*
X74540968Y-119454755D01*
X74735582Y-119517990D01*
X74937683Y-119550000D01*
X75142317Y-119550000D01*
X75344417Y-119517990D01*
X75539031Y-119454755D01*
X75721349Y-119361859D01*
X75765921Y-119329474D01*
X75169409Y-118732962D01*
X75232993Y-118715925D01*
X75347007Y-118650099D01*
X75440099Y-118557007D01*
X75505925Y-118442993D01*
X75522962Y-118379410D01*
X76119474Y-118975922D01*
X76119474Y-118975921D01*
X76151861Y-118931347D01*
X76151861Y-118931346D01*
X76199234Y-118838371D01*
X76247208Y-118787575D01*
X76315028Y-118770779D01*
X76381164Y-118793316D01*
X76420203Y-118838369D01*
X76467713Y-118931611D01*
X76588028Y-119097213D01*
X76732786Y-119241971D01*
X76853226Y-119329474D01*
X76898390Y-119362287D01*
X77014607Y-119421503D01*
X77080776Y-119455218D01*
X77080778Y-119455218D01*
X77080781Y-119455220D01*
X77185137Y-119489127D01*
X77275465Y-119518477D01*
X77376557Y-119534488D01*
X77477648Y-119550500D01*
X77477649Y-119550500D01*
X77682351Y-119550500D01*
X77682352Y-119550500D01*
X77884534Y-119518477D01*
X78079219Y-119455220D01*
X78261610Y-119362287D01*
X78354590Y-119294732D01*
X78427213Y-119241971D01*
X78427215Y-119241968D01*
X78427219Y-119241966D01*
X78571966Y-119097219D01*
X78571968Y-119097215D01*
X78571971Y-119097213D01*
X78692286Y-118931611D01*
X78692415Y-118931359D01*
X78739795Y-118838369D01*
X78787769Y-118787573D01*
X78855590Y-118770778D01*
X78921725Y-118793315D01*
X78960765Y-118838369D01*
X79008141Y-118931350D01*
X79008147Y-118931359D01*
X79040523Y-118975921D01*
X79040524Y-118975922D01*
X79637037Y-118379408D01*
X79654075Y-118442993D01*
X79719901Y-118557007D01*
X79812993Y-118650099D01*
X79927007Y-118715925D01*
X79990590Y-118732962D01*
X79394076Y-119329474D01*
X79438650Y-119361859D01*
X79620968Y-119454755D01*
X79815582Y-119517990D01*
X80017683Y-119550000D01*
X80222317Y-119550000D01*
X80424417Y-119517990D01*
X80619031Y-119454755D01*
X80801349Y-119361859D01*
X80845921Y-119329474D01*
X80249409Y-118732962D01*
X80312993Y-118715925D01*
X80427007Y-118650099D01*
X80520099Y-118557007D01*
X80585925Y-118442993D01*
X80602962Y-118379409D01*
X81199474Y-118975921D01*
X81231861Y-118931347D01*
X81231861Y-118931346D01*
X81279234Y-118838371D01*
X81327208Y-118787575D01*
X81395028Y-118770779D01*
X81461164Y-118793316D01*
X81500203Y-118838369D01*
X81547713Y-118931611D01*
X81668028Y-119097213D01*
X81812786Y-119241971D01*
X81933226Y-119329474D01*
X81978390Y-119362287D01*
X82094607Y-119421503D01*
X82160776Y-119455218D01*
X82160778Y-119455218D01*
X82160781Y-119455220D01*
X82265137Y-119489127D01*
X82355465Y-119518477D01*
X82456557Y-119534488D01*
X82557648Y-119550500D01*
X82557649Y-119550500D01*
X82762351Y-119550500D01*
X82762352Y-119550500D01*
X82964534Y-119518477D01*
X83159219Y-119455220D01*
X83341610Y-119362287D01*
X83434590Y-119294732D01*
X83507213Y-119241971D01*
X83507215Y-119241968D01*
X83507219Y-119241966D01*
X83651966Y-119097219D01*
X83651968Y-119097215D01*
X83651971Y-119097213D01*
X83772286Y-118931611D01*
X83772415Y-118931359D01*
X83819795Y-118838369D01*
X83867769Y-118787573D01*
X83935590Y-118770778D01*
X84001725Y-118793315D01*
X84040765Y-118838369D01*
X84088141Y-118931350D01*
X84088147Y-118931359D01*
X84120523Y-118975921D01*
X84120524Y-118975922D01*
X84717037Y-118379409D01*
X84734075Y-118442993D01*
X84799901Y-118557007D01*
X84892993Y-118650099D01*
X85007007Y-118715925D01*
X85070590Y-118732962D01*
X84474076Y-119329474D01*
X84518650Y-119361859D01*
X84700968Y-119454755D01*
X84895582Y-119517990D01*
X85097683Y-119550000D01*
X85302317Y-119550000D01*
X85504417Y-119517990D01*
X85699031Y-119454755D01*
X85881349Y-119361859D01*
X85925921Y-119329474D01*
X85329409Y-118732962D01*
X85392993Y-118715925D01*
X85507007Y-118650099D01*
X85600099Y-118557007D01*
X85665925Y-118442993D01*
X85682962Y-118379409D01*
X86279474Y-118975921D01*
X86311861Y-118931347D01*
X86311861Y-118931346D01*
X86359234Y-118838371D01*
X86407208Y-118787575D01*
X86475028Y-118770779D01*
X86541164Y-118793316D01*
X86580203Y-118838369D01*
X86627713Y-118931611D01*
X86748028Y-119097213D01*
X86892786Y-119241971D01*
X87013226Y-119329474D01*
X87058390Y-119362287D01*
X87174607Y-119421503D01*
X87240776Y-119455218D01*
X87240778Y-119455218D01*
X87240781Y-119455220D01*
X87345137Y-119489127D01*
X87435465Y-119518477D01*
X87536557Y-119534488D01*
X87637648Y-119550500D01*
X87637649Y-119550500D01*
X87842351Y-119550500D01*
X87842352Y-119550500D01*
X88044534Y-119518477D01*
X88239219Y-119455220D01*
X88421610Y-119362287D01*
X88514590Y-119294732D01*
X88587213Y-119241971D01*
X88587215Y-119241968D01*
X88587219Y-119241966D01*
X88731966Y-119097219D01*
X88731968Y-119097215D01*
X88731971Y-119097213D01*
X88852284Y-118931614D01*
X88852286Y-118931611D01*
X88852287Y-118931610D01*
X88899516Y-118838917D01*
X88947489Y-118788123D01*
X89015310Y-118771328D01*
X89081445Y-118793865D01*
X89120485Y-118838919D01*
X89167715Y-118931614D01*
X89288028Y-119097213D01*
X89432786Y-119241971D01*
X89553226Y-119329474D01*
X89598390Y-119362287D01*
X89714607Y-119421503D01*
X89780776Y-119455218D01*
X89780778Y-119455218D01*
X89780781Y-119455220D01*
X89885137Y-119489127D01*
X89975465Y-119518477D01*
X90076557Y-119534488D01*
X90177648Y-119550500D01*
X90177649Y-119550500D01*
X90382351Y-119550500D01*
X90382352Y-119550500D01*
X90584534Y-119518477D01*
X90779219Y-119455220D01*
X90961610Y-119362287D01*
X91054590Y-119294732D01*
X91127213Y-119241971D01*
X91127215Y-119241968D01*
X91127219Y-119241966D01*
X91271966Y-119097219D01*
X91271968Y-119097215D01*
X91271971Y-119097213D01*
X91324732Y-119024590D01*
X91392287Y-118931610D01*
X91485220Y-118749219D01*
X91548477Y-118554534D01*
X91580500Y-118352352D01*
X91580500Y-118147648D01*
X91548477Y-117945466D01*
X91547673Y-117942993D01*
X91485218Y-117750776D01*
X91392420Y-117568652D01*
X91392287Y-117568390D01*
X91360092Y-117524077D01*
X91271971Y-117402786D01*
X91127213Y-117258028D01*
X90961613Y-117137715D01*
X90961612Y-117137714D01*
X90961610Y-117137713D01*
X90904653Y-117108691D01*
X90779223Y-117044781D01*
X90584534Y-116981522D01*
X90409995Y-116953878D01*
X90382352Y-116949500D01*
X90177648Y-116949500D01*
X90153329Y-116953351D01*
X89975465Y-116981522D01*
X89780776Y-117044781D01*
X89598386Y-117137715D01*
X89432786Y-117258028D01*
X89288028Y-117402786D01*
X89167715Y-117568386D01*
X89120485Y-117661080D01*
X89072510Y-117711876D01*
X89004689Y-117728671D01*
X88938554Y-117706134D01*
X88899515Y-117661080D01*
X88852420Y-117568652D01*
X88852287Y-117568390D01*
X88820092Y-117524077D01*
X88731971Y-117402786D01*
X88587213Y-117258028D01*
X88421613Y-117137715D01*
X88421612Y-117137714D01*
X88421610Y-117137713D01*
X88364653Y-117108691D01*
X88239223Y-117044781D01*
X88044534Y-116981522D01*
X87869995Y-116953878D01*
X87842352Y-116949500D01*
X87637648Y-116949500D01*
X87613329Y-116953351D01*
X87435465Y-116981522D01*
X87240776Y-117044781D01*
X87058386Y-117137715D01*
X86892786Y-117258028D01*
X86748028Y-117402786D01*
X86627713Y-117568388D01*
X86580203Y-117661630D01*
X86532228Y-117712426D01*
X86464407Y-117729220D01*
X86398272Y-117706682D01*
X86359234Y-117661628D01*
X86311861Y-117568652D01*
X86279474Y-117524077D01*
X86279474Y-117524076D01*
X85682962Y-118120589D01*
X85665925Y-118057007D01*
X85600099Y-117942993D01*
X85507007Y-117849901D01*
X85392993Y-117784075D01*
X85329408Y-117767037D01*
X85925922Y-117170524D01*
X85925921Y-117170523D01*
X85881359Y-117138147D01*
X85881350Y-117138141D01*
X85699031Y-117045244D01*
X85504417Y-116982009D01*
X85302317Y-116950000D01*
X85097683Y-116950000D01*
X84895582Y-116982009D01*
X84700968Y-117045244D01*
X84518644Y-117138143D01*
X84474077Y-117170523D01*
X84474077Y-117170524D01*
X85070591Y-117767037D01*
X85007007Y-117784075D01*
X84892993Y-117849901D01*
X84799901Y-117942993D01*
X84734075Y-118057007D01*
X84717037Y-118120590D01*
X84120524Y-117524077D01*
X84120523Y-117524077D01*
X84088143Y-117568644D01*
X84040765Y-117661630D01*
X83992790Y-117712426D01*
X83924969Y-117729221D01*
X83858834Y-117706683D01*
X83819795Y-117661630D01*
X83772284Y-117568385D01*
X83651971Y-117402786D01*
X83507213Y-117258028D01*
X83341613Y-117137715D01*
X83341612Y-117137714D01*
X83341610Y-117137713D01*
X83284653Y-117108691D01*
X83159223Y-117044781D01*
X82964534Y-116981522D01*
X82789995Y-116953878D01*
X82762352Y-116949500D01*
X82557648Y-116949500D01*
X82533329Y-116953351D01*
X82355465Y-116981522D01*
X82160776Y-117044781D01*
X81978386Y-117137715D01*
X81812786Y-117258028D01*
X81668028Y-117402786D01*
X81547713Y-117568388D01*
X81500203Y-117661630D01*
X81452228Y-117712426D01*
X81384407Y-117729220D01*
X81318272Y-117706682D01*
X81279234Y-117661628D01*
X81231861Y-117568652D01*
X81199474Y-117524077D01*
X81199474Y-117524076D01*
X80602962Y-118120589D01*
X80585925Y-118057007D01*
X80520099Y-117942993D01*
X80427007Y-117849901D01*
X80312993Y-117784075D01*
X80249408Y-117767037D01*
X80845922Y-117170524D01*
X80845921Y-117170523D01*
X80801359Y-117138147D01*
X80801350Y-117138141D01*
X80619031Y-117045244D01*
X80424417Y-116982009D01*
X80222317Y-116950000D01*
X80017683Y-116950000D01*
X79815582Y-116982009D01*
X79620968Y-117045244D01*
X79438644Y-117138143D01*
X79394077Y-117170523D01*
X79394077Y-117170524D01*
X79990591Y-117767037D01*
X79927007Y-117784075D01*
X79812993Y-117849901D01*
X79719901Y-117942993D01*
X79654075Y-118057007D01*
X79637037Y-118120590D01*
X79040524Y-117524077D01*
X79040523Y-117524077D01*
X79008143Y-117568644D01*
X78960765Y-117661630D01*
X78912790Y-117712426D01*
X78844969Y-117729221D01*
X78778834Y-117706683D01*
X78739795Y-117661630D01*
X78692284Y-117568385D01*
X78571971Y-117402786D01*
X78427213Y-117258028D01*
X78261613Y-117137715D01*
X78261612Y-117137714D01*
X78261610Y-117137713D01*
X78204653Y-117108691D01*
X78079223Y-117044781D01*
X77884534Y-116981522D01*
X77709995Y-116953878D01*
X77682352Y-116949500D01*
X77477648Y-116949500D01*
X77453329Y-116953351D01*
X77275465Y-116981522D01*
X77080776Y-117044781D01*
X76898386Y-117137715D01*
X76732786Y-117258028D01*
X76588028Y-117402786D01*
X76467713Y-117568388D01*
X76420203Y-117661630D01*
X76372228Y-117712426D01*
X76304407Y-117729220D01*
X76238272Y-117706682D01*
X76199234Y-117661628D01*
X76151861Y-117568652D01*
X76119474Y-117524077D01*
X76119474Y-117524076D01*
X75522962Y-118120589D01*
X75505925Y-118057007D01*
X75440099Y-117942993D01*
X75347007Y-117849901D01*
X75232993Y-117784075D01*
X75169408Y-117767037D01*
X75765922Y-117170524D01*
X75765921Y-117170523D01*
X75721359Y-117138147D01*
X75721350Y-117138141D01*
X75539031Y-117045244D01*
X75344417Y-116982009D01*
X75142317Y-116950000D01*
X74937683Y-116950000D01*
X74735582Y-116982009D01*
X74540968Y-117045244D01*
X74358644Y-117138143D01*
X74314077Y-117170523D01*
X74314077Y-117170524D01*
X74910591Y-117767037D01*
X74847007Y-117784075D01*
X74732993Y-117849901D01*
X74639901Y-117942993D01*
X74574075Y-118057007D01*
X74557037Y-118120590D01*
X73960524Y-117524077D01*
X73960523Y-117524077D01*
X73928143Y-117568644D01*
X73880765Y-117661630D01*
X73832790Y-117712426D01*
X73764969Y-117729221D01*
X73698834Y-117706683D01*
X73659795Y-117661630D01*
X73612284Y-117568385D01*
X73491971Y-117402786D01*
X73347213Y-117258028D01*
X73181613Y-117137715D01*
X73181612Y-117137714D01*
X73181610Y-117137713D01*
X73124653Y-117108691D01*
X72999223Y-117044781D01*
X72804534Y-116981522D01*
X72629995Y-116953878D01*
X72602352Y-116949500D01*
X72397648Y-116949500D01*
X72373329Y-116953351D01*
X72195465Y-116981522D01*
X72000776Y-117044781D01*
X71818386Y-117137715D01*
X71652786Y-117258028D01*
X71508028Y-117402786D01*
X71387715Y-117568386D01*
X71294781Y-117750776D01*
X71231522Y-117945465D01*
X71199500Y-118147648D01*
X56500500Y-118147648D01*
X56500500Y-105813713D01*
X61149500Y-105813713D01*
X61149500Y-106026286D01*
X61182753Y-106236239D01*
X61182753Y-106236241D01*
X61182754Y-106236243D01*
X61231362Y-106385843D01*
X61248444Y-106438414D01*
X61344951Y-106627820D01*
X61469890Y-106799786D01*
X61620213Y-106950109D01*
X61792182Y-107075050D01*
X61800946Y-107079516D01*
X61851742Y-107127491D01*
X61868536Y-107195312D01*
X61845998Y-107261447D01*
X61800946Y-107300484D01*
X61792182Y-107304949D01*
X61620213Y-107429890D01*
X61469890Y-107580213D01*
X61344951Y-107752179D01*
X61248444Y-107941585D01*
X61182753Y-108143760D01*
X61149500Y-108353713D01*
X61149500Y-108566286D01*
X61182753Y-108776239D01*
X61248444Y-108978414D01*
X61344951Y-109167820D01*
X61469890Y-109339786D01*
X61620213Y-109490109D01*
X61792182Y-109615050D01*
X61800946Y-109619516D01*
X61851742Y-109667491D01*
X61868536Y-109735312D01*
X61845998Y-109801447D01*
X61800946Y-109840484D01*
X61792182Y-109844949D01*
X61620213Y-109969890D01*
X61469890Y-110120213D01*
X61344951Y-110292179D01*
X61248444Y-110481585D01*
X61182753Y-110683760D01*
X61149500Y-110893713D01*
X61149500Y-111106286D01*
X61174466Y-111263919D01*
X61182754Y-111316243D01*
X61221659Y-111435981D01*
X61248444Y-111518414D01*
X61344951Y-111707820D01*
X61469890Y-111879786D01*
X61620213Y-112030109D01*
X61792179Y-112155048D01*
X61792181Y-112155049D01*
X61792184Y-112155051D01*
X61981588Y-112251557D01*
X62183757Y-112317246D01*
X62393713Y-112350500D01*
X62393714Y-112350500D01*
X62606286Y-112350500D01*
X62606287Y-112350500D01*
X62816243Y-112317246D01*
X63018412Y-112251557D01*
X63207816Y-112155051D01*
X63343044Y-112056803D01*
X63379786Y-112030109D01*
X63379788Y-112030106D01*
X63379792Y-112030104D01*
X63530104Y-111879792D01*
X63530106Y-111879788D01*
X63530109Y-111879786D01*
X63655050Y-111707817D01*
X63664334Y-111689598D01*
X63751557Y-111518412D01*
X63817246Y-111316243D01*
X63827738Y-111250000D01*
X98921522Y-111250000D01*
X100399999Y-111250000D01*
X100374979Y-111310402D01*
X100350000Y-111435981D01*
X100350000Y-111564019D01*
X100374979Y-111689598D01*
X100399999Y-111750000D01*
X98921522Y-111750000D01*
X98935704Y-111839544D01*
X99006230Y-112056604D01*
X99109849Y-112259966D01*
X99244004Y-112444614D01*
X99405385Y-112605995D01*
X99590033Y-112740150D01*
X99793395Y-112843769D01*
X100010455Y-112914295D01*
X100235884Y-112950000D01*
X100750000Y-112950000D01*
X100750000Y-112100001D01*
X100810402Y-112125021D01*
X100935981Y-112150000D01*
X101064019Y-112150000D01*
X101189598Y-112125021D01*
X101250000Y-112100001D01*
X101250000Y-112950000D01*
X101764116Y-112950000D01*
X101989544Y-112914295D01*
X102206604Y-112843769D01*
X102409966Y-112740150D01*
X102594614Y-112605995D01*
X102755995Y-112444614D01*
X102890150Y-112259966D01*
X102993769Y-112056604D01*
X103064295Y-111839544D01*
X103078478Y-111750000D01*
X101600001Y-111750000D01*
X101625021Y-111689598D01*
X101650000Y-111564019D01*
X101650000Y-111435981D01*
X101640026Y-111385837D01*
X111399500Y-111385837D01*
X111399500Y-111614162D01*
X111435215Y-111839660D01*
X111505770Y-112056803D01*
X111605002Y-112251555D01*
X111609421Y-112260228D01*
X111743621Y-112444937D01*
X111905063Y-112606379D01*
X112089772Y-112740579D01*
X112185884Y-112789550D01*
X112293196Y-112844229D01*
X112293198Y-112844229D01*
X112293201Y-112844231D01*
X112409592Y-112882049D01*
X112510339Y-112914784D01*
X112735838Y-112950500D01*
X112735843Y-112950500D01*
X114264162Y-112950500D01*
X114489660Y-112914784D01*
X114491165Y-112914295D01*
X114706799Y-112844231D01*
X114910228Y-112740579D01*
X115094937Y-112606379D01*
X115256379Y-112444937D01*
X115390579Y-112260228D01*
X115494231Y-112056799D01*
X115564784Y-111839660D01*
X115578985Y-111750000D01*
X115587928Y-111693539D01*
X115600500Y-111614162D01*
X115600500Y-111390230D01*
X115600500Y-111385843D01*
X115578985Y-111250000D01*
X116921522Y-111250000D01*
X118399999Y-111250000D01*
X118374979Y-111310402D01*
X118350000Y-111435981D01*
X118350000Y-111564019D01*
X118374979Y-111689598D01*
X118399999Y-111750000D01*
X116921522Y-111750000D01*
X116935704Y-111839544D01*
X117006230Y-112056604D01*
X117109849Y-112259966D01*
X117244004Y-112444614D01*
X117405385Y-112605995D01*
X117590033Y-112740150D01*
X117793395Y-112843769D01*
X118010455Y-112914295D01*
X118235884Y-112950000D01*
X118750000Y-112950000D01*
X118750000Y-112100001D01*
X118810402Y-112125021D01*
X118935981Y-112150000D01*
X119064019Y-112150000D01*
X119189598Y-112125021D01*
X119250000Y-112100001D01*
X119250000Y-112950000D01*
X119764116Y-112950000D01*
X119989544Y-112914295D01*
X120206604Y-112843769D01*
X120409966Y-112740150D01*
X120594614Y-112605995D01*
X120755995Y-112444614D01*
X120890150Y-112259966D01*
X120993769Y-112056604D01*
X121064295Y-111839544D01*
X121078478Y-111750000D01*
X119600001Y-111750000D01*
X119625021Y-111689598D01*
X119650000Y-111564019D01*
X119650000Y-111435981D01*
X119640026Y-111385837D01*
X129399500Y-111385837D01*
X129399500Y-111614162D01*
X129435215Y-111839660D01*
X129505770Y-112056803D01*
X129605002Y-112251555D01*
X129609421Y-112260228D01*
X129743621Y-112444937D01*
X129905063Y-112606379D01*
X130089772Y-112740579D01*
X130185884Y-112789550D01*
X130293196Y-112844229D01*
X130293198Y-112844229D01*
X130293201Y-112844231D01*
X130409592Y-112882049D01*
X130510339Y-112914784D01*
X130735838Y-112950500D01*
X130735843Y-112950500D01*
X132264162Y-112950500D01*
X132489660Y-112914784D01*
X132491165Y-112914295D01*
X132706799Y-112844231D01*
X132910228Y-112740579D01*
X133094937Y-112606379D01*
X133256379Y-112444937D01*
X133390579Y-112260228D01*
X133494231Y-112056799D01*
X133564784Y-111839660D01*
X133578985Y-111750000D01*
X133600500Y-111614162D01*
X133600500Y-111385837D01*
X133564784Y-111160339D01*
X133494229Y-110943196D01*
X133439550Y-110835884D01*
X133390579Y-110739772D01*
X133256379Y-110555063D01*
X133094937Y-110393621D01*
X132910228Y-110259421D01*
X132706803Y-110155770D01*
X132489660Y-110085215D01*
X132264162Y-110049500D01*
X132264157Y-110049500D01*
X130735843Y-110049500D01*
X130735838Y-110049500D01*
X130510339Y-110085215D01*
X130293196Y-110155770D01*
X130089771Y-110259421D01*
X129905061Y-110393622D01*
X129743622Y-110555061D01*
X129609421Y-110739771D01*
X129505770Y-110943196D01*
X129435215Y-111160339D01*
X129399500Y-111385837D01*
X119640026Y-111385837D01*
X119625021Y-111310402D01*
X119600001Y-111250000D01*
X121078478Y-111250000D01*
X121064295Y-111160455D01*
X120993769Y-110943395D01*
X120890150Y-110740033D01*
X120755995Y-110555385D01*
X120594614Y-110394004D01*
X120409966Y-110259849D01*
X120206604Y-110156230D01*
X119989544Y-110085704D01*
X119764116Y-110050000D01*
X119250000Y-110050000D01*
X119250000Y-110899998D01*
X119189598Y-110874979D01*
X119064019Y-110850000D01*
X118935981Y-110850000D01*
X118810402Y-110874979D01*
X118750000Y-110899998D01*
X118750000Y-110050000D01*
X118235884Y-110050000D01*
X118010455Y-110085704D01*
X117793395Y-110156230D01*
X117590033Y-110259849D01*
X117405385Y-110394004D01*
X117244004Y-110555385D01*
X117109849Y-110740033D01*
X117006230Y-110943395D01*
X116935704Y-111160455D01*
X116921522Y-111250000D01*
X115578985Y-111250000D01*
X115564784Y-111160340D01*
X115494231Y-110943201D01*
X115494229Y-110943198D01*
X115494229Y-110943196D01*
X115439550Y-110835884D01*
X115390579Y-110739772D01*
X115256379Y-110555063D01*
X115094937Y-110393621D01*
X114910228Y-110259421D01*
X114706803Y-110155770D01*
X114489660Y-110085215D01*
X114264162Y-110049500D01*
X114264157Y-110049500D01*
X112735843Y-110049500D01*
X112735838Y-110049500D01*
X112510339Y-110085215D01*
X112293196Y-110155770D01*
X112089771Y-110259421D01*
X111905061Y-110393622D01*
X111743622Y-110555061D01*
X111609421Y-110739771D01*
X111505770Y-110943196D01*
X111435215Y-111160339D01*
X111399500Y-111385837D01*
X101640026Y-111385837D01*
X101625021Y-111310402D01*
X101600001Y-111250000D01*
X103078478Y-111250000D01*
X103064295Y-111160455D01*
X102993769Y-110943395D01*
X102890150Y-110740033D01*
X102755995Y-110555385D01*
X102594614Y-110394004D01*
X102409966Y-110259849D01*
X102206604Y-110156230D01*
X101989544Y-110085704D01*
X101764116Y-110050000D01*
X101250000Y-110050000D01*
X101250000Y-110899998D01*
X101189598Y-110874979D01*
X101064019Y-110850000D01*
X100935981Y-110850000D01*
X100810402Y-110874979D01*
X100750000Y-110899998D01*
X100750000Y-110050000D01*
X100235884Y-110050000D01*
X100010455Y-110085704D01*
X99793395Y-110156230D01*
X99590033Y-110259849D01*
X99405385Y-110394004D01*
X99244004Y-110555385D01*
X99109849Y-110740033D01*
X99006230Y-110943395D01*
X98935704Y-111160455D01*
X98921522Y-111250000D01*
X63827738Y-111250000D01*
X63850500Y-111106287D01*
X63850500Y-110893713D01*
X63817246Y-110683757D01*
X63751557Y-110481588D01*
X63655051Y-110292184D01*
X63655049Y-110292181D01*
X63655048Y-110292179D01*
X63530109Y-110120213D01*
X63379786Y-109969890D01*
X63207820Y-109844951D01*
X63207115Y-109844591D01*
X63199054Y-109840485D01*
X63148259Y-109792512D01*
X63131463Y-109724692D01*
X63153999Y-109658556D01*
X63199054Y-109619515D01*
X63207816Y-109615051D01*
X63229789Y-109599086D01*
X63379786Y-109490109D01*
X63379788Y-109490106D01*
X63379792Y-109490104D01*
X63530104Y-109339792D01*
X63530106Y-109339788D01*
X63530109Y-109339786D01*
X63655048Y-109167820D01*
X63655047Y-109167820D01*
X63655051Y-109167816D01*
X63751557Y-108978412D01*
X63817246Y-108776243D01*
X63850500Y-108566287D01*
X63850500Y-108353713D01*
X63817246Y-108143757D01*
X63751557Y-107941588D01*
X63655051Y-107752184D01*
X63655049Y-107752181D01*
X63655048Y-107752179D01*
X63530109Y-107580213D01*
X63379786Y-107429890D01*
X63207820Y-107304951D01*
X63207115Y-107304591D01*
X63199054Y-107300485D01*
X63148259Y-107252512D01*
X63131463Y-107184692D01*
X63153999Y-107118556D01*
X63199054Y-107079515D01*
X63207816Y-107075051D01*
X63232938Y-107056799D01*
X63379786Y-106950109D01*
X63379788Y-106950106D01*
X63379792Y-106950104D01*
X63530104Y-106799792D01*
X63530106Y-106799788D01*
X63530109Y-106799786D01*
X63655048Y-106627820D01*
X63655047Y-106627820D01*
X63655051Y-106627816D01*
X63751557Y-106438412D01*
X63768640Y-106385837D01*
X98899500Y-106385837D01*
X98899500Y-106614162D01*
X98935215Y-106839660D01*
X99005770Y-107056803D01*
X99109421Y-107260228D01*
X99243621Y-107444937D01*
X99405063Y-107606379D01*
X99589772Y-107740579D01*
X99685884Y-107789550D01*
X99793196Y-107844229D01*
X99793198Y-107844229D01*
X99793201Y-107844231D01*
X99909592Y-107882049D01*
X100010339Y-107914784D01*
X100235838Y-107950500D01*
X100235843Y-107950500D01*
X101764162Y-107950500D01*
X101989660Y-107914784D01*
X102206799Y-107844231D01*
X102410228Y-107740579D01*
X102594937Y-107606379D01*
X102756379Y-107444937D01*
X102890579Y-107260228D01*
X102994231Y-107056799D01*
X103064784Y-106839660D01*
X103100500Y-106614162D01*
X103100500Y-106385837D01*
X111399500Y-106385837D01*
X111399500Y-106614162D01*
X111435215Y-106839660D01*
X111505770Y-107056803D01*
X111609421Y-107260228D01*
X111743621Y-107444937D01*
X111905063Y-107606379D01*
X112089772Y-107740579D01*
X112185884Y-107789550D01*
X112293196Y-107844229D01*
X112293198Y-107844229D01*
X112293201Y-107844231D01*
X112409592Y-107882049D01*
X112510339Y-107914784D01*
X112735838Y-107950500D01*
X112735843Y-107950500D01*
X114264162Y-107950500D01*
X114489660Y-107914784D01*
X114706799Y-107844231D01*
X114910228Y-107740579D01*
X115094937Y-107606379D01*
X115256379Y-107444937D01*
X115390579Y-107260228D01*
X115494231Y-107056799D01*
X115564784Y-106839660D01*
X115600500Y-106614162D01*
X115600500Y-106385837D01*
X116899500Y-106385837D01*
X116899500Y-106614162D01*
X116935215Y-106839660D01*
X117005770Y-107056803D01*
X117109421Y-107260228D01*
X117243621Y-107444937D01*
X117405063Y-107606379D01*
X117589772Y-107740579D01*
X117685884Y-107789550D01*
X117793196Y-107844229D01*
X117793198Y-107844229D01*
X117793201Y-107844231D01*
X117909592Y-107882049D01*
X118010339Y-107914784D01*
X118235838Y-107950500D01*
X118235843Y-107950500D01*
X119764162Y-107950500D01*
X119989660Y-107914784D01*
X120206799Y-107844231D01*
X120410228Y-107740579D01*
X120594937Y-107606379D01*
X120756379Y-107444937D01*
X120890579Y-107260228D01*
X120994231Y-107056799D01*
X121064784Y-106839660D01*
X121100500Y-106614162D01*
X121100500Y-106385837D01*
X129399500Y-106385837D01*
X129399500Y-106614162D01*
X129435215Y-106839660D01*
X129505770Y-107056803D01*
X129609421Y-107260228D01*
X129743621Y-107444937D01*
X129905063Y-107606379D01*
X130089772Y-107740579D01*
X130185884Y-107789550D01*
X130293196Y-107844229D01*
X130293198Y-107844229D01*
X130293201Y-107844231D01*
X130409592Y-107882049D01*
X130510339Y-107914784D01*
X130735838Y-107950500D01*
X130735843Y-107950500D01*
X132264162Y-107950500D01*
X132489660Y-107914784D01*
X132706799Y-107844231D01*
X132910228Y-107740579D01*
X133094937Y-107606379D01*
X133256379Y-107444937D01*
X133390579Y-107260228D01*
X133494231Y-107056799D01*
X133564784Y-106839660D01*
X133600500Y-106614162D01*
X133600500Y-106385837D01*
X133564784Y-106160339D01*
X133494229Y-105943196D01*
X133390578Y-105739771D01*
X133256379Y-105555063D01*
X133094937Y-105393621D01*
X132910228Y-105259421D01*
X132706803Y-105155770D01*
X132489660Y-105085215D01*
X132264162Y-105049500D01*
X132264157Y-105049500D01*
X130735843Y-105049500D01*
X130735838Y-105049500D01*
X130510339Y-105085215D01*
X130293196Y-105155770D01*
X130089771Y-105259421D01*
X129905061Y-105393622D01*
X129743622Y-105555061D01*
X129609421Y-105739771D01*
X129505770Y-105943196D01*
X129435215Y-106160339D01*
X129399500Y-106385837D01*
X121100500Y-106385837D01*
X121064784Y-106160339D01*
X120994229Y-105943196D01*
X120890578Y-105739771D01*
X120756379Y-105555063D01*
X120594937Y-105393621D01*
X120410228Y-105259421D01*
X120206803Y-105155770D01*
X119989660Y-105085215D01*
X119764162Y-105049500D01*
X119764157Y-105049500D01*
X118235843Y-105049500D01*
X118235838Y-105049500D01*
X118010339Y-105085215D01*
X117793196Y-105155770D01*
X117589771Y-105259421D01*
X117405061Y-105393622D01*
X117243622Y-105555061D01*
X117109421Y-105739771D01*
X117005770Y-105943196D01*
X116935215Y-106160339D01*
X116899500Y-106385837D01*
X115600500Y-106385837D01*
X115564784Y-106160339D01*
X115494229Y-105943196D01*
X115390578Y-105739771D01*
X115256379Y-105555063D01*
X115094937Y-105393621D01*
X114910228Y-105259421D01*
X114706803Y-105155770D01*
X114489660Y-105085215D01*
X114264162Y-105049500D01*
X114264157Y-105049500D01*
X112735843Y-105049500D01*
X112735838Y-105049500D01*
X112510339Y-105085215D01*
X112293196Y-105155770D01*
X112089771Y-105259421D01*
X111905061Y-105393622D01*
X111743622Y-105555061D01*
X111609421Y-105739771D01*
X111505770Y-105943196D01*
X111435215Y-106160339D01*
X111399500Y-106385837D01*
X103100500Y-106385837D01*
X103064784Y-106160339D01*
X102994229Y-105943196D01*
X102890578Y-105739771D01*
X102756379Y-105555063D01*
X102594937Y-105393621D01*
X102410228Y-105259421D01*
X102206803Y-105155770D01*
X101989660Y-105085215D01*
X101764162Y-105049500D01*
X101764157Y-105049500D01*
X100235843Y-105049500D01*
X100235838Y-105049500D01*
X100010339Y-105085215D01*
X99793196Y-105155770D01*
X99589771Y-105259421D01*
X99405061Y-105393622D01*
X99243622Y-105555061D01*
X99109421Y-105739771D01*
X99005770Y-105943196D01*
X98935215Y-106160339D01*
X98899500Y-106385837D01*
X63768640Y-106385837D01*
X63817246Y-106236243D01*
X63850500Y-106026287D01*
X63850500Y-105813713D01*
X63817246Y-105603757D01*
X63751557Y-105401588D01*
X63655051Y-105212184D01*
X63655049Y-105212181D01*
X63655048Y-105212179D01*
X63530109Y-105040213D01*
X63379786Y-104889890D01*
X63207820Y-104764951D01*
X63018414Y-104668444D01*
X63018413Y-104668443D01*
X63018412Y-104668443D01*
X62816243Y-104602754D01*
X62816241Y-104602753D01*
X62816240Y-104602753D01*
X62654957Y-104577208D01*
X62606287Y-104569500D01*
X62393713Y-104569500D01*
X62345042Y-104577208D01*
X62183760Y-104602753D01*
X61981585Y-104668444D01*
X61792179Y-104764951D01*
X61620213Y-104889890D01*
X61469890Y-105040213D01*
X61344951Y-105212179D01*
X61248444Y-105401585D01*
X61182753Y-105603760D01*
X61149500Y-105813713D01*
X56500500Y-105813713D01*
X56500500Y-96774038D01*
X58299500Y-96774038D01*
X58299500Y-97025962D01*
X58315339Y-97125962D01*
X58338910Y-97274785D01*
X58416760Y-97514383D01*
X58531132Y-97738848D01*
X58679201Y-97942649D01*
X58679205Y-97942654D01*
X58857345Y-98120794D01*
X58857350Y-98120798D01*
X58994984Y-98220794D01*
X59061155Y-98268870D01*
X59204184Y-98341747D01*
X59285616Y-98383239D01*
X59285618Y-98383239D01*
X59285621Y-98383241D01*
X59525215Y-98461090D01*
X59774038Y-98500500D01*
X59774039Y-98500500D01*
X60025961Y-98500500D01*
X60025962Y-98500500D01*
X60274785Y-98461090D01*
X60514379Y-98383241D01*
X60738845Y-98268870D01*
X60942656Y-98120793D01*
X61120793Y-97942656D01*
X61268870Y-97738845D01*
X61383241Y-97514379D01*
X61461090Y-97274785D01*
X61500500Y-97025962D01*
X61500500Y-96874038D01*
X130499500Y-96874038D01*
X130499500Y-97125961D01*
X130538910Y-97374785D01*
X130616760Y-97614383D01*
X130731132Y-97838848D01*
X130879201Y-98042649D01*
X130879205Y-98042654D01*
X131057345Y-98220794D01*
X131057350Y-98220798D01*
X131123512Y-98268867D01*
X131261155Y-98368870D01*
X131404184Y-98441747D01*
X131485616Y-98483239D01*
X131485618Y-98483239D01*
X131485621Y-98483241D01*
X131725215Y-98561090D01*
X131974038Y-98600500D01*
X131974039Y-98600500D01*
X132225961Y-98600500D01*
X132225962Y-98600500D01*
X132474785Y-98561090D01*
X132714379Y-98483241D01*
X132938845Y-98368870D01*
X133142656Y-98220793D01*
X133320793Y-98042656D01*
X133468870Y-97838845D01*
X133583241Y-97614379D01*
X133661090Y-97374785D01*
X133700500Y-97125962D01*
X133700500Y-96874038D01*
X133661090Y-96625215D01*
X133583241Y-96385621D01*
X133583239Y-96385618D01*
X133583239Y-96385616D01*
X133541747Y-96304184D01*
X133468870Y-96161155D01*
X133354509Y-96003750D01*
X133320798Y-95957350D01*
X133320794Y-95957345D01*
X133142654Y-95779205D01*
X133142649Y-95779201D01*
X132938848Y-95631132D01*
X132938847Y-95631131D01*
X132938845Y-95631130D01*
X132868747Y-95595413D01*
X132714383Y-95516760D01*
X132474785Y-95438910D01*
X132334930Y-95416759D01*
X132225962Y-95399500D01*
X131974038Y-95399500D01*
X131912789Y-95409201D01*
X131725214Y-95438910D01*
X131485616Y-95516760D01*
X131261151Y-95631132D01*
X131057350Y-95779201D01*
X131057345Y-95779205D01*
X130879205Y-95957345D01*
X130879201Y-95957350D01*
X130731132Y-96161151D01*
X130616760Y-96385616D01*
X130538910Y-96625214D01*
X130499500Y-96874038D01*
X61500500Y-96874038D01*
X61500500Y-96774038D01*
X61461090Y-96525215D01*
X61383241Y-96285621D01*
X61383239Y-96285618D01*
X61383239Y-96285616D01*
X61319820Y-96161151D01*
X61268870Y-96061155D01*
X61227163Y-96003750D01*
X61120798Y-95857350D01*
X61120794Y-95857345D01*
X60942654Y-95679205D01*
X60942649Y-95679201D01*
X60738848Y-95531132D01*
X60738847Y-95531131D01*
X60738845Y-95531130D01*
X60649782Y-95485750D01*
X60514383Y-95416760D01*
X60274785Y-95338910D01*
X60025962Y-95299500D01*
X59774038Y-95299500D01*
X59649626Y-95319205D01*
X59525214Y-95338910D01*
X59285616Y-95416760D01*
X59061151Y-95531132D01*
X58857350Y-95679201D01*
X58857345Y-95679205D01*
X58679205Y-95857345D01*
X58679201Y-95857350D01*
X58531132Y-96061151D01*
X58416760Y-96285616D01*
X58338910Y-96525214D01*
X58323071Y-96625215D01*
X58299500Y-96774038D01*
X56500500Y-96774038D01*
X56500500Y-96003750D01*
X56500726Y-95996263D01*
X56513855Y-95779207D01*
X56518271Y-95706201D01*
X56520076Y-95691340D01*
X56522300Y-95679207D01*
X56571780Y-95409197D01*
X56575364Y-95394663D01*
X56660696Y-95120822D01*
X56665998Y-95106841D01*
X56783731Y-94845249D01*
X56790676Y-94832016D01*
X56939080Y-94586526D01*
X56947567Y-94574230D01*
X57124480Y-94348417D01*
X57134395Y-94337226D01*
X57337226Y-94134395D01*
X57348417Y-94124480D01*
X57574230Y-93947567D01*
X57586526Y-93939080D01*
X57832016Y-93790676D01*
X57845249Y-93783731D01*
X58106841Y-93665998D01*
X58120822Y-93660696D01*
X58394668Y-93575362D01*
X58409197Y-93571780D01*
X58691344Y-93520075D01*
X58706201Y-93518271D01*
X58996264Y-93500726D01*
X59003751Y-93500500D01*
X59065892Y-93500500D01*
X132934108Y-93500500D01*
X132996249Y-93500500D01*
X133003736Y-93500726D01*
G37*
G04 #@! TD.AperFunction*
M02*
