G04 #@! TF.GenerationSoftware,KiCad,Pcbnew,9.0.1*
G04 #@! TF.CreationDate,2025-04-06T16:16:06+02:00*
G04 #@! TF.ProjectId,camera_base,63616d65-7261-45f6-9261-73652e6b6963,rev?*
G04 #@! TF.SameCoordinates,Original*
G04 #@! TF.FileFunction,Legend,Bot*
G04 #@! TF.FilePolarity,Positive*
%FSLAX46Y46*%
G04 Gerber Fmt 4.6, Leading zero omitted, Abs format (unit mm)*
G04 Created by KiCad (PCBNEW 9.0.1) date 2025-04-06 16:16:06*
%MOMM*%
%LPD*%
G01*
G04 APERTURE LIST*
%ADD10C,1.600000*%
%ADD11C,1.700000*%
%ADD12R,1.700000X1.700000*%
%ADD13R,1.200000X1.200000*%
%ADD14C,1.200000*%
%ADD15O,3.200000X1.900000*%
%ADD16R,1.500000X1.500000*%
G04 APERTURE END LIST*
%LPC*%
D10*
X124700000Y-170200000D03*
X122160000Y-170200000D03*
X119620000Y-170200000D03*
X117080000Y-170200000D03*
X114540000Y-170200000D03*
X112000000Y-170200000D03*
X109460000Y-170200000D03*
X106920000Y-170200000D03*
X104380000Y-170200000D03*
X101840000Y-170200000D03*
X99300000Y-170200000D03*
D11*
X82860000Y-112500000D03*
X82860000Y-109960000D03*
X85400000Y-112500000D03*
X85400000Y-109960000D03*
X87940000Y-112500000D03*
X87940000Y-109960000D03*
X90480000Y-112500000D03*
X90480000Y-109960000D03*
X93020000Y-112500000D03*
X93020000Y-109960000D03*
X95560000Y-112500000D03*
X95560000Y-109960000D03*
X98100000Y-112500000D03*
X98100000Y-109960000D03*
X100640000Y-112500000D03*
X100640000Y-109960000D03*
X103180000Y-112500000D03*
X103180000Y-109960000D03*
X105720000Y-112500000D03*
X105720000Y-109960000D03*
X108260000Y-112500000D03*
X108260000Y-109960000D03*
X110800000Y-112500000D03*
X110800000Y-109960000D03*
X113340000Y-112500000D03*
X113340000Y-109960000D03*
X115880000Y-112500000D03*
X115880000Y-109960000D03*
X118420000Y-112500000D03*
X118420000Y-109960000D03*
X120960000Y-112500000D03*
X120960000Y-109960000D03*
X123500000Y-112500000D03*
X123500000Y-109960000D03*
X126040000Y-112500000D03*
X126040000Y-109960000D03*
X128580000Y-112500000D03*
X128580000Y-109960000D03*
X131120000Y-112500000D03*
D12*
X131120000Y-109960000D03*
D13*
X141710000Y-133500000D03*
D14*
X144250000Y-133500000D03*
X146790000Y-133500000D03*
X141710000Y-136040000D03*
X144250000Y-136040000D03*
X146790000Y-136040000D03*
D15*
X140250000Y-164800000D03*
X152750000Y-164800000D03*
X140250000Y-169800000D03*
X152750000Y-169800000D03*
D16*
X60750000Y-128790000D03*
D10*
X60750000Y-131330000D03*
X60750000Y-126250000D03*
X82000000Y-143500000D03*
X82000000Y-146340000D03*
X82000000Y-148880000D03*
X82000000Y-151420000D03*
X82000000Y-153960000D03*
X82000000Y-156500000D03*
X82000000Y-159040000D03*
X82000000Y-161580000D03*
D15*
X140250000Y-149250000D03*
X152750000Y-149250000D03*
X140250000Y-154250000D03*
X152750000Y-154250000D03*
%LPD*%
M02*
