G04 #@! TF.GenerationSoftware,KiCad,Pcbnew,9.0.1*
G04 #@! TF.CreationDate,2025-04-06T16:16:06+02:00*
G04 #@! TF.ProjectId,camera_base,63616d65-7261-45f6-9261-73652e6b6963,rev?*
G04 #@! TF.SameCoordinates,Original*
G04 #@! TF.FileFunction,Copper,L1,Top*
G04 #@! TF.FilePolarity,Positive*
%FSLAX46Y46*%
G04 Gerber Fmt 4.6, Leading zero omitted, Abs format (unit mm)*
G04 Created by KiCad (PCBNEW 9.0.1) date 2025-04-06 16:16:06*
%MOMM*%
%LPD*%
G01*
G04 APERTURE LIST*
G04 #@! TA.AperFunction,ComponentPad*
%ADD10C,1.600000*%
G04 #@! TD*
G04 #@! TA.AperFunction,ComponentPad*
%ADD11C,1.700000*%
G04 #@! TD*
G04 #@! TA.AperFunction,ComponentPad*
%ADD12R,1.700000X1.700000*%
G04 #@! TD*
G04 #@! TA.AperFunction,ComponentPad*
%ADD13R,1.200000X1.200000*%
G04 #@! TD*
G04 #@! TA.AperFunction,ComponentPad*
%ADD14C,1.200000*%
G04 #@! TD*
G04 #@! TA.AperFunction,ComponentPad*
%ADD15O,3.200000X1.900000*%
G04 #@! TD*
G04 #@! TA.AperFunction,ComponentPad*
%ADD16R,1.500000X1.500000*%
G04 #@! TD*
G04 APERTURE END LIST*
D10*
X124700000Y-170200000D03*
X122160000Y-170200000D03*
X119620000Y-170200000D03*
X117080000Y-170200000D03*
X114540000Y-170200000D03*
X112000000Y-170200000D03*
X109460000Y-170200000D03*
X106920000Y-170200000D03*
X104380000Y-170200000D03*
X101840000Y-170200000D03*
X99300000Y-170200000D03*
D11*
X82860000Y-112500000D03*
X82860000Y-109960000D03*
X85400000Y-112500000D03*
X85400000Y-109960000D03*
X87940000Y-112500000D03*
X87940000Y-109960000D03*
X90480000Y-112500000D03*
X90480000Y-109960000D03*
X93020000Y-112500000D03*
X93020000Y-109960000D03*
X95560000Y-112500000D03*
X95560000Y-109960000D03*
X98100000Y-112500000D03*
X98100000Y-109960000D03*
X100640000Y-112500000D03*
X100640000Y-109960000D03*
X103180000Y-112500000D03*
X103180000Y-109960000D03*
X105720000Y-112500000D03*
X105720000Y-109960000D03*
X108260000Y-112500000D03*
X108260000Y-109960000D03*
X110800000Y-112500000D03*
X110800000Y-109960000D03*
X113340000Y-112500000D03*
X113340000Y-109960000D03*
X115880000Y-112500000D03*
X115880000Y-109960000D03*
X118420000Y-112500000D03*
X118420000Y-109960000D03*
X120960000Y-112500000D03*
X120960000Y-109960000D03*
X123500000Y-112500000D03*
X123500000Y-109960000D03*
X126040000Y-112500000D03*
X126040000Y-109960000D03*
X128580000Y-112500000D03*
X128580000Y-109960000D03*
X131120000Y-112500000D03*
D12*
X131120000Y-109960000D03*
D13*
X141710000Y-133500000D03*
D14*
X144250000Y-133500000D03*
X146790000Y-133500000D03*
X141710000Y-136040000D03*
X144250000Y-136040000D03*
X146790000Y-136040000D03*
D15*
X140250000Y-164800000D03*
X152750000Y-164800000D03*
X140250000Y-169800000D03*
X152750000Y-169800000D03*
D16*
X60750000Y-128790000D03*
D10*
X60750000Y-131330000D03*
X60750000Y-126250000D03*
X82000000Y-143500000D03*
X82000000Y-146340000D03*
X82000000Y-148880000D03*
X82000000Y-151420000D03*
X82000000Y-153960000D03*
X82000000Y-156500000D03*
X82000000Y-159040000D03*
X82000000Y-161580000D03*
D15*
X140250000Y-149250000D03*
X152750000Y-149250000D03*
X140250000Y-154250000D03*
X152750000Y-154250000D03*
G04 #@! TA.AperFunction,Conductor*
G36*
X110334075Y-110152993D02*
G01*
X110399901Y-110267007D01*
X110492993Y-110360099D01*
X110607007Y-110425925D01*
X110670590Y-110442962D01*
X110038282Y-111075269D01*
X110038282Y-111075270D01*
X110092452Y-111114626D01*
X110092451Y-111114626D01*
X110101495Y-111119234D01*
X110152292Y-111167208D01*
X110169087Y-111235029D01*
X110146550Y-111301164D01*
X110101499Y-111340202D01*
X110092182Y-111344949D01*
X109920213Y-111469890D01*
X109769890Y-111620213D01*
X109644949Y-111792182D01*
X109640484Y-111800946D01*
X109592509Y-111851742D01*
X109524688Y-111868536D01*
X109458553Y-111845998D01*
X109419516Y-111800946D01*
X109415050Y-111792182D01*
X109290109Y-111620213D01*
X109139786Y-111469890D01*
X108967820Y-111344951D01*
X108967115Y-111344591D01*
X108959054Y-111340485D01*
X108908259Y-111292512D01*
X108891463Y-111224692D01*
X108913999Y-111158556D01*
X108959054Y-111119515D01*
X108967816Y-111115051D01*
X109054478Y-111052088D01*
X109139786Y-110990109D01*
X109139788Y-110990106D01*
X109139792Y-110990104D01*
X109290104Y-110839792D01*
X109290106Y-110839788D01*
X109290109Y-110839786D01*
X109375890Y-110721717D01*
X109415051Y-110667816D01*
X109419793Y-110658508D01*
X109467763Y-110607711D01*
X109535583Y-110590911D01*
X109601719Y-110613445D01*
X109640763Y-110658500D01*
X109645373Y-110667547D01*
X109684728Y-110721716D01*
X110317037Y-110089408D01*
X110334075Y-110152993D01*
G37*
G04 #@! TD.AperFunction*
G04 #@! TA.AperFunction,Conductor*
G36*
X111915270Y-110721717D02*
G01*
X111915270Y-110721716D01*
X111954622Y-110667555D01*
X111959232Y-110658507D01*
X112007205Y-110607709D01*
X112075025Y-110590912D01*
X112141161Y-110613447D01*
X112180204Y-110658504D01*
X112184949Y-110667817D01*
X112309890Y-110839786D01*
X112460213Y-110990109D01*
X112632182Y-111115050D01*
X112640946Y-111119516D01*
X112691742Y-111167491D01*
X112708536Y-111235312D01*
X112685998Y-111301447D01*
X112640946Y-111340484D01*
X112632182Y-111344949D01*
X112460213Y-111469890D01*
X112309890Y-111620213D01*
X112184949Y-111792182D01*
X112180484Y-111800946D01*
X112132509Y-111851742D01*
X112064688Y-111868536D01*
X111998553Y-111845998D01*
X111959516Y-111800946D01*
X111955050Y-111792182D01*
X111830109Y-111620213D01*
X111679786Y-111469890D01*
X111507817Y-111344949D01*
X111498504Y-111340204D01*
X111447707Y-111292230D01*
X111430912Y-111224409D01*
X111453449Y-111158274D01*
X111498507Y-111119232D01*
X111507555Y-111114622D01*
X111561716Y-111075270D01*
X111561717Y-111075270D01*
X110929408Y-110442962D01*
X110992993Y-110425925D01*
X111107007Y-110360099D01*
X111200099Y-110267007D01*
X111265925Y-110152993D01*
X111282962Y-110089409D01*
X111915270Y-110721717D01*
G37*
G04 #@! TD.AperFunction*
G04 #@! TA.AperFunction,Conductor*
G36*
X156192539Y-104520185D02*
G01*
X156238294Y-104572989D01*
X156249500Y-104624500D01*
X156249500Y-178375500D01*
X156229815Y-178442539D01*
X156177011Y-178488294D01*
X156125500Y-178499500D01*
X55874500Y-178499500D01*
X55807461Y-178479815D01*
X55761706Y-178427011D01*
X55750500Y-178375500D01*
X55750500Y-170097682D01*
X98000000Y-170097682D01*
X98000000Y-170302317D01*
X98032009Y-170504417D01*
X98095244Y-170699031D01*
X98188141Y-170881350D01*
X98188147Y-170881359D01*
X98220523Y-170925921D01*
X98220524Y-170925922D01*
X98817037Y-170329409D01*
X98834075Y-170392993D01*
X98899901Y-170507007D01*
X98992993Y-170600099D01*
X99107007Y-170665925D01*
X99170590Y-170682962D01*
X98574076Y-171279474D01*
X98618650Y-171311859D01*
X98800968Y-171404755D01*
X98995582Y-171467990D01*
X99197683Y-171500000D01*
X99402317Y-171500000D01*
X99604417Y-171467990D01*
X99799031Y-171404755D01*
X99981349Y-171311859D01*
X100025921Y-171279474D01*
X99429409Y-170682962D01*
X99492993Y-170665925D01*
X99607007Y-170600099D01*
X99700099Y-170507007D01*
X99765925Y-170392993D01*
X99782962Y-170329409D01*
X100379474Y-170925921D01*
X100411861Y-170881347D01*
X100411861Y-170881346D01*
X100459234Y-170788371D01*
X100507208Y-170737575D01*
X100575028Y-170720779D01*
X100641164Y-170743316D01*
X100680203Y-170788369D01*
X100727713Y-170881611D01*
X100848028Y-171047213D01*
X100992786Y-171191971D01*
X101113226Y-171279474D01*
X101158390Y-171312287D01*
X101274607Y-171371503D01*
X101340776Y-171405218D01*
X101340778Y-171405218D01*
X101340781Y-171405220D01*
X101445137Y-171439127D01*
X101535465Y-171468477D01*
X101636557Y-171484488D01*
X101737648Y-171500500D01*
X101737649Y-171500500D01*
X101942351Y-171500500D01*
X101942352Y-171500500D01*
X102144534Y-171468477D01*
X102339219Y-171405220D01*
X102521610Y-171312287D01*
X102614590Y-171244732D01*
X102687213Y-171191971D01*
X102687215Y-171191968D01*
X102687219Y-171191966D01*
X102831966Y-171047219D01*
X102831968Y-171047215D01*
X102831971Y-171047213D01*
X102952284Y-170881614D01*
X102952286Y-170881611D01*
X102952287Y-170881610D01*
X102999516Y-170788917D01*
X103047489Y-170738123D01*
X103115310Y-170721328D01*
X103181445Y-170743865D01*
X103220485Y-170788919D01*
X103267715Y-170881614D01*
X103388028Y-171047213D01*
X103532786Y-171191971D01*
X103653226Y-171279474D01*
X103698390Y-171312287D01*
X103814607Y-171371503D01*
X103880776Y-171405218D01*
X103880778Y-171405218D01*
X103880781Y-171405220D01*
X103985137Y-171439127D01*
X104075465Y-171468477D01*
X104176557Y-171484488D01*
X104277648Y-171500500D01*
X104277649Y-171500500D01*
X104482351Y-171500500D01*
X104482352Y-171500500D01*
X104684534Y-171468477D01*
X104879219Y-171405220D01*
X105061610Y-171312287D01*
X105154590Y-171244732D01*
X105227213Y-171191971D01*
X105227215Y-171191968D01*
X105227219Y-171191966D01*
X105371966Y-171047219D01*
X105371968Y-171047215D01*
X105371971Y-171047213D01*
X105492284Y-170881614D01*
X105492286Y-170881611D01*
X105492287Y-170881610D01*
X105539516Y-170788917D01*
X105587489Y-170738123D01*
X105655310Y-170721328D01*
X105721445Y-170743865D01*
X105760485Y-170788919D01*
X105807715Y-170881614D01*
X105928028Y-171047213D01*
X106072786Y-171191971D01*
X106193226Y-171279474D01*
X106238390Y-171312287D01*
X106354607Y-171371503D01*
X106420776Y-171405218D01*
X106420778Y-171405218D01*
X106420781Y-171405220D01*
X106525137Y-171439127D01*
X106615465Y-171468477D01*
X106716557Y-171484488D01*
X106817648Y-171500500D01*
X106817649Y-171500500D01*
X107022351Y-171500500D01*
X107022352Y-171500500D01*
X107224534Y-171468477D01*
X107419219Y-171405220D01*
X107601610Y-171312287D01*
X107694590Y-171244732D01*
X107767213Y-171191971D01*
X107767215Y-171191968D01*
X107767219Y-171191966D01*
X107911966Y-171047219D01*
X107911968Y-171047215D01*
X107911971Y-171047213D01*
X108032284Y-170881614D01*
X108032286Y-170881611D01*
X108032287Y-170881610D01*
X108079516Y-170788917D01*
X108127489Y-170738123D01*
X108195310Y-170721328D01*
X108261445Y-170743865D01*
X108300485Y-170788919D01*
X108347715Y-170881614D01*
X108468028Y-171047213D01*
X108612786Y-171191971D01*
X108733226Y-171279474D01*
X108778390Y-171312287D01*
X108894607Y-171371503D01*
X108960776Y-171405218D01*
X108960778Y-171405218D01*
X108960781Y-171405220D01*
X109065137Y-171439127D01*
X109155465Y-171468477D01*
X109256557Y-171484488D01*
X109357648Y-171500500D01*
X109357649Y-171500500D01*
X109562351Y-171500500D01*
X109562352Y-171500500D01*
X109764534Y-171468477D01*
X109959219Y-171405220D01*
X110141610Y-171312287D01*
X110234590Y-171244732D01*
X110307213Y-171191971D01*
X110307215Y-171191968D01*
X110307219Y-171191966D01*
X110451966Y-171047219D01*
X110451968Y-171047215D01*
X110451971Y-171047213D01*
X110572284Y-170881614D01*
X110572286Y-170881611D01*
X110572287Y-170881610D01*
X110619516Y-170788917D01*
X110667489Y-170738123D01*
X110735310Y-170721328D01*
X110801445Y-170743865D01*
X110840485Y-170788919D01*
X110887715Y-170881614D01*
X111008028Y-171047213D01*
X111152786Y-171191971D01*
X111273226Y-171279474D01*
X111318390Y-171312287D01*
X111434607Y-171371503D01*
X111500776Y-171405218D01*
X111500778Y-171405218D01*
X111500781Y-171405220D01*
X111605137Y-171439127D01*
X111695465Y-171468477D01*
X111796557Y-171484488D01*
X111897648Y-171500500D01*
X111897649Y-171500500D01*
X112102351Y-171500500D01*
X112102352Y-171500500D01*
X112304534Y-171468477D01*
X112499219Y-171405220D01*
X112681610Y-171312287D01*
X112774590Y-171244732D01*
X112847213Y-171191971D01*
X112847215Y-171191968D01*
X112847219Y-171191966D01*
X112991966Y-171047219D01*
X112991968Y-171047215D01*
X112991971Y-171047213D01*
X113112284Y-170881614D01*
X113112286Y-170881611D01*
X113112287Y-170881610D01*
X113159516Y-170788917D01*
X113207489Y-170738123D01*
X113275310Y-170721328D01*
X113341445Y-170743865D01*
X113380485Y-170788919D01*
X113427715Y-170881614D01*
X113548028Y-171047213D01*
X113692786Y-171191971D01*
X113813226Y-171279474D01*
X113858390Y-171312287D01*
X113974607Y-171371503D01*
X114040776Y-171405218D01*
X114040778Y-171405218D01*
X114040781Y-171405220D01*
X114145137Y-171439127D01*
X114235465Y-171468477D01*
X114336557Y-171484488D01*
X114437648Y-171500500D01*
X114437649Y-171500500D01*
X114642351Y-171500500D01*
X114642352Y-171500500D01*
X114844534Y-171468477D01*
X115039219Y-171405220D01*
X115221610Y-171312287D01*
X115314590Y-171244732D01*
X115387213Y-171191971D01*
X115387215Y-171191968D01*
X115387219Y-171191966D01*
X115531966Y-171047219D01*
X115531968Y-171047215D01*
X115531971Y-171047213D01*
X115652284Y-170881614D01*
X115652286Y-170881611D01*
X115652287Y-170881610D01*
X115699516Y-170788917D01*
X115747489Y-170738123D01*
X115815310Y-170721328D01*
X115881445Y-170743865D01*
X115920485Y-170788919D01*
X115967715Y-170881614D01*
X116088028Y-171047213D01*
X116232786Y-171191971D01*
X116353226Y-171279474D01*
X116398390Y-171312287D01*
X116514607Y-171371503D01*
X116580776Y-171405218D01*
X116580778Y-171405218D01*
X116580781Y-171405220D01*
X116685137Y-171439127D01*
X116775465Y-171468477D01*
X116876557Y-171484488D01*
X116977648Y-171500500D01*
X116977649Y-171500500D01*
X117182351Y-171500500D01*
X117182352Y-171500500D01*
X117384534Y-171468477D01*
X117579219Y-171405220D01*
X117761610Y-171312287D01*
X117854590Y-171244732D01*
X117927213Y-171191971D01*
X117927215Y-171191968D01*
X117927219Y-171191966D01*
X118071966Y-171047219D01*
X118071968Y-171047215D01*
X118071971Y-171047213D01*
X118192284Y-170881614D01*
X118192286Y-170881611D01*
X118192287Y-170881610D01*
X118239516Y-170788917D01*
X118287489Y-170738123D01*
X118355310Y-170721328D01*
X118421445Y-170743865D01*
X118460485Y-170788919D01*
X118507715Y-170881614D01*
X118628028Y-171047213D01*
X118772786Y-171191971D01*
X118893226Y-171279474D01*
X118938390Y-171312287D01*
X119054607Y-171371503D01*
X119120776Y-171405218D01*
X119120778Y-171405218D01*
X119120781Y-171405220D01*
X119225137Y-171439127D01*
X119315465Y-171468477D01*
X119416557Y-171484488D01*
X119517648Y-171500500D01*
X119517649Y-171500500D01*
X119722351Y-171500500D01*
X119722352Y-171500500D01*
X119924534Y-171468477D01*
X120119219Y-171405220D01*
X120301610Y-171312287D01*
X120394590Y-171244732D01*
X120467213Y-171191971D01*
X120467215Y-171191968D01*
X120467219Y-171191966D01*
X120611966Y-171047219D01*
X120611968Y-171047215D01*
X120611971Y-171047213D01*
X120732284Y-170881614D01*
X120732286Y-170881611D01*
X120732287Y-170881610D01*
X120779516Y-170788917D01*
X120827489Y-170738123D01*
X120895310Y-170721328D01*
X120961445Y-170743865D01*
X121000485Y-170788919D01*
X121047715Y-170881614D01*
X121168028Y-171047213D01*
X121312786Y-171191971D01*
X121433226Y-171279474D01*
X121478390Y-171312287D01*
X121594607Y-171371503D01*
X121660776Y-171405218D01*
X121660778Y-171405218D01*
X121660781Y-171405220D01*
X121765137Y-171439127D01*
X121855465Y-171468477D01*
X121956557Y-171484488D01*
X122057648Y-171500500D01*
X122057649Y-171500500D01*
X122262351Y-171500500D01*
X122262352Y-171500500D01*
X122464534Y-171468477D01*
X122659219Y-171405220D01*
X122841610Y-171312287D01*
X122934590Y-171244732D01*
X123007213Y-171191971D01*
X123007215Y-171191968D01*
X123007219Y-171191966D01*
X123151966Y-171047219D01*
X123151968Y-171047215D01*
X123151971Y-171047213D01*
X123272284Y-170881614D01*
X123272286Y-170881611D01*
X123272287Y-170881610D01*
X123319516Y-170788917D01*
X123367489Y-170738123D01*
X123435310Y-170721328D01*
X123501445Y-170743865D01*
X123540485Y-170788919D01*
X123587715Y-170881614D01*
X123708028Y-171047213D01*
X123852786Y-171191971D01*
X123973226Y-171279474D01*
X124018390Y-171312287D01*
X124134607Y-171371503D01*
X124200776Y-171405218D01*
X124200778Y-171405218D01*
X124200781Y-171405220D01*
X124305137Y-171439127D01*
X124395465Y-171468477D01*
X124496557Y-171484488D01*
X124597648Y-171500500D01*
X124597649Y-171500500D01*
X124802351Y-171500500D01*
X124802352Y-171500500D01*
X125004534Y-171468477D01*
X125199219Y-171405220D01*
X125381610Y-171312287D01*
X125474590Y-171244732D01*
X125547213Y-171191971D01*
X125547215Y-171191968D01*
X125547219Y-171191966D01*
X125691966Y-171047219D01*
X125691968Y-171047215D01*
X125691971Y-171047213D01*
X125744732Y-170974590D01*
X125812287Y-170881610D01*
X125905220Y-170699219D01*
X125968477Y-170504534D01*
X126000500Y-170302352D01*
X126000500Y-170097648D01*
X125971438Y-169914162D01*
X125968477Y-169895465D01*
X125937426Y-169799901D01*
X125905220Y-169700781D01*
X125897606Y-169685837D01*
X138149500Y-169685837D01*
X138149500Y-169914162D01*
X138185215Y-170139660D01*
X138255770Y-170356803D01*
X138356020Y-170553553D01*
X138359421Y-170560228D01*
X138493621Y-170744937D01*
X138655063Y-170906379D01*
X138839772Y-171040579D01*
X138935884Y-171089550D01*
X139043196Y-171144229D01*
X139043198Y-171144229D01*
X139043201Y-171144231D01*
X139159592Y-171182049D01*
X139260339Y-171214784D01*
X139485838Y-171250500D01*
X139485843Y-171250500D01*
X141014162Y-171250500D01*
X141239660Y-171214784D01*
X141456799Y-171144231D01*
X141660228Y-171040579D01*
X141844937Y-170906379D01*
X142006379Y-170744937D01*
X142140579Y-170560228D01*
X142244231Y-170356799D01*
X142314784Y-170139660D01*
X142321438Y-170097648D01*
X142350500Y-169914162D01*
X142350500Y-169685837D01*
X150649500Y-169685837D01*
X150649500Y-169914162D01*
X150685215Y-170139660D01*
X150755770Y-170356803D01*
X150856020Y-170553553D01*
X150859421Y-170560228D01*
X150993621Y-170744937D01*
X151155063Y-170906379D01*
X151339772Y-171040579D01*
X151435884Y-171089550D01*
X151543196Y-171144229D01*
X151543198Y-171144229D01*
X151543201Y-171144231D01*
X151659592Y-171182049D01*
X151760339Y-171214784D01*
X151985838Y-171250500D01*
X151985843Y-171250500D01*
X153514162Y-171250500D01*
X153739660Y-171214784D01*
X153956799Y-171144231D01*
X154160228Y-171040579D01*
X154344937Y-170906379D01*
X154506379Y-170744937D01*
X154640579Y-170560228D01*
X154744231Y-170356799D01*
X154814784Y-170139660D01*
X154821438Y-170097648D01*
X154850500Y-169914162D01*
X154850500Y-169685837D01*
X154814784Y-169460339D01*
X154744229Y-169243196D01*
X154640578Y-169039771D01*
X154562284Y-168932009D01*
X154506379Y-168855063D01*
X154344937Y-168693621D01*
X154160228Y-168559421D01*
X153956803Y-168455770D01*
X153739660Y-168385215D01*
X153514162Y-168349500D01*
X153514157Y-168349500D01*
X151985843Y-168349500D01*
X151985838Y-168349500D01*
X151760339Y-168385215D01*
X151543196Y-168455770D01*
X151339771Y-168559421D01*
X151155061Y-168693622D01*
X150993622Y-168855061D01*
X150859421Y-169039771D01*
X150755770Y-169243196D01*
X150685215Y-169460339D01*
X150649500Y-169685837D01*
X142350500Y-169685837D01*
X142314784Y-169460339D01*
X142244229Y-169243196D01*
X142140578Y-169039771D01*
X142062284Y-168932009D01*
X142006379Y-168855063D01*
X141844937Y-168693621D01*
X141660228Y-168559421D01*
X141456803Y-168455770D01*
X141239660Y-168385215D01*
X141014162Y-168349500D01*
X141014157Y-168349500D01*
X139485843Y-168349500D01*
X139485838Y-168349500D01*
X139260339Y-168385215D01*
X139043196Y-168455770D01*
X138839771Y-168559421D01*
X138655061Y-168693622D01*
X138493622Y-168855061D01*
X138359421Y-169039771D01*
X138255770Y-169243196D01*
X138185215Y-169460339D01*
X138149500Y-169685837D01*
X125897606Y-169685837D01*
X125812287Y-169518390D01*
X125780092Y-169474077D01*
X125691971Y-169352786D01*
X125547213Y-169208028D01*
X125381613Y-169087715D01*
X125381612Y-169087714D01*
X125381610Y-169087713D01*
X125287519Y-169039771D01*
X125199223Y-168994781D01*
X125004534Y-168931522D01*
X124829995Y-168903878D01*
X124802352Y-168899500D01*
X124597648Y-168899500D01*
X124573329Y-168903351D01*
X124395465Y-168931522D01*
X124200776Y-168994781D01*
X124018386Y-169087715D01*
X123852786Y-169208028D01*
X123708028Y-169352786D01*
X123587715Y-169518386D01*
X123540485Y-169611080D01*
X123492510Y-169661876D01*
X123424689Y-169678671D01*
X123358554Y-169656134D01*
X123319515Y-169611080D01*
X123272420Y-169518652D01*
X123272287Y-169518390D01*
X123240092Y-169474077D01*
X123151971Y-169352786D01*
X123007213Y-169208028D01*
X122841613Y-169087715D01*
X122841612Y-169087714D01*
X122841610Y-169087713D01*
X122747519Y-169039771D01*
X122659223Y-168994781D01*
X122464534Y-168931522D01*
X122289995Y-168903878D01*
X122262352Y-168899500D01*
X122057648Y-168899500D01*
X122033329Y-168903351D01*
X121855465Y-168931522D01*
X121660776Y-168994781D01*
X121478386Y-169087715D01*
X121312786Y-169208028D01*
X121168028Y-169352786D01*
X121047715Y-169518386D01*
X121000485Y-169611080D01*
X120952510Y-169661876D01*
X120884689Y-169678671D01*
X120818554Y-169656134D01*
X120779515Y-169611080D01*
X120732420Y-169518652D01*
X120732287Y-169518390D01*
X120700092Y-169474077D01*
X120611971Y-169352786D01*
X120467213Y-169208028D01*
X120301613Y-169087715D01*
X120301612Y-169087714D01*
X120301610Y-169087713D01*
X120207519Y-169039771D01*
X120119223Y-168994781D01*
X119924534Y-168931522D01*
X119749995Y-168903878D01*
X119722352Y-168899500D01*
X119517648Y-168899500D01*
X119493329Y-168903351D01*
X119315465Y-168931522D01*
X119120776Y-168994781D01*
X118938386Y-169087715D01*
X118772786Y-169208028D01*
X118628028Y-169352786D01*
X118507715Y-169518386D01*
X118460485Y-169611080D01*
X118412510Y-169661876D01*
X118344689Y-169678671D01*
X118278554Y-169656134D01*
X118239515Y-169611080D01*
X118192420Y-169518652D01*
X118192287Y-169518390D01*
X118160092Y-169474077D01*
X118071971Y-169352786D01*
X117927213Y-169208028D01*
X117761613Y-169087715D01*
X117761612Y-169087714D01*
X117761610Y-169087713D01*
X117667519Y-169039771D01*
X117579223Y-168994781D01*
X117384534Y-168931522D01*
X117209995Y-168903878D01*
X117182352Y-168899500D01*
X116977648Y-168899500D01*
X116953329Y-168903351D01*
X116775465Y-168931522D01*
X116580776Y-168994781D01*
X116398386Y-169087715D01*
X116232786Y-169208028D01*
X116088028Y-169352786D01*
X115967715Y-169518386D01*
X115920485Y-169611080D01*
X115872510Y-169661876D01*
X115804689Y-169678671D01*
X115738554Y-169656134D01*
X115699515Y-169611080D01*
X115652420Y-169518652D01*
X115652287Y-169518390D01*
X115620092Y-169474077D01*
X115531971Y-169352786D01*
X115387213Y-169208028D01*
X115221613Y-169087715D01*
X115221612Y-169087714D01*
X115221610Y-169087713D01*
X115127519Y-169039771D01*
X115039223Y-168994781D01*
X114844534Y-168931522D01*
X114669995Y-168903878D01*
X114642352Y-168899500D01*
X114437648Y-168899500D01*
X114413329Y-168903351D01*
X114235465Y-168931522D01*
X114040776Y-168994781D01*
X113858386Y-169087715D01*
X113692786Y-169208028D01*
X113548028Y-169352786D01*
X113427715Y-169518386D01*
X113380485Y-169611080D01*
X113332510Y-169661876D01*
X113264689Y-169678671D01*
X113198554Y-169656134D01*
X113159515Y-169611080D01*
X113112420Y-169518652D01*
X113112287Y-169518390D01*
X113080092Y-169474077D01*
X112991971Y-169352786D01*
X112847213Y-169208028D01*
X112681613Y-169087715D01*
X112681612Y-169087714D01*
X112681610Y-169087713D01*
X112587519Y-169039771D01*
X112499223Y-168994781D01*
X112304534Y-168931522D01*
X112129995Y-168903878D01*
X112102352Y-168899500D01*
X111897648Y-168899500D01*
X111873329Y-168903351D01*
X111695465Y-168931522D01*
X111500776Y-168994781D01*
X111318386Y-169087715D01*
X111152786Y-169208028D01*
X111008028Y-169352786D01*
X110887715Y-169518386D01*
X110840485Y-169611080D01*
X110792510Y-169661876D01*
X110724689Y-169678671D01*
X110658554Y-169656134D01*
X110619515Y-169611080D01*
X110572420Y-169518652D01*
X110572287Y-169518390D01*
X110540092Y-169474077D01*
X110451971Y-169352786D01*
X110307213Y-169208028D01*
X110141613Y-169087715D01*
X110141612Y-169087714D01*
X110141610Y-169087713D01*
X110047519Y-169039771D01*
X109959223Y-168994781D01*
X109764534Y-168931522D01*
X109589995Y-168903878D01*
X109562352Y-168899500D01*
X109357648Y-168899500D01*
X109333329Y-168903351D01*
X109155465Y-168931522D01*
X108960776Y-168994781D01*
X108778386Y-169087715D01*
X108612786Y-169208028D01*
X108468028Y-169352786D01*
X108347715Y-169518386D01*
X108300485Y-169611080D01*
X108252510Y-169661876D01*
X108184689Y-169678671D01*
X108118554Y-169656134D01*
X108079515Y-169611080D01*
X108032420Y-169518652D01*
X108032287Y-169518390D01*
X108000092Y-169474077D01*
X107911971Y-169352786D01*
X107767213Y-169208028D01*
X107601613Y-169087715D01*
X107601612Y-169087714D01*
X107601610Y-169087713D01*
X107507519Y-169039771D01*
X107419223Y-168994781D01*
X107224534Y-168931522D01*
X107049995Y-168903878D01*
X107022352Y-168899500D01*
X106817648Y-168899500D01*
X106793329Y-168903351D01*
X106615465Y-168931522D01*
X106420776Y-168994781D01*
X106238386Y-169087715D01*
X106072786Y-169208028D01*
X105928028Y-169352786D01*
X105807715Y-169518386D01*
X105760485Y-169611080D01*
X105712510Y-169661876D01*
X105644689Y-169678671D01*
X105578554Y-169656134D01*
X105539515Y-169611080D01*
X105492420Y-169518652D01*
X105492287Y-169518390D01*
X105460092Y-169474077D01*
X105371971Y-169352786D01*
X105227213Y-169208028D01*
X105061613Y-169087715D01*
X105061612Y-169087714D01*
X105061610Y-169087713D01*
X104967519Y-169039771D01*
X104879223Y-168994781D01*
X104684534Y-168931522D01*
X104509995Y-168903878D01*
X104482352Y-168899500D01*
X104277648Y-168899500D01*
X104253329Y-168903351D01*
X104075465Y-168931522D01*
X103880776Y-168994781D01*
X103698386Y-169087715D01*
X103532786Y-169208028D01*
X103388028Y-169352786D01*
X103267715Y-169518386D01*
X103220485Y-169611080D01*
X103172510Y-169661876D01*
X103104689Y-169678671D01*
X103038554Y-169656134D01*
X102999515Y-169611080D01*
X102952420Y-169518652D01*
X102952287Y-169518390D01*
X102920092Y-169474077D01*
X102831971Y-169352786D01*
X102687213Y-169208028D01*
X102521613Y-169087715D01*
X102521612Y-169087714D01*
X102521610Y-169087713D01*
X102427519Y-169039771D01*
X102339223Y-168994781D01*
X102144534Y-168931522D01*
X101969995Y-168903878D01*
X101942352Y-168899500D01*
X101737648Y-168899500D01*
X101713329Y-168903351D01*
X101535465Y-168931522D01*
X101340776Y-168994781D01*
X101158386Y-169087715D01*
X100992786Y-169208028D01*
X100848028Y-169352786D01*
X100727713Y-169518388D01*
X100680203Y-169611630D01*
X100632228Y-169662426D01*
X100564407Y-169679220D01*
X100498272Y-169656682D01*
X100459234Y-169611628D01*
X100411861Y-169518652D01*
X100379474Y-169474077D01*
X100379474Y-169474076D01*
X99782962Y-170070589D01*
X99765925Y-170007007D01*
X99700099Y-169892993D01*
X99607007Y-169799901D01*
X99492993Y-169734075D01*
X99429408Y-169717037D01*
X100025922Y-169120524D01*
X100025921Y-169120523D01*
X99981359Y-169088147D01*
X99981350Y-169088141D01*
X99799031Y-168995244D01*
X99604417Y-168932009D01*
X99402317Y-168900000D01*
X99197683Y-168900000D01*
X98995582Y-168932009D01*
X98800968Y-168995244D01*
X98618644Y-169088143D01*
X98574077Y-169120523D01*
X98574077Y-169120524D01*
X99170591Y-169717037D01*
X99107007Y-169734075D01*
X98992993Y-169799901D01*
X98899901Y-169892993D01*
X98834075Y-170007007D01*
X98817037Y-170070590D01*
X98220524Y-169474077D01*
X98220523Y-169474077D01*
X98188143Y-169518644D01*
X98095244Y-169700968D01*
X98032009Y-169895582D01*
X98000000Y-170097682D01*
X55750500Y-170097682D01*
X55750500Y-164685837D01*
X138149500Y-164685837D01*
X138149500Y-164914162D01*
X138185215Y-165139660D01*
X138255770Y-165356803D01*
X138359421Y-165560228D01*
X138493621Y-165744937D01*
X138655063Y-165906379D01*
X138839772Y-166040579D01*
X138935884Y-166089550D01*
X139043196Y-166144229D01*
X139043198Y-166144229D01*
X139043201Y-166144231D01*
X139159592Y-166182049D01*
X139260339Y-166214784D01*
X139485838Y-166250500D01*
X139485843Y-166250500D01*
X141014162Y-166250500D01*
X141239660Y-166214784D01*
X141456799Y-166144231D01*
X141660228Y-166040579D01*
X141844937Y-165906379D01*
X142006379Y-165744937D01*
X142140579Y-165560228D01*
X142244231Y-165356799D01*
X142314784Y-165139660D01*
X142350500Y-164914162D01*
X142350500Y-164685837D01*
X150649500Y-164685837D01*
X150649500Y-164914162D01*
X150685215Y-165139660D01*
X150755770Y-165356803D01*
X150859421Y-165560228D01*
X150993621Y-165744937D01*
X151155063Y-165906379D01*
X151339772Y-166040579D01*
X151435884Y-166089550D01*
X151543196Y-166144229D01*
X151543198Y-166144229D01*
X151543201Y-166144231D01*
X151659592Y-166182049D01*
X151760339Y-166214784D01*
X151985838Y-166250500D01*
X151985843Y-166250500D01*
X153514162Y-166250500D01*
X153739660Y-166214784D01*
X153956799Y-166144231D01*
X154160228Y-166040579D01*
X154344937Y-165906379D01*
X154506379Y-165744937D01*
X154640579Y-165560228D01*
X154744231Y-165356799D01*
X154814784Y-165139660D01*
X154850500Y-164914162D01*
X154850500Y-164685837D01*
X154814784Y-164460339D01*
X154744229Y-164243196D01*
X154640578Y-164039771D01*
X154506379Y-163855063D01*
X154344937Y-163693621D01*
X154160228Y-163559421D01*
X153956803Y-163455770D01*
X153739660Y-163385215D01*
X153514162Y-163349500D01*
X153514157Y-163349500D01*
X151985843Y-163349500D01*
X151985838Y-163349500D01*
X151760339Y-163385215D01*
X151543196Y-163455770D01*
X151339771Y-163559421D01*
X151155061Y-163693622D01*
X150993622Y-163855061D01*
X150859421Y-164039771D01*
X150755770Y-164243196D01*
X150685215Y-164460339D01*
X150649500Y-164685837D01*
X142350500Y-164685837D01*
X142314784Y-164460339D01*
X142244229Y-164243196D01*
X142140578Y-164039771D01*
X142006379Y-163855063D01*
X141844937Y-163693621D01*
X141660228Y-163559421D01*
X141456803Y-163455770D01*
X141239660Y-163385215D01*
X141014162Y-163349500D01*
X141014157Y-163349500D01*
X139485843Y-163349500D01*
X139485838Y-163349500D01*
X139260339Y-163385215D01*
X139043196Y-163455770D01*
X138839771Y-163559421D01*
X138655061Y-163693622D01*
X138493622Y-163855061D01*
X138359421Y-164039771D01*
X138255770Y-164243196D01*
X138185215Y-164460339D01*
X138149500Y-164685837D01*
X55750500Y-164685837D01*
X55750500Y-143397648D01*
X80699500Y-143397648D01*
X80699500Y-143602351D01*
X80731522Y-143804534D01*
X80794781Y-143999223D01*
X80887715Y-144181613D01*
X81008028Y-144347213D01*
X81152786Y-144491971D01*
X81307749Y-144604556D01*
X81318390Y-144612287D01*
X81434607Y-144671503D01*
X81500776Y-144705218D01*
X81500778Y-144705218D01*
X81500781Y-144705220D01*
X81605137Y-144739127D01*
X81695465Y-144768477D01*
X81878878Y-144797527D01*
X81942013Y-144827456D01*
X81978944Y-144886768D01*
X81977946Y-144956630D01*
X81939336Y-145014863D01*
X81878878Y-145042473D01*
X81695465Y-145071522D01*
X81500776Y-145134781D01*
X81318386Y-145227715D01*
X81152786Y-145348028D01*
X81008028Y-145492786D01*
X80887715Y-145658386D01*
X80794781Y-145840776D01*
X80731522Y-146035465D01*
X80699500Y-146237648D01*
X80699500Y-146442351D01*
X80731522Y-146644534D01*
X80794781Y-146839223D01*
X80887715Y-147021613D01*
X81008028Y-147187213D01*
X81152786Y-147331971D01*
X81307749Y-147444556D01*
X81318390Y-147452287D01*
X81409840Y-147498883D01*
X81411080Y-147499515D01*
X81461876Y-147547490D01*
X81478671Y-147615311D01*
X81456134Y-147681446D01*
X81411080Y-147720485D01*
X81318386Y-147767715D01*
X81152786Y-147888028D01*
X81008028Y-148032786D01*
X80887715Y-148198386D01*
X80794781Y-148380776D01*
X80731522Y-148575465D01*
X80699500Y-148777648D01*
X80699500Y-148982351D01*
X80731522Y-149184534D01*
X80794781Y-149379223D01*
X80887715Y-149561613D01*
X81008028Y-149727213D01*
X81152786Y-149871971D01*
X81307749Y-149984556D01*
X81318390Y-149992287D01*
X81409840Y-150038883D01*
X81411080Y-150039515D01*
X81461876Y-150087490D01*
X81478671Y-150155311D01*
X81456134Y-150221446D01*
X81411080Y-150260485D01*
X81318386Y-150307715D01*
X81152786Y-150428028D01*
X81008028Y-150572786D01*
X80887715Y-150738386D01*
X80794781Y-150920776D01*
X80731522Y-151115465D01*
X80699500Y-151317648D01*
X80699500Y-151522351D01*
X80731522Y-151724534D01*
X80794781Y-151919223D01*
X80887715Y-152101613D01*
X81008028Y-152267213D01*
X81152786Y-152411971D01*
X81307749Y-152524556D01*
X81318390Y-152532287D01*
X81409840Y-152578883D01*
X81411080Y-152579515D01*
X81461876Y-152627490D01*
X81478671Y-152695311D01*
X81456134Y-152761446D01*
X81411080Y-152800485D01*
X81318386Y-152847715D01*
X81152786Y-152968028D01*
X81008028Y-153112786D01*
X80887715Y-153278386D01*
X80794781Y-153460776D01*
X80731522Y-153655465D01*
X80699500Y-153857648D01*
X80699500Y-154062351D01*
X80731522Y-154264534D01*
X80794781Y-154459223D01*
X80887715Y-154641613D01*
X81008028Y-154807213D01*
X81152786Y-154951971D01*
X81232972Y-155010228D01*
X81318390Y-155072287D01*
X81409840Y-155118883D01*
X81411080Y-155119515D01*
X81461876Y-155167490D01*
X81478671Y-155235311D01*
X81456134Y-155301446D01*
X81411080Y-155340485D01*
X81318386Y-155387715D01*
X81152786Y-155508028D01*
X81008028Y-155652786D01*
X80887715Y-155818386D01*
X80794781Y-156000776D01*
X80731522Y-156195465D01*
X80699500Y-156397648D01*
X80699500Y-156602351D01*
X80731522Y-156804534D01*
X80794781Y-156999223D01*
X80887715Y-157181613D01*
X81008028Y-157347213D01*
X81152786Y-157491971D01*
X81307749Y-157604556D01*
X81318390Y-157612287D01*
X81409840Y-157658883D01*
X81411080Y-157659515D01*
X81461876Y-157707490D01*
X81478671Y-157775311D01*
X81456134Y-157841446D01*
X81411080Y-157880485D01*
X81318386Y-157927715D01*
X81152786Y-158048028D01*
X81008028Y-158192786D01*
X80887715Y-158358386D01*
X80794781Y-158540776D01*
X80731522Y-158735465D01*
X80699500Y-158937648D01*
X80699500Y-159142351D01*
X80731522Y-159344534D01*
X80794781Y-159539223D01*
X80887715Y-159721613D01*
X81008028Y-159887213D01*
X81152786Y-160031971D01*
X81307749Y-160144556D01*
X81318390Y-160152287D01*
X81409840Y-160198883D01*
X81411080Y-160199515D01*
X81461876Y-160247490D01*
X81478671Y-160315311D01*
X81456134Y-160381446D01*
X81411080Y-160420485D01*
X81318386Y-160467715D01*
X81152786Y-160588028D01*
X81008028Y-160732786D01*
X80887715Y-160898386D01*
X80794781Y-161080776D01*
X80731522Y-161275465D01*
X80699500Y-161477648D01*
X80699500Y-161682351D01*
X80731522Y-161884534D01*
X80794781Y-162079223D01*
X80887715Y-162261613D01*
X81008028Y-162427213D01*
X81152786Y-162571971D01*
X81307749Y-162684556D01*
X81318390Y-162692287D01*
X81434607Y-162751503D01*
X81500776Y-162785218D01*
X81500778Y-162785218D01*
X81500781Y-162785220D01*
X81605137Y-162819127D01*
X81695465Y-162848477D01*
X81796557Y-162864488D01*
X81897648Y-162880500D01*
X81897649Y-162880500D01*
X82102351Y-162880500D01*
X82102352Y-162880500D01*
X82304534Y-162848477D01*
X82499219Y-162785220D01*
X82681610Y-162692287D01*
X82774590Y-162624732D01*
X82847213Y-162571971D01*
X82847215Y-162571968D01*
X82847219Y-162571966D01*
X82991966Y-162427219D01*
X82991968Y-162427215D01*
X82991971Y-162427213D01*
X83044732Y-162354590D01*
X83112287Y-162261610D01*
X83205220Y-162079219D01*
X83268477Y-161884534D01*
X83300500Y-161682352D01*
X83300500Y-161477648D01*
X83268477Y-161275466D01*
X83205220Y-161080781D01*
X83205218Y-161080778D01*
X83205218Y-161080776D01*
X83171503Y-161014607D01*
X83112287Y-160898390D01*
X83104556Y-160887749D01*
X82991971Y-160732786D01*
X82847213Y-160588028D01*
X82681614Y-160467715D01*
X82675006Y-160464348D01*
X82588917Y-160420483D01*
X82538123Y-160372511D01*
X82521328Y-160304690D01*
X82543865Y-160238555D01*
X82588917Y-160199516D01*
X82681610Y-160152287D01*
X82702770Y-160136913D01*
X82847213Y-160031971D01*
X82847215Y-160031968D01*
X82847219Y-160031966D01*
X82991966Y-159887219D01*
X82991968Y-159887215D01*
X82991971Y-159887213D01*
X83044732Y-159814590D01*
X83112287Y-159721610D01*
X83205220Y-159539219D01*
X83268477Y-159344534D01*
X83300500Y-159142352D01*
X83300500Y-158937648D01*
X83268477Y-158735466D01*
X83205220Y-158540781D01*
X83205218Y-158540778D01*
X83205218Y-158540776D01*
X83171503Y-158474607D01*
X83112287Y-158358390D01*
X83104556Y-158347749D01*
X82991971Y-158192786D01*
X82847213Y-158048028D01*
X82681614Y-157927715D01*
X82675006Y-157924348D01*
X82588917Y-157880483D01*
X82538123Y-157832511D01*
X82521328Y-157764690D01*
X82543865Y-157698555D01*
X82588917Y-157659516D01*
X82681610Y-157612287D01*
X82702770Y-157596913D01*
X82847213Y-157491971D01*
X82847215Y-157491968D01*
X82847219Y-157491966D01*
X82991966Y-157347219D01*
X82991968Y-157347215D01*
X82991971Y-157347213D01*
X83044732Y-157274590D01*
X83112287Y-157181610D01*
X83205220Y-156999219D01*
X83268477Y-156804534D01*
X83300500Y-156602352D01*
X83300500Y-156397648D01*
X83268477Y-156195466D01*
X83205220Y-156000781D01*
X83205218Y-156000778D01*
X83205218Y-156000776D01*
X83171503Y-155934607D01*
X83112287Y-155818390D01*
X83104556Y-155807749D01*
X82991971Y-155652786D01*
X82847213Y-155508028D01*
X82681614Y-155387715D01*
X82675006Y-155384348D01*
X82588917Y-155340483D01*
X82538123Y-155292511D01*
X82521328Y-155224690D01*
X82543865Y-155158555D01*
X82588917Y-155119516D01*
X82681610Y-155072287D01*
X82767028Y-155010228D01*
X82847213Y-154951971D01*
X82847215Y-154951968D01*
X82847219Y-154951966D01*
X82991966Y-154807219D01*
X82991968Y-154807215D01*
X82991971Y-154807213D01*
X83044732Y-154734590D01*
X83112287Y-154641610D01*
X83205220Y-154459219D01*
X83268477Y-154264534D01*
X83288861Y-154135837D01*
X138149500Y-154135837D01*
X138149500Y-154364162D01*
X138185215Y-154589660D01*
X138255770Y-154806803D01*
X138359421Y-155010228D01*
X138493621Y-155194937D01*
X138655063Y-155356379D01*
X138839772Y-155490579D01*
X138935884Y-155539550D01*
X139043196Y-155594229D01*
X139043198Y-155594229D01*
X139043201Y-155594231D01*
X139159592Y-155632049D01*
X139260339Y-155664784D01*
X139485838Y-155700500D01*
X139485843Y-155700500D01*
X141014162Y-155700500D01*
X141239660Y-155664784D01*
X141276601Y-155652781D01*
X141456799Y-155594231D01*
X141660228Y-155490579D01*
X141844937Y-155356379D01*
X142006379Y-155194937D01*
X142140579Y-155010228D01*
X142244231Y-154806799D01*
X142314784Y-154589660D01*
X142350500Y-154364162D01*
X142350500Y-154135837D01*
X150649500Y-154135837D01*
X150649500Y-154364162D01*
X150685215Y-154589660D01*
X150755770Y-154806803D01*
X150859421Y-155010228D01*
X150993621Y-155194937D01*
X151155063Y-155356379D01*
X151339772Y-155490579D01*
X151435884Y-155539550D01*
X151543196Y-155594229D01*
X151543198Y-155594229D01*
X151543201Y-155594231D01*
X151659592Y-155632049D01*
X151760339Y-155664784D01*
X151985838Y-155700500D01*
X151985843Y-155700500D01*
X153514162Y-155700500D01*
X153739660Y-155664784D01*
X153776601Y-155652781D01*
X153956799Y-155594231D01*
X154160228Y-155490579D01*
X154344937Y-155356379D01*
X154506379Y-155194937D01*
X154640579Y-155010228D01*
X154744231Y-154806799D01*
X154814784Y-154589660D01*
X154850500Y-154364162D01*
X154850500Y-154135837D01*
X154814784Y-153910339D01*
X154744229Y-153693196D01*
X154640578Y-153489771D01*
X154506379Y-153305063D01*
X154344937Y-153143621D01*
X154160228Y-153009421D01*
X153956803Y-152905770D01*
X153739660Y-152835215D01*
X153514162Y-152799500D01*
X153514157Y-152799500D01*
X151985843Y-152799500D01*
X151985838Y-152799500D01*
X151760339Y-152835215D01*
X151543196Y-152905770D01*
X151339771Y-153009421D01*
X151155061Y-153143622D01*
X150993622Y-153305061D01*
X150859421Y-153489771D01*
X150755770Y-153693196D01*
X150685215Y-153910339D01*
X150649500Y-154135837D01*
X142350500Y-154135837D01*
X142314784Y-153910339D01*
X142244229Y-153693196D01*
X142140578Y-153489771D01*
X142006379Y-153305063D01*
X141844937Y-153143621D01*
X141660228Y-153009421D01*
X141456803Y-152905770D01*
X141239660Y-152835215D01*
X141014162Y-152799500D01*
X141014157Y-152799500D01*
X139485843Y-152799500D01*
X139485838Y-152799500D01*
X139260339Y-152835215D01*
X139043196Y-152905770D01*
X138839771Y-153009421D01*
X138655061Y-153143622D01*
X138493622Y-153305061D01*
X138359421Y-153489771D01*
X138255770Y-153693196D01*
X138185215Y-153910339D01*
X138149500Y-154135837D01*
X83288861Y-154135837D01*
X83300500Y-154062352D01*
X83300500Y-153857648D01*
X83268477Y-153655466D01*
X83205220Y-153460781D01*
X83205218Y-153460778D01*
X83205218Y-153460776D01*
X83171503Y-153394607D01*
X83112287Y-153278390D01*
X83104556Y-153267749D01*
X82991971Y-153112786D01*
X82847213Y-152968028D01*
X82681614Y-152847715D01*
X82657081Y-152835215D01*
X82588917Y-152800483D01*
X82538123Y-152752511D01*
X82521328Y-152684690D01*
X82543865Y-152618555D01*
X82588917Y-152579516D01*
X82681610Y-152532287D01*
X82702770Y-152516913D01*
X82847213Y-152411971D01*
X82847215Y-152411968D01*
X82847219Y-152411966D01*
X82991966Y-152267219D01*
X82991968Y-152267215D01*
X82991971Y-152267213D01*
X83044732Y-152194590D01*
X83112287Y-152101610D01*
X83205220Y-151919219D01*
X83268477Y-151724534D01*
X83300500Y-151522352D01*
X83300500Y-151317648D01*
X83268477Y-151115466D01*
X83205220Y-150920781D01*
X83205218Y-150920778D01*
X83205218Y-150920776D01*
X83171503Y-150854607D01*
X83112287Y-150738390D01*
X83058810Y-150664784D01*
X82991971Y-150572786D01*
X82847213Y-150428028D01*
X82681614Y-150307715D01*
X82675006Y-150304348D01*
X82588917Y-150260483D01*
X82538123Y-150212511D01*
X82521328Y-150144690D01*
X82543865Y-150078555D01*
X82588917Y-150039516D01*
X82681610Y-149992287D01*
X82702770Y-149976913D01*
X82847213Y-149871971D01*
X82847215Y-149871968D01*
X82847219Y-149871966D01*
X82991966Y-149727219D01*
X82991968Y-149727215D01*
X82991971Y-149727213D01*
X83044732Y-149654590D01*
X83112287Y-149561610D01*
X83205220Y-149379219D01*
X83268477Y-149184534D01*
X83276190Y-149135837D01*
X138149500Y-149135837D01*
X138149500Y-149364162D01*
X138185215Y-149589660D01*
X138255770Y-149806803D01*
X138350278Y-149992284D01*
X138359421Y-150010228D01*
X138493621Y-150194937D01*
X138655063Y-150356379D01*
X138839772Y-150490579D01*
X138935884Y-150539550D01*
X139043196Y-150594229D01*
X139043198Y-150594229D01*
X139043201Y-150594231D01*
X139159592Y-150632049D01*
X139260339Y-150664784D01*
X139485838Y-150700500D01*
X139485843Y-150700500D01*
X141014162Y-150700500D01*
X141239660Y-150664784D01*
X141456799Y-150594231D01*
X141660228Y-150490579D01*
X141844937Y-150356379D01*
X142006379Y-150194937D01*
X142140579Y-150010228D01*
X142244231Y-149806799D01*
X142314784Y-149589660D01*
X142319227Y-149561610D01*
X142350500Y-149364162D01*
X142350500Y-149135837D01*
X150649500Y-149135837D01*
X150649500Y-149364162D01*
X150685215Y-149589660D01*
X150755770Y-149806803D01*
X150850278Y-149992284D01*
X150859421Y-150010228D01*
X150993621Y-150194937D01*
X151155063Y-150356379D01*
X151339772Y-150490579D01*
X151435884Y-150539550D01*
X151543196Y-150594229D01*
X151543198Y-150594229D01*
X151543201Y-150594231D01*
X151659592Y-150632049D01*
X151760339Y-150664784D01*
X151985838Y-150700500D01*
X151985843Y-150700500D01*
X153514162Y-150700500D01*
X153739660Y-150664784D01*
X153956799Y-150594231D01*
X154160228Y-150490579D01*
X154344937Y-150356379D01*
X154506379Y-150194937D01*
X154640579Y-150010228D01*
X154744231Y-149806799D01*
X154814784Y-149589660D01*
X154819227Y-149561610D01*
X154850500Y-149364162D01*
X154850500Y-149135837D01*
X154814784Y-148910339D01*
X154782049Y-148809592D01*
X154744231Y-148693201D01*
X154744229Y-148693198D01*
X154744229Y-148693196D01*
X154640578Y-148489771D01*
X154506379Y-148305063D01*
X154344937Y-148143621D01*
X154160228Y-148009421D01*
X153956803Y-147905770D01*
X153739660Y-147835215D01*
X153514162Y-147799500D01*
X153514157Y-147799500D01*
X151985843Y-147799500D01*
X151985838Y-147799500D01*
X151760339Y-147835215D01*
X151543196Y-147905770D01*
X151339771Y-148009421D01*
X151155061Y-148143622D01*
X150993622Y-148305061D01*
X150859421Y-148489771D01*
X150755770Y-148693196D01*
X150685215Y-148910339D01*
X150649500Y-149135837D01*
X142350500Y-149135837D01*
X142314784Y-148910339D01*
X142282049Y-148809592D01*
X142244231Y-148693201D01*
X142244229Y-148693198D01*
X142244229Y-148693196D01*
X142140578Y-148489771D01*
X142006379Y-148305063D01*
X141844937Y-148143621D01*
X141660228Y-148009421D01*
X141456803Y-147905770D01*
X141239660Y-147835215D01*
X141014162Y-147799500D01*
X141014157Y-147799500D01*
X139485843Y-147799500D01*
X139485838Y-147799500D01*
X139260339Y-147835215D01*
X139043196Y-147905770D01*
X138839771Y-148009421D01*
X138655061Y-148143622D01*
X138493622Y-148305061D01*
X138359421Y-148489771D01*
X138255770Y-148693196D01*
X138185215Y-148910339D01*
X138149500Y-149135837D01*
X83276190Y-149135837D01*
X83300500Y-148982352D01*
X83300500Y-148777648D01*
X83268477Y-148575466D01*
X83205220Y-148380781D01*
X83205218Y-148380778D01*
X83205218Y-148380776D01*
X83166639Y-148305061D01*
X83112287Y-148198390D01*
X83072496Y-148143622D01*
X82991971Y-148032786D01*
X82847213Y-147888028D01*
X82681614Y-147767715D01*
X82675006Y-147764348D01*
X82588917Y-147720483D01*
X82538123Y-147672511D01*
X82521328Y-147604690D01*
X82543865Y-147538555D01*
X82588917Y-147499516D01*
X82681610Y-147452287D01*
X82702770Y-147436913D01*
X82847213Y-147331971D01*
X82847215Y-147331968D01*
X82847219Y-147331966D01*
X82991966Y-147187219D01*
X82991968Y-147187215D01*
X82991971Y-147187213D01*
X83044732Y-147114590D01*
X83112287Y-147021610D01*
X83205220Y-146839219D01*
X83268477Y-146644534D01*
X83300500Y-146442352D01*
X83300500Y-146237648D01*
X83268477Y-146035466D01*
X83205220Y-145840781D01*
X83205218Y-145840778D01*
X83205218Y-145840776D01*
X83171503Y-145774607D01*
X83112287Y-145658390D01*
X83104556Y-145647749D01*
X82991971Y-145492786D01*
X82847213Y-145348028D01*
X82681613Y-145227715D01*
X82681612Y-145227714D01*
X82681610Y-145227713D01*
X82624653Y-145198691D01*
X82499223Y-145134781D01*
X82304534Y-145071522D01*
X82155953Y-145047989D01*
X82121120Y-145042472D01*
X82057986Y-145012544D01*
X82021055Y-144953232D01*
X82022053Y-144883370D01*
X82060663Y-144825137D01*
X82121120Y-144797527D01*
X82304534Y-144768477D01*
X82499219Y-144705220D01*
X82681610Y-144612287D01*
X82774590Y-144544732D01*
X82847213Y-144491971D01*
X82847215Y-144491968D01*
X82847219Y-144491966D01*
X82991966Y-144347219D01*
X82991968Y-144347215D01*
X82991971Y-144347213D01*
X83044732Y-144274590D01*
X83112287Y-144181610D01*
X83205220Y-143999219D01*
X83268477Y-143804534D01*
X83300500Y-143602352D01*
X83300500Y-143397648D01*
X83268477Y-143195466D01*
X83205220Y-143000781D01*
X83205218Y-143000778D01*
X83205218Y-143000776D01*
X83171503Y-142934607D01*
X83112287Y-142818390D01*
X83104556Y-142807749D01*
X82991971Y-142652786D01*
X82847213Y-142508028D01*
X82681613Y-142387715D01*
X82681612Y-142387714D01*
X82681610Y-142387713D01*
X82624653Y-142358691D01*
X82499223Y-142294781D01*
X82304534Y-142231522D01*
X82129995Y-142203878D01*
X82102352Y-142199500D01*
X81897648Y-142199500D01*
X81873329Y-142203351D01*
X81695465Y-142231522D01*
X81500776Y-142294781D01*
X81318386Y-142387715D01*
X81152786Y-142508028D01*
X81008028Y-142652786D01*
X80887715Y-142818386D01*
X80794781Y-143000776D01*
X80731522Y-143195465D01*
X80699500Y-143397648D01*
X55750500Y-143397648D01*
X55750500Y-135953389D01*
X140609500Y-135953389D01*
X140609500Y-136126611D01*
X140636598Y-136297701D01*
X140690127Y-136462445D01*
X140768768Y-136616788D01*
X140870586Y-136756928D01*
X140993072Y-136879414D01*
X141133212Y-136981232D01*
X141287555Y-137059873D01*
X141452299Y-137113402D01*
X141623389Y-137140500D01*
X141623390Y-137140500D01*
X141796610Y-137140500D01*
X141796611Y-137140500D01*
X141967701Y-137113402D01*
X142132445Y-137059873D01*
X142286788Y-136981232D01*
X142426928Y-136879414D01*
X142549414Y-136756928D01*
X142651232Y-136616788D01*
X142729873Y-136462445D01*
X142783402Y-136297701D01*
X142810500Y-136126611D01*
X142810500Y-135953389D01*
X143149500Y-135953389D01*
X143149500Y-136126611D01*
X143176598Y-136297701D01*
X143230127Y-136462445D01*
X143308768Y-136616788D01*
X143410586Y-136756928D01*
X143533072Y-136879414D01*
X143673212Y-136981232D01*
X143827555Y-137059873D01*
X143992299Y-137113402D01*
X144163389Y-137140500D01*
X144163390Y-137140500D01*
X144336610Y-137140500D01*
X144336611Y-137140500D01*
X144507701Y-137113402D01*
X144672445Y-137059873D01*
X144826788Y-136981232D01*
X144966928Y-136879414D01*
X145089414Y-136756928D01*
X145191232Y-136616788D01*
X145269873Y-136462445D01*
X145323402Y-136297701D01*
X145350500Y-136126611D01*
X145350500Y-135953389D01*
X145689500Y-135953389D01*
X145689500Y-136126611D01*
X145716598Y-136297701D01*
X145770127Y-136462445D01*
X145848768Y-136616788D01*
X145950586Y-136756928D01*
X146073072Y-136879414D01*
X146213212Y-136981232D01*
X146367555Y-137059873D01*
X146532299Y-137113402D01*
X146703389Y-137140500D01*
X146703390Y-137140500D01*
X146876610Y-137140500D01*
X146876611Y-137140500D01*
X147047701Y-137113402D01*
X147212445Y-137059873D01*
X147366788Y-136981232D01*
X147506928Y-136879414D01*
X147629414Y-136756928D01*
X147731232Y-136616788D01*
X147809873Y-136462445D01*
X147863402Y-136297701D01*
X147890500Y-136126611D01*
X147890500Y-135953389D01*
X147863402Y-135782299D01*
X147809873Y-135617555D01*
X147731232Y-135463212D01*
X147629414Y-135323072D01*
X147506928Y-135200586D01*
X147366788Y-135098768D01*
X147212445Y-135020127D01*
X147047701Y-134966598D01*
X147047699Y-134966597D01*
X147047698Y-134966597D01*
X146916271Y-134945781D01*
X146876611Y-134939500D01*
X146703389Y-134939500D01*
X146663728Y-134945781D01*
X146532302Y-134966597D01*
X146367552Y-135020128D01*
X146213211Y-135098768D01*
X146133256Y-135156859D01*
X146073072Y-135200586D01*
X146073070Y-135200588D01*
X146073069Y-135200588D01*
X145950588Y-135323069D01*
X145950588Y-135323070D01*
X145950586Y-135323072D01*
X145906859Y-135383256D01*
X145848768Y-135463211D01*
X145770128Y-135617552D01*
X145716597Y-135782302D01*
X145689500Y-135953389D01*
X145350500Y-135953389D01*
X145323402Y-135782299D01*
X145269873Y-135617555D01*
X145191232Y-135463212D01*
X145089414Y-135323072D01*
X144966928Y-135200586D01*
X144826788Y-135098768D01*
X144672445Y-135020127D01*
X144507701Y-134966598D01*
X144507699Y-134966597D01*
X144507698Y-134966597D01*
X144376271Y-134945781D01*
X144336611Y-134939500D01*
X144163389Y-134939500D01*
X144123728Y-134945781D01*
X143992302Y-134966597D01*
X143827552Y-135020128D01*
X143673211Y-135098768D01*
X143593256Y-135156859D01*
X143533072Y-135200586D01*
X143533070Y-135200588D01*
X143533069Y-135200588D01*
X143410588Y-135323069D01*
X143410588Y-135323070D01*
X143410586Y-135323072D01*
X143366859Y-135383256D01*
X143308768Y-135463211D01*
X143230128Y-135617552D01*
X143176597Y-135782302D01*
X143149500Y-135953389D01*
X142810500Y-135953389D01*
X142783402Y-135782299D01*
X142729873Y-135617555D01*
X142651232Y-135463212D01*
X142549414Y-135323072D01*
X142426928Y-135200586D01*
X142286788Y-135098768D01*
X142132445Y-135020127D01*
X141967701Y-134966598D01*
X141967699Y-134966597D01*
X141967698Y-134966597D01*
X141836271Y-134945781D01*
X141796611Y-134939500D01*
X141623389Y-134939500D01*
X141583728Y-134945781D01*
X141452302Y-134966597D01*
X141287552Y-135020128D01*
X141133211Y-135098768D01*
X141053256Y-135156859D01*
X140993072Y-135200586D01*
X140993070Y-135200588D01*
X140993069Y-135200588D01*
X140870588Y-135323069D01*
X140870588Y-135323070D01*
X140870586Y-135323072D01*
X140826859Y-135383256D01*
X140768768Y-135463211D01*
X140690128Y-135617552D01*
X140636597Y-135782302D01*
X140609500Y-135953389D01*
X55750500Y-135953389D01*
X55750500Y-132852135D01*
X140609500Y-132852135D01*
X140609500Y-134147870D01*
X140609501Y-134147876D01*
X140615908Y-134207483D01*
X140666202Y-134342328D01*
X140666206Y-134342335D01*
X140752452Y-134457544D01*
X140752455Y-134457547D01*
X140867664Y-134543793D01*
X140867671Y-134543797D01*
X141002517Y-134594091D01*
X141002516Y-134594091D01*
X141009444Y-134594835D01*
X141062127Y-134600500D01*
X142357872Y-134600499D01*
X142417483Y-134594091D01*
X142552331Y-134543796D01*
X142667546Y-134457546D01*
X142753796Y-134342331D01*
X142804091Y-134207483D01*
X142810500Y-134147873D01*
X142810499Y-133413389D01*
X143149500Y-133413389D01*
X143149500Y-133586611D01*
X143176598Y-133757701D01*
X143230127Y-133922445D01*
X143308768Y-134076788D01*
X143410586Y-134216928D01*
X143533072Y-134339414D01*
X143673212Y-134441232D01*
X143827555Y-134519873D01*
X143992299Y-134573402D01*
X144163389Y-134600500D01*
X144163390Y-134600500D01*
X144336610Y-134600500D01*
X144336611Y-134600500D01*
X144507701Y-134573402D01*
X144672445Y-134519873D01*
X144826788Y-134441232D01*
X144966928Y-134339414D01*
X145089414Y-134216928D01*
X145191232Y-134076788D01*
X145269873Y-133922445D01*
X145323402Y-133757701D01*
X145350500Y-133586611D01*
X145350500Y-133413389D01*
X145689500Y-133413389D01*
X145689500Y-133586611D01*
X145716598Y-133757701D01*
X145770127Y-133922445D01*
X145848768Y-134076788D01*
X145950586Y-134216928D01*
X146073072Y-134339414D01*
X146213212Y-134441232D01*
X146367555Y-134519873D01*
X146532299Y-134573402D01*
X146703389Y-134600500D01*
X146703390Y-134600500D01*
X146876610Y-134600500D01*
X146876611Y-134600500D01*
X147047701Y-134573402D01*
X147212445Y-134519873D01*
X147366788Y-134441232D01*
X147506928Y-134339414D01*
X147629414Y-134216928D01*
X147731232Y-134076788D01*
X147809873Y-133922445D01*
X147863402Y-133757701D01*
X147890500Y-133586611D01*
X147890500Y-133413389D01*
X147863402Y-133242299D01*
X147809873Y-133077555D01*
X147731232Y-132923212D01*
X147629414Y-132783072D01*
X147506928Y-132660586D01*
X147366788Y-132558768D01*
X147212445Y-132480127D01*
X147047701Y-132426598D01*
X147047699Y-132426597D01*
X147047698Y-132426597D01*
X146916271Y-132405781D01*
X146876611Y-132399500D01*
X146703389Y-132399500D01*
X146663728Y-132405781D01*
X146532302Y-132426597D01*
X146367552Y-132480128D01*
X146213211Y-132558768D01*
X146158557Y-132598477D01*
X146073072Y-132660586D01*
X146073070Y-132660588D01*
X146073069Y-132660588D01*
X145950588Y-132783069D01*
X145950588Y-132783070D01*
X145950586Y-132783072D01*
X145943725Y-132792516D01*
X145848768Y-132923211D01*
X145770128Y-133077552D01*
X145716597Y-133242302D01*
X145689500Y-133413389D01*
X145350500Y-133413389D01*
X145323402Y-133242299D01*
X145269873Y-133077555D01*
X145191232Y-132923212D01*
X145089414Y-132783072D01*
X144966928Y-132660586D01*
X144826788Y-132558768D01*
X144672445Y-132480127D01*
X144507701Y-132426598D01*
X144507699Y-132426597D01*
X144507698Y-132426597D01*
X144376271Y-132405781D01*
X144336611Y-132399500D01*
X144163389Y-132399500D01*
X144123728Y-132405781D01*
X143992302Y-132426597D01*
X143827552Y-132480128D01*
X143673211Y-132558768D01*
X143618557Y-132598477D01*
X143533072Y-132660586D01*
X143533070Y-132660588D01*
X143533069Y-132660588D01*
X143410588Y-132783069D01*
X143410588Y-132783070D01*
X143410586Y-132783072D01*
X143403725Y-132792516D01*
X143308768Y-132923211D01*
X143230128Y-133077552D01*
X143176597Y-133242302D01*
X143149500Y-133413389D01*
X142810499Y-133413389D01*
X142810499Y-132852128D01*
X142804091Y-132792517D01*
X142800568Y-132783072D01*
X142753797Y-132657671D01*
X142753793Y-132657664D01*
X142667547Y-132542455D01*
X142667544Y-132542452D01*
X142552335Y-132456206D01*
X142552328Y-132456202D01*
X142417482Y-132405908D01*
X142417483Y-132405908D01*
X142357883Y-132399501D01*
X142357881Y-132399500D01*
X142357873Y-132399500D01*
X142357864Y-132399500D01*
X141062129Y-132399500D01*
X141062123Y-132399501D01*
X141002516Y-132405908D01*
X140867671Y-132456202D01*
X140867664Y-132456206D01*
X140752455Y-132542452D01*
X140752452Y-132542455D01*
X140666206Y-132657664D01*
X140666202Y-132657671D01*
X140615908Y-132792517D01*
X140609501Y-132852116D01*
X140609501Y-132852123D01*
X140609500Y-132852135D01*
X55750500Y-132852135D01*
X55750500Y-126147648D01*
X59449500Y-126147648D01*
X59449500Y-126352351D01*
X59481522Y-126554534D01*
X59544781Y-126749223D01*
X59637715Y-126931613D01*
X59758028Y-127097213D01*
X59902786Y-127241971D01*
X60005463Y-127316569D01*
X60048129Y-127371898D01*
X60054108Y-127441512D01*
X60021503Y-127503307D01*
X59960664Y-127537664D01*
X59945833Y-127540177D01*
X59892516Y-127545909D01*
X59757671Y-127596202D01*
X59757664Y-127596206D01*
X59642455Y-127682452D01*
X59642452Y-127682455D01*
X59556206Y-127797664D01*
X59556202Y-127797671D01*
X59505908Y-127932517D01*
X59499501Y-127992116D01*
X59499501Y-127992123D01*
X59499500Y-127992135D01*
X59499500Y-129587870D01*
X59499501Y-129587876D01*
X59505908Y-129647483D01*
X59556202Y-129782328D01*
X59556206Y-129782335D01*
X59642452Y-129897544D01*
X59642455Y-129897547D01*
X59757664Y-129983793D01*
X59757671Y-129983797D01*
X59802618Y-130000561D01*
X59892517Y-130034091D01*
X59945835Y-130039823D01*
X60010384Y-130066560D01*
X60050232Y-130123952D01*
X60052726Y-130193777D01*
X60017074Y-130253867D01*
X60005463Y-130263430D01*
X59902787Y-130338028D01*
X59902782Y-130338032D01*
X59758028Y-130482786D01*
X59637715Y-130648386D01*
X59544781Y-130830776D01*
X59481522Y-131025465D01*
X59449500Y-131227648D01*
X59449500Y-131432351D01*
X59481522Y-131634534D01*
X59544781Y-131829223D01*
X59637715Y-132011613D01*
X59758028Y-132177213D01*
X59902786Y-132321971D01*
X60046794Y-132426597D01*
X60068390Y-132442287D01*
X60184607Y-132501503D01*
X60250776Y-132535218D01*
X60250778Y-132535218D01*
X60250781Y-132535220D01*
X60355137Y-132569127D01*
X60445465Y-132598477D01*
X60546557Y-132614488D01*
X60647648Y-132630500D01*
X60647649Y-132630500D01*
X60852351Y-132630500D01*
X60852352Y-132630500D01*
X61054534Y-132598477D01*
X61249219Y-132535220D01*
X61431610Y-132442287D01*
X61524590Y-132374732D01*
X61597213Y-132321971D01*
X61597215Y-132321968D01*
X61597219Y-132321966D01*
X61741966Y-132177219D01*
X61741968Y-132177215D01*
X61741971Y-132177213D01*
X61794732Y-132104590D01*
X61862287Y-132011610D01*
X61955220Y-131829219D01*
X62018477Y-131634534D01*
X62050500Y-131432352D01*
X62050500Y-131227648D01*
X62018477Y-131025466D01*
X61955220Y-130830781D01*
X61955218Y-130830778D01*
X61955218Y-130830776D01*
X61921503Y-130764607D01*
X61862287Y-130648390D01*
X61854556Y-130637749D01*
X61741971Y-130482786D01*
X61597217Y-130338032D01*
X61597212Y-130338028D01*
X61494536Y-130263430D01*
X61451870Y-130208101D01*
X61445891Y-130138487D01*
X61478496Y-130076692D01*
X61539335Y-130042335D01*
X61554164Y-130039822D01*
X61607483Y-130034091D01*
X61742331Y-129983796D01*
X61857546Y-129897546D01*
X61943796Y-129782331D01*
X61994091Y-129647483D01*
X62000500Y-129587873D01*
X62000499Y-127992128D01*
X61994091Y-127932517D01*
X61943796Y-127797669D01*
X61943795Y-127797668D01*
X61943793Y-127797664D01*
X61857547Y-127682455D01*
X61857544Y-127682452D01*
X61742335Y-127596206D01*
X61742328Y-127596202D01*
X61607482Y-127545908D01*
X61607483Y-127545908D01*
X61554165Y-127540176D01*
X61489614Y-127513438D01*
X61449766Y-127456045D01*
X61447273Y-127386220D01*
X61482926Y-127326131D01*
X61494537Y-127316568D01*
X61597215Y-127241969D01*
X61597215Y-127241968D01*
X61597219Y-127241966D01*
X61741966Y-127097219D01*
X61741968Y-127097215D01*
X61741971Y-127097213D01*
X61794732Y-127024590D01*
X61862287Y-126931610D01*
X61955220Y-126749219D01*
X62018477Y-126554534D01*
X62050500Y-126352352D01*
X62050500Y-126147648D01*
X62018477Y-125945466D01*
X61955220Y-125750781D01*
X61955218Y-125750778D01*
X61955218Y-125750776D01*
X61921503Y-125684607D01*
X61862287Y-125568390D01*
X61854556Y-125557749D01*
X61741971Y-125402786D01*
X61597213Y-125258028D01*
X61431613Y-125137715D01*
X61431612Y-125137714D01*
X61431610Y-125137713D01*
X61374653Y-125108691D01*
X61249223Y-125044781D01*
X61054534Y-124981522D01*
X60879995Y-124953878D01*
X60852352Y-124949500D01*
X60647648Y-124949500D01*
X60623329Y-124953351D01*
X60445465Y-124981522D01*
X60250776Y-125044781D01*
X60068386Y-125137715D01*
X59902786Y-125258028D01*
X59758028Y-125402786D01*
X59637715Y-125568386D01*
X59544781Y-125750776D01*
X59481522Y-125945465D01*
X59449500Y-126147648D01*
X55750500Y-126147648D01*
X55750500Y-109853713D01*
X81509500Y-109853713D01*
X81509500Y-110066286D01*
X81542753Y-110276239D01*
X81608444Y-110478414D01*
X81704951Y-110667820D01*
X81829890Y-110839786D01*
X81980213Y-110990109D01*
X82152182Y-111115050D01*
X82160946Y-111119516D01*
X82211742Y-111167491D01*
X82228536Y-111235312D01*
X82205998Y-111301447D01*
X82160946Y-111340484D01*
X82152182Y-111344949D01*
X81980213Y-111469890D01*
X81829890Y-111620213D01*
X81704951Y-111792179D01*
X81608444Y-111981585D01*
X81542753Y-112183760D01*
X81509500Y-112393713D01*
X81509500Y-112606286D01*
X81542753Y-112816239D01*
X81608444Y-113018414D01*
X81704951Y-113207820D01*
X81829890Y-113379786D01*
X81980213Y-113530109D01*
X82152179Y-113655048D01*
X82152181Y-113655049D01*
X82152184Y-113655051D01*
X82341588Y-113751557D01*
X82543757Y-113817246D01*
X82753713Y-113850500D01*
X82753714Y-113850500D01*
X82966286Y-113850500D01*
X82966287Y-113850500D01*
X83176243Y-113817246D01*
X83378412Y-113751557D01*
X83567816Y-113655051D01*
X83589789Y-113639086D01*
X83739786Y-113530109D01*
X83739788Y-113530106D01*
X83739792Y-113530104D01*
X83890104Y-113379792D01*
X83890106Y-113379788D01*
X83890109Y-113379786D01*
X84015048Y-113207820D01*
X84015047Y-113207820D01*
X84015051Y-113207816D01*
X84019514Y-113199054D01*
X84067488Y-113148259D01*
X84135308Y-113131463D01*
X84201444Y-113153999D01*
X84240486Y-113199056D01*
X84244951Y-113207820D01*
X84369890Y-113379786D01*
X84520213Y-113530109D01*
X84692179Y-113655048D01*
X84692181Y-113655049D01*
X84692184Y-113655051D01*
X84881588Y-113751557D01*
X85083757Y-113817246D01*
X85293713Y-113850500D01*
X85293714Y-113850500D01*
X85506286Y-113850500D01*
X85506287Y-113850500D01*
X85716243Y-113817246D01*
X85918412Y-113751557D01*
X86107816Y-113655051D01*
X86129789Y-113639086D01*
X86279786Y-113530109D01*
X86279788Y-113530106D01*
X86279792Y-113530104D01*
X86430104Y-113379792D01*
X86430106Y-113379788D01*
X86430109Y-113379786D01*
X86555048Y-113207820D01*
X86555047Y-113207820D01*
X86555051Y-113207816D01*
X86559514Y-113199054D01*
X86607488Y-113148259D01*
X86675308Y-113131463D01*
X86741444Y-113153999D01*
X86780486Y-113199056D01*
X86784951Y-113207820D01*
X86909890Y-113379786D01*
X87060213Y-113530109D01*
X87232179Y-113655048D01*
X87232181Y-113655049D01*
X87232184Y-113655051D01*
X87421588Y-113751557D01*
X87623757Y-113817246D01*
X87833713Y-113850500D01*
X87833714Y-113850500D01*
X88046286Y-113850500D01*
X88046287Y-113850500D01*
X88256243Y-113817246D01*
X88458412Y-113751557D01*
X88647816Y-113655051D01*
X88669789Y-113639086D01*
X88819786Y-113530109D01*
X88819788Y-113530106D01*
X88819792Y-113530104D01*
X88970104Y-113379792D01*
X88970106Y-113379788D01*
X88970109Y-113379786D01*
X89095048Y-113207820D01*
X89095047Y-113207820D01*
X89095051Y-113207816D01*
X89099514Y-113199054D01*
X89147488Y-113148259D01*
X89215308Y-113131463D01*
X89281444Y-113153999D01*
X89320486Y-113199056D01*
X89324951Y-113207820D01*
X89449890Y-113379786D01*
X89600213Y-113530109D01*
X89772179Y-113655048D01*
X89772181Y-113655049D01*
X89772184Y-113655051D01*
X89961588Y-113751557D01*
X90163757Y-113817246D01*
X90373713Y-113850500D01*
X90373714Y-113850500D01*
X90586286Y-113850500D01*
X90586287Y-113850500D01*
X90796243Y-113817246D01*
X90998412Y-113751557D01*
X91187816Y-113655051D01*
X91209789Y-113639086D01*
X91359786Y-113530109D01*
X91359788Y-113530106D01*
X91359792Y-113530104D01*
X91510104Y-113379792D01*
X91510106Y-113379788D01*
X91510109Y-113379786D01*
X91635048Y-113207820D01*
X91635047Y-113207820D01*
X91635051Y-113207816D01*
X91639514Y-113199054D01*
X91687488Y-113148259D01*
X91755308Y-113131463D01*
X91821444Y-113153999D01*
X91860486Y-113199056D01*
X91864951Y-113207820D01*
X91989890Y-113379786D01*
X92140213Y-113530109D01*
X92312179Y-113655048D01*
X92312181Y-113655049D01*
X92312184Y-113655051D01*
X92501588Y-113751557D01*
X92703757Y-113817246D01*
X92913713Y-113850500D01*
X92913714Y-113850500D01*
X93126286Y-113850500D01*
X93126287Y-113850500D01*
X93336243Y-113817246D01*
X93538412Y-113751557D01*
X93727816Y-113655051D01*
X93749789Y-113639086D01*
X93899786Y-113530109D01*
X93899788Y-113530106D01*
X93899792Y-113530104D01*
X94050104Y-113379792D01*
X94050106Y-113379788D01*
X94050109Y-113379786D01*
X94175048Y-113207820D01*
X94175047Y-113207820D01*
X94175051Y-113207816D01*
X94179514Y-113199054D01*
X94227488Y-113148259D01*
X94295308Y-113131463D01*
X94361444Y-113153999D01*
X94400486Y-113199056D01*
X94404951Y-113207820D01*
X94529890Y-113379786D01*
X94680213Y-113530109D01*
X94852179Y-113655048D01*
X94852181Y-113655049D01*
X94852184Y-113655051D01*
X95041588Y-113751557D01*
X95243757Y-113817246D01*
X95453713Y-113850500D01*
X95453714Y-113850500D01*
X95666286Y-113850500D01*
X95666287Y-113850500D01*
X95876243Y-113817246D01*
X96078412Y-113751557D01*
X96267816Y-113655051D01*
X96289789Y-113639086D01*
X96439786Y-113530109D01*
X96439788Y-113530106D01*
X96439792Y-113530104D01*
X96590104Y-113379792D01*
X96590106Y-113379788D01*
X96590109Y-113379786D01*
X96715048Y-113207820D01*
X96715047Y-113207820D01*
X96715051Y-113207816D01*
X96719514Y-113199054D01*
X96767488Y-113148259D01*
X96835308Y-113131463D01*
X96901444Y-113153999D01*
X96940486Y-113199056D01*
X96944951Y-113207820D01*
X97069890Y-113379786D01*
X97220213Y-113530109D01*
X97392179Y-113655048D01*
X97392181Y-113655049D01*
X97392184Y-113655051D01*
X97581588Y-113751557D01*
X97783757Y-113817246D01*
X97993713Y-113850500D01*
X97993714Y-113850500D01*
X98206286Y-113850500D01*
X98206287Y-113850500D01*
X98416243Y-113817246D01*
X98618412Y-113751557D01*
X98807816Y-113655051D01*
X98829789Y-113639086D01*
X98979786Y-113530109D01*
X98979788Y-113530106D01*
X98979792Y-113530104D01*
X99130104Y-113379792D01*
X99130106Y-113379788D01*
X99130109Y-113379786D01*
X99255048Y-113207820D01*
X99255047Y-113207820D01*
X99255051Y-113207816D01*
X99259514Y-113199054D01*
X99307488Y-113148259D01*
X99375308Y-113131463D01*
X99441444Y-113153999D01*
X99480486Y-113199056D01*
X99484951Y-113207820D01*
X99609890Y-113379786D01*
X99760213Y-113530109D01*
X99932179Y-113655048D01*
X99932181Y-113655049D01*
X99932184Y-113655051D01*
X100121588Y-113751557D01*
X100323757Y-113817246D01*
X100533713Y-113850500D01*
X100533714Y-113850500D01*
X100746286Y-113850500D01*
X100746287Y-113850500D01*
X100956243Y-113817246D01*
X101158412Y-113751557D01*
X101347816Y-113655051D01*
X101369789Y-113639086D01*
X101519786Y-113530109D01*
X101519788Y-113530106D01*
X101519792Y-113530104D01*
X101670104Y-113379792D01*
X101670106Y-113379788D01*
X101670109Y-113379786D01*
X101795048Y-113207820D01*
X101795047Y-113207820D01*
X101795051Y-113207816D01*
X101799514Y-113199054D01*
X101847488Y-113148259D01*
X101915308Y-113131463D01*
X101981444Y-113153999D01*
X102020486Y-113199056D01*
X102024951Y-113207820D01*
X102149890Y-113379786D01*
X102300213Y-113530109D01*
X102472179Y-113655048D01*
X102472181Y-113655049D01*
X102472184Y-113655051D01*
X102661588Y-113751557D01*
X102863757Y-113817246D01*
X103073713Y-113850500D01*
X103073714Y-113850500D01*
X103286286Y-113850500D01*
X103286287Y-113850500D01*
X103496243Y-113817246D01*
X103698412Y-113751557D01*
X103887816Y-113655051D01*
X103909789Y-113639086D01*
X104059786Y-113530109D01*
X104059788Y-113530106D01*
X104059792Y-113530104D01*
X104210104Y-113379792D01*
X104210106Y-113379788D01*
X104210109Y-113379786D01*
X104335048Y-113207820D01*
X104335047Y-113207820D01*
X104335051Y-113207816D01*
X104339514Y-113199054D01*
X104387488Y-113148259D01*
X104455308Y-113131463D01*
X104521444Y-113153999D01*
X104560486Y-113199056D01*
X104564951Y-113207820D01*
X104689890Y-113379786D01*
X104840213Y-113530109D01*
X105012179Y-113655048D01*
X105012181Y-113655049D01*
X105012184Y-113655051D01*
X105201588Y-113751557D01*
X105403757Y-113817246D01*
X105613713Y-113850500D01*
X105613714Y-113850500D01*
X105826286Y-113850500D01*
X105826287Y-113850500D01*
X106036243Y-113817246D01*
X106238412Y-113751557D01*
X106427816Y-113655051D01*
X106449789Y-113639086D01*
X106599786Y-113530109D01*
X106599788Y-113530106D01*
X106599792Y-113530104D01*
X106750104Y-113379792D01*
X106750106Y-113379788D01*
X106750109Y-113379786D01*
X106875048Y-113207820D01*
X106875047Y-113207820D01*
X106875051Y-113207816D01*
X106879514Y-113199054D01*
X106927488Y-113148259D01*
X106995308Y-113131463D01*
X107061444Y-113153999D01*
X107100486Y-113199056D01*
X107104951Y-113207820D01*
X107229890Y-113379786D01*
X107380213Y-113530109D01*
X107552179Y-113655048D01*
X107552181Y-113655049D01*
X107552184Y-113655051D01*
X107741588Y-113751557D01*
X107943757Y-113817246D01*
X108153713Y-113850500D01*
X108153714Y-113850500D01*
X108366286Y-113850500D01*
X108366287Y-113850500D01*
X108576243Y-113817246D01*
X108778412Y-113751557D01*
X108967816Y-113655051D01*
X108989789Y-113639086D01*
X109139786Y-113530109D01*
X109139788Y-113530106D01*
X109139792Y-113530104D01*
X109290104Y-113379792D01*
X109290106Y-113379788D01*
X109290109Y-113379786D01*
X109415048Y-113207820D01*
X109415047Y-113207820D01*
X109415051Y-113207816D01*
X109419514Y-113199054D01*
X109467488Y-113148259D01*
X109535308Y-113131463D01*
X109601444Y-113153999D01*
X109640486Y-113199056D01*
X109644951Y-113207820D01*
X109769890Y-113379786D01*
X109920213Y-113530109D01*
X110092179Y-113655048D01*
X110092181Y-113655049D01*
X110092184Y-113655051D01*
X110281588Y-113751557D01*
X110483757Y-113817246D01*
X110693713Y-113850500D01*
X110693714Y-113850500D01*
X110906286Y-113850500D01*
X110906287Y-113850500D01*
X111116243Y-113817246D01*
X111318412Y-113751557D01*
X111507816Y-113655051D01*
X111529789Y-113639086D01*
X111679786Y-113530109D01*
X111679788Y-113530106D01*
X111679792Y-113530104D01*
X111830104Y-113379792D01*
X111830106Y-113379788D01*
X111830109Y-113379786D01*
X111955048Y-113207820D01*
X111955047Y-113207820D01*
X111955051Y-113207816D01*
X111959514Y-113199054D01*
X112007488Y-113148259D01*
X112075308Y-113131463D01*
X112141444Y-113153999D01*
X112180486Y-113199056D01*
X112184951Y-113207820D01*
X112309890Y-113379786D01*
X112460213Y-113530109D01*
X112632179Y-113655048D01*
X112632181Y-113655049D01*
X112632184Y-113655051D01*
X112821588Y-113751557D01*
X113023757Y-113817246D01*
X113233713Y-113850500D01*
X113233714Y-113850500D01*
X113446286Y-113850500D01*
X113446287Y-113850500D01*
X113656243Y-113817246D01*
X113858412Y-113751557D01*
X114047816Y-113655051D01*
X114069789Y-113639086D01*
X114219786Y-113530109D01*
X114219788Y-113530106D01*
X114219792Y-113530104D01*
X114370104Y-113379792D01*
X114370106Y-113379788D01*
X114370109Y-113379786D01*
X114495048Y-113207820D01*
X114495047Y-113207820D01*
X114495051Y-113207816D01*
X114499514Y-113199054D01*
X114547488Y-113148259D01*
X114615308Y-113131463D01*
X114681444Y-113153999D01*
X114720486Y-113199056D01*
X114724951Y-113207820D01*
X114849890Y-113379786D01*
X115000213Y-113530109D01*
X115172179Y-113655048D01*
X115172181Y-113655049D01*
X115172184Y-113655051D01*
X115361588Y-113751557D01*
X115563757Y-113817246D01*
X115773713Y-113850500D01*
X115773714Y-113850500D01*
X115986286Y-113850500D01*
X115986287Y-113850500D01*
X116196243Y-113817246D01*
X116398412Y-113751557D01*
X116587816Y-113655051D01*
X116609789Y-113639086D01*
X116759786Y-113530109D01*
X116759788Y-113530106D01*
X116759792Y-113530104D01*
X116910104Y-113379792D01*
X116910106Y-113379788D01*
X116910109Y-113379786D01*
X117035048Y-113207820D01*
X117035047Y-113207820D01*
X117035051Y-113207816D01*
X117039514Y-113199054D01*
X117087488Y-113148259D01*
X117155308Y-113131463D01*
X117221444Y-113153999D01*
X117260486Y-113199056D01*
X117264951Y-113207820D01*
X117389890Y-113379786D01*
X117540213Y-113530109D01*
X117712179Y-113655048D01*
X117712181Y-113655049D01*
X117712184Y-113655051D01*
X117901588Y-113751557D01*
X118103757Y-113817246D01*
X118313713Y-113850500D01*
X118313714Y-113850500D01*
X118526286Y-113850500D01*
X118526287Y-113850500D01*
X118736243Y-113817246D01*
X118938412Y-113751557D01*
X119127816Y-113655051D01*
X119149789Y-113639086D01*
X119299786Y-113530109D01*
X119299788Y-113530106D01*
X119299792Y-113530104D01*
X119450104Y-113379792D01*
X119450106Y-113379788D01*
X119450109Y-113379786D01*
X119575048Y-113207820D01*
X119575047Y-113207820D01*
X119575051Y-113207816D01*
X119579514Y-113199054D01*
X119627488Y-113148259D01*
X119695308Y-113131463D01*
X119761444Y-113153999D01*
X119800486Y-113199056D01*
X119804951Y-113207820D01*
X119929890Y-113379786D01*
X120080213Y-113530109D01*
X120252179Y-113655048D01*
X120252181Y-113655049D01*
X120252184Y-113655051D01*
X120441588Y-113751557D01*
X120643757Y-113817246D01*
X120853713Y-113850500D01*
X120853714Y-113850500D01*
X121066286Y-113850500D01*
X121066287Y-113850500D01*
X121276243Y-113817246D01*
X121478412Y-113751557D01*
X121667816Y-113655051D01*
X121689789Y-113639086D01*
X121839786Y-113530109D01*
X121839788Y-113530106D01*
X121839792Y-113530104D01*
X121990104Y-113379792D01*
X121990106Y-113379788D01*
X121990109Y-113379786D01*
X122115048Y-113207820D01*
X122115047Y-113207820D01*
X122115051Y-113207816D01*
X122119514Y-113199054D01*
X122167488Y-113148259D01*
X122235308Y-113131463D01*
X122301444Y-113153999D01*
X122340486Y-113199056D01*
X122344951Y-113207820D01*
X122469890Y-113379786D01*
X122620213Y-113530109D01*
X122792179Y-113655048D01*
X122792181Y-113655049D01*
X122792184Y-113655051D01*
X122981588Y-113751557D01*
X123183757Y-113817246D01*
X123393713Y-113850500D01*
X123393714Y-113850500D01*
X123606286Y-113850500D01*
X123606287Y-113850500D01*
X123816243Y-113817246D01*
X124018412Y-113751557D01*
X124207816Y-113655051D01*
X124229789Y-113639086D01*
X124379786Y-113530109D01*
X124379788Y-113530106D01*
X124379792Y-113530104D01*
X124530104Y-113379792D01*
X124530106Y-113379788D01*
X124530109Y-113379786D01*
X124655048Y-113207820D01*
X124655047Y-113207820D01*
X124655051Y-113207816D01*
X124659514Y-113199054D01*
X124707488Y-113148259D01*
X124775308Y-113131463D01*
X124841444Y-113153999D01*
X124880486Y-113199056D01*
X124884951Y-113207820D01*
X125009890Y-113379786D01*
X125160213Y-113530109D01*
X125332179Y-113655048D01*
X125332181Y-113655049D01*
X125332184Y-113655051D01*
X125521588Y-113751557D01*
X125723757Y-113817246D01*
X125933713Y-113850500D01*
X125933714Y-113850500D01*
X126146286Y-113850500D01*
X126146287Y-113850500D01*
X126356243Y-113817246D01*
X126558412Y-113751557D01*
X126747816Y-113655051D01*
X126769789Y-113639086D01*
X126919786Y-113530109D01*
X126919788Y-113530106D01*
X126919792Y-113530104D01*
X127070104Y-113379792D01*
X127070106Y-113379788D01*
X127070109Y-113379786D01*
X127195048Y-113207820D01*
X127195047Y-113207820D01*
X127195051Y-113207816D01*
X127199514Y-113199054D01*
X127247488Y-113148259D01*
X127315308Y-113131463D01*
X127381444Y-113153999D01*
X127420486Y-113199056D01*
X127424951Y-113207820D01*
X127549890Y-113379786D01*
X127700213Y-113530109D01*
X127872179Y-113655048D01*
X127872181Y-113655049D01*
X127872184Y-113655051D01*
X128061588Y-113751557D01*
X128263757Y-113817246D01*
X128473713Y-113850500D01*
X128473714Y-113850500D01*
X128686286Y-113850500D01*
X128686287Y-113850500D01*
X128896243Y-113817246D01*
X129098412Y-113751557D01*
X129287816Y-113655051D01*
X129309789Y-113639086D01*
X129459786Y-113530109D01*
X129459788Y-113530106D01*
X129459792Y-113530104D01*
X129610104Y-113379792D01*
X129610106Y-113379788D01*
X129610109Y-113379786D01*
X129735048Y-113207820D01*
X129735047Y-113207820D01*
X129735051Y-113207816D01*
X129739514Y-113199054D01*
X129787488Y-113148259D01*
X129855308Y-113131463D01*
X129921444Y-113153999D01*
X129960486Y-113199056D01*
X129964951Y-113207820D01*
X130089890Y-113379786D01*
X130240213Y-113530109D01*
X130412179Y-113655048D01*
X130412181Y-113655049D01*
X130412184Y-113655051D01*
X130601588Y-113751557D01*
X130803757Y-113817246D01*
X131013713Y-113850500D01*
X131013714Y-113850500D01*
X131226286Y-113850500D01*
X131226287Y-113850500D01*
X131436243Y-113817246D01*
X131638412Y-113751557D01*
X131827816Y-113655051D01*
X131849789Y-113639086D01*
X131999786Y-113530109D01*
X131999788Y-113530106D01*
X131999792Y-113530104D01*
X132150104Y-113379792D01*
X132150106Y-113379788D01*
X132150109Y-113379786D01*
X132275048Y-113207820D01*
X132275047Y-113207820D01*
X132275051Y-113207816D01*
X132371557Y-113018412D01*
X132437246Y-112816243D01*
X132470500Y-112606287D01*
X132470500Y-112393713D01*
X132437246Y-112183757D01*
X132371557Y-111981588D01*
X132275051Y-111792184D01*
X132275049Y-111792181D01*
X132275048Y-111792179D01*
X132150109Y-111620213D01*
X132036181Y-111506285D01*
X132002696Y-111444962D01*
X132007680Y-111375270D01*
X132049552Y-111319337D01*
X132080529Y-111302422D01*
X132212086Y-111253354D01*
X132212093Y-111253350D01*
X132327187Y-111167190D01*
X132327190Y-111167187D01*
X132413350Y-111052093D01*
X132413354Y-111052086D01*
X132463596Y-110917379D01*
X132463598Y-110917372D01*
X132469999Y-110857844D01*
X132470000Y-110857827D01*
X132470000Y-110210000D01*
X131553012Y-110210000D01*
X131585925Y-110152993D01*
X131620000Y-110025826D01*
X131620000Y-109894174D01*
X131585925Y-109767007D01*
X131553012Y-109710000D01*
X132470000Y-109710000D01*
X132470000Y-109062172D01*
X132469999Y-109062155D01*
X132463598Y-109002627D01*
X132463596Y-109002620D01*
X132413354Y-108867913D01*
X132413350Y-108867906D01*
X132327190Y-108752812D01*
X132327187Y-108752809D01*
X132212093Y-108666649D01*
X132212086Y-108666645D01*
X132077379Y-108616403D01*
X132077372Y-108616401D01*
X132017844Y-108610000D01*
X131370000Y-108610000D01*
X131370000Y-109526988D01*
X131312993Y-109494075D01*
X131185826Y-109460000D01*
X131054174Y-109460000D01*
X130927007Y-109494075D01*
X130870000Y-109526988D01*
X130870000Y-108610000D01*
X130222155Y-108610000D01*
X130162627Y-108616401D01*
X130162620Y-108616403D01*
X130027913Y-108666645D01*
X130027906Y-108666649D01*
X129912812Y-108752809D01*
X129912809Y-108752812D01*
X129826649Y-108867906D01*
X129826646Y-108867912D01*
X129777577Y-108999471D01*
X129735705Y-109055404D01*
X129670241Y-109079821D01*
X129601968Y-109064969D01*
X129573714Y-109043818D01*
X129459786Y-108929890D01*
X129287820Y-108804951D01*
X129098414Y-108708444D01*
X129098413Y-108708443D01*
X129098412Y-108708443D01*
X128896243Y-108642754D01*
X128896241Y-108642753D01*
X128896240Y-108642753D01*
X128734957Y-108617208D01*
X128686287Y-108609500D01*
X128473713Y-108609500D01*
X128425042Y-108617208D01*
X128263760Y-108642753D01*
X128061585Y-108708444D01*
X127872179Y-108804951D01*
X127700213Y-108929890D01*
X127549890Y-109080213D01*
X127424949Y-109252182D01*
X127420484Y-109260946D01*
X127372509Y-109311742D01*
X127304688Y-109328536D01*
X127238553Y-109305998D01*
X127199516Y-109260946D01*
X127195050Y-109252182D01*
X127070109Y-109080213D01*
X126919786Y-108929890D01*
X126747820Y-108804951D01*
X126558414Y-108708444D01*
X126558413Y-108708443D01*
X126558412Y-108708443D01*
X126356243Y-108642754D01*
X126356241Y-108642753D01*
X126356240Y-108642753D01*
X126194957Y-108617208D01*
X126146287Y-108609500D01*
X125933713Y-108609500D01*
X125885042Y-108617208D01*
X125723760Y-108642753D01*
X125521585Y-108708444D01*
X125332179Y-108804951D01*
X125160213Y-108929890D01*
X125009890Y-109080213D01*
X124884949Y-109252182D01*
X124880484Y-109260946D01*
X124832509Y-109311742D01*
X124764688Y-109328536D01*
X124698553Y-109305998D01*
X124659516Y-109260946D01*
X124655050Y-109252182D01*
X124530109Y-109080213D01*
X124379786Y-108929890D01*
X124207820Y-108804951D01*
X124018414Y-108708444D01*
X124018413Y-108708443D01*
X124018412Y-108708443D01*
X123816243Y-108642754D01*
X123816241Y-108642753D01*
X123816240Y-108642753D01*
X123654957Y-108617208D01*
X123606287Y-108609500D01*
X123393713Y-108609500D01*
X123345042Y-108617208D01*
X123183760Y-108642753D01*
X122981585Y-108708444D01*
X122792179Y-108804951D01*
X122620213Y-108929890D01*
X122469890Y-109080213D01*
X122344949Y-109252182D01*
X122340484Y-109260946D01*
X122292509Y-109311742D01*
X122224688Y-109328536D01*
X122158553Y-109305998D01*
X122119516Y-109260946D01*
X122115050Y-109252182D01*
X121990109Y-109080213D01*
X121839786Y-108929890D01*
X121667820Y-108804951D01*
X121478414Y-108708444D01*
X121478413Y-108708443D01*
X121478412Y-108708443D01*
X121276243Y-108642754D01*
X121276241Y-108642753D01*
X121276240Y-108642753D01*
X121114957Y-108617208D01*
X121066287Y-108609500D01*
X120853713Y-108609500D01*
X120805042Y-108617208D01*
X120643760Y-108642753D01*
X120441585Y-108708444D01*
X120252179Y-108804951D01*
X120080213Y-108929890D01*
X119929890Y-109080213D01*
X119804949Y-109252182D01*
X119800484Y-109260946D01*
X119752509Y-109311742D01*
X119684688Y-109328536D01*
X119618553Y-109305998D01*
X119579516Y-109260946D01*
X119575050Y-109252182D01*
X119450109Y-109080213D01*
X119299786Y-108929890D01*
X119127820Y-108804951D01*
X118938414Y-108708444D01*
X118938413Y-108708443D01*
X118938412Y-108708443D01*
X118736243Y-108642754D01*
X118736241Y-108642753D01*
X118736240Y-108642753D01*
X118574957Y-108617208D01*
X118526287Y-108609500D01*
X118313713Y-108609500D01*
X118265042Y-108617208D01*
X118103760Y-108642753D01*
X117901585Y-108708444D01*
X117712179Y-108804951D01*
X117540213Y-108929890D01*
X117389890Y-109080213D01*
X117264949Y-109252182D01*
X117260484Y-109260946D01*
X117212509Y-109311742D01*
X117144688Y-109328536D01*
X117078553Y-109305998D01*
X117039516Y-109260946D01*
X117035050Y-109252182D01*
X116910109Y-109080213D01*
X116759786Y-108929890D01*
X116587820Y-108804951D01*
X116398414Y-108708444D01*
X116398413Y-108708443D01*
X116398412Y-108708443D01*
X116196243Y-108642754D01*
X116196241Y-108642753D01*
X116196240Y-108642753D01*
X116034957Y-108617208D01*
X115986287Y-108609500D01*
X115773713Y-108609500D01*
X115725042Y-108617208D01*
X115563760Y-108642753D01*
X115361585Y-108708444D01*
X115172179Y-108804951D01*
X115000213Y-108929890D01*
X114849890Y-109080213D01*
X114724949Y-109252182D01*
X114720484Y-109260946D01*
X114672509Y-109311742D01*
X114604688Y-109328536D01*
X114538553Y-109305998D01*
X114499516Y-109260946D01*
X114495050Y-109252182D01*
X114370109Y-109080213D01*
X114219786Y-108929890D01*
X114047820Y-108804951D01*
X113858414Y-108708444D01*
X113858413Y-108708443D01*
X113858412Y-108708443D01*
X113656243Y-108642754D01*
X113656241Y-108642753D01*
X113656240Y-108642753D01*
X113494957Y-108617208D01*
X113446287Y-108609500D01*
X113233713Y-108609500D01*
X113185042Y-108617208D01*
X113023760Y-108642753D01*
X112821585Y-108708444D01*
X112632179Y-108804951D01*
X112460213Y-108929890D01*
X112309890Y-109080213D01*
X112184949Y-109252182D01*
X112180202Y-109261499D01*
X112132227Y-109312293D01*
X112064405Y-109329087D01*
X111998271Y-109306548D01*
X111959234Y-109261495D01*
X111954626Y-109252452D01*
X111915270Y-109198282D01*
X111915269Y-109198282D01*
X111282962Y-109830590D01*
X111265925Y-109767007D01*
X111200099Y-109652993D01*
X111107007Y-109559901D01*
X110992993Y-109494075D01*
X110929409Y-109477037D01*
X111561716Y-108844728D01*
X111507550Y-108805375D01*
X111318217Y-108708904D01*
X111116129Y-108643242D01*
X110906246Y-108610000D01*
X110693754Y-108610000D01*
X110483872Y-108643242D01*
X110483869Y-108643242D01*
X110281782Y-108708904D01*
X110092439Y-108805380D01*
X110038282Y-108844727D01*
X110038282Y-108844728D01*
X110670591Y-109477037D01*
X110607007Y-109494075D01*
X110492993Y-109559901D01*
X110399901Y-109652993D01*
X110334075Y-109767007D01*
X110317037Y-109830591D01*
X109684728Y-109198282D01*
X109684727Y-109198282D01*
X109645380Y-109252440D01*
X109645376Y-109252446D01*
X109640760Y-109261505D01*
X109592781Y-109312297D01*
X109524959Y-109329087D01*
X109458826Y-109306543D01*
X109419794Y-109261493D01*
X109415051Y-109252184D01*
X109415049Y-109252181D01*
X109415048Y-109252179D01*
X109290109Y-109080213D01*
X109139786Y-108929890D01*
X108967820Y-108804951D01*
X108778414Y-108708444D01*
X108778413Y-108708443D01*
X108778412Y-108708443D01*
X108576243Y-108642754D01*
X108576241Y-108642753D01*
X108576240Y-108642753D01*
X108414957Y-108617208D01*
X108366287Y-108609500D01*
X108153713Y-108609500D01*
X108105042Y-108617208D01*
X107943760Y-108642753D01*
X107741585Y-108708444D01*
X107552179Y-108804951D01*
X107380213Y-108929890D01*
X107229890Y-109080213D01*
X107104949Y-109252182D01*
X107100484Y-109260946D01*
X107052509Y-109311742D01*
X106984688Y-109328536D01*
X106918553Y-109305998D01*
X106879516Y-109260946D01*
X106875050Y-109252182D01*
X106750109Y-109080213D01*
X106599786Y-108929890D01*
X106427820Y-108804951D01*
X106238414Y-108708444D01*
X106238413Y-108708443D01*
X106238412Y-108708443D01*
X106036243Y-108642754D01*
X106036241Y-108642753D01*
X106036240Y-108642753D01*
X105874957Y-108617208D01*
X105826287Y-108609500D01*
X105613713Y-108609500D01*
X105565042Y-108617208D01*
X105403760Y-108642753D01*
X105201585Y-108708444D01*
X105012179Y-108804951D01*
X104840213Y-108929890D01*
X104689890Y-109080213D01*
X104564949Y-109252182D01*
X104560484Y-109260946D01*
X104512509Y-109311742D01*
X104444688Y-109328536D01*
X104378553Y-109305998D01*
X104339516Y-109260946D01*
X104335050Y-109252182D01*
X104210109Y-109080213D01*
X104059786Y-108929890D01*
X103887820Y-108804951D01*
X103698414Y-108708444D01*
X103698413Y-108708443D01*
X103698412Y-108708443D01*
X103496243Y-108642754D01*
X103496241Y-108642753D01*
X103496240Y-108642753D01*
X103334957Y-108617208D01*
X103286287Y-108609500D01*
X103073713Y-108609500D01*
X103025042Y-108617208D01*
X102863760Y-108642753D01*
X102661585Y-108708444D01*
X102472179Y-108804951D01*
X102300213Y-108929890D01*
X102149890Y-109080213D01*
X102024949Y-109252182D01*
X102020484Y-109260946D01*
X101972509Y-109311742D01*
X101904688Y-109328536D01*
X101838553Y-109305998D01*
X101799516Y-109260946D01*
X101795050Y-109252182D01*
X101670109Y-109080213D01*
X101519786Y-108929890D01*
X101347820Y-108804951D01*
X101158414Y-108708444D01*
X101158413Y-108708443D01*
X101158412Y-108708443D01*
X100956243Y-108642754D01*
X100956241Y-108642753D01*
X100956240Y-108642753D01*
X100794957Y-108617208D01*
X100746287Y-108609500D01*
X100533713Y-108609500D01*
X100485042Y-108617208D01*
X100323760Y-108642753D01*
X100121585Y-108708444D01*
X99932179Y-108804951D01*
X99760213Y-108929890D01*
X99609890Y-109080213D01*
X99484949Y-109252182D01*
X99480484Y-109260946D01*
X99432509Y-109311742D01*
X99364688Y-109328536D01*
X99298553Y-109305998D01*
X99259516Y-109260946D01*
X99255050Y-109252182D01*
X99130109Y-109080213D01*
X98979786Y-108929890D01*
X98807820Y-108804951D01*
X98618414Y-108708444D01*
X98618413Y-108708443D01*
X98618412Y-108708443D01*
X98416243Y-108642754D01*
X98416241Y-108642753D01*
X98416240Y-108642753D01*
X98254957Y-108617208D01*
X98206287Y-108609500D01*
X97993713Y-108609500D01*
X97945042Y-108617208D01*
X97783760Y-108642753D01*
X97581585Y-108708444D01*
X97392179Y-108804951D01*
X97220213Y-108929890D01*
X97069890Y-109080213D01*
X96944949Y-109252182D01*
X96940484Y-109260946D01*
X96892509Y-109311742D01*
X96824688Y-109328536D01*
X96758553Y-109305998D01*
X96719516Y-109260946D01*
X96715050Y-109252182D01*
X96590109Y-109080213D01*
X96439786Y-108929890D01*
X96267820Y-108804951D01*
X96078414Y-108708444D01*
X96078413Y-108708443D01*
X96078412Y-108708443D01*
X95876243Y-108642754D01*
X95876241Y-108642753D01*
X95876240Y-108642753D01*
X95714957Y-108617208D01*
X95666287Y-108609500D01*
X95453713Y-108609500D01*
X95405042Y-108617208D01*
X95243760Y-108642753D01*
X95041585Y-108708444D01*
X94852179Y-108804951D01*
X94680213Y-108929890D01*
X94529890Y-109080213D01*
X94404949Y-109252182D01*
X94400484Y-109260946D01*
X94352509Y-109311742D01*
X94284688Y-109328536D01*
X94218553Y-109305998D01*
X94179516Y-109260946D01*
X94175050Y-109252182D01*
X94050109Y-109080213D01*
X93899786Y-108929890D01*
X93727820Y-108804951D01*
X93538414Y-108708444D01*
X93538413Y-108708443D01*
X93538412Y-108708443D01*
X93336243Y-108642754D01*
X93336241Y-108642753D01*
X93336240Y-108642753D01*
X93174957Y-108617208D01*
X93126287Y-108609500D01*
X92913713Y-108609500D01*
X92865042Y-108617208D01*
X92703760Y-108642753D01*
X92501585Y-108708444D01*
X92312179Y-108804951D01*
X92140213Y-108929890D01*
X91989890Y-109080213D01*
X91864949Y-109252182D01*
X91860484Y-109260946D01*
X91812509Y-109311742D01*
X91744688Y-109328536D01*
X91678553Y-109305998D01*
X91639516Y-109260946D01*
X91635050Y-109252182D01*
X91510109Y-109080213D01*
X91359786Y-108929890D01*
X91187820Y-108804951D01*
X90998414Y-108708444D01*
X90998413Y-108708443D01*
X90998412Y-108708443D01*
X90796243Y-108642754D01*
X90796241Y-108642753D01*
X90796240Y-108642753D01*
X90634957Y-108617208D01*
X90586287Y-108609500D01*
X90373713Y-108609500D01*
X90325042Y-108617208D01*
X90163760Y-108642753D01*
X89961585Y-108708444D01*
X89772179Y-108804951D01*
X89600213Y-108929890D01*
X89449890Y-109080213D01*
X89324949Y-109252182D01*
X89320484Y-109260946D01*
X89272509Y-109311742D01*
X89204688Y-109328536D01*
X89138553Y-109305998D01*
X89099516Y-109260946D01*
X89095050Y-109252182D01*
X88970109Y-109080213D01*
X88819786Y-108929890D01*
X88647820Y-108804951D01*
X88458414Y-108708444D01*
X88458413Y-108708443D01*
X88458412Y-108708443D01*
X88256243Y-108642754D01*
X88256241Y-108642753D01*
X88256240Y-108642753D01*
X88094957Y-108617208D01*
X88046287Y-108609500D01*
X87833713Y-108609500D01*
X87785042Y-108617208D01*
X87623760Y-108642753D01*
X87421585Y-108708444D01*
X87232179Y-108804951D01*
X87060213Y-108929890D01*
X86909890Y-109080213D01*
X86784949Y-109252182D01*
X86780484Y-109260946D01*
X86732509Y-109311742D01*
X86664688Y-109328536D01*
X86598553Y-109305998D01*
X86559516Y-109260946D01*
X86555050Y-109252182D01*
X86430109Y-109080213D01*
X86279786Y-108929890D01*
X86107820Y-108804951D01*
X85918414Y-108708444D01*
X85918413Y-108708443D01*
X85918412Y-108708443D01*
X85716243Y-108642754D01*
X85716241Y-108642753D01*
X85716240Y-108642753D01*
X85554957Y-108617208D01*
X85506287Y-108609500D01*
X85293713Y-108609500D01*
X85245042Y-108617208D01*
X85083760Y-108642753D01*
X84881585Y-108708444D01*
X84692179Y-108804951D01*
X84520213Y-108929890D01*
X84369890Y-109080213D01*
X84244949Y-109252182D01*
X84240484Y-109260946D01*
X84192509Y-109311742D01*
X84124688Y-109328536D01*
X84058553Y-109305998D01*
X84019516Y-109260946D01*
X84015050Y-109252182D01*
X83890109Y-109080213D01*
X83739786Y-108929890D01*
X83567820Y-108804951D01*
X83378414Y-108708444D01*
X83378413Y-108708443D01*
X83378412Y-108708443D01*
X83176243Y-108642754D01*
X83176241Y-108642753D01*
X83176240Y-108642753D01*
X83014957Y-108617208D01*
X82966287Y-108609500D01*
X82753713Y-108609500D01*
X82705042Y-108617208D01*
X82543760Y-108642753D01*
X82341585Y-108708444D01*
X82152179Y-108804951D01*
X81980213Y-108929890D01*
X81829890Y-109080213D01*
X81704951Y-109252179D01*
X81608444Y-109441585D01*
X81542753Y-109643760D01*
X81509500Y-109853713D01*
X55750500Y-109853713D01*
X55750500Y-104624500D01*
X55770185Y-104557461D01*
X55822989Y-104511706D01*
X55874500Y-104500500D01*
X156125500Y-104500500D01*
X156192539Y-104520185D01*
G37*
G04 #@! TD.AperFunction*
M02*
